%TF.GenerationSoftware,KiCad,Pcbnew,5.1.9+dfsg1-1+deb11u1*%
%TF.CreationDate,2025-09-19T15:38:10+02:00*%
%TF.ProjectId,ESP32-BOBOARD-5V,45535033-322d-4424-9f42-4f4152442d35,PCB_V1.1*%
%TF.SameCoordinates,Original*%
%TF.FileFunction,Soldermask,Top*%
%TF.FilePolarity,Negative*%
%FSLAX46Y46*%
G04 Gerber Fmt 4.6, Leading zero omitted, Abs format (unit mm)*
G04 Created by KiCad (PCBNEW 5.1.9+dfsg1-1+deb11u1) date 2025-09-19 15:38:10*
%MOMM*%
%LPD*%
G01*
G04 APERTURE LIST*
%ADD10O,1.404000X2.604000*%
%ADD11O,1.362000X2.520000*%
%ADD12C,0.830000*%
%ADD13C,0.800000*%
%ADD14O,1.900000X1.900000*%
G04 APERTURE END LIST*
D10*
%TO.C,J5*%
X167980000Y-76000000D03*
X176620000Y-76000000D03*
D11*
X167980000Y-79825000D03*
X176620000Y-79825000D03*
D12*
X175300000Y-79100000D03*
G36*
G01*
X171502000Y-75000000D02*
X171502000Y-77000000D01*
G75*
G02*
X171400000Y-77102000I-102000J0D01*
G01*
X170400000Y-77102000D01*
G75*
G02*
X170298000Y-77000000I0J102000D01*
G01*
X170298000Y-75000000D01*
G75*
G02*
X170400000Y-74898000I102000J0D01*
G01*
X171400000Y-74898000D01*
G75*
G02*
X171502000Y-75000000I0J-102000D01*
G01*
G37*
G36*
G01*
X174302000Y-75000000D02*
X174302000Y-77000000D01*
G75*
G02*
X174200000Y-77102000I-102000J0D01*
G01*
X173200000Y-77102000D01*
G75*
G02*
X173098000Y-77000000I0J102000D01*
G01*
X173098000Y-75000000D01*
G75*
G02*
X173200000Y-74898000I102000J0D01*
G01*
X174200000Y-74898000D01*
G75*
G02*
X174302000Y-75000000I0J-102000D01*
G01*
G37*
X169300000Y-79100000D03*
D13*
X169300000Y-79100000D03*
G36*
G01*
X171287000Y-79700000D02*
X171287000Y-80700000D01*
G75*
G02*
X171185000Y-80802000I-102000J0D01*
G01*
X170915000Y-80802000D01*
G75*
G02*
X170813000Y-80700000I0J102000D01*
G01*
X170813000Y-79700000D01*
G75*
G02*
X170915000Y-79598000I102000J0D01*
G01*
X171185000Y-79598000D01*
G75*
G02*
X171287000Y-79700000I0J-102000D01*
G01*
G37*
G36*
G01*
X171787000Y-79700000D02*
X171787000Y-80700000D01*
G75*
G02*
X171685000Y-80802000I-102000J0D01*
G01*
X171415000Y-80802000D01*
G75*
G02*
X171313000Y-80700000I0J102000D01*
G01*
X171313000Y-79700000D01*
G75*
G02*
X171415000Y-79598000I102000J0D01*
G01*
X171685000Y-79598000D01*
G75*
G02*
X171787000Y-79700000I0J-102000D01*
G01*
G37*
G36*
G01*
X172287000Y-79700000D02*
X172287000Y-80700000D01*
G75*
G02*
X172185000Y-80802000I-102000J0D01*
G01*
X171915000Y-80802000D01*
G75*
G02*
X171813000Y-80700000I0J102000D01*
G01*
X171813000Y-79700000D01*
G75*
G02*
X171915000Y-79598000I102000J0D01*
G01*
X172185000Y-79598000D01*
G75*
G02*
X172287000Y-79700000I0J-102000D01*
G01*
G37*
G36*
G01*
X172787000Y-79700000D02*
X172787000Y-80700000D01*
G75*
G02*
X172685000Y-80802000I-102000J0D01*
G01*
X172415000Y-80802000D01*
G75*
G02*
X172313000Y-80700000I0J102000D01*
G01*
X172313000Y-79700000D01*
G75*
G02*
X172415000Y-79598000I102000J0D01*
G01*
X172685000Y-79598000D01*
G75*
G02*
X172787000Y-79700000I0J-102000D01*
G01*
G37*
G36*
G01*
X173287000Y-79700000D02*
X173287000Y-80700000D01*
G75*
G02*
X173185000Y-80802000I-102000J0D01*
G01*
X172915000Y-80802000D01*
G75*
G02*
X172813000Y-80700000I0J102000D01*
G01*
X172813000Y-79700000D01*
G75*
G02*
X172915000Y-79598000I102000J0D01*
G01*
X173185000Y-79598000D01*
G75*
G02*
X173287000Y-79700000I0J-102000D01*
G01*
G37*
G36*
G01*
X173787000Y-79700000D02*
X173787000Y-80700000D01*
G75*
G02*
X173685000Y-80802000I-102000J0D01*
G01*
X173415000Y-80802000D01*
G75*
G02*
X173313000Y-80700000I0J102000D01*
G01*
X173313000Y-79700000D01*
G75*
G02*
X173415000Y-79598000I102000J0D01*
G01*
X173685000Y-79598000D01*
G75*
G02*
X173787000Y-79700000I0J-102000D01*
G01*
G37*
G36*
G01*
X170787000Y-79700000D02*
X170787000Y-80700000D01*
G75*
G02*
X170685000Y-80802000I-102000J0D01*
G01*
X170415000Y-80802000D01*
G75*
G02*
X170313000Y-80700000I0J102000D01*
G01*
X170313000Y-79700000D01*
G75*
G02*
X170415000Y-79598000I102000J0D01*
G01*
X170685000Y-79598000D01*
G75*
G02*
X170787000Y-79700000I0J-102000D01*
G01*
G37*
G36*
G01*
X174287000Y-79700000D02*
X174287000Y-80700000D01*
G75*
G02*
X174185000Y-80802000I-102000J0D01*
G01*
X173915000Y-80802000D01*
G75*
G02*
X173813000Y-80700000I0J102000D01*
G01*
X173813000Y-79700000D01*
G75*
G02*
X173915000Y-79598000I102000J0D01*
G01*
X174185000Y-79598000D01*
G75*
G02*
X174287000Y-79700000I0J-102000D01*
G01*
G37*
G36*
G01*
X170312000Y-79700000D02*
X170312000Y-80700000D01*
G75*
G02*
X170210000Y-80802000I-102000J0D01*
G01*
X169690000Y-80802000D01*
G75*
G02*
X169588000Y-80700000I0J102000D01*
G01*
X169588000Y-79700000D01*
G75*
G02*
X169690000Y-79598000I102000J0D01*
G01*
X170210000Y-79598000D01*
G75*
G02*
X170312000Y-79700000I0J-102000D01*
G01*
G37*
G36*
G01*
X175012000Y-79700000D02*
X175012000Y-80700000D01*
G75*
G02*
X174910000Y-80802000I-102000J0D01*
G01*
X174390000Y-80802000D01*
G75*
G02*
X174288000Y-80700000I0J102000D01*
G01*
X174288000Y-79700000D01*
G75*
G02*
X174390000Y-79598000I102000J0D01*
G01*
X174910000Y-79598000D01*
G75*
G02*
X175012000Y-79700000I0J-102000D01*
G01*
G37*
G36*
G01*
X169562000Y-79700000D02*
X169562000Y-80700000D01*
G75*
G02*
X169460000Y-80802000I-102000J0D01*
G01*
X168940000Y-80802000D01*
G75*
G02*
X168838000Y-80700000I0J102000D01*
G01*
X168838000Y-79700000D01*
G75*
G02*
X168940000Y-79598000I102000J0D01*
G01*
X169460000Y-79598000D01*
G75*
G02*
X169562000Y-79700000I0J-102000D01*
G01*
G37*
G36*
G01*
X175762000Y-79700000D02*
X175762000Y-80700000D01*
G75*
G02*
X175660000Y-80802000I-102000J0D01*
G01*
X175140000Y-80802000D01*
G75*
G02*
X175038000Y-80700000I0J102000D01*
G01*
X175038000Y-79700000D01*
G75*
G02*
X175140000Y-79598000I102000J0D01*
G01*
X175660000Y-79598000D01*
G75*
G02*
X175762000Y-79700000I0J-102000D01*
G01*
G37*
%TD*%
%TO.C,SW1*%
G36*
G01*
X186025000Y-78255000D02*
X186025000Y-79015000D01*
G75*
G02*
X185925000Y-79115000I-100000J0D01*
G01*
X184675000Y-79115000D01*
G75*
G02*
X184575000Y-79015000I0J100000D01*
G01*
X184575000Y-78255000D01*
G75*
G02*
X184675000Y-78155000I100000J0D01*
G01*
X185925000Y-78155000D01*
G75*
G02*
X186025000Y-78255000I0J-100000D01*
G01*
G37*
G36*
G01*
X193625000Y-76985000D02*
X193625000Y-77745000D01*
G75*
G02*
X193525000Y-77845000I-100000J0D01*
G01*
X192275000Y-77845000D01*
G75*
G02*
X192175000Y-77745000I0J100000D01*
G01*
X192175000Y-76985000D01*
G75*
G02*
X192275000Y-76885000I100000J0D01*
G01*
X193525000Y-76885000D01*
G75*
G02*
X193625000Y-76985000I0J-100000D01*
G01*
G37*
G36*
G01*
X186025000Y-76985000D02*
X186025000Y-77745000D01*
G75*
G02*
X185925000Y-77845000I-100000J0D01*
G01*
X184675000Y-77845000D01*
G75*
G02*
X184575000Y-77745000I0J100000D01*
G01*
X184575000Y-76985000D01*
G75*
G02*
X184675000Y-76885000I100000J0D01*
G01*
X185925000Y-76885000D01*
G75*
G02*
X186025000Y-76985000I0J-100000D01*
G01*
G37*
G36*
G01*
X193625000Y-78255000D02*
X193625000Y-79015000D01*
G75*
G02*
X193525000Y-79115000I-100000J0D01*
G01*
X192275000Y-79115000D01*
G75*
G02*
X192175000Y-79015000I0J100000D01*
G01*
X192175000Y-78255000D01*
G75*
G02*
X192275000Y-78155000I100000J0D01*
G01*
X193525000Y-78155000D01*
G75*
G02*
X193625000Y-78255000I0J-100000D01*
G01*
G37*
%TD*%
D14*
%TO.C,J2*%
X150370000Y-124710000D03*
X150370000Y-122170000D03*
X150370000Y-119630000D03*
X150370000Y-117090000D03*
X150370000Y-114550000D03*
X150370000Y-112010000D03*
X150370000Y-109470000D03*
X150370000Y-106930000D03*
X150370000Y-104390000D03*
X150370000Y-101850000D03*
X150370000Y-99310000D03*
X150370000Y-96770000D03*
X150370000Y-94230000D03*
X150370000Y-91690000D03*
G36*
G01*
X149420000Y-90000000D02*
X149420000Y-88300000D01*
G75*
G02*
X149520000Y-88200000I100000J0D01*
G01*
X151220000Y-88200000D01*
G75*
G02*
X151320000Y-88300000I0J-100000D01*
G01*
X151320000Y-90000000D01*
G75*
G02*
X151220000Y-90100000I-100000J0D01*
G01*
X149520000Y-90100000D01*
G75*
G02*
X149420000Y-90000000I0J100000D01*
G01*
G37*
%TD*%
%TO.C,J1*%
X124980000Y-124710000D03*
X124980000Y-122170000D03*
X124980000Y-119630000D03*
X124980000Y-117090000D03*
X124980000Y-114550000D03*
X124980000Y-112010000D03*
X124980000Y-109470000D03*
X124980000Y-106930000D03*
X124980000Y-104390000D03*
X124980000Y-101850000D03*
X124980000Y-99310000D03*
X124980000Y-96770000D03*
X124980000Y-94230000D03*
X124980000Y-91690000D03*
G36*
G01*
X124030000Y-90000000D02*
X124030000Y-88300000D01*
G75*
G02*
X124130000Y-88200000I100000J0D01*
G01*
X125830000Y-88200000D01*
G75*
G02*
X125930000Y-88300000I0J-100000D01*
G01*
X125930000Y-90000000D01*
G75*
G02*
X125830000Y-90100000I-100000J0D01*
G01*
X124130000Y-90100000D01*
G75*
G02*
X124030000Y-90000000I0J100000D01*
G01*
G37*
%TD*%
%TO.C,J4*%
G36*
G01*
X157400000Y-78500000D02*
X156400000Y-78500000D01*
G75*
G02*
X156300000Y-78400000I0J100000D01*
G01*
X156300000Y-75890000D01*
G75*
G02*
X156400000Y-75790000I100000J0D01*
G01*
X157400000Y-75790000D01*
G75*
G02*
X157500000Y-75890000I0J-100000D01*
G01*
X157500000Y-78400000D01*
G75*
G02*
X157400000Y-78500000I-100000J0D01*
G01*
G37*
G36*
G01*
X159940000Y-81810000D02*
X158940000Y-81810000D01*
G75*
G02*
X158840000Y-81710000I0J100000D01*
G01*
X158840000Y-79200000D01*
G75*
G02*
X158940000Y-79100000I100000J0D01*
G01*
X159940000Y-79100000D01*
G75*
G02*
X160040000Y-79200000I0J-100000D01*
G01*
X160040000Y-81710000D01*
G75*
G02*
X159940000Y-81810000I-100000J0D01*
G01*
G37*
G36*
G01*
X154860000Y-81810000D02*
X153860000Y-81810000D01*
G75*
G02*
X153760000Y-81710000I0J100000D01*
G01*
X153760000Y-79200000D01*
G75*
G02*
X153860000Y-79100000I100000J0D01*
G01*
X154860000Y-79100000D01*
G75*
G02*
X154960000Y-79200000I0J-100000D01*
G01*
X154960000Y-81710000D01*
G75*
G02*
X154860000Y-81810000I-100000J0D01*
G01*
G37*
%TD*%
%TO.C,U4*%
G36*
G01*
X165025000Y-122225000D02*
X165025000Y-121925000D01*
G75*
G02*
X165175000Y-121775000I150000J0D01*
G01*
X166550000Y-121775000D01*
G75*
G02*
X166700000Y-121925000I0J-150000D01*
G01*
X166700000Y-122225000D01*
G75*
G02*
X166550000Y-122375000I-150000J0D01*
G01*
X165175000Y-122375000D01*
G75*
G02*
X165025000Y-122225000I0J150000D01*
G01*
G37*
G36*
G01*
X165025000Y-122875000D02*
X165025000Y-122575000D01*
G75*
G02*
X165175000Y-122425000I150000J0D01*
G01*
X166550000Y-122425000D01*
G75*
G02*
X166700000Y-122575000I0J-150000D01*
G01*
X166700000Y-122875000D01*
G75*
G02*
X166550000Y-123025000I-150000J0D01*
G01*
X165175000Y-123025000D01*
G75*
G02*
X165025000Y-122875000I0J150000D01*
G01*
G37*
G36*
G01*
X165025000Y-123525000D02*
X165025000Y-123225000D01*
G75*
G02*
X165175000Y-123075000I150000J0D01*
G01*
X166550000Y-123075000D01*
G75*
G02*
X166700000Y-123225000I0J-150000D01*
G01*
X166700000Y-123525000D01*
G75*
G02*
X166550000Y-123675000I-150000J0D01*
G01*
X165175000Y-123675000D01*
G75*
G02*
X165025000Y-123525000I0J150000D01*
G01*
G37*
G36*
G01*
X165025000Y-124175000D02*
X165025000Y-123875000D01*
G75*
G02*
X165175000Y-123725000I150000J0D01*
G01*
X166550000Y-123725000D01*
G75*
G02*
X166700000Y-123875000I0J-150000D01*
G01*
X166700000Y-124175000D01*
G75*
G02*
X166550000Y-124325000I-150000J0D01*
G01*
X165175000Y-124325000D01*
G75*
G02*
X165025000Y-124175000I0J150000D01*
G01*
G37*
G36*
G01*
X165025000Y-124825000D02*
X165025000Y-124525000D01*
G75*
G02*
X165175000Y-124375000I150000J0D01*
G01*
X166550000Y-124375000D01*
G75*
G02*
X166700000Y-124525000I0J-150000D01*
G01*
X166700000Y-124825000D01*
G75*
G02*
X166550000Y-124975000I-150000J0D01*
G01*
X165175000Y-124975000D01*
G75*
G02*
X165025000Y-124825000I0J150000D01*
G01*
G37*
G36*
G01*
X165025000Y-125475000D02*
X165025000Y-125175000D01*
G75*
G02*
X165175000Y-125025000I150000J0D01*
G01*
X166550000Y-125025000D01*
G75*
G02*
X166700000Y-125175000I0J-150000D01*
G01*
X166700000Y-125475000D01*
G75*
G02*
X166550000Y-125625000I-150000J0D01*
G01*
X165175000Y-125625000D01*
G75*
G02*
X165025000Y-125475000I0J150000D01*
G01*
G37*
G36*
G01*
X165025000Y-126125000D02*
X165025000Y-125825000D01*
G75*
G02*
X165175000Y-125675000I150000J0D01*
G01*
X166550000Y-125675000D01*
G75*
G02*
X166700000Y-125825000I0J-150000D01*
G01*
X166700000Y-126125000D01*
G75*
G02*
X166550000Y-126275000I-150000J0D01*
G01*
X165175000Y-126275000D01*
G75*
G02*
X165025000Y-126125000I0J150000D01*
G01*
G37*
G36*
G01*
X165025000Y-126775000D02*
X165025000Y-126475000D01*
G75*
G02*
X165175000Y-126325000I150000J0D01*
G01*
X166550000Y-126325000D01*
G75*
G02*
X166700000Y-126475000I0J-150000D01*
G01*
X166700000Y-126775000D01*
G75*
G02*
X166550000Y-126925000I-150000J0D01*
G01*
X165175000Y-126925000D01*
G75*
G02*
X165025000Y-126775000I0J150000D01*
G01*
G37*
G36*
G01*
X165025000Y-127425000D02*
X165025000Y-127125000D01*
G75*
G02*
X165175000Y-126975000I150000J0D01*
G01*
X166550000Y-126975000D01*
G75*
G02*
X166700000Y-127125000I0J-150000D01*
G01*
X166700000Y-127425000D01*
G75*
G02*
X166550000Y-127575000I-150000J0D01*
G01*
X165175000Y-127575000D01*
G75*
G02*
X165025000Y-127425000I0J150000D01*
G01*
G37*
G36*
G01*
X165025000Y-128075000D02*
X165025000Y-127775000D01*
G75*
G02*
X165175000Y-127625000I150000J0D01*
G01*
X166550000Y-127625000D01*
G75*
G02*
X166700000Y-127775000I0J-150000D01*
G01*
X166700000Y-128075000D01*
G75*
G02*
X166550000Y-128225000I-150000J0D01*
G01*
X165175000Y-128225000D01*
G75*
G02*
X165025000Y-128075000I0J150000D01*
G01*
G37*
G36*
G01*
X159300000Y-128075000D02*
X159300000Y-127775000D01*
G75*
G02*
X159450000Y-127625000I150000J0D01*
G01*
X160825000Y-127625000D01*
G75*
G02*
X160975000Y-127775000I0J-150000D01*
G01*
X160975000Y-128075000D01*
G75*
G02*
X160825000Y-128225000I-150000J0D01*
G01*
X159450000Y-128225000D01*
G75*
G02*
X159300000Y-128075000I0J150000D01*
G01*
G37*
G36*
G01*
X159300000Y-127425000D02*
X159300000Y-127125000D01*
G75*
G02*
X159450000Y-126975000I150000J0D01*
G01*
X160825000Y-126975000D01*
G75*
G02*
X160975000Y-127125000I0J-150000D01*
G01*
X160975000Y-127425000D01*
G75*
G02*
X160825000Y-127575000I-150000J0D01*
G01*
X159450000Y-127575000D01*
G75*
G02*
X159300000Y-127425000I0J150000D01*
G01*
G37*
G36*
G01*
X159300000Y-126775000D02*
X159300000Y-126475000D01*
G75*
G02*
X159450000Y-126325000I150000J0D01*
G01*
X160825000Y-126325000D01*
G75*
G02*
X160975000Y-126475000I0J-150000D01*
G01*
X160975000Y-126775000D01*
G75*
G02*
X160825000Y-126925000I-150000J0D01*
G01*
X159450000Y-126925000D01*
G75*
G02*
X159300000Y-126775000I0J150000D01*
G01*
G37*
G36*
G01*
X159300000Y-126125000D02*
X159300000Y-125825000D01*
G75*
G02*
X159450000Y-125675000I150000J0D01*
G01*
X160825000Y-125675000D01*
G75*
G02*
X160975000Y-125825000I0J-150000D01*
G01*
X160975000Y-126125000D01*
G75*
G02*
X160825000Y-126275000I-150000J0D01*
G01*
X159450000Y-126275000D01*
G75*
G02*
X159300000Y-126125000I0J150000D01*
G01*
G37*
G36*
G01*
X159300000Y-125475000D02*
X159300000Y-125175000D01*
G75*
G02*
X159450000Y-125025000I150000J0D01*
G01*
X160825000Y-125025000D01*
G75*
G02*
X160975000Y-125175000I0J-150000D01*
G01*
X160975000Y-125475000D01*
G75*
G02*
X160825000Y-125625000I-150000J0D01*
G01*
X159450000Y-125625000D01*
G75*
G02*
X159300000Y-125475000I0J150000D01*
G01*
G37*
G36*
G01*
X159300000Y-124825000D02*
X159300000Y-124525000D01*
G75*
G02*
X159450000Y-124375000I150000J0D01*
G01*
X160825000Y-124375000D01*
G75*
G02*
X160975000Y-124525000I0J-150000D01*
G01*
X160975000Y-124825000D01*
G75*
G02*
X160825000Y-124975000I-150000J0D01*
G01*
X159450000Y-124975000D01*
G75*
G02*
X159300000Y-124825000I0J150000D01*
G01*
G37*
G36*
G01*
X159300000Y-124175000D02*
X159300000Y-123875000D01*
G75*
G02*
X159450000Y-123725000I150000J0D01*
G01*
X160825000Y-123725000D01*
G75*
G02*
X160975000Y-123875000I0J-150000D01*
G01*
X160975000Y-124175000D01*
G75*
G02*
X160825000Y-124325000I-150000J0D01*
G01*
X159450000Y-124325000D01*
G75*
G02*
X159300000Y-124175000I0J150000D01*
G01*
G37*
G36*
G01*
X159300000Y-123525000D02*
X159300000Y-123225000D01*
G75*
G02*
X159450000Y-123075000I150000J0D01*
G01*
X160825000Y-123075000D01*
G75*
G02*
X160975000Y-123225000I0J-150000D01*
G01*
X160975000Y-123525000D01*
G75*
G02*
X160825000Y-123675000I-150000J0D01*
G01*
X159450000Y-123675000D01*
G75*
G02*
X159300000Y-123525000I0J150000D01*
G01*
G37*
G36*
G01*
X159300000Y-122875000D02*
X159300000Y-122575000D01*
G75*
G02*
X159450000Y-122425000I150000J0D01*
G01*
X160825000Y-122425000D01*
G75*
G02*
X160975000Y-122575000I0J-150000D01*
G01*
X160975000Y-122875000D01*
G75*
G02*
X160825000Y-123025000I-150000J0D01*
G01*
X159450000Y-123025000D01*
G75*
G02*
X159300000Y-122875000I0J150000D01*
G01*
G37*
G36*
G01*
X159300000Y-122225000D02*
X159300000Y-121925000D01*
G75*
G02*
X159450000Y-121775000I150000J0D01*
G01*
X160825000Y-121775000D01*
G75*
G02*
X160975000Y-121925000I0J-150000D01*
G01*
X160975000Y-122225000D01*
G75*
G02*
X160825000Y-122375000I-150000J0D01*
G01*
X159450000Y-122375000D01*
G75*
G02*
X159300000Y-122225000I0J150000D01*
G01*
G37*
%TD*%
%TO.C,U3*%
G36*
G01*
X165025000Y-104225000D02*
X165025000Y-103925000D01*
G75*
G02*
X165175000Y-103775000I150000J0D01*
G01*
X166550000Y-103775000D01*
G75*
G02*
X166700000Y-103925000I0J-150000D01*
G01*
X166700000Y-104225000D01*
G75*
G02*
X166550000Y-104375000I-150000J0D01*
G01*
X165175000Y-104375000D01*
G75*
G02*
X165025000Y-104225000I0J150000D01*
G01*
G37*
G36*
G01*
X165025000Y-104875000D02*
X165025000Y-104575000D01*
G75*
G02*
X165175000Y-104425000I150000J0D01*
G01*
X166550000Y-104425000D01*
G75*
G02*
X166700000Y-104575000I0J-150000D01*
G01*
X166700000Y-104875000D01*
G75*
G02*
X166550000Y-105025000I-150000J0D01*
G01*
X165175000Y-105025000D01*
G75*
G02*
X165025000Y-104875000I0J150000D01*
G01*
G37*
G36*
G01*
X165025000Y-105525000D02*
X165025000Y-105225000D01*
G75*
G02*
X165175000Y-105075000I150000J0D01*
G01*
X166550000Y-105075000D01*
G75*
G02*
X166700000Y-105225000I0J-150000D01*
G01*
X166700000Y-105525000D01*
G75*
G02*
X166550000Y-105675000I-150000J0D01*
G01*
X165175000Y-105675000D01*
G75*
G02*
X165025000Y-105525000I0J150000D01*
G01*
G37*
G36*
G01*
X165025000Y-106175000D02*
X165025000Y-105875000D01*
G75*
G02*
X165175000Y-105725000I150000J0D01*
G01*
X166550000Y-105725000D01*
G75*
G02*
X166700000Y-105875000I0J-150000D01*
G01*
X166700000Y-106175000D01*
G75*
G02*
X166550000Y-106325000I-150000J0D01*
G01*
X165175000Y-106325000D01*
G75*
G02*
X165025000Y-106175000I0J150000D01*
G01*
G37*
G36*
G01*
X165025000Y-106825000D02*
X165025000Y-106525000D01*
G75*
G02*
X165175000Y-106375000I150000J0D01*
G01*
X166550000Y-106375000D01*
G75*
G02*
X166700000Y-106525000I0J-150000D01*
G01*
X166700000Y-106825000D01*
G75*
G02*
X166550000Y-106975000I-150000J0D01*
G01*
X165175000Y-106975000D01*
G75*
G02*
X165025000Y-106825000I0J150000D01*
G01*
G37*
G36*
G01*
X165025000Y-107475000D02*
X165025000Y-107175000D01*
G75*
G02*
X165175000Y-107025000I150000J0D01*
G01*
X166550000Y-107025000D01*
G75*
G02*
X166700000Y-107175000I0J-150000D01*
G01*
X166700000Y-107475000D01*
G75*
G02*
X166550000Y-107625000I-150000J0D01*
G01*
X165175000Y-107625000D01*
G75*
G02*
X165025000Y-107475000I0J150000D01*
G01*
G37*
G36*
G01*
X165025000Y-108125000D02*
X165025000Y-107825000D01*
G75*
G02*
X165175000Y-107675000I150000J0D01*
G01*
X166550000Y-107675000D01*
G75*
G02*
X166700000Y-107825000I0J-150000D01*
G01*
X166700000Y-108125000D01*
G75*
G02*
X166550000Y-108275000I-150000J0D01*
G01*
X165175000Y-108275000D01*
G75*
G02*
X165025000Y-108125000I0J150000D01*
G01*
G37*
G36*
G01*
X165025000Y-108775000D02*
X165025000Y-108475000D01*
G75*
G02*
X165175000Y-108325000I150000J0D01*
G01*
X166550000Y-108325000D01*
G75*
G02*
X166700000Y-108475000I0J-150000D01*
G01*
X166700000Y-108775000D01*
G75*
G02*
X166550000Y-108925000I-150000J0D01*
G01*
X165175000Y-108925000D01*
G75*
G02*
X165025000Y-108775000I0J150000D01*
G01*
G37*
G36*
G01*
X165025000Y-109425000D02*
X165025000Y-109125000D01*
G75*
G02*
X165175000Y-108975000I150000J0D01*
G01*
X166550000Y-108975000D01*
G75*
G02*
X166700000Y-109125000I0J-150000D01*
G01*
X166700000Y-109425000D01*
G75*
G02*
X166550000Y-109575000I-150000J0D01*
G01*
X165175000Y-109575000D01*
G75*
G02*
X165025000Y-109425000I0J150000D01*
G01*
G37*
G36*
G01*
X165025000Y-110075000D02*
X165025000Y-109775000D01*
G75*
G02*
X165175000Y-109625000I150000J0D01*
G01*
X166550000Y-109625000D01*
G75*
G02*
X166700000Y-109775000I0J-150000D01*
G01*
X166700000Y-110075000D01*
G75*
G02*
X166550000Y-110225000I-150000J0D01*
G01*
X165175000Y-110225000D01*
G75*
G02*
X165025000Y-110075000I0J150000D01*
G01*
G37*
G36*
G01*
X159300000Y-110075000D02*
X159300000Y-109775000D01*
G75*
G02*
X159450000Y-109625000I150000J0D01*
G01*
X160825000Y-109625000D01*
G75*
G02*
X160975000Y-109775000I0J-150000D01*
G01*
X160975000Y-110075000D01*
G75*
G02*
X160825000Y-110225000I-150000J0D01*
G01*
X159450000Y-110225000D01*
G75*
G02*
X159300000Y-110075000I0J150000D01*
G01*
G37*
G36*
G01*
X159300000Y-109425000D02*
X159300000Y-109125000D01*
G75*
G02*
X159450000Y-108975000I150000J0D01*
G01*
X160825000Y-108975000D01*
G75*
G02*
X160975000Y-109125000I0J-150000D01*
G01*
X160975000Y-109425000D01*
G75*
G02*
X160825000Y-109575000I-150000J0D01*
G01*
X159450000Y-109575000D01*
G75*
G02*
X159300000Y-109425000I0J150000D01*
G01*
G37*
G36*
G01*
X159300000Y-108775000D02*
X159300000Y-108475000D01*
G75*
G02*
X159450000Y-108325000I150000J0D01*
G01*
X160825000Y-108325000D01*
G75*
G02*
X160975000Y-108475000I0J-150000D01*
G01*
X160975000Y-108775000D01*
G75*
G02*
X160825000Y-108925000I-150000J0D01*
G01*
X159450000Y-108925000D01*
G75*
G02*
X159300000Y-108775000I0J150000D01*
G01*
G37*
G36*
G01*
X159300000Y-108125000D02*
X159300000Y-107825000D01*
G75*
G02*
X159450000Y-107675000I150000J0D01*
G01*
X160825000Y-107675000D01*
G75*
G02*
X160975000Y-107825000I0J-150000D01*
G01*
X160975000Y-108125000D01*
G75*
G02*
X160825000Y-108275000I-150000J0D01*
G01*
X159450000Y-108275000D01*
G75*
G02*
X159300000Y-108125000I0J150000D01*
G01*
G37*
G36*
G01*
X159300000Y-107475000D02*
X159300000Y-107175000D01*
G75*
G02*
X159450000Y-107025000I150000J0D01*
G01*
X160825000Y-107025000D01*
G75*
G02*
X160975000Y-107175000I0J-150000D01*
G01*
X160975000Y-107475000D01*
G75*
G02*
X160825000Y-107625000I-150000J0D01*
G01*
X159450000Y-107625000D01*
G75*
G02*
X159300000Y-107475000I0J150000D01*
G01*
G37*
G36*
G01*
X159300000Y-106825000D02*
X159300000Y-106525000D01*
G75*
G02*
X159450000Y-106375000I150000J0D01*
G01*
X160825000Y-106375000D01*
G75*
G02*
X160975000Y-106525000I0J-150000D01*
G01*
X160975000Y-106825000D01*
G75*
G02*
X160825000Y-106975000I-150000J0D01*
G01*
X159450000Y-106975000D01*
G75*
G02*
X159300000Y-106825000I0J150000D01*
G01*
G37*
G36*
G01*
X159300000Y-106175000D02*
X159300000Y-105875000D01*
G75*
G02*
X159450000Y-105725000I150000J0D01*
G01*
X160825000Y-105725000D01*
G75*
G02*
X160975000Y-105875000I0J-150000D01*
G01*
X160975000Y-106175000D01*
G75*
G02*
X160825000Y-106325000I-150000J0D01*
G01*
X159450000Y-106325000D01*
G75*
G02*
X159300000Y-106175000I0J150000D01*
G01*
G37*
G36*
G01*
X159300000Y-105525000D02*
X159300000Y-105225000D01*
G75*
G02*
X159450000Y-105075000I150000J0D01*
G01*
X160825000Y-105075000D01*
G75*
G02*
X160975000Y-105225000I0J-150000D01*
G01*
X160975000Y-105525000D01*
G75*
G02*
X160825000Y-105675000I-150000J0D01*
G01*
X159450000Y-105675000D01*
G75*
G02*
X159300000Y-105525000I0J150000D01*
G01*
G37*
G36*
G01*
X159300000Y-104875000D02*
X159300000Y-104575000D01*
G75*
G02*
X159450000Y-104425000I150000J0D01*
G01*
X160825000Y-104425000D01*
G75*
G02*
X160975000Y-104575000I0J-150000D01*
G01*
X160975000Y-104875000D01*
G75*
G02*
X160825000Y-105025000I-150000J0D01*
G01*
X159450000Y-105025000D01*
G75*
G02*
X159300000Y-104875000I0J150000D01*
G01*
G37*
G36*
G01*
X159300000Y-104225000D02*
X159300000Y-103925000D01*
G75*
G02*
X159450000Y-103775000I150000J0D01*
G01*
X160825000Y-103775000D01*
G75*
G02*
X160975000Y-103925000I0J-150000D01*
G01*
X160975000Y-104225000D01*
G75*
G02*
X160825000Y-104375000I-150000J0D01*
G01*
X159450000Y-104375000D01*
G75*
G02*
X159300000Y-104225000I0J150000D01*
G01*
G37*
%TD*%
%TO.C,U1*%
G36*
G01*
X165025000Y-86225000D02*
X165025000Y-85925000D01*
G75*
G02*
X165175000Y-85775000I150000J0D01*
G01*
X166550000Y-85775000D01*
G75*
G02*
X166700000Y-85925000I0J-150000D01*
G01*
X166700000Y-86225000D01*
G75*
G02*
X166550000Y-86375000I-150000J0D01*
G01*
X165175000Y-86375000D01*
G75*
G02*
X165025000Y-86225000I0J150000D01*
G01*
G37*
G36*
G01*
X165025000Y-86875000D02*
X165025000Y-86575000D01*
G75*
G02*
X165175000Y-86425000I150000J0D01*
G01*
X166550000Y-86425000D01*
G75*
G02*
X166700000Y-86575000I0J-150000D01*
G01*
X166700000Y-86875000D01*
G75*
G02*
X166550000Y-87025000I-150000J0D01*
G01*
X165175000Y-87025000D01*
G75*
G02*
X165025000Y-86875000I0J150000D01*
G01*
G37*
G36*
G01*
X165025000Y-87525000D02*
X165025000Y-87225000D01*
G75*
G02*
X165175000Y-87075000I150000J0D01*
G01*
X166550000Y-87075000D01*
G75*
G02*
X166700000Y-87225000I0J-150000D01*
G01*
X166700000Y-87525000D01*
G75*
G02*
X166550000Y-87675000I-150000J0D01*
G01*
X165175000Y-87675000D01*
G75*
G02*
X165025000Y-87525000I0J150000D01*
G01*
G37*
G36*
G01*
X165025000Y-88175000D02*
X165025000Y-87875000D01*
G75*
G02*
X165175000Y-87725000I150000J0D01*
G01*
X166550000Y-87725000D01*
G75*
G02*
X166700000Y-87875000I0J-150000D01*
G01*
X166700000Y-88175000D01*
G75*
G02*
X166550000Y-88325000I-150000J0D01*
G01*
X165175000Y-88325000D01*
G75*
G02*
X165025000Y-88175000I0J150000D01*
G01*
G37*
G36*
G01*
X165025000Y-88825000D02*
X165025000Y-88525000D01*
G75*
G02*
X165175000Y-88375000I150000J0D01*
G01*
X166550000Y-88375000D01*
G75*
G02*
X166700000Y-88525000I0J-150000D01*
G01*
X166700000Y-88825000D01*
G75*
G02*
X166550000Y-88975000I-150000J0D01*
G01*
X165175000Y-88975000D01*
G75*
G02*
X165025000Y-88825000I0J150000D01*
G01*
G37*
G36*
G01*
X165025000Y-89475000D02*
X165025000Y-89175000D01*
G75*
G02*
X165175000Y-89025000I150000J0D01*
G01*
X166550000Y-89025000D01*
G75*
G02*
X166700000Y-89175000I0J-150000D01*
G01*
X166700000Y-89475000D01*
G75*
G02*
X166550000Y-89625000I-150000J0D01*
G01*
X165175000Y-89625000D01*
G75*
G02*
X165025000Y-89475000I0J150000D01*
G01*
G37*
G36*
G01*
X165025000Y-90125000D02*
X165025000Y-89825000D01*
G75*
G02*
X165175000Y-89675000I150000J0D01*
G01*
X166550000Y-89675000D01*
G75*
G02*
X166700000Y-89825000I0J-150000D01*
G01*
X166700000Y-90125000D01*
G75*
G02*
X166550000Y-90275000I-150000J0D01*
G01*
X165175000Y-90275000D01*
G75*
G02*
X165025000Y-90125000I0J150000D01*
G01*
G37*
G36*
G01*
X165025000Y-90775000D02*
X165025000Y-90475000D01*
G75*
G02*
X165175000Y-90325000I150000J0D01*
G01*
X166550000Y-90325000D01*
G75*
G02*
X166700000Y-90475000I0J-150000D01*
G01*
X166700000Y-90775000D01*
G75*
G02*
X166550000Y-90925000I-150000J0D01*
G01*
X165175000Y-90925000D01*
G75*
G02*
X165025000Y-90775000I0J150000D01*
G01*
G37*
G36*
G01*
X165025000Y-91425000D02*
X165025000Y-91125000D01*
G75*
G02*
X165175000Y-90975000I150000J0D01*
G01*
X166550000Y-90975000D01*
G75*
G02*
X166700000Y-91125000I0J-150000D01*
G01*
X166700000Y-91425000D01*
G75*
G02*
X166550000Y-91575000I-150000J0D01*
G01*
X165175000Y-91575000D01*
G75*
G02*
X165025000Y-91425000I0J150000D01*
G01*
G37*
G36*
G01*
X165025000Y-92075000D02*
X165025000Y-91775000D01*
G75*
G02*
X165175000Y-91625000I150000J0D01*
G01*
X166550000Y-91625000D01*
G75*
G02*
X166700000Y-91775000I0J-150000D01*
G01*
X166700000Y-92075000D01*
G75*
G02*
X166550000Y-92225000I-150000J0D01*
G01*
X165175000Y-92225000D01*
G75*
G02*
X165025000Y-92075000I0J150000D01*
G01*
G37*
G36*
G01*
X159300000Y-92075000D02*
X159300000Y-91775000D01*
G75*
G02*
X159450000Y-91625000I150000J0D01*
G01*
X160825000Y-91625000D01*
G75*
G02*
X160975000Y-91775000I0J-150000D01*
G01*
X160975000Y-92075000D01*
G75*
G02*
X160825000Y-92225000I-150000J0D01*
G01*
X159450000Y-92225000D01*
G75*
G02*
X159300000Y-92075000I0J150000D01*
G01*
G37*
G36*
G01*
X159300000Y-91425000D02*
X159300000Y-91125000D01*
G75*
G02*
X159450000Y-90975000I150000J0D01*
G01*
X160825000Y-90975000D01*
G75*
G02*
X160975000Y-91125000I0J-150000D01*
G01*
X160975000Y-91425000D01*
G75*
G02*
X160825000Y-91575000I-150000J0D01*
G01*
X159450000Y-91575000D01*
G75*
G02*
X159300000Y-91425000I0J150000D01*
G01*
G37*
G36*
G01*
X159300000Y-90775000D02*
X159300000Y-90475000D01*
G75*
G02*
X159450000Y-90325000I150000J0D01*
G01*
X160825000Y-90325000D01*
G75*
G02*
X160975000Y-90475000I0J-150000D01*
G01*
X160975000Y-90775000D01*
G75*
G02*
X160825000Y-90925000I-150000J0D01*
G01*
X159450000Y-90925000D01*
G75*
G02*
X159300000Y-90775000I0J150000D01*
G01*
G37*
G36*
G01*
X159300000Y-90125000D02*
X159300000Y-89825000D01*
G75*
G02*
X159450000Y-89675000I150000J0D01*
G01*
X160825000Y-89675000D01*
G75*
G02*
X160975000Y-89825000I0J-150000D01*
G01*
X160975000Y-90125000D01*
G75*
G02*
X160825000Y-90275000I-150000J0D01*
G01*
X159450000Y-90275000D01*
G75*
G02*
X159300000Y-90125000I0J150000D01*
G01*
G37*
G36*
G01*
X159300000Y-89475000D02*
X159300000Y-89175000D01*
G75*
G02*
X159450000Y-89025000I150000J0D01*
G01*
X160825000Y-89025000D01*
G75*
G02*
X160975000Y-89175000I0J-150000D01*
G01*
X160975000Y-89475000D01*
G75*
G02*
X160825000Y-89625000I-150000J0D01*
G01*
X159450000Y-89625000D01*
G75*
G02*
X159300000Y-89475000I0J150000D01*
G01*
G37*
G36*
G01*
X159300000Y-88825000D02*
X159300000Y-88525000D01*
G75*
G02*
X159450000Y-88375000I150000J0D01*
G01*
X160825000Y-88375000D01*
G75*
G02*
X160975000Y-88525000I0J-150000D01*
G01*
X160975000Y-88825000D01*
G75*
G02*
X160825000Y-88975000I-150000J0D01*
G01*
X159450000Y-88975000D01*
G75*
G02*
X159300000Y-88825000I0J150000D01*
G01*
G37*
G36*
G01*
X159300000Y-88175000D02*
X159300000Y-87875000D01*
G75*
G02*
X159450000Y-87725000I150000J0D01*
G01*
X160825000Y-87725000D01*
G75*
G02*
X160975000Y-87875000I0J-150000D01*
G01*
X160975000Y-88175000D01*
G75*
G02*
X160825000Y-88325000I-150000J0D01*
G01*
X159450000Y-88325000D01*
G75*
G02*
X159300000Y-88175000I0J150000D01*
G01*
G37*
G36*
G01*
X159300000Y-87525000D02*
X159300000Y-87225000D01*
G75*
G02*
X159450000Y-87075000I150000J0D01*
G01*
X160825000Y-87075000D01*
G75*
G02*
X160975000Y-87225000I0J-150000D01*
G01*
X160975000Y-87525000D01*
G75*
G02*
X160825000Y-87675000I-150000J0D01*
G01*
X159450000Y-87675000D01*
G75*
G02*
X159300000Y-87525000I0J150000D01*
G01*
G37*
G36*
G01*
X159300000Y-86875000D02*
X159300000Y-86575000D01*
G75*
G02*
X159450000Y-86425000I150000J0D01*
G01*
X160825000Y-86425000D01*
G75*
G02*
X160975000Y-86575000I0J-150000D01*
G01*
X160975000Y-86875000D01*
G75*
G02*
X160825000Y-87025000I-150000J0D01*
G01*
X159450000Y-87025000D01*
G75*
G02*
X159300000Y-86875000I0J150000D01*
G01*
G37*
G36*
G01*
X159300000Y-86225000D02*
X159300000Y-85925000D01*
G75*
G02*
X159450000Y-85775000I150000J0D01*
G01*
X160825000Y-85775000D01*
G75*
G02*
X160975000Y-85925000I0J-150000D01*
G01*
X160975000Y-86225000D01*
G75*
G02*
X160825000Y-86375000I-150000J0D01*
G01*
X159450000Y-86375000D01*
G75*
G02*
X159300000Y-86225000I0J150000D01*
G01*
G37*
%TD*%
%TO.C,J3*%
G36*
G01*
X206100000Y-86750000D02*
X206100000Y-85750000D01*
G75*
G02*
X206200000Y-85650000I100000J0D01*
G01*
X209350000Y-85650000D01*
G75*
G02*
X209450000Y-85750000I0J-100000D01*
G01*
X209450000Y-86750000D01*
G75*
G02*
X209350000Y-86850000I-100000J0D01*
G01*
X206200000Y-86850000D01*
G75*
G02*
X206100000Y-86750000I0J100000D01*
G01*
G37*
G36*
G01*
X211150000Y-86750000D02*
X211150000Y-85750000D01*
G75*
G02*
X211250000Y-85650000I100000J0D01*
G01*
X214400000Y-85650000D01*
G75*
G02*
X214500000Y-85750000I0J-100000D01*
G01*
X214500000Y-86750000D01*
G75*
G02*
X214400000Y-86850000I-100000J0D01*
G01*
X211250000Y-86850000D01*
G75*
G02*
X211150000Y-86750000I0J100000D01*
G01*
G37*
G36*
G01*
X206100000Y-89290000D02*
X206100000Y-88290000D01*
G75*
G02*
X206200000Y-88190000I100000J0D01*
G01*
X209350000Y-88190000D01*
G75*
G02*
X209450000Y-88290000I0J-100000D01*
G01*
X209450000Y-89290000D01*
G75*
G02*
X209350000Y-89390000I-100000J0D01*
G01*
X206200000Y-89390000D01*
G75*
G02*
X206100000Y-89290000I0J100000D01*
G01*
G37*
G36*
G01*
X211150000Y-89290000D02*
X211150000Y-88290000D01*
G75*
G02*
X211250000Y-88190000I100000J0D01*
G01*
X214400000Y-88190000D01*
G75*
G02*
X214500000Y-88290000I0J-100000D01*
G01*
X214500000Y-89290000D01*
G75*
G02*
X214400000Y-89390000I-100000J0D01*
G01*
X211250000Y-89390000D01*
G75*
G02*
X211150000Y-89290000I0J100000D01*
G01*
G37*
G36*
G01*
X206100000Y-91830000D02*
X206100000Y-90830000D01*
G75*
G02*
X206200000Y-90730000I100000J0D01*
G01*
X209350000Y-90730000D01*
G75*
G02*
X209450000Y-90830000I0J-100000D01*
G01*
X209450000Y-91830000D01*
G75*
G02*
X209350000Y-91930000I-100000J0D01*
G01*
X206200000Y-91930000D01*
G75*
G02*
X206100000Y-91830000I0J100000D01*
G01*
G37*
G36*
G01*
X211150000Y-91830000D02*
X211150000Y-90830000D01*
G75*
G02*
X211250000Y-90730000I100000J0D01*
G01*
X214400000Y-90730000D01*
G75*
G02*
X214500000Y-90830000I0J-100000D01*
G01*
X214500000Y-91830000D01*
G75*
G02*
X214400000Y-91930000I-100000J0D01*
G01*
X211250000Y-91930000D01*
G75*
G02*
X211150000Y-91830000I0J100000D01*
G01*
G37*
G36*
G01*
X206100000Y-94370000D02*
X206100000Y-93370000D01*
G75*
G02*
X206200000Y-93270000I100000J0D01*
G01*
X209350000Y-93270000D01*
G75*
G02*
X209450000Y-93370000I0J-100000D01*
G01*
X209450000Y-94370000D01*
G75*
G02*
X209350000Y-94470000I-100000J0D01*
G01*
X206200000Y-94470000D01*
G75*
G02*
X206100000Y-94370000I0J100000D01*
G01*
G37*
G36*
G01*
X211150000Y-94370000D02*
X211150000Y-93370000D01*
G75*
G02*
X211250000Y-93270000I100000J0D01*
G01*
X214400000Y-93270000D01*
G75*
G02*
X214500000Y-93370000I0J-100000D01*
G01*
X214500000Y-94370000D01*
G75*
G02*
X214400000Y-94470000I-100000J0D01*
G01*
X211250000Y-94470000D01*
G75*
G02*
X211150000Y-94370000I0J100000D01*
G01*
G37*
G36*
G01*
X206100000Y-96910000D02*
X206100000Y-95910000D01*
G75*
G02*
X206200000Y-95810000I100000J0D01*
G01*
X209350000Y-95810000D01*
G75*
G02*
X209450000Y-95910000I0J-100000D01*
G01*
X209450000Y-96910000D01*
G75*
G02*
X209350000Y-97010000I-100000J0D01*
G01*
X206200000Y-97010000D01*
G75*
G02*
X206100000Y-96910000I0J100000D01*
G01*
G37*
G36*
G01*
X211150000Y-96910000D02*
X211150000Y-95910000D01*
G75*
G02*
X211250000Y-95810000I100000J0D01*
G01*
X214400000Y-95810000D01*
G75*
G02*
X214500000Y-95910000I0J-100000D01*
G01*
X214500000Y-96910000D01*
G75*
G02*
X214400000Y-97010000I-100000J0D01*
G01*
X211250000Y-97010000D01*
G75*
G02*
X211150000Y-96910000I0J100000D01*
G01*
G37*
G36*
G01*
X206100000Y-99450000D02*
X206100000Y-98450000D01*
G75*
G02*
X206200000Y-98350000I100000J0D01*
G01*
X209350000Y-98350000D01*
G75*
G02*
X209450000Y-98450000I0J-100000D01*
G01*
X209450000Y-99450000D01*
G75*
G02*
X209350000Y-99550000I-100000J0D01*
G01*
X206200000Y-99550000D01*
G75*
G02*
X206100000Y-99450000I0J100000D01*
G01*
G37*
G36*
G01*
X211150000Y-99450000D02*
X211150000Y-98450000D01*
G75*
G02*
X211250000Y-98350000I100000J0D01*
G01*
X214400000Y-98350000D01*
G75*
G02*
X214500000Y-98450000I0J-100000D01*
G01*
X214500000Y-99450000D01*
G75*
G02*
X214400000Y-99550000I-100000J0D01*
G01*
X211250000Y-99550000D01*
G75*
G02*
X211150000Y-99450000I0J100000D01*
G01*
G37*
G36*
G01*
X206100000Y-101990000D02*
X206100000Y-100990000D01*
G75*
G02*
X206200000Y-100890000I100000J0D01*
G01*
X209350000Y-100890000D01*
G75*
G02*
X209450000Y-100990000I0J-100000D01*
G01*
X209450000Y-101990000D01*
G75*
G02*
X209350000Y-102090000I-100000J0D01*
G01*
X206200000Y-102090000D01*
G75*
G02*
X206100000Y-101990000I0J100000D01*
G01*
G37*
G36*
G01*
X211150000Y-101990000D02*
X211150000Y-100990000D01*
G75*
G02*
X211250000Y-100890000I100000J0D01*
G01*
X214400000Y-100890000D01*
G75*
G02*
X214500000Y-100990000I0J-100000D01*
G01*
X214500000Y-101990000D01*
G75*
G02*
X214400000Y-102090000I-100000J0D01*
G01*
X211250000Y-102090000D01*
G75*
G02*
X211150000Y-101990000I0J100000D01*
G01*
G37*
G36*
G01*
X206100000Y-104530000D02*
X206100000Y-103530000D01*
G75*
G02*
X206200000Y-103430000I100000J0D01*
G01*
X209350000Y-103430000D01*
G75*
G02*
X209450000Y-103530000I0J-100000D01*
G01*
X209450000Y-104530000D01*
G75*
G02*
X209350000Y-104630000I-100000J0D01*
G01*
X206200000Y-104630000D01*
G75*
G02*
X206100000Y-104530000I0J100000D01*
G01*
G37*
G36*
G01*
X211150000Y-104530000D02*
X211150000Y-103530000D01*
G75*
G02*
X211250000Y-103430000I100000J0D01*
G01*
X214400000Y-103430000D01*
G75*
G02*
X214500000Y-103530000I0J-100000D01*
G01*
X214500000Y-104530000D01*
G75*
G02*
X214400000Y-104630000I-100000J0D01*
G01*
X211250000Y-104630000D01*
G75*
G02*
X211150000Y-104530000I0J100000D01*
G01*
G37*
G36*
G01*
X206100000Y-107070000D02*
X206100000Y-106070000D01*
G75*
G02*
X206200000Y-105970000I100000J0D01*
G01*
X209350000Y-105970000D01*
G75*
G02*
X209450000Y-106070000I0J-100000D01*
G01*
X209450000Y-107070000D01*
G75*
G02*
X209350000Y-107170000I-100000J0D01*
G01*
X206200000Y-107170000D01*
G75*
G02*
X206100000Y-107070000I0J100000D01*
G01*
G37*
G36*
G01*
X211150000Y-107070000D02*
X211150000Y-106070000D01*
G75*
G02*
X211250000Y-105970000I100000J0D01*
G01*
X214400000Y-105970000D01*
G75*
G02*
X214500000Y-106070000I0J-100000D01*
G01*
X214500000Y-107070000D01*
G75*
G02*
X214400000Y-107170000I-100000J0D01*
G01*
X211250000Y-107170000D01*
G75*
G02*
X211150000Y-107070000I0J100000D01*
G01*
G37*
G36*
G01*
X206100000Y-109610000D02*
X206100000Y-108610000D01*
G75*
G02*
X206200000Y-108510000I100000J0D01*
G01*
X209350000Y-108510000D01*
G75*
G02*
X209450000Y-108610000I0J-100000D01*
G01*
X209450000Y-109610000D01*
G75*
G02*
X209350000Y-109710000I-100000J0D01*
G01*
X206200000Y-109710000D01*
G75*
G02*
X206100000Y-109610000I0J100000D01*
G01*
G37*
G36*
G01*
X211150000Y-109610000D02*
X211150000Y-108610000D01*
G75*
G02*
X211250000Y-108510000I100000J0D01*
G01*
X214400000Y-108510000D01*
G75*
G02*
X214500000Y-108610000I0J-100000D01*
G01*
X214500000Y-109610000D01*
G75*
G02*
X214400000Y-109710000I-100000J0D01*
G01*
X211250000Y-109710000D01*
G75*
G02*
X211150000Y-109610000I0J100000D01*
G01*
G37*
G36*
G01*
X206100000Y-112150000D02*
X206100000Y-111150000D01*
G75*
G02*
X206200000Y-111050000I100000J0D01*
G01*
X209350000Y-111050000D01*
G75*
G02*
X209450000Y-111150000I0J-100000D01*
G01*
X209450000Y-112150000D01*
G75*
G02*
X209350000Y-112250000I-100000J0D01*
G01*
X206200000Y-112250000D01*
G75*
G02*
X206100000Y-112150000I0J100000D01*
G01*
G37*
G36*
G01*
X211150000Y-112150000D02*
X211150000Y-111150000D01*
G75*
G02*
X211250000Y-111050000I100000J0D01*
G01*
X214400000Y-111050000D01*
G75*
G02*
X214500000Y-111150000I0J-100000D01*
G01*
X214500000Y-112150000D01*
G75*
G02*
X214400000Y-112250000I-100000J0D01*
G01*
X211250000Y-112250000D01*
G75*
G02*
X211150000Y-112150000I0J100000D01*
G01*
G37*
G36*
G01*
X206100000Y-114690000D02*
X206100000Y-113690000D01*
G75*
G02*
X206200000Y-113590000I100000J0D01*
G01*
X209350000Y-113590000D01*
G75*
G02*
X209450000Y-113690000I0J-100000D01*
G01*
X209450000Y-114690000D01*
G75*
G02*
X209350000Y-114790000I-100000J0D01*
G01*
X206200000Y-114790000D01*
G75*
G02*
X206100000Y-114690000I0J100000D01*
G01*
G37*
G36*
G01*
X211150000Y-114690000D02*
X211150000Y-113690000D01*
G75*
G02*
X211250000Y-113590000I100000J0D01*
G01*
X214400000Y-113590000D01*
G75*
G02*
X214500000Y-113690000I0J-100000D01*
G01*
X214500000Y-114690000D01*
G75*
G02*
X214400000Y-114790000I-100000J0D01*
G01*
X211250000Y-114790000D01*
G75*
G02*
X211150000Y-114690000I0J100000D01*
G01*
G37*
G36*
G01*
X206100000Y-117230000D02*
X206100000Y-116230000D01*
G75*
G02*
X206200000Y-116130000I100000J0D01*
G01*
X209350000Y-116130000D01*
G75*
G02*
X209450000Y-116230000I0J-100000D01*
G01*
X209450000Y-117230000D01*
G75*
G02*
X209350000Y-117330000I-100000J0D01*
G01*
X206200000Y-117330000D01*
G75*
G02*
X206100000Y-117230000I0J100000D01*
G01*
G37*
G36*
G01*
X211150000Y-117230000D02*
X211150000Y-116230000D01*
G75*
G02*
X211250000Y-116130000I100000J0D01*
G01*
X214400000Y-116130000D01*
G75*
G02*
X214500000Y-116230000I0J-100000D01*
G01*
X214500000Y-117230000D01*
G75*
G02*
X214400000Y-117330000I-100000J0D01*
G01*
X211250000Y-117330000D01*
G75*
G02*
X211150000Y-117230000I0J100000D01*
G01*
G37*
G36*
G01*
X206100000Y-119770000D02*
X206100000Y-118770000D01*
G75*
G02*
X206200000Y-118670000I100000J0D01*
G01*
X209350000Y-118670000D01*
G75*
G02*
X209450000Y-118770000I0J-100000D01*
G01*
X209450000Y-119770000D01*
G75*
G02*
X209350000Y-119870000I-100000J0D01*
G01*
X206200000Y-119870000D01*
G75*
G02*
X206100000Y-119770000I0J100000D01*
G01*
G37*
G36*
G01*
X211150000Y-119770000D02*
X211150000Y-118770000D01*
G75*
G02*
X211250000Y-118670000I100000J0D01*
G01*
X214400000Y-118670000D01*
G75*
G02*
X214500000Y-118770000I0J-100000D01*
G01*
X214500000Y-119770000D01*
G75*
G02*
X214400000Y-119870000I-100000J0D01*
G01*
X211250000Y-119870000D01*
G75*
G02*
X211150000Y-119770000I0J100000D01*
G01*
G37*
G36*
G01*
X206100000Y-122310000D02*
X206100000Y-121310000D01*
G75*
G02*
X206200000Y-121210000I100000J0D01*
G01*
X209350000Y-121210000D01*
G75*
G02*
X209450000Y-121310000I0J-100000D01*
G01*
X209450000Y-122310000D01*
G75*
G02*
X209350000Y-122410000I-100000J0D01*
G01*
X206200000Y-122410000D01*
G75*
G02*
X206100000Y-122310000I0J100000D01*
G01*
G37*
G36*
G01*
X211150000Y-122310000D02*
X211150000Y-121310000D01*
G75*
G02*
X211250000Y-121210000I100000J0D01*
G01*
X214400000Y-121210000D01*
G75*
G02*
X214500000Y-121310000I0J-100000D01*
G01*
X214500000Y-122310000D01*
G75*
G02*
X214400000Y-122410000I-100000J0D01*
G01*
X211250000Y-122410000D01*
G75*
G02*
X211150000Y-122310000I0J100000D01*
G01*
G37*
G36*
G01*
X206100000Y-124850000D02*
X206100000Y-123850000D01*
G75*
G02*
X206200000Y-123750000I100000J0D01*
G01*
X209350000Y-123750000D01*
G75*
G02*
X209450000Y-123850000I0J-100000D01*
G01*
X209450000Y-124850000D01*
G75*
G02*
X209350000Y-124950000I-100000J0D01*
G01*
X206200000Y-124950000D01*
G75*
G02*
X206100000Y-124850000I0J100000D01*
G01*
G37*
G36*
G01*
X211150000Y-124850000D02*
X211150000Y-123850000D01*
G75*
G02*
X211250000Y-123750000I100000J0D01*
G01*
X214400000Y-123750000D01*
G75*
G02*
X214500000Y-123850000I0J-100000D01*
G01*
X214500000Y-124850000D01*
G75*
G02*
X214400000Y-124950000I-100000J0D01*
G01*
X211250000Y-124950000D01*
G75*
G02*
X211150000Y-124850000I0J100000D01*
G01*
G37*
%TD*%
%TO.C,C1*%
G36*
G01*
X129667553Y-87975000D02*
X130732447Y-87975000D01*
G75*
G02*
X131025000Y-88267553I0J-292553D01*
G01*
X131025000Y-89057447D01*
G75*
G02*
X130732447Y-89350000I-292553J0D01*
G01*
X129667553Y-89350000D01*
G75*
G02*
X129375000Y-89057447I0J292553D01*
G01*
X129375000Y-88267553D01*
G75*
G02*
X129667553Y-87975000I292553J0D01*
G01*
G37*
G36*
G01*
X129667553Y-90050000D02*
X130732447Y-90050000D01*
G75*
G02*
X131025000Y-90342553I0J-292553D01*
G01*
X131025000Y-91132447D01*
G75*
G02*
X130732447Y-91425000I-292553J0D01*
G01*
X129667553Y-91425000D01*
G75*
G02*
X129375000Y-91132447I0J292553D01*
G01*
X129375000Y-90342553D01*
G75*
G02*
X129667553Y-90050000I292553J0D01*
G01*
G37*
%TD*%
%TO.C,C2*%
G36*
G01*
X145667553Y-87675000D02*
X146732447Y-87675000D01*
G75*
G02*
X147025000Y-87967553I0J-292553D01*
G01*
X147025000Y-88757447D01*
G75*
G02*
X146732447Y-89050000I-292553J0D01*
G01*
X145667553Y-89050000D01*
G75*
G02*
X145375000Y-88757447I0J292553D01*
G01*
X145375000Y-87967553D01*
G75*
G02*
X145667553Y-87675000I292553J0D01*
G01*
G37*
G36*
G01*
X145667553Y-89750000D02*
X146732447Y-89750000D01*
G75*
G02*
X147025000Y-90042553I0J-292553D01*
G01*
X147025000Y-90832447D01*
G75*
G02*
X146732447Y-91125000I-292553J0D01*
G01*
X145667553Y-91125000D01*
G75*
G02*
X145375000Y-90832447I0J292553D01*
G01*
X145375000Y-90042553D01*
G75*
G02*
X145667553Y-89750000I292553J0D01*
G01*
G37*
%TD*%
%TO.C,C3*%
G36*
G01*
X169332447Y-85525000D02*
X168267553Y-85525000D01*
G75*
G02*
X167975000Y-85232447I0J292553D01*
G01*
X167975000Y-84442553D01*
G75*
G02*
X168267553Y-84150000I292553J0D01*
G01*
X169332447Y-84150000D01*
G75*
G02*
X169625000Y-84442553I0J-292553D01*
G01*
X169625000Y-85232447D01*
G75*
G02*
X169332447Y-85525000I-292553J0D01*
G01*
G37*
G36*
G01*
X169332447Y-83450000D02*
X168267553Y-83450000D01*
G75*
G02*
X167975000Y-83157447I0J292553D01*
G01*
X167975000Y-82367553D01*
G75*
G02*
X168267553Y-82075000I292553J0D01*
G01*
X169332447Y-82075000D01*
G75*
G02*
X169625000Y-82367553I0J-292553D01*
G01*
X169625000Y-83157447D01*
G75*
G02*
X169332447Y-83450000I-292553J0D01*
G01*
G37*
%TD*%
%TO.C,C4*%
G36*
G01*
X157532447Y-85625000D02*
X156467553Y-85625000D01*
G75*
G02*
X156175000Y-85332447I0J292553D01*
G01*
X156175000Y-84542553D01*
G75*
G02*
X156467553Y-84250000I292553J0D01*
G01*
X157532447Y-84250000D01*
G75*
G02*
X157825000Y-84542553I0J-292553D01*
G01*
X157825000Y-85332447D01*
G75*
G02*
X157532447Y-85625000I-292553J0D01*
G01*
G37*
G36*
G01*
X157532447Y-83550000D02*
X156467553Y-83550000D01*
G75*
G02*
X156175000Y-83257447I0J292553D01*
G01*
X156175000Y-82467553D01*
G75*
G02*
X156467553Y-82175000I292553J0D01*
G01*
X157532447Y-82175000D01*
G75*
G02*
X157825000Y-82467553I0J-292553D01*
G01*
X157825000Y-83257447D01*
G75*
G02*
X157532447Y-83550000I-292553J0D01*
G01*
G37*
%TD*%
%TO.C,C5*%
G36*
G01*
X169732447Y-103025000D02*
X168667553Y-103025000D01*
G75*
G02*
X168375000Y-102732447I0J292553D01*
G01*
X168375000Y-101942553D01*
G75*
G02*
X168667553Y-101650000I292553J0D01*
G01*
X169732447Y-101650000D01*
G75*
G02*
X170025000Y-101942553I0J-292553D01*
G01*
X170025000Y-102732447D01*
G75*
G02*
X169732447Y-103025000I-292553J0D01*
G01*
G37*
G36*
G01*
X169732447Y-100950000D02*
X168667553Y-100950000D01*
G75*
G02*
X168375000Y-100657447I0J292553D01*
G01*
X168375000Y-99867553D01*
G75*
G02*
X168667553Y-99575000I292553J0D01*
G01*
X169732447Y-99575000D01*
G75*
G02*
X170025000Y-99867553I0J-292553D01*
G01*
X170025000Y-100657447D01*
G75*
G02*
X169732447Y-100950000I-292553J0D01*
G01*
G37*
%TD*%
%TO.C,C6*%
G36*
G01*
X157332447Y-101050000D02*
X156267553Y-101050000D01*
G75*
G02*
X155975000Y-100757447I0J292553D01*
G01*
X155975000Y-99967553D01*
G75*
G02*
X156267553Y-99675000I292553J0D01*
G01*
X157332447Y-99675000D01*
G75*
G02*
X157625000Y-99967553I0J-292553D01*
G01*
X157625000Y-100757447D01*
G75*
G02*
X157332447Y-101050000I-292553J0D01*
G01*
G37*
G36*
G01*
X157332447Y-103125000D02*
X156267553Y-103125000D01*
G75*
G02*
X155975000Y-102832447I0J292553D01*
G01*
X155975000Y-102042553D01*
G75*
G02*
X156267553Y-101750000I292553J0D01*
G01*
X157332447Y-101750000D01*
G75*
G02*
X157625000Y-102042553I0J-292553D01*
G01*
X157625000Y-102832447D01*
G75*
G02*
X157332447Y-103125000I-292553J0D01*
G01*
G37*
%TD*%
%TO.C,C7*%
G36*
G01*
X169732447Y-121225000D02*
X168667553Y-121225000D01*
G75*
G02*
X168375000Y-120932447I0J292553D01*
G01*
X168375000Y-120142553D01*
G75*
G02*
X168667553Y-119850000I292553J0D01*
G01*
X169732447Y-119850000D01*
G75*
G02*
X170025000Y-120142553I0J-292553D01*
G01*
X170025000Y-120932447D01*
G75*
G02*
X169732447Y-121225000I-292553J0D01*
G01*
G37*
G36*
G01*
X169732447Y-119150000D02*
X168667553Y-119150000D01*
G75*
G02*
X168375000Y-118857447I0J292553D01*
G01*
X168375000Y-118067553D01*
G75*
G02*
X168667553Y-117775000I292553J0D01*
G01*
X169732447Y-117775000D01*
G75*
G02*
X170025000Y-118067553I0J-292553D01*
G01*
X170025000Y-118857447D01*
G75*
G02*
X169732447Y-119150000I-292553J0D01*
G01*
G37*
%TD*%
%TO.C,C8*%
G36*
G01*
X157232447Y-119350000D02*
X156167553Y-119350000D01*
G75*
G02*
X155875000Y-119057447I0J292553D01*
G01*
X155875000Y-118267553D01*
G75*
G02*
X156167553Y-117975000I292553J0D01*
G01*
X157232447Y-117975000D01*
G75*
G02*
X157525000Y-118267553I0J-292553D01*
G01*
X157525000Y-119057447D01*
G75*
G02*
X157232447Y-119350000I-292553J0D01*
G01*
G37*
G36*
G01*
X157232447Y-121425000D02*
X156167553Y-121425000D01*
G75*
G02*
X155875000Y-121132447I0J292553D01*
G01*
X155875000Y-120342553D01*
G75*
G02*
X156167553Y-120050000I292553J0D01*
G01*
X157232447Y-120050000D01*
G75*
G02*
X157525000Y-120342553I0J-292553D01*
G01*
X157525000Y-121132447D01*
G75*
G02*
X157232447Y-121425000I-292553J0D01*
G01*
G37*
%TD*%
%TO.C,R6*%
G36*
G01*
X181300000Y-83291665D02*
X181300000Y-84308335D01*
G75*
G02*
X181008335Y-84600000I-291665J0D01*
G01*
X180191665Y-84600000D01*
G75*
G02*
X179900000Y-84308335I0J291665D01*
G01*
X179900000Y-83291665D01*
G75*
G02*
X180191665Y-83000000I291665J0D01*
G01*
X181008335Y-83000000D01*
G75*
G02*
X181300000Y-83291665I0J-291665D01*
G01*
G37*
G36*
G01*
X179300000Y-83291665D02*
X179300000Y-84308335D01*
G75*
G02*
X179008335Y-84600000I-291665J0D01*
G01*
X178191665Y-84600000D01*
G75*
G02*
X177900000Y-84308335I0J291665D01*
G01*
X177900000Y-83291665D01*
G75*
G02*
X178191665Y-83000000I291665J0D01*
G01*
X179008335Y-83000000D01*
G75*
G02*
X179300000Y-83291665I0J-291665D01*
G01*
G37*
%TD*%
%TO.C,C10*%
G36*
G01*
X179267553Y-76375000D02*
X180332447Y-76375000D01*
G75*
G02*
X180625000Y-76667553I0J-292553D01*
G01*
X180625000Y-77457447D01*
G75*
G02*
X180332447Y-77750000I-292553J0D01*
G01*
X179267553Y-77750000D01*
G75*
G02*
X178975000Y-77457447I0J292553D01*
G01*
X178975000Y-76667553D01*
G75*
G02*
X179267553Y-76375000I292553J0D01*
G01*
G37*
G36*
G01*
X179267553Y-78450000D02*
X180332447Y-78450000D01*
G75*
G02*
X180625000Y-78742553I0J-292553D01*
G01*
X180625000Y-79532447D01*
G75*
G02*
X180332447Y-79825000I-292553J0D01*
G01*
X179267553Y-79825000D01*
G75*
G02*
X178975000Y-79532447I0J292553D01*
G01*
X178975000Y-78742553D01*
G75*
G02*
X179267553Y-78450000I292553J0D01*
G01*
G37*
%TD*%
%TO.C,C9*%
G36*
G01*
X171267553Y-81975000D02*
X172332447Y-81975000D01*
G75*
G02*
X172625000Y-82267553I0J-292553D01*
G01*
X172625000Y-83057447D01*
G75*
G02*
X172332447Y-83350000I-292553J0D01*
G01*
X171267553Y-83350000D01*
G75*
G02*
X170975000Y-83057447I0J292553D01*
G01*
X170975000Y-82267553D01*
G75*
G02*
X171267553Y-81975000I292553J0D01*
G01*
G37*
G36*
G01*
X171267553Y-84050000D02*
X172332447Y-84050000D01*
G75*
G02*
X172625000Y-84342553I0J-292553D01*
G01*
X172625000Y-85132447D01*
G75*
G02*
X172332447Y-85425000I-292553J0D01*
G01*
X171267553Y-85425000D01*
G75*
G02*
X170975000Y-85132447I0J292553D01*
G01*
X170975000Y-84342553D01*
G75*
G02*
X171267553Y-84050000I292553J0D01*
G01*
G37*
%TD*%
%TO.C,R7*%
G36*
G01*
X175200000Y-95708335D02*
X175200000Y-94691665D01*
G75*
G02*
X175491665Y-94400000I291665J0D01*
G01*
X176308335Y-94400000D01*
G75*
G02*
X176600000Y-94691665I0J-291665D01*
G01*
X176600000Y-95708335D01*
G75*
G02*
X176308335Y-96000000I-291665J0D01*
G01*
X175491665Y-96000000D01*
G75*
G02*
X175200000Y-95708335I0J291665D01*
G01*
G37*
G36*
G01*
X177200000Y-95708335D02*
X177200000Y-94691665D01*
G75*
G02*
X177491665Y-94400000I291665J0D01*
G01*
X178308335Y-94400000D01*
G75*
G02*
X178600000Y-94691665I0J-291665D01*
G01*
X178600000Y-95708335D01*
G75*
G02*
X178308335Y-96000000I-291665J0D01*
G01*
X177491665Y-96000000D01*
G75*
G02*
X177200000Y-95708335I0J291665D01*
G01*
G37*
%TD*%
%TO.C,R8*%
G36*
G01*
X177300000Y-92308335D02*
X177300000Y-91291665D01*
G75*
G02*
X177591665Y-91000000I291665J0D01*
G01*
X178408335Y-91000000D01*
G75*
G02*
X178700000Y-91291665I0J-291665D01*
G01*
X178700000Y-92308335D01*
G75*
G02*
X178408335Y-92600000I-291665J0D01*
G01*
X177591665Y-92600000D01*
G75*
G02*
X177300000Y-92308335I0J291665D01*
G01*
G37*
G36*
G01*
X175300000Y-92308335D02*
X175300000Y-91291665D01*
G75*
G02*
X175591665Y-91000000I291665J0D01*
G01*
X176408335Y-91000000D01*
G75*
G02*
X176700000Y-91291665I0J-291665D01*
G01*
X176700000Y-92308335D01*
G75*
G02*
X176408335Y-92600000I-291665J0D01*
G01*
X175591665Y-92600000D01*
G75*
G02*
X175300000Y-92308335I0J291665D01*
G01*
G37*
%TD*%
%TO.C,R1*%
G36*
G01*
X160300000Y-93991665D02*
X160300000Y-95008335D01*
G75*
G02*
X160008335Y-95300000I-291665J0D01*
G01*
X159191665Y-95300000D01*
G75*
G02*
X158900000Y-95008335I0J291665D01*
G01*
X158900000Y-93991665D01*
G75*
G02*
X159191665Y-93700000I291665J0D01*
G01*
X160008335Y-93700000D01*
G75*
G02*
X160300000Y-93991665I0J-291665D01*
G01*
G37*
G36*
G01*
X158300000Y-93991665D02*
X158300000Y-95008335D01*
G75*
G02*
X158008335Y-95300000I-291665J0D01*
G01*
X157191665Y-95300000D01*
G75*
G02*
X156900000Y-95008335I0J291665D01*
G01*
X156900000Y-93991665D01*
G75*
G02*
X157191665Y-93700000I291665J0D01*
G01*
X158008335Y-93700000D01*
G75*
G02*
X158300000Y-93991665I0J-291665D01*
G01*
G37*
%TD*%
%TO.C,R2*%
G36*
G01*
X145208335Y-121700000D02*
X144191665Y-121700000D01*
G75*
G02*
X143900000Y-121408335I0J291665D01*
G01*
X143900000Y-120591665D01*
G75*
G02*
X144191665Y-120300000I291665J0D01*
G01*
X145208335Y-120300000D01*
G75*
G02*
X145500000Y-120591665I0J-291665D01*
G01*
X145500000Y-121408335D01*
G75*
G02*
X145208335Y-121700000I-291665J0D01*
G01*
G37*
G36*
G01*
X145208335Y-123700000D02*
X144191665Y-123700000D01*
G75*
G02*
X143900000Y-123408335I0J291665D01*
G01*
X143900000Y-122591665D01*
G75*
G02*
X144191665Y-122300000I291665J0D01*
G01*
X145208335Y-122300000D01*
G75*
G02*
X145500000Y-122591665I0J-291665D01*
G01*
X145500000Y-123408335D01*
G75*
G02*
X145208335Y-123700000I-291665J0D01*
G01*
G37*
%TD*%
%TO.C,R3*%
G36*
G01*
X158300000Y-112191665D02*
X158300000Y-113208335D01*
G75*
G02*
X158008335Y-113500000I-291665J0D01*
G01*
X157191665Y-113500000D01*
G75*
G02*
X156900000Y-113208335I0J291665D01*
G01*
X156900000Y-112191665D01*
G75*
G02*
X157191665Y-111900000I291665J0D01*
G01*
X158008335Y-111900000D01*
G75*
G02*
X158300000Y-112191665I0J-291665D01*
G01*
G37*
G36*
G01*
X160300000Y-112191665D02*
X160300000Y-113208335D01*
G75*
G02*
X160008335Y-113500000I-291665J0D01*
G01*
X159191665Y-113500000D01*
G75*
G02*
X158900000Y-113208335I0J291665D01*
G01*
X158900000Y-112191665D01*
G75*
G02*
X159191665Y-111900000I291665J0D01*
G01*
X160008335Y-111900000D01*
G75*
G02*
X160300000Y-112191665I0J-291665D01*
G01*
G37*
%TD*%
%TO.C,R4*%
G36*
G01*
X160400000Y-129891665D02*
X160400000Y-130908335D01*
G75*
G02*
X160108335Y-131200000I-291665J0D01*
G01*
X159291665Y-131200000D01*
G75*
G02*
X159000000Y-130908335I0J291665D01*
G01*
X159000000Y-129891665D01*
G75*
G02*
X159291665Y-129600000I291665J0D01*
G01*
X160108335Y-129600000D01*
G75*
G02*
X160400000Y-129891665I0J-291665D01*
G01*
G37*
G36*
G01*
X158400000Y-129891665D02*
X158400000Y-130908335D01*
G75*
G02*
X158108335Y-131200000I-291665J0D01*
G01*
X157291665Y-131200000D01*
G75*
G02*
X157000000Y-130908335I0J291665D01*
G01*
X157000000Y-129891665D01*
G75*
G02*
X157291665Y-129600000I291665J0D01*
G01*
X158108335Y-129600000D01*
G75*
G02*
X158400000Y-129891665I0J-291665D01*
G01*
G37*
%TD*%
M02*
