M48
; DRILL file {KiCad 5.1.9+dfsg1-1+deb11u1} date Fri Aug  1 09:18:45 2025
; FORMAT={-:-/ absolute / metric / decimal}
; #@! TF.CreationDate,2025-08-01T09:18:45+02:00
; #@! TF.GenerationSoftware,Kicad,Pcbnew,5.1.9+dfsg1-1+deb11u1
; #@! TF.FileFunction,Plated,1,4,PTH
FMAT,2
METRIC
T1C0.300
T2C0.400
T3C0.600
T4C0.650
T5C1.000
%
G90
G05
T1
X173.538Y-91.762
X173.962Y-91.338
X174.45Y-93.1
X174.45Y-93.7
T2
X126.67Y-102.8
X133.25Y-114.65
X134.3Y-114.55
X146.29Y-111.23
X146.9Y-126.6
X146.9Y-131.9
X147.3Y-107.2
X147.35Y-108.6
X147.4Y-110.45
X147.45Y-113.1
X151.9Y-121.96
X152.14Y-95.52
X153.696Y-92.147
X154.08Y-117.1
X154.7Y-104.8
X155.407Y-105.507
X156.2Y-106.25
X156.329Y-109.079
X156.806Y-107.046
X157.307Y-90.682
X157.564Y-107.698
X160.05Y-121.15
X161.517Y-109.299
X165.0Y-78.0
X170.62Y-87.18
X170.643Y-93.748
X170.666Y-92.748
X170.71Y-94.746
X171.04Y-79.06
X171.278Y-91.844
X172.223Y-89.791
X172.251Y-90.791
X172.292Y-88.793
X172.302Y-91.789
X173.575Y-78.99
X176.64Y-82.11
X176.75Y-88.15
X177.497Y-88.814
X178.85Y-88.7
X179.513Y-89.449
X180.527Y-90.73
X182.5Y-91.93
X182.506Y-92.93
X182.55Y-94.0
X184.0Y-77.5
T3
X126.34Y-90.31
X130.27Y-86.47
X143.84Y-119.49
X146.25Y-89.89
X152.71Y-90.41
X154.75Y-82.75
X154.8Y-103.45
X154.802Y-121.77
X154.88Y-85.492
X155.0Y-130.45
X155.05Y-112.6
X155.646Y-77.094
X156.6Y-96.45
X156.8Y-117.05
X156.85Y-98.9
X161.45Y-122.7
X161.856Y-86.715
X162.367Y-104.137
X164.15Y-109.9
X164.25Y-128.0
X164.3Y-91.95
X164.35Y-104.7
X164.4Y-86.75
X164.4Y-122.6
X167.15Y-82.7
X169.1Y-84.35
X169.1Y-116.85
X169.1Y-119.75
X169.2Y-98.85
X169.25Y-101.9
X174.9Y-88.8
X178.5Y-81.75
X180.6Y-124.45
X194.5Y-77.5
X210.32Y-119.25
X210.37Y-121.75
T5
X124.98Y-89.15
X124.98Y-91.69
X124.98Y-94.23
X124.98Y-96.77
X124.98Y-99.31
X124.98Y-101.85
X124.98Y-104.39
X124.98Y-106.93
X124.98Y-109.47
X124.98Y-112.01
X124.98Y-114.55
X124.98Y-117.09
X124.98Y-119.63
X124.98Y-122.17
X124.98Y-124.71
X150.37Y-89.15
X150.37Y-91.69
X150.37Y-94.23
X150.37Y-96.77
X150.37Y-99.31
X150.37Y-101.85
X150.37Y-104.39
X150.37Y-106.93
X150.37Y-109.47
X150.37Y-112.01
X150.37Y-114.55
X150.37Y-117.09
X150.37Y-119.63
X150.37Y-122.17
X150.37Y-124.71
T4
G00X167.98Y-76.65
M15
G01X167.98Y-75.35
M16
G05
G00X167.98Y-80.325
M15
G01X167.98Y-79.325
M16
G05
G00X176.62Y-76.65
M15
G01X176.62Y-75.35
M16
G05
G00X176.62Y-80.325
M15
G01X176.62Y-79.325
M16
G05
T0
M30
