%TF.GenerationSoftware,KiCad,Pcbnew,5.1.9+dfsg1-1+deb11u1*%
%TF.CreationDate,2025-09-19T12:14:10+02:00*%
%TF.ProjectId,ESP32-BOBOARD-5V,45535033-322d-4424-9f42-4f4152442d35,rev?*%
%TF.SameCoordinates,Original*%
%TF.FileFunction,Legend,Bot*%
%TF.FilePolarity,Positive*%
%FSLAX46Y46*%
G04 Gerber Fmt 4.6, Leading zero omitted, Abs format (unit mm)*
G04 Created by KiCad (PCBNEW 5.1.9+dfsg1-1+deb11u1) date 2025-09-19 12:14:10*
%MOMM*%
%LPD*%
G01*
G04 APERTURE LIST*
%ADD10C,0.150000*%
G04 APERTURE END LIST*
D10*
X218993333Y-76292380D02*
X218993333Y-75625714D01*
X218993333Y-75292380D02*
X219040952Y-75340000D01*
X218993333Y-75387619D01*
X218945714Y-75340000D01*
X218993333Y-75292380D01*
X218993333Y-75387619D01*
X218517142Y-75625714D02*
X218517142Y-76292380D01*
X218517142Y-75720952D02*
X218469523Y-75673333D01*
X218374285Y-75625714D01*
X218231428Y-75625714D01*
X218136190Y-75673333D01*
X218088571Y-75768571D01*
X218088571Y-76292380D01*
X216850476Y-76292380D02*
X216850476Y-75625714D01*
X216850476Y-75720952D02*
X216802857Y-75673333D01*
X216707619Y-75625714D01*
X216564761Y-75625714D01*
X216469523Y-75673333D01*
X216421904Y-75768571D01*
X216421904Y-76292380D01*
X216421904Y-75768571D02*
X216374285Y-75673333D01*
X216279047Y-75625714D01*
X216136190Y-75625714D01*
X216040952Y-75673333D01*
X215993333Y-75768571D01*
X215993333Y-76292380D01*
X215136190Y-76244761D02*
X215231428Y-76292380D01*
X215421904Y-76292380D01*
X215517142Y-76244761D01*
X215564761Y-76149523D01*
X215564761Y-75768571D01*
X215517142Y-75673333D01*
X215421904Y-75625714D01*
X215231428Y-75625714D01*
X215136190Y-75673333D01*
X215088571Y-75768571D01*
X215088571Y-75863809D01*
X215564761Y-75959047D01*
X214660000Y-76292380D02*
X214660000Y-75625714D01*
X214660000Y-75720952D02*
X214612380Y-75673333D01*
X214517142Y-75625714D01*
X214374285Y-75625714D01*
X214279047Y-75673333D01*
X214231428Y-75768571D01*
X214231428Y-76292380D01*
X214231428Y-75768571D02*
X214183809Y-75673333D01*
X214088571Y-75625714D01*
X213945714Y-75625714D01*
X213850476Y-75673333D01*
X213802857Y-75768571D01*
X213802857Y-76292380D01*
X213183809Y-76292380D02*
X213279047Y-76244761D01*
X213326666Y-76197142D01*
X213374285Y-76101904D01*
X213374285Y-75816190D01*
X213326666Y-75720952D01*
X213279047Y-75673333D01*
X213183809Y-75625714D01*
X213040952Y-75625714D01*
X212945714Y-75673333D01*
X212898095Y-75720952D01*
X212850476Y-75816190D01*
X212850476Y-76101904D01*
X212898095Y-76197142D01*
X212945714Y-76244761D01*
X213040952Y-76292380D01*
X213183809Y-76292380D01*
X212421904Y-76292380D02*
X212421904Y-75625714D01*
X212421904Y-75816190D02*
X212374285Y-75720952D01*
X212326666Y-75673333D01*
X212231428Y-75625714D01*
X212136190Y-75625714D01*
X211802857Y-76292380D02*
X211802857Y-75625714D01*
X211802857Y-75292380D02*
X211850476Y-75340000D01*
X211802857Y-75387619D01*
X211755238Y-75340000D01*
X211802857Y-75292380D01*
X211802857Y-75387619D01*
X210898095Y-76292380D02*
X210898095Y-75768571D01*
X210945714Y-75673333D01*
X211040952Y-75625714D01*
X211231428Y-75625714D01*
X211326666Y-75673333D01*
X210898095Y-76244761D02*
X210993333Y-76292380D01*
X211231428Y-76292380D01*
X211326666Y-76244761D01*
X211374285Y-76149523D01*
X211374285Y-76054285D01*
X211326666Y-75959047D01*
X211231428Y-75911428D01*
X210993333Y-75911428D01*
X210898095Y-75863809D01*
X210421904Y-76292380D02*
X210421904Y-75625714D01*
X210421904Y-75720952D02*
X210374285Y-75673333D01*
X210279047Y-75625714D01*
X210136190Y-75625714D01*
X210040952Y-75673333D01*
X209993333Y-75768571D01*
X209993333Y-76292380D01*
X209993333Y-75768571D02*
X209945714Y-75673333D01*
X209850476Y-75625714D01*
X209707619Y-75625714D01*
X209612380Y-75673333D01*
X209564761Y-75768571D01*
X209564761Y-76292380D01*
X208374285Y-76006666D02*
X207898095Y-76006666D01*
X208469523Y-76292380D02*
X208136190Y-75292380D01*
X207802857Y-76292380D01*
X207469523Y-76197142D02*
X207421904Y-76244761D01*
X207469523Y-76292380D01*
X207517142Y-76244761D01*
X207469523Y-76197142D01*
X207469523Y-76292380D01*
X207040952Y-76244761D02*
X206898095Y-76292380D01*
X206660000Y-76292380D01*
X206564761Y-76244761D01*
X206517142Y-76197142D01*
X206469523Y-76101904D01*
X206469523Y-76006666D01*
X206517142Y-75911428D01*
X206564761Y-75863809D01*
X206660000Y-75816190D01*
X206850476Y-75768571D01*
X206945714Y-75720952D01*
X206993333Y-75673333D01*
X207040952Y-75578095D01*
X207040952Y-75482857D01*
X206993333Y-75387619D01*
X206945714Y-75340000D01*
X206850476Y-75292380D01*
X206612380Y-75292380D01*
X206469523Y-75340000D01*
X206040952Y-76197142D02*
X205993333Y-76244761D01*
X206040952Y-76292380D01*
X206088571Y-76244761D01*
X206040952Y-76197142D01*
X206040952Y-76292380D01*
X204802857Y-75911428D02*
X204040952Y-75911428D01*
X202279047Y-75340000D02*
X202374285Y-75292380D01*
X202517142Y-75292380D01*
X202660000Y-75340000D01*
X202755238Y-75435238D01*
X202802857Y-75530476D01*
X202850476Y-75720952D01*
X202850476Y-75863809D01*
X202802857Y-76054285D01*
X202755238Y-76149523D01*
X202660000Y-76244761D01*
X202517142Y-76292380D01*
X202421904Y-76292380D01*
X202279047Y-76244761D01*
X202231428Y-76197142D01*
X202231428Y-75863809D01*
X202421904Y-75863809D01*
X201802857Y-76197142D02*
X201755238Y-76244761D01*
X201802857Y-76292380D01*
X201850476Y-76244761D01*
X201802857Y-76197142D01*
X201802857Y-76292380D01*
X201326666Y-76292380D02*
X201326666Y-75292380D01*
X201088571Y-75292380D01*
X200945714Y-75340000D01*
X200850476Y-75435238D01*
X200802857Y-75530476D01*
X200755238Y-75720952D01*
X200755238Y-75863809D01*
X200802857Y-76054285D01*
X200850476Y-76149523D01*
X200945714Y-76244761D01*
X201088571Y-76292380D01*
X201326666Y-76292380D01*
X200326666Y-76197142D02*
X200279047Y-76244761D01*
X200326666Y-76292380D01*
X200374285Y-76244761D01*
X200326666Y-76197142D01*
X200326666Y-76292380D01*
M02*
