%TF.GenerationSoftware,KiCad,Pcbnew,5.1.9+dfsg1-1+deb11u1*%
%TF.CreationDate,2025-07-23T09:27:31+02:00*%
%TF.ProjectId,ESP32-BOBOARD-5V,45535033-322d-4424-9f42-4f4152442d35,rev?*%
%TF.SameCoordinates,Original*%
%TF.FileFunction,Copper,L2,Inr*%
%TF.FilePolarity,Positive*%
%FSLAX46Y46*%
G04 Gerber Fmt 4.6, Leading zero omitted, Abs format (unit mm)*
G04 Created by KiCad (PCBNEW 5.1.9+dfsg1-1+deb11u1) date 2025-07-23 09:27:31*
%MOMM*%
%LPD*%
G01*
G04 APERTURE LIST*
%TA.AperFunction,NonConductor*%
%ADD10C,0.150000*%
%TD*%
%TA.AperFunction,ComponentPad*%
%ADD11O,1.700000X1.700000*%
%TD*%
%TA.AperFunction,ComponentPad*%
%ADD12R,1.700000X1.700000*%
%TD*%
%TA.AperFunction,ComponentPad*%
%ADD13O,1.200000X2.400000*%
%TD*%
%TA.AperFunction,ComponentPad*%
%ADD14O,1.158000X2.316000*%
%TD*%
%TA.AperFunction,ViaPad*%
%ADD15C,0.900000*%
%TD*%
%TA.AperFunction,ViaPad*%
%ADD16C,0.800000*%
%TD*%
%TA.AperFunction,ViaPad*%
%ADD17C,0.450000*%
%TD*%
%TA.AperFunction,Conductor*%
%ADD18C,0.500000*%
%TD*%
%TA.AperFunction,Conductor*%
%ADD19C,0.254000*%
%TD*%
%TA.AperFunction,Conductor*%
%ADD20C,0.100000*%
%TD*%
%TA.AperFunction,Conductor*%
%ADD21C,0.025400*%
%TD*%
G04 APERTURE END LIST*
D10*
X217883333Y-80525713D02*
X217407142Y-80525713D01*
X217407142Y-79525713D01*
X218169047Y-79620952D02*
X218216666Y-79573333D01*
X218311904Y-79525713D01*
X218550000Y-79525713D01*
X218645238Y-79573333D01*
X218692857Y-79620952D01*
X218740476Y-79716190D01*
X218740476Y-79811428D01*
X218692857Y-79954285D01*
X218121428Y-80525713D01*
X218740476Y-80525713D01*
D11*
%TO.N,/EN*%
%TO.C,J2*%
X150370000Y-124710000D03*
%TO.N,/VP*%
X150370000Y-122170000D03*
%TO.N,/VN*%
X150370000Y-119630000D03*
%TO.N,/D34*%
X150370000Y-117090000D03*
%TO.N,/D35*%
X150370000Y-114550000D03*
%TO.N,/D32*%
X150370000Y-112010000D03*
%TO.N,/D33*%
X150370000Y-109470000D03*
%TO.N,/D25*%
X150370000Y-106930000D03*
%TO.N,/D26*%
X150370000Y-104390000D03*
%TO.N,/D27*%
X150370000Y-101850000D03*
%TO.N,/D14*%
X150370000Y-99310000D03*
%TO.N,/D12*%
X150370000Y-96770000D03*
%TO.N,/D13*%
X150370000Y-94230000D03*
%TO.N,GND*%
X150370000Y-91690000D03*
D12*
%TO.N,+5V*%
X150370000Y-89150000D03*
%TD*%
D11*
%TO.N,/D23*%
%TO.C,J1*%
X124980000Y-124710000D03*
%TO.N,/D22*%
X124980000Y-122170000D03*
%TO.N,/TX0*%
X124980000Y-119630000D03*
%TO.N,/RX0*%
X124980000Y-117090000D03*
%TO.N,/D21*%
X124980000Y-114550000D03*
%TO.N,/D19*%
X124980000Y-112010000D03*
%TO.N,/D18*%
X124980000Y-109470000D03*
%TO.N,/D5*%
X124980000Y-106930000D03*
%TO.N,/TX2*%
X124980000Y-104390000D03*
%TO.N,/RX2*%
X124980000Y-101850000D03*
%TO.N,/D4*%
X124980000Y-99310000D03*
%TO.N,/D2*%
X124980000Y-96770000D03*
%TO.N,/D15*%
X124980000Y-94230000D03*
%TO.N,GND*%
X124980000Y-91690000D03*
D12*
%TO.N,+3V3*%
X124980000Y-89150000D03*
%TD*%
D13*
%TO.N,Net-(C10-Pad2)*%
%TO.C,J5*%
X167980000Y-76000000D03*
X176620000Y-76000000D03*
D14*
X167980000Y-79825000D03*
X176620000Y-79825000D03*
%TD*%
D15*
%TO.N,GND*%
X178500000Y-81750000D03*
X174900000Y-88800000D03*
X167150000Y-82700000D03*
X154750000Y-82750000D03*
X156850000Y-98900000D03*
X169200000Y-98850000D03*
X156800000Y-117050000D03*
X169100000Y-116850000D03*
X164150000Y-109900000D03*
X164300000Y-91950000D03*
X164250000Y-128000000D03*
X146250000Y-89890000D03*
X152710000Y-90410000D03*
X155646451Y-77093547D03*
X210370000Y-121750000D03*
X126340000Y-90310000D03*
%TO.N,+5V*%
X164400000Y-86750000D03*
X169100000Y-84350000D03*
X164350000Y-104700000D03*
X169250000Y-101900000D03*
X164400000Y-122600000D03*
X169100000Y-119750000D03*
X180600000Y-124450000D03*
%TO.N,+3V3*%
X143840000Y-119490000D03*
X161856141Y-86715206D03*
X156600000Y-96450000D03*
X154879506Y-85492053D03*
X154800000Y-103450000D03*
X155050000Y-112600000D03*
X161450000Y-122700000D03*
X155000000Y-130450000D03*
X162366929Y-104137261D03*
X130270000Y-86470000D03*
X210320000Y-119250000D03*
X154801733Y-121770010D03*
D16*
%TO.N,/D23*%
X156805669Y-107045718D03*
X147450000Y-113100000D03*
%TO.N,/D22*%
X156200000Y-106250000D03*
X147400000Y-110450000D03*
%TO.N,/D21*%
X155407108Y-105507108D03*
X147350000Y-108600000D03*
%TO.N,/D19*%
X154700000Y-104800000D03*
X147300000Y-107200000D03*
%TO.N,/TX2*%
X133250000Y-114650000D03*
%TO.N,/RX2*%
X134300000Y-114550000D03*
X126670000Y-102800000D03*
%TO.N,/D15*%
X157307475Y-90682475D03*
%TO.N,/EN*%
X146900000Y-126600000D03*
X146900000Y-131900000D03*
%TO.N,/VP*%
X151900000Y-121960000D03*
%TO.N,/D34*%
X154080010Y-117100000D03*
%TO.N,/D33*%
X160050000Y-121150000D03*
X146290000Y-111230000D03*
%TO.N,/D25*%
X157563764Y-107697865D03*
X156328518Y-109078518D03*
%TO.N,/D26*%
X161516919Y-109299232D03*
%TO.N,/D12*%
X153696418Y-92147283D03*
X152140000Y-95520000D03*
%TO.N,/mD18*%
X170709678Y-94745515D03*
X182550000Y-94000000D03*
%TO.N,/mD15*%
X170643312Y-93747718D03*
X182506053Y-92930003D03*
%TO.N,/mD14*%
X170665772Y-92747969D03*
X182500000Y-91930010D03*
%TO.N,/mD13*%
X171278496Y-91843803D03*
X180526853Y-90730010D03*
%TO.N,/mD12*%
X172301996Y-91789217D03*
X179512764Y-89448830D03*
%TO.N,/mD5*%
X172251153Y-90790508D03*
X178850000Y-88700000D03*
%TO.N,/mD4*%
X172222699Y-89790911D03*
X177497411Y-88814365D03*
%TO.N,/mD2*%
X172292370Y-88793339D03*
X176750000Y-88150000D03*
%TO.N,Net-(J5-Pad9)*%
X176640000Y-82110000D03*
X171040000Y-79060000D03*
%TO.N,Net-(J5-Pad3)*%
X170619975Y-87180025D03*
X173575000Y-78990000D03*
D17*
%TO.N,/USBD_N*%
X173962133Y-91337867D03*
X174450000Y-93700000D03*
%TO.N,/USBD_P*%
X173537867Y-91762133D03*
X174450000Y-93100000D03*
%TD*%
D18*
%TO.N,+5V*%
X165300001Y-121699999D02*
X164400000Y-122600000D01*
X164400000Y-86750000D02*
X165300001Y-87650001D01*
X165100000Y-104700000D02*
X165300001Y-104900001D01*
X164350000Y-104700000D02*
X165100000Y-104700000D01*
X165300001Y-104900001D02*
X165300001Y-121699999D01*
X165300001Y-87650001D02*
X165300001Y-104900001D01*
X162000000Y-89150000D02*
X164400000Y-86750000D01*
X150370000Y-89150000D02*
X162000000Y-89150000D01*
%TD*%
D19*
%TO.N,+3V3*%
X166948168Y-74710551D02*
X166833489Y-74925099D01*
X166762870Y-75157898D01*
X166745000Y-75339335D01*
X166745000Y-76660664D01*
X166762870Y-76842101D01*
X166833489Y-77074900D01*
X166948167Y-77289448D01*
X167102498Y-77477502D01*
X167290551Y-77631833D01*
X167505099Y-77746511D01*
X167737898Y-77817130D01*
X167980000Y-77840975D01*
X168222101Y-77817130D01*
X168454900Y-77746511D01*
X168669448Y-77631833D01*
X168857502Y-77477502D01*
X169011833Y-77289449D01*
X169126511Y-77074901D01*
X169197130Y-76842102D01*
X169215000Y-76660665D01*
X169215000Y-75339335D01*
X169197130Y-75157898D01*
X169126511Y-74925099D01*
X169011833Y-74710551D01*
X169011381Y-74710000D01*
X175588620Y-74710000D01*
X175588168Y-74710551D01*
X175473489Y-74925099D01*
X175402870Y-75157898D01*
X175385000Y-75339335D01*
X175385000Y-76660664D01*
X175402870Y-76842101D01*
X175473489Y-77074900D01*
X175588167Y-77289448D01*
X175742498Y-77477502D01*
X175930551Y-77631833D01*
X176145099Y-77746511D01*
X176377898Y-77817130D01*
X176620000Y-77840975D01*
X176862101Y-77817130D01*
X177094900Y-77746511D01*
X177309448Y-77631833D01*
X177497502Y-77477502D01*
X177651833Y-77289449D01*
X177766511Y-77074901D01*
X177837130Y-76842102D01*
X177855000Y-76660665D01*
X177855000Y-75339335D01*
X177837130Y-75157898D01*
X177766511Y-74925099D01*
X177651833Y-74710551D01*
X177651381Y-74710000D01*
X217965279Y-74710000D01*
X218444134Y-74756953D01*
X218871355Y-74885938D01*
X219265384Y-75095446D01*
X219611214Y-75377499D01*
X219895673Y-75721351D01*
X220107929Y-76113910D01*
X220239892Y-76540213D01*
X220290000Y-77016964D01*
X220290001Y-130965269D01*
X220243048Y-131444133D01*
X220114063Y-131871353D01*
X219904554Y-132265384D01*
X219622501Y-132611214D01*
X219278651Y-132895672D01*
X218886093Y-133107927D01*
X218459788Y-133239891D01*
X217983036Y-133290000D01*
X124034721Y-133290000D01*
X123555867Y-133243048D01*
X123128647Y-133114063D01*
X122734616Y-132904554D01*
X122388786Y-132622501D01*
X122104328Y-132278651D01*
X121892073Y-131886093D01*
X121864823Y-131798061D01*
X145865000Y-131798061D01*
X145865000Y-132001939D01*
X145904774Y-132201898D01*
X145982795Y-132390256D01*
X146096063Y-132559774D01*
X146240226Y-132703937D01*
X146409744Y-132817205D01*
X146598102Y-132895226D01*
X146798061Y-132935000D01*
X147001939Y-132935000D01*
X147201898Y-132895226D01*
X147390256Y-132817205D01*
X147559774Y-132703937D01*
X147703937Y-132559774D01*
X147817205Y-132390256D01*
X147895226Y-132201898D01*
X147935000Y-132001939D01*
X147935000Y-131798061D01*
X147895226Y-131598102D01*
X147817205Y-131409744D01*
X147703937Y-131240226D01*
X147559774Y-131096063D01*
X147390256Y-130982795D01*
X147201898Y-130904774D01*
X147001939Y-130865000D01*
X146798061Y-130865000D01*
X146598102Y-130904774D01*
X146409744Y-130982795D01*
X146240226Y-131096063D01*
X146096063Y-131240226D01*
X145982795Y-131409744D01*
X145904774Y-131598102D01*
X145865000Y-131798061D01*
X121864823Y-131798061D01*
X121760109Y-131459788D01*
X121710000Y-130983036D01*
X121710000Y-127893137D01*
X163165000Y-127893137D01*
X163165000Y-128106863D01*
X163206696Y-128316483D01*
X163288485Y-128513940D01*
X163407225Y-128691647D01*
X163558353Y-128842775D01*
X163736060Y-128961515D01*
X163933517Y-129043304D01*
X164143137Y-129085000D01*
X164356863Y-129085000D01*
X164566483Y-129043304D01*
X164763940Y-128961515D01*
X164941647Y-128842775D01*
X165092775Y-128691647D01*
X165211515Y-128513940D01*
X165293304Y-128316483D01*
X165335000Y-128106863D01*
X165335000Y-127893137D01*
X165293304Y-127683517D01*
X165211515Y-127486060D01*
X165092775Y-127308353D01*
X164941647Y-127157225D01*
X164763940Y-127038485D01*
X164566483Y-126956696D01*
X164356863Y-126915000D01*
X164143137Y-126915000D01*
X163933517Y-126956696D01*
X163736060Y-127038485D01*
X163558353Y-127157225D01*
X163407225Y-127308353D01*
X163288485Y-127486060D01*
X163206696Y-127683517D01*
X163165000Y-127893137D01*
X121710000Y-127893137D01*
X121710000Y-126498061D01*
X145865000Y-126498061D01*
X145865000Y-126701939D01*
X145904774Y-126901898D01*
X145982795Y-127090256D01*
X146096063Y-127259774D01*
X146240226Y-127403937D01*
X146409744Y-127517205D01*
X146598102Y-127595226D01*
X146798061Y-127635000D01*
X147001939Y-127635000D01*
X147201898Y-127595226D01*
X147390256Y-127517205D01*
X147559774Y-127403937D01*
X147703937Y-127259774D01*
X147817205Y-127090256D01*
X147895226Y-126901898D01*
X147935000Y-126701939D01*
X147935000Y-126498061D01*
X147895226Y-126298102D01*
X147817205Y-126109744D01*
X147703937Y-125940226D01*
X147559774Y-125796063D01*
X147390256Y-125682795D01*
X147201898Y-125604774D01*
X147001939Y-125565000D01*
X146798061Y-125565000D01*
X146598102Y-125604774D01*
X146409744Y-125682795D01*
X146240226Y-125796063D01*
X146096063Y-125940226D01*
X145982795Y-126109744D01*
X145904774Y-126298102D01*
X145865000Y-126498061D01*
X121710000Y-126498061D01*
X121710000Y-90000000D01*
X123491928Y-90000000D01*
X123504188Y-90124482D01*
X123540498Y-90244180D01*
X123599463Y-90354494D01*
X123678815Y-90451185D01*
X123775506Y-90530537D01*
X123885820Y-90589502D01*
X123958380Y-90611513D01*
X123826525Y-90743368D01*
X123664010Y-90986589D01*
X123552068Y-91256842D01*
X123495000Y-91543740D01*
X123495000Y-91836260D01*
X123552068Y-92123158D01*
X123664010Y-92393411D01*
X123826525Y-92636632D01*
X124033368Y-92843475D01*
X124207760Y-92960000D01*
X124033368Y-93076525D01*
X123826525Y-93283368D01*
X123664010Y-93526589D01*
X123552068Y-93796842D01*
X123495000Y-94083740D01*
X123495000Y-94376260D01*
X123552068Y-94663158D01*
X123664010Y-94933411D01*
X123826525Y-95176632D01*
X124033368Y-95383475D01*
X124207760Y-95500000D01*
X124033368Y-95616525D01*
X123826525Y-95823368D01*
X123664010Y-96066589D01*
X123552068Y-96336842D01*
X123495000Y-96623740D01*
X123495000Y-96916260D01*
X123552068Y-97203158D01*
X123664010Y-97473411D01*
X123826525Y-97716632D01*
X124033368Y-97923475D01*
X124207760Y-98040000D01*
X124033368Y-98156525D01*
X123826525Y-98363368D01*
X123664010Y-98606589D01*
X123552068Y-98876842D01*
X123495000Y-99163740D01*
X123495000Y-99456260D01*
X123552068Y-99743158D01*
X123664010Y-100013411D01*
X123826525Y-100256632D01*
X124033368Y-100463475D01*
X124207760Y-100580000D01*
X124033368Y-100696525D01*
X123826525Y-100903368D01*
X123664010Y-101146589D01*
X123552068Y-101416842D01*
X123495000Y-101703740D01*
X123495000Y-101996260D01*
X123552068Y-102283158D01*
X123664010Y-102553411D01*
X123826525Y-102796632D01*
X124033368Y-103003475D01*
X124207760Y-103120000D01*
X124033368Y-103236525D01*
X123826525Y-103443368D01*
X123664010Y-103686589D01*
X123552068Y-103956842D01*
X123495000Y-104243740D01*
X123495000Y-104536260D01*
X123552068Y-104823158D01*
X123664010Y-105093411D01*
X123826525Y-105336632D01*
X124033368Y-105543475D01*
X124207760Y-105660000D01*
X124033368Y-105776525D01*
X123826525Y-105983368D01*
X123664010Y-106226589D01*
X123552068Y-106496842D01*
X123495000Y-106783740D01*
X123495000Y-107076260D01*
X123552068Y-107363158D01*
X123664010Y-107633411D01*
X123826525Y-107876632D01*
X124033368Y-108083475D01*
X124207760Y-108200000D01*
X124033368Y-108316525D01*
X123826525Y-108523368D01*
X123664010Y-108766589D01*
X123552068Y-109036842D01*
X123495000Y-109323740D01*
X123495000Y-109616260D01*
X123552068Y-109903158D01*
X123664010Y-110173411D01*
X123826525Y-110416632D01*
X124033368Y-110623475D01*
X124207760Y-110740000D01*
X124033368Y-110856525D01*
X123826525Y-111063368D01*
X123664010Y-111306589D01*
X123552068Y-111576842D01*
X123495000Y-111863740D01*
X123495000Y-112156260D01*
X123552068Y-112443158D01*
X123664010Y-112713411D01*
X123826525Y-112956632D01*
X124033368Y-113163475D01*
X124207760Y-113280000D01*
X124033368Y-113396525D01*
X123826525Y-113603368D01*
X123664010Y-113846589D01*
X123552068Y-114116842D01*
X123495000Y-114403740D01*
X123495000Y-114696260D01*
X123552068Y-114983158D01*
X123664010Y-115253411D01*
X123826525Y-115496632D01*
X124033368Y-115703475D01*
X124207760Y-115820000D01*
X124033368Y-115936525D01*
X123826525Y-116143368D01*
X123664010Y-116386589D01*
X123552068Y-116656842D01*
X123495000Y-116943740D01*
X123495000Y-117236260D01*
X123552068Y-117523158D01*
X123664010Y-117793411D01*
X123826525Y-118036632D01*
X124033368Y-118243475D01*
X124207760Y-118360000D01*
X124033368Y-118476525D01*
X123826525Y-118683368D01*
X123664010Y-118926589D01*
X123552068Y-119196842D01*
X123495000Y-119483740D01*
X123495000Y-119776260D01*
X123552068Y-120063158D01*
X123664010Y-120333411D01*
X123826525Y-120576632D01*
X124033368Y-120783475D01*
X124207760Y-120900000D01*
X124033368Y-121016525D01*
X123826525Y-121223368D01*
X123664010Y-121466589D01*
X123552068Y-121736842D01*
X123495000Y-122023740D01*
X123495000Y-122316260D01*
X123552068Y-122603158D01*
X123664010Y-122873411D01*
X123826525Y-123116632D01*
X124033368Y-123323475D01*
X124207760Y-123440000D01*
X124033368Y-123556525D01*
X123826525Y-123763368D01*
X123664010Y-124006589D01*
X123552068Y-124276842D01*
X123495000Y-124563740D01*
X123495000Y-124856260D01*
X123552068Y-125143158D01*
X123664010Y-125413411D01*
X123826525Y-125656632D01*
X124033368Y-125863475D01*
X124276589Y-126025990D01*
X124546842Y-126137932D01*
X124833740Y-126195000D01*
X125126260Y-126195000D01*
X125413158Y-126137932D01*
X125683411Y-126025990D01*
X125926632Y-125863475D01*
X126133475Y-125656632D01*
X126295990Y-125413411D01*
X126407932Y-125143158D01*
X126465000Y-124856260D01*
X126465000Y-124563740D01*
X126407932Y-124276842D01*
X126295990Y-124006589D01*
X126133475Y-123763368D01*
X125926632Y-123556525D01*
X125752240Y-123440000D01*
X125926632Y-123323475D01*
X126133475Y-123116632D01*
X126295990Y-122873411D01*
X126407932Y-122603158D01*
X126465000Y-122316260D01*
X126465000Y-122023740D01*
X126407932Y-121736842D01*
X126295990Y-121466589D01*
X126133475Y-121223368D01*
X125926632Y-121016525D01*
X125752240Y-120900000D01*
X125926632Y-120783475D01*
X126133475Y-120576632D01*
X126295990Y-120333411D01*
X126407932Y-120063158D01*
X126465000Y-119776260D01*
X126465000Y-119483740D01*
X126407932Y-119196842D01*
X126295990Y-118926589D01*
X126133475Y-118683368D01*
X125926632Y-118476525D01*
X125752240Y-118360000D01*
X125926632Y-118243475D01*
X126133475Y-118036632D01*
X126295990Y-117793411D01*
X126407932Y-117523158D01*
X126465000Y-117236260D01*
X126465000Y-116943740D01*
X126407932Y-116656842D01*
X126295990Y-116386589D01*
X126133475Y-116143368D01*
X125926632Y-115936525D01*
X125752240Y-115820000D01*
X125926632Y-115703475D01*
X126133475Y-115496632D01*
X126295990Y-115253411D01*
X126407932Y-114983158D01*
X126465000Y-114696260D01*
X126465000Y-114548061D01*
X132215000Y-114548061D01*
X132215000Y-114751939D01*
X132254774Y-114951898D01*
X132332795Y-115140256D01*
X132446063Y-115309774D01*
X132590226Y-115453937D01*
X132759744Y-115567205D01*
X132948102Y-115645226D01*
X133148061Y-115685000D01*
X133351939Y-115685000D01*
X133551898Y-115645226D01*
X133740256Y-115567205D01*
X133859236Y-115487705D01*
X133998102Y-115545226D01*
X134198061Y-115585000D01*
X134401939Y-115585000D01*
X134601898Y-115545226D01*
X134790256Y-115467205D01*
X134959774Y-115353937D01*
X135103937Y-115209774D01*
X135217205Y-115040256D01*
X135295226Y-114851898D01*
X135335000Y-114651939D01*
X135335000Y-114448061D01*
X135295226Y-114248102D01*
X135217205Y-114059744D01*
X135103937Y-113890226D01*
X134959774Y-113746063D01*
X134790256Y-113632795D01*
X134601898Y-113554774D01*
X134401939Y-113515000D01*
X134198061Y-113515000D01*
X133998102Y-113554774D01*
X133809744Y-113632795D01*
X133690764Y-113712295D01*
X133551898Y-113654774D01*
X133351939Y-113615000D01*
X133148061Y-113615000D01*
X132948102Y-113654774D01*
X132759744Y-113732795D01*
X132590226Y-113846063D01*
X132446063Y-113990226D01*
X132332795Y-114159744D01*
X132254774Y-114348102D01*
X132215000Y-114548061D01*
X126465000Y-114548061D01*
X126465000Y-114403740D01*
X126407932Y-114116842D01*
X126295990Y-113846589D01*
X126133475Y-113603368D01*
X125926632Y-113396525D01*
X125752240Y-113280000D01*
X125926632Y-113163475D01*
X126092046Y-112998061D01*
X146415000Y-112998061D01*
X146415000Y-113201939D01*
X146454774Y-113401898D01*
X146532795Y-113590256D01*
X146646063Y-113759774D01*
X146790226Y-113903937D01*
X146959744Y-114017205D01*
X147148102Y-114095226D01*
X147348061Y-114135000D01*
X147551939Y-114135000D01*
X147751898Y-114095226D01*
X147940256Y-114017205D01*
X148109774Y-113903937D01*
X148253937Y-113759774D01*
X148367205Y-113590256D01*
X148445226Y-113401898D01*
X148485000Y-113201939D01*
X148485000Y-112998061D01*
X148445226Y-112798102D01*
X148367205Y-112609744D01*
X148253937Y-112440226D01*
X148109774Y-112296063D01*
X147940256Y-112182795D01*
X147751898Y-112104774D01*
X147551939Y-112065000D01*
X147348061Y-112065000D01*
X147148102Y-112104774D01*
X146959744Y-112182795D01*
X146790226Y-112296063D01*
X146646063Y-112440226D01*
X146532795Y-112609744D01*
X146454774Y-112798102D01*
X146415000Y-112998061D01*
X126092046Y-112998061D01*
X126133475Y-112956632D01*
X126295990Y-112713411D01*
X126407932Y-112443158D01*
X126465000Y-112156260D01*
X126465000Y-111863740D01*
X126407932Y-111576842D01*
X126295990Y-111306589D01*
X126176702Y-111128061D01*
X145255000Y-111128061D01*
X145255000Y-111331939D01*
X145294774Y-111531898D01*
X145372795Y-111720256D01*
X145486063Y-111889774D01*
X145630226Y-112033937D01*
X145799744Y-112147205D01*
X145988102Y-112225226D01*
X146188061Y-112265000D01*
X146391939Y-112265000D01*
X146591898Y-112225226D01*
X146780256Y-112147205D01*
X146949774Y-112033937D01*
X147093937Y-111889774D01*
X147207205Y-111720256D01*
X147285226Y-111531898D01*
X147294688Y-111484329D01*
X147298061Y-111485000D01*
X147501939Y-111485000D01*
X147701898Y-111445226D01*
X147890256Y-111367205D01*
X148059774Y-111253937D01*
X148203937Y-111109774D01*
X148317205Y-110940256D01*
X148395226Y-110751898D01*
X148435000Y-110551939D01*
X148435000Y-110348061D01*
X148395226Y-110148102D01*
X148317205Y-109959744D01*
X148203937Y-109790226D01*
X148059774Y-109646063D01*
X147890256Y-109532795D01*
X147844987Y-109514044D01*
X148009774Y-109403937D01*
X148153937Y-109259774D01*
X148267205Y-109090256D01*
X148345226Y-108901898D01*
X148385000Y-108701939D01*
X148385000Y-108498061D01*
X148345226Y-108298102D01*
X148267205Y-108109744D01*
X148153937Y-107940226D01*
X148088711Y-107875000D01*
X148103937Y-107859774D01*
X148217205Y-107690256D01*
X148295226Y-107501898D01*
X148335000Y-107301939D01*
X148335000Y-107098061D01*
X148295226Y-106898102D01*
X148217205Y-106709744D01*
X148103937Y-106540226D01*
X147959774Y-106396063D01*
X147790256Y-106282795D01*
X147601898Y-106204774D01*
X147401939Y-106165000D01*
X147198061Y-106165000D01*
X146998102Y-106204774D01*
X146809744Y-106282795D01*
X146640226Y-106396063D01*
X146496063Y-106540226D01*
X146382795Y-106709744D01*
X146304774Y-106898102D01*
X146265000Y-107098061D01*
X146265000Y-107301939D01*
X146304774Y-107501898D01*
X146382795Y-107690256D01*
X146496063Y-107859774D01*
X146561289Y-107925000D01*
X146546063Y-107940226D01*
X146432795Y-108109744D01*
X146354774Y-108298102D01*
X146315000Y-108498061D01*
X146315000Y-108701939D01*
X146354774Y-108901898D01*
X146432795Y-109090256D01*
X146546063Y-109259774D01*
X146690226Y-109403937D01*
X146859744Y-109517205D01*
X146905013Y-109535956D01*
X146740226Y-109646063D01*
X146596063Y-109790226D01*
X146482795Y-109959744D01*
X146404774Y-110148102D01*
X146395312Y-110195671D01*
X146391939Y-110195000D01*
X146188061Y-110195000D01*
X145988102Y-110234774D01*
X145799744Y-110312795D01*
X145630226Y-110426063D01*
X145486063Y-110570226D01*
X145372795Y-110739744D01*
X145294774Y-110928102D01*
X145255000Y-111128061D01*
X126176702Y-111128061D01*
X126133475Y-111063368D01*
X125926632Y-110856525D01*
X125752240Y-110740000D01*
X125926632Y-110623475D01*
X126133475Y-110416632D01*
X126295990Y-110173411D01*
X126407932Y-109903158D01*
X126465000Y-109616260D01*
X126465000Y-109323740D01*
X126407932Y-109036842D01*
X126295990Y-108766589D01*
X126133475Y-108523368D01*
X125926632Y-108316525D01*
X125752240Y-108200000D01*
X125926632Y-108083475D01*
X126133475Y-107876632D01*
X126295990Y-107633411D01*
X126407932Y-107363158D01*
X126465000Y-107076260D01*
X126465000Y-106783740D01*
X126407932Y-106496842D01*
X126295990Y-106226589D01*
X126133475Y-105983368D01*
X125926632Y-105776525D01*
X125752240Y-105660000D01*
X125926632Y-105543475D01*
X126133475Y-105336632D01*
X126295990Y-105093411D01*
X126407932Y-104823158D01*
X126465000Y-104536260D01*
X126465000Y-104243740D01*
X126407932Y-103956842D01*
X126335373Y-103781669D01*
X126368102Y-103795226D01*
X126568061Y-103835000D01*
X126771939Y-103835000D01*
X126971898Y-103795226D01*
X127160256Y-103717205D01*
X127329774Y-103603937D01*
X127473937Y-103459774D01*
X127587205Y-103290256D01*
X127665226Y-103101898D01*
X127705000Y-102901939D01*
X127705000Y-102698061D01*
X127665226Y-102498102D01*
X127587205Y-102309744D01*
X127473937Y-102140226D01*
X127329774Y-101996063D01*
X127160256Y-101882795D01*
X126971898Y-101804774D01*
X126771939Y-101765000D01*
X126568061Y-101765000D01*
X126465000Y-101785500D01*
X126465000Y-101703740D01*
X126407932Y-101416842D01*
X126295990Y-101146589D01*
X126133475Y-100903368D01*
X125926632Y-100696525D01*
X125752240Y-100580000D01*
X125926632Y-100463475D01*
X126133475Y-100256632D01*
X126295990Y-100013411D01*
X126407932Y-99743158D01*
X126465000Y-99456260D01*
X126465000Y-99163740D01*
X126407932Y-98876842D01*
X126295990Y-98606589D01*
X126133475Y-98363368D01*
X125926632Y-98156525D01*
X125752240Y-98040000D01*
X125926632Y-97923475D01*
X126133475Y-97716632D01*
X126295990Y-97473411D01*
X126407932Y-97203158D01*
X126465000Y-96916260D01*
X126465000Y-96623740D01*
X126407932Y-96336842D01*
X126295990Y-96066589D01*
X126133475Y-95823368D01*
X125926632Y-95616525D01*
X125752240Y-95500000D01*
X125926632Y-95383475D01*
X126133475Y-95176632D01*
X126295990Y-94933411D01*
X126407932Y-94663158D01*
X126465000Y-94376260D01*
X126465000Y-94083740D01*
X126407932Y-93796842D01*
X126295990Y-93526589D01*
X126133475Y-93283368D01*
X125926632Y-93076525D01*
X125752240Y-92960000D01*
X125926632Y-92843475D01*
X126133475Y-92636632D01*
X126295990Y-92393411D01*
X126407932Y-92123158D01*
X126465000Y-91836260D01*
X126465000Y-91543740D01*
X126435414Y-91395000D01*
X126446863Y-91395000D01*
X126656483Y-91353304D01*
X126853940Y-91271515D01*
X127031647Y-91152775D01*
X127182775Y-91001647D01*
X127301515Y-90823940D01*
X127383304Y-90626483D01*
X127425000Y-90416863D01*
X127425000Y-90203137D01*
X127383304Y-89993517D01*
X127301515Y-89796060D01*
X127292881Y-89783137D01*
X145165000Y-89783137D01*
X145165000Y-89996863D01*
X145206696Y-90206483D01*
X145288485Y-90403940D01*
X145407225Y-90581647D01*
X145558353Y-90732775D01*
X145736060Y-90851515D01*
X145933517Y-90933304D01*
X146143137Y-90975000D01*
X146356863Y-90975000D01*
X146566483Y-90933304D01*
X146763940Y-90851515D01*
X146941647Y-90732775D01*
X147092775Y-90581647D01*
X147211515Y-90403940D01*
X147293304Y-90206483D01*
X147335000Y-89996863D01*
X147335000Y-89783137D01*
X147293304Y-89573517D01*
X147211515Y-89376060D01*
X147092775Y-89198353D01*
X146941647Y-89047225D01*
X146763940Y-88928485D01*
X146566483Y-88846696D01*
X146356863Y-88805000D01*
X146143137Y-88805000D01*
X145933517Y-88846696D01*
X145736060Y-88928485D01*
X145558353Y-89047225D01*
X145407225Y-89198353D01*
X145288485Y-89376060D01*
X145206696Y-89573517D01*
X145165000Y-89783137D01*
X127292881Y-89783137D01*
X127182775Y-89618353D01*
X127031647Y-89467225D01*
X126853940Y-89348485D01*
X126656483Y-89266696D01*
X126446863Y-89225000D01*
X126233137Y-89225000D01*
X126023517Y-89266696D01*
X125998641Y-89277000D01*
X125107000Y-89277000D01*
X125107000Y-89297000D01*
X124853000Y-89297000D01*
X124853000Y-89277000D01*
X123653750Y-89277000D01*
X123495000Y-89435750D01*
X123491928Y-90000000D01*
X121710000Y-90000000D01*
X121710000Y-88300000D01*
X123491928Y-88300000D01*
X123495000Y-88864250D01*
X123653750Y-89023000D01*
X124853000Y-89023000D01*
X124853000Y-87823750D01*
X125107000Y-87823750D01*
X125107000Y-89023000D01*
X126306250Y-89023000D01*
X126465000Y-88864250D01*
X126468072Y-88300000D01*
X148881928Y-88300000D01*
X148881928Y-90000000D01*
X148894188Y-90124482D01*
X148930498Y-90244180D01*
X148989463Y-90354494D01*
X149068815Y-90451185D01*
X149165506Y-90530537D01*
X149275820Y-90589502D01*
X149348380Y-90611513D01*
X149216525Y-90743368D01*
X149054010Y-90986589D01*
X148942068Y-91256842D01*
X148885000Y-91543740D01*
X148885000Y-91836260D01*
X148942068Y-92123158D01*
X149054010Y-92393411D01*
X149216525Y-92636632D01*
X149423368Y-92843475D01*
X149597760Y-92960000D01*
X149423368Y-93076525D01*
X149216525Y-93283368D01*
X149054010Y-93526589D01*
X148942068Y-93796842D01*
X148885000Y-94083740D01*
X148885000Y-94376260D01*
X148942068Y-94663158D01*
X149054010Y-94933411D01*
X149216525Y-95176632D01*
X149423368Y-95383475D01*
X149597760Y-95500000D01*
X149423368Y-95616525D01*
X149216525Y-95823368D01*
X149054010Y-96066589D01*
X148942068Y-96336842D01*
X148885000Y-96623740D01*
X148885000Y-96916260D01*
X148942068Y-97203158D01*
X149054010Y-97473411D01*
X149216525Y-97716632D01*
X149423368Y-97923475D01*
X149597760Y-98040000D01*
X149423368Y-98156525D01*
X149216525Y-98363368D01*
X149054010Y-98606589D01*
X148942068Y-98876842D01*
X148885000Y-99163740D01*
X148885000Y-99456260D01*
X148942068Y-99743158D01*
X149054010Y-100013411D01*
X149216525Y-100256632D01*
X149423368Y-100463475D01*
X149597760Y-100580000D01*
X149423368Y-100696525D01*
X149216525Y-100903368D01*
X149054010Y-101146589D01*
X148942068Y-101416842D01*
X148885000Y-101703740D01*
X148885000Y-101996260D01*
X148942068Y-102283158D01*
X149054010Y-102553411D01*
X149216525Y-102796632D01*
X149423368Y-103003475D01*
X149597760Y-103120000D01*
X149423368Y-103236525D01*
X149216525Y-103443368D01*
X149054010Y-103686589D01*
X148942068Y-103956842D01*
X148885000Y-104243740D01*
X148885000Y-104536260D01*
X148942068Y-104823158D01*
X149054010Y-105093411D01*
X149216525Y-105336632D01*
X149423368Y-105543475D01*
X149597760Y-105660000D01*
X149423368Y-105776525D01*
X149216525Y-105983368D01*
X149054010Y-106226589D01*
X148942068Y-106496842D01*
X148885000Y-106783740D01*
X148885000Y-107076260D01*
X148942068Y-107363158D01*
X149054010Y-107633411D01*
X149216525Y-107876632D01*
X149423368Y-108083475D01*
X149597760Y-108200000D01*
X149423368Y-108316525D01*
X149216525Y-108523368D01*
X149054010Y-108766589D01*
X148942068Y-109036842D01*
X148885000Y-109323740D01*
X148885000Y-109616260D01*
X148942068Y-109903158D01*
X149054010Y-110173411D01*
X149216525Y-110416632D01*
X149423368Y-110623475D01*
X149597760Y-110740000D01*
X149423368Y-110856525D01*
X149216525Y-111063368D01*
X149054010Y-111306589D01*
X148942068Y-111576842D01*
X148885000Y-111863740D01*
X148885000Y-112156260D01*
X148942068Y-112443158D01*
X149054010Y-112713411D01*
X149216525Y-112956632D01*
X149423368Y-113163475D01*
X149597760Y-113280000D01*
X149423368Y-113396525D01*
X149216525Y-113603368D01*
X149054010Y-113846589D01*
X148942068Y-114116842D01*
X148885000Y-114403740D01*
X148885000Y-114696260D01*
X148942068Y-114983158D01*
X149054010Y-115253411D01*
X149216525Y-115496632D01*
X149423368Y-115703475D01*
X149597760Y-115820000D01*
X149423368Y-115936525D01*
X149216525Y-116143368D01*
X149054010Y-116386589D01*
X148942068Y-116656842D01*
X148885000Y-116943740D01*
X148885000Y-117236260D01*
X148942068Y-117523158D01*
X149054010Y-117793411D01*
X149216525Y-118036632D01*
X149423368Y-118243475D01*
X149597760Y-118360000D01*
X149423368Y-118476525D01*
X149216525Y-118683368D01*
X149054010Y-118926589D01*
X148942068Y-119196842D01*
X148885000Y-119483740D01*
X148885000Y-119776260D01*
X148942068Y-120063158D01*
X149054010Y-120333411D01*
X149216525Y-120576632D01*
X149423368Y-120783475D01*
X149597760Y-120900000D01*
X149423368Y-121016525D01*
X149216525Y-121223368D01*
X149054010Y-121466589D01*
X148942068Y-121736842D01*
X148885000Y-122023740D01*
X148885000Y-122316260D01*
X148942068Y-122603158D01*
X149054010Y-122873411D01*
X149216525Y-123116632D01*
X149423368Y-123323475D01*
X149597760Y-123440000D01*
X149423368Y-123556525D01*
X149216525Y-123763368D01*
X149054010Y-124006589D01*
X148942068Y-124276842D01*
X148885000Y-124563740D01*
X148885000Y-124856260D01*
X148942068Y-125143158D01*
X149054010Y-125413411D01*
X149216525Y-125656632D01*
X149423368Y-125863475D01*
X149666589Y-126025990D01*
X149936842Y-126137932D01*
X150223740Y-126195000D01*
X150516260Y-126195000D01*
X150803158Y-126137932D01*
X151073411Y-126025990D01*
X151316632Y-125863475D01*
X151523475Y-125656632D01*
X151685990Y-125413411D01*
X151797932Y-125143158D01*
X151855000Y-124856260D01*
X151855000Y-124563740D01*
X151811119Y-124343137D01*
X179515000Y-124343137D01*
X179515000Y-124556863D01*
X179556696Y-124766483D01*
X179638485Y-124963940D01*
X179757225Y-125141647D01*
X179908353Y-125292775D01*
X180086060Y-125411515D01*
X180283517Y-125493304D01*
X180493137Y-125535000D01*
X180706863Y-125535000D01*
X180916483Y-125493304D01*
X181113940Y-125411515D01*
X181291647Y-125292775D01*
X181442775Y-125141647D01*
X181561515Y-124963940D01*
X181643304Y-124766483D01*
X181685000Y-124556863D01*
X181685000Y-124343137D01*
X181643304Y-124133517D01*
X181561515Y-123936060D01*
X181442775Y-123758353D01*
X181291647Y-123607225D01*
X181113940Y-123488485D01*
X180916483Y-123406696D01*
X180706863Y-123365000D01*
X180493137Y-123365000D01*
X180283517Y-123406696D01*
X180086060Y-123488485D01*
X179908353Y-123607225D01*
X179757225Y-123758353D01*
X179638485Y-123936060D01*
X179556696Y-124133517D01*
X179515000Y-124343137D01*
X151811119Y-124343137D01*
X151797932Y-124276842D01*
X151685990Y-124006589D01*
X151523475Y-123763368D01*
X151316632Y-123556525D01*
X151142240Y-123440000D01*
X151316632Y-123323475D01*
X151523475Y-123116632D01*
X151627426Y-122961059D01*
X151798061Y-122995000D01*
X152001939Y-122995000D01*
X152201898Y-122955226D01*
X152390256Y-122877205D01*
X152559774Y-122763937D01*
X152703937Y-122619774D01*
X152817205Y-122450256D01*
X152895226Y-122261898D01*
X152935000Y-122061939D01*
X152935000Y-121858061D01*
X152895226Y-121658102D01*
X152817205Y-121469744D01*
X152703937Y-121300226D01*
X152559774Y-121156063D01*
X152398138Y-121048061D01*
X159015000Y-121048061D01*
X159015000Y-121251939D01*
X159054774Y-121451898D01*
X159132795Y-121640256D01*
X159246063Y-121809774D01*
X159390226Y-121953937D01*
X159559744Y-122067205D01*
X159748102Y-122145226D01*
X159948061Y-122185000D01*
X160151939Y-122185000D01*
X160351898Y-122145226D01*
X160540256Y-122067205D01*
X160709774Y-121953937D01*
X160853937Y-121809774D01*
X160967205Y-121640256D01*
X161045226Y-121451898D01*
X161085000Y-121251939D01*
X161085000Y-121048061D01*
X161045226Y-120848102D01*
X160967205Y-120659744D01*
X160853937Y-120490226D01*
X160709774Y-120346063D01*
X160540256Y-120232795D01*
X160351898Y-120154774D01*
X160151939Y-120115000D01*
X159948061Y-120115000D01*
X159748102Y-120154774D01*
X159559744Y-120232795D01*
X159390226Y-120346063D01*
X159246063Y-120490226D01*
X159132795Y-120659744D01*
X159054774Y-120848102D01*
X159015000Y-121048061D01*
X152398138Y-121048061D01*
X152390256Y-121042795D01*
X152201898Y-120964774D01*
X152001939Y-120925000D01*
X151798061Y-120925000D01*
X151598102Y-120964774D01*
X151409744Y-121042795D01*
X151369675Y-121069568D01*
X151316632Y-121016525D01*
X151142240Y-120900000D01*
X151316632Y-120783475D01*
X151523475Y-120576632D01*
X151685990Y-120333411D01*
X151797932Y-120063158D01*
X151855000Y-119776260D01*
X151855000Y-119483740D01*
X151797932Y-119196842D01*
X151685990Y-118926589D01*
X151523475Y-118683368D01*
X151316632Y-118476525D01*
X151142240Y-118360000D01*
X151316632Y-118243475D01*
X151523475Y-118036632D01*
X151685990Y-117793411D01*
X151797932Y-117523158D01*
X151855000Y-117236260D01*
X151855000Y-116998061D01*
X153045010Y-116998061D01*
X153045010Y-117201939D01*
X153084784Y-117401898D01*
X153162805Y-117590256D01*
X153276073Y-117759774D01*
X153420236Y-117903937D01*
X153589754Y-118017205D01*
X153778112Y-118095226D01*
X153978071Y-118135000D01*
X154181949Y-118135000D01*
X154381908Y-118095226D01*
X154570266Y-118017205D01*
X154739784Y-117903937D01*
X154883947Y-117759774D01*
X154997215Y-117590256D01*
X155075236Y-117401898D01*
X155115010Y-117201939D01*
X155115010Y-116998061D01*
X155104086Y-116943137D01*
X155715000Y-116943137D01*
X155715000Y-117156863D01*
X155756696Y-117366483D01*
X155838485Y-117563940D01*
X155957225Y-117741647D01*
X156108353Y-117892775D01*
X156286060Y-118011515D01*
X156483517Y-118093304D01*
X156693137Y-118135000D01*
X156906863Y-118135000D01*
X157116483Y-118093304D01*
X157313940Y-118011515D01*
X157491647Y-117892775D01*
X157642775Y-117741647D01*
X157761515Y-117563940D01*
X157843304Y-117366483D01*
X157885000Y-117156863D01*
X157885000Y-116943137D01*
X157843304Y-116733517D01*
X157761515Y-116536060D01*
X157642775Y-116358353D01*
X157491647Y-116207225D01*
X157313940Y-116088485D01*
X157116483Y-116006696D01*
X156906863Y-115965000D01*
X156693137Y-115965000D01*
X156483517Y-116006696D01*
X156286060Y-116088485D01*
X156108353Y-116207225D01*
X155957225Y-116358353D01*
X155838485Y-116536060D01*
X155756696Y-116733517D01*
X155715000Y-116943137D01*
X155104086Y-116943137D01*
X155075236Y-116798102D01*
X154997215Y-116609744D01*
X154883947Y-116440226D01*
X154739784Y-116296063D01*
X154570266Y-116182795D01*
X154381908Y-116104774D01*
X154181949Y-116065000D01*
X153978071Y-116065000D01*
X153778112Y-116104774D01*
X153589754Y-116182795D01*
X153420236Y-116296063D01*
X153276073Y-116440226D01*
X153162805Y-116609744D01*
X153084784Y-116798102D01*
X153045010Y-116998061D01*
X151855000Y-116998061D01*
X151855000Y-116943740D01*
X151797932Y-116656842D01*
X151685990Y-116386589D01*
X151523475Y-116143368D01*
X151316632Y-115936525D01*
X151142240Y-115820000D01*
X151316632Y-115703475D01*
X151523475Y-115496632D01*
X151685990Y-115253411D01*
X151797932Y-114983158D01*
X151855000Y-114696260D01*
X151855000Y-114403740D01*
X151797932Y-114116842D01*
X151685990Y-113846589D01*
X151523475Y-113603368D01*
X151316632Y-113396525D01*
X151142240Y-113280000D01*
X151316632Y-113163475D01*
X151523475Y-112956632D01*
X151685990Y-112713411D01*
X151797932Y-112443158D01*
X151855000Y-112156260D01*
X151855000Y-111863740D01*
X151797932Y-111576842D01*
X151685990Y-111306589D01*
X151523475Y-111063368D01*
X151316632Y-110856525D01*
X151142240Y-110740000D01*
X151316632Y-110623475D01*
X151523475Y-110416632D01*
X151685990Y-110173411D01*
X151797932Y-109903158D01*
X151855000Y-109616260D01*
X151855000Y-109323740D01*
X151797932Y-109036842D01*
X151685990Y-108766589D01*
X151523475Y-108523368D01*
X151316632Y-108316525D01*
X151142240Y-108200000D01*
X151316632Y-108083475D01*
X151523475Y-107876632D01*
X151685990Y-107633411D01*
X151797932Y-107363158D01*
X151855000Y-107076260D01*
X151855000Y-106783740D01*
X151797932Y-106496842D01*
X151685990Y-106226589D01*
X151523475Y-105983368D01*
X151316632Y-105776525D01*
X151142240Y-105660000D01*
X151316632Y-105543475D01*
X151523475Y-105336632D01*
X151685990Y-105093411D01*
X151797932Y-104823158D01*
X151822815Y-104698061D01*
X153665000Y-104698061D01*
X153665000Y-104901939D01*
X153704774Y-105101898D01*
X153782795Y-105290256D01*
X153896063Y-105459774D01*
X154040226Y-105603937D01*
X154209744Y-105717205D01*
X154398102Y-105795226D01*
X154409596Y-105797512D01*
X154411882Y-105809006D01*
X154489903Y-105997364D01*
X154603171Y-106166882D01*
X154747334Y-106311045D01*
X154916852Y-106424313D01*
X155105210Y-106502334D01*
X155198611Y-106520912D01*
X155204774Y-106551898D01*
X155282795Y-106740256D01*
X155396063Y-106909774D01*
X155540226Y-107053937D01*
X155709744Y-107167205D01*
X155780377Y-107196462D01*
X155810443Y-107347616D01*
X155888464Y-107535974D01*
X156001732Y-107705492D01*
X156145895Y-107849655D01*
X156315413Y-107962923D01*
X156503771Y-108040944D01*
X156592943Y-108058681D01*
X156600688Y-108077379D01*
X156430457Y-108043518D01*
X156226579Y-108043518D01*
X156026620Y-108083292D01*
X155838262Y-108161313D01*
X155668744Y-108274581D01*
X155524581Y-108418744D01*
X155411313Y-108588262D01*
X155333292Y-108776620D01*
X155293518Y-108976579D01*
X155293518Y-109180457D01*
X155333292Y-109380416D01*
X155411313Y-109568774D01*
X155524581Y-109738292D01*
X155668744Y-109882455D01*
X155838262Y-109995723D01*
X156026620Y-110073744D01*
X156226579Y-110113518D01*
X156430457Y-110113518D01*
X156630416Y-110073744D01*
X156818774Y-109995723D01*
X156988292Y-109882455D01*
X157132455Y-109738292D01*
X157245723Y-109568774D01*
X157323744Y-109380416D01*
X157360169Y-109197293D01*
X160481919Y-109197293D01*
X160481919Y-109401171D01*
X160521693Y-109601130D01*
X160599714Y-109789488D01*
X160712982Y-109959006D01*
X160857145Y-110103169D01*
X161026663Y-110216437D01*
X161215021Y-110294458D01*
X161414980Y-110334232D01*
X161618858Y-110334232D01*
X161818817Y-110294458D01*
X162007175Y-110216437D01*
X162176693Y-110103169D01*
X162320856Y-109959006D01*
X162434124Y-109789488D01*
X162512145Y-109601130D01*
X162551919Y-109401171D01*
X162551919Y-109197293D01*
X162512145Y-108997334D01*
X162434124Y-108808976D01*
X162320856Y-108639458D01*
X162176693Y-108495295D01*
X162007175Y-108382027D01*
X161818817Y-108304006D01*
X161618858Y-108264232D01*
X161414980Y-108264232D01*
X161215021Y-108304006D01*
X161026663Y-108382027D01*
X160857145Y-108495295D01*
X160712982Y-108639458D01*
X160599714Y-108808976D01*
X160521693Y-108997334D01*
X160481919Y-109197293D01*
X157360169Y-109197293D01*
X157363518Y-109180457D01*
X157363518Y-108976579D01*
X157323744Y-108776620D01*
X157291594Y-108699004D01*
X157461825Y-108732865D01*
X157665703Y-108732865D01*
X157865662Y-108693091D01*
X158054020Y-108615070D01*
X158223538Y-108501802D01*
X158367701Y-108357639D01*
X158480969Y-108188121D01*
X158558990Y-107999763D01*
X158598764Y-107799804D01*
X158598764Y-107595926D01*
X158558990Y-107395967D01*
X158480969Y-107207609D01*
X158367701Y-107038091D01*
X158223538Y-106893928D01*
X158054020Y-106780660D01*
X157865662Y-106702639D01*
X157776490Y-106684902D01*
X157722874Y-106555462D01*
X157609606Y-106385944D01*
X157465443Y-106241781D01*
X157295925Y-106128513D01*
X157225292Y-106099256D01*
X157195226Y-105948102D01*
X157117205Y-105759744D01*
X157003937Y-105590226D01*
X156859774Y-105446063D01*
X156690256Y-105332795D01*
X156501898Y-105254774D01*
X156408497Y-105236196D01*
X156402334Y-105205210D01*
X156324313Y-105016852D01*
X156211045Y-104847334D01*
X156066882Y-104703171D01*
X155897364Y-104589903D01*
X155709006Y-104511882D01*
X155697512Y-104509596D01*
X155695226Y-104498102D01*
X155617205Y-104309744D01*
X155503937Y-104140226D01*
X155359774Y-103996063D01*
X155190256Y-103882795D01*
X155001898Y-103804774D01*
X154801939Y-103765000D01*
X154598061Y-103765000D01*
X154398102Y-103804774D01*
X154209744Y-103882795D01*
X154040226Y-103996063D01*
X153896063Y-104140226D01*
X153782795Y-104309744D01*
X153704774Y-104498102D01*
X153665000Y-104698061D01*
X151822815Y-104698061D01*
X151855000Y-104536260D01*
X151855000Y-104243740D01*
X151797932Y-103956842D01*
X151685990Y-103686589D01*
X151523475Y-103443368D01*
X151316632Y-103236525D01*
X151142240Y-103120000D01*
X151316632Y-103003475D01*
X151523475Y-102796632D01*
X151685990Y-102553411D01*
X151797932Y-102283158D01*
X151855000Y-101996260D01*
X151855000Y-101703740D01*
X151797932Y-101416842D01*
X151685990Y-101146589D01*
X151523475Y-100903368D01*
X151316632Y-100696525D01*
X151142240Y-100580000D01*
X151316632Y-100463475D01*
X151523475Y-100256632D01*
X151685990Y-100013411D01*
X151797932Y-99743158D01*
X151855000Y-99456260D01*
X151855000Y-99163740D01*
X151797932Y-98876842D01*
X151763261Y-98793137D01*
X155765000Y-98793137D01*
X155765000Y-99006863D01*
X155806696Y-99216483D01*
X155888485Y-99413940D01*
X156007225Y-99591647D01*
X156158353Y-99742775D01*
X156336060Y-99861515D01*
X156533517Y-99943304D01*
X156743137Y-99985000D01*
X156956863Y-99985000D01*
X157166483Y-99943304D01*
X157363940Y-99861515D01*
X157541647Y-99742775D01*
X157692775Y-99591647D01*
X157811515Y-99413940D01*
X157893304Y-99216483D01*
X157935000Y-99006863D01*
X157935000Y-98793137D01*
X157893304Y-98583517D01*
X157811515Y-98386060D01*
X157692775Y-98208353D01*
X157541647Y-98057225D01*
X157363940Y-97938485D01*
X157166483Y-97856696D01*
X156956863Y-97815000D01*
X156743137Y-97815000D01*
X156533517Y-97856696D01*
X156336060Y-97938485D01*
X156158353Y-98057225D01*
X156007225Y-98208353D01*
X155888485Y-98386060D01*
X155806696Y-98583517D01*
X155765000Y-98793137D01*
X151763261Y-98793137D01*
X151685990Y-98606589D01*
X151523475Y-98363368D01*
X151316632Y-98156525D01*
X151142240Y-98040000D01*
X151316632Y-97923475D01*
X151523475Y-97716632D01*
X151685990Y-97473411D01*
X151797932Y-97203158D01*
X151855000Y-96916260D01*
X151855000Y-96623740D01*
X151832994Y-96513110D01*
X151838102Y-96515226D01*
X152038061Y-96555000D01*
X152241939Y-96555000D01*
X152441898Y-96515226D01*
X152630256Y-96437205D01*
X152799774Y-96323937D01*
X152943937Y-96179774D01*
X153057205Y-96010256D01*
X153135226Y-95821898D01*
X153175000Y-95621939D01*
X153175000Y-95418061D01*
X153135226Y-95218102D01*
X153057205Y-95029744D01*
X152943937Y-94860226D01*
X152799774Y-94716063D01*
X152630256Y-94602795D01*
X152441898Y-94524774D01*
X152241939Y-94485000D01*
X152038061Y-94485000D01*
X151838102Y-94524774D01*
X151824323Y-94530481D01*
X151855000Y-94376260D01*
X151855000Y-94083740D01*
X151797932Y-93796842D01*
X151685990Y-93526589D01*
X151523475Y-93283368D01*
X151316632Y-93076525D01*
X151142240Y-92960000D01*
X151316632Y-92843475D01*
X151523475Y-92636632D01*
X151685990Y-92393411D01*
X151797932Y-92123158D01*
X151855000Y-91836260D01*
X151855000Y-91543740D01*
X151797932Y-91256842D01*
X151685990Y-90986589D01*
X151523475Y-90743368D01*
X151391620Y-90611513D01*
X151464180Y-90589502D01*
X151574494Y-90530537D01*
X151625000Y-90489088D01*
X151625000Y-90516863D01*
X151666696Y-90726483D01*
X151748485Y-90923940D01*
X151867225Y-91101647D01*
X152018353Y-91252775D01*
X152196060Y-91371515D01*
X152393517Y-91453304D01*
X152603137Y-91495000D01*
X152816863Y-91495000D01*
X152901906Y-91478084D01*
X152892481Y-91487509D01*
X152779213Y-91657027D01*
X152701192Y-91845385D01*
X152661418Y-92045344D01*
X152661418Y-92249222D01*
X152701192Y-92449181D01*
X152779213Y-92637539D01*
X152892481Y-92807057D01*
X153036644Y-92951220D01*
X153206162Y-93064488D01*
X153394520Y-93142509D01*
X153594479Y-93182283D01*
X153798357Y-93182283D01*
X153998316Y-93142509D01*
X154186674Y-93064488D01*
X154356192Y-92951220D01*
X154500355Y-92807057D01*
X154613623Y-92637539D01*
X154691644Y-92449181D01*
X154731418Y-92249222D01*
X154731418Y-92045344D01*
X154691644Y-91845385D01*
X154613623Y-91657027D01*
X154500355Y-91487509D01*
X154356192Y-91343346D01*
X154186674Y-91230078D01*
X153998316Y-91152057D01*
X153798357Y-91112283D01*
X153594479Y-91112283D01*
X153529143Y-91125279D01*
X153552775Y-91101647D01*
X153671515Y-90923940D01*
X153753304Y-90726483D01*
X153795000Y-90516863D01*
X153795000Y-90303137D01*
X153753304Y-90093517D01*
X153729066Y-90035000D01*
X156495320Y-90035000D01*
X156390270Y-90192219D01*
X156312249Y-90380577D01*
X156272475Y-90580536D01*
X156272475Y-90784414D01*
X156312249Y-90984373D01*
X156390270Y-91172731D01*
X156503538Y-91342249D01*
X156647701Y-91486412D01*
X156817219Y-91599680D01*
X157005577Y-91677701D01*
X157205536Y-91717475D01*
X157409414Y-91717475D01*
X157609373Y-91677701D01*
X157797731Y-91599680D01*
X157967249Y-91486412D01*
X158111412Y-91342249D01*
X158224680Y-91172731D01*
X158302701Y-90984373D01*
X158342475Y-90784414D01*
X158342475Y-90580536D01*
X158302701Y-90380577D01*
X158224680Y-90192219D01*
X158119630Y-90035000D01*
X161956531Y-90035000D01*
X162000000Y-90039281D01*
X162043469Y-90035000D01*
X162043477Y-90035000D01*
X162173490Y-90022195D01*
X162340313Y-89971589D01*
X162494059Y-89889411D01*
X162628817Y-89778817D01*
X162656534Y-89745044D01*
X164393965Y-88007613D01*
X164400000Y-88001711D01*
X164406039Y-88007618D01*
X164415001Y-88016580D01*
X164415001Y-90866619D01*
X164406863Y-90865000D01*
X164193137Y-90865000D01*
X163983517Y-90906696D01*
X163786060Y-90988485D01*
X163608353Y-91107225D01*
X163457225Y-91258353D01*
X163338485Y-91436060D01*
X163256696Y-91633517D01*
X163215000Y-91843137D01*
X163215000Y-92056863D01*
X163256696Y-92266483D01*
X163338485Y-92463940D01*
X163457225Y-92641647D01*
X163608353Y-92792775D01*
X163786060Y-92911515D01*
X163983517Y-92993304D01*
X164193137Y-93035000D01*
X164406863Y-93035000D01*
X164415001Y-93033381D01*
X164415002Y-103615000D01*
X164243137Y-103615000D01*
X164033517Y-103656696D01*
X163836060Y-103738485D01*
X163658353Y-103857225D01*
X163507225Y-104008353D01*
X163388485Y-104186060D01*
X163306696Y-104383517D01*
X163265000Y-104593137D01*
X163265000Y-104806863D01*
X163306696Y-105016483D01*
X163388485Y-105213940D01*
X163507225Y-105391647D01*
X163658353Y-105542775D01*
X163836060Y-105661515D01*
X164033517Y-105743304D01*
X164243137Y-105785000D01*
X164415001Y-105785000D01*
X164415001Y-108846456D01*
X164256863Y-108815000D01*
X164043137Y-108815000D01*
X163833517Y-108856696D01*
X163636060Y-108938485D01*
X163458353Y-109057225D01*
X163307225Y-109208353D01*
X163188485Y-109386060D01*
X163106696Y-109583517D01*
X163065000Y-109793137D01*
X163065000Y-110006863D01*
X163106696Y-110216483D01*
X163188485Y-110413940D01*
X163307225Y-110591647D01*
X163458353Y-110742775D01*
X163636060Y-110861515D01*
X163833517Y-110943304D01*
X164043137Y-110985000D01*
X164256863Y-110985000D01*
X164415001Y-110953544D01*
X164415002Y-121333419D01*
X164406000Y-121342421D01*
X164344413Y-121402658D01*
X164297965Y-121445469D01*
X164263975Y-121474268D01*
X164240754Y-121491859D01*
X164224737Y-121502420D01*
X164210049Y-121510695D01*
X164189502Y-121520561D01*
X164156881Y-121534153D01*
X164111730Y-121551084D01*
X164083517Y-121556696D01*
X163886060Y-121638485D01*
X163708353Y-121757225D01*
X163557225Y-121908353D01*
X163438485Y-122086060D01*
X163356696Y-122283517D01*
X163315000Y-122493137D01*
X163315000Y-122706863D01*
X163356696Y-122916483D01*
X163438485Y-123113940D01*
X163557225Y-123291647D01*
X163708353Y-123442775D01*
X163886060Y-123561515D01*
X164083517Y-123643304D01*
X164293137Y-123685000D01*
X164506863Y-123685000D01*
X164716483Y-123643304D01*
X164913940Y-123561515D01*
X165091647Y-123442775D01*
X165242775Y-123291647D01*
X165361515Y-123113940D01*
X165443304Y-122916483D01*
X165448917Y-122888265D01*
X165465846Y-122843118D01*
X165479438Y-122810497D01*
X165489304Y-122789950D01*
X165497579Y-122775262D01*
X165508140Y-122759245D01*
X165525731Y-122736024D01*
X165554530Y-122702034D01*
X165597324Y-122655605D01*
X165657615Y-122593964D01*
X165895050Y-122356529D01*
X165928818Y-122328816D01*
X165965995Y-122283517D01*
X166039412Y-122194058D01*
X166121590Y-122040313D01*
X166172196Y-121873489D01*
X166185001Y-121743476D01*
X166185001Y-121743468D01*
X166189282Y-121699999D01*
X166185001Y-121656530D01*
X166185001Y-121643137D01*
X209285000Y-121643137D01*
X209285000Y-121856863D01*
X209326696Y-122066483D01*
X209408485Y-122263940D01*
X209527225Y-122441647D01*
X209678353Y-122592775D01*
X209856060Y-122711515D01*
X210053517Y-122793304D01*
X210263137Y-122835000D01*
X210476863Y-122835000D01*
X210686483Y-122793304D01*
X210883940Y-122711515D01*
X211061647Y-122592775D01*
X211212775Y-122441647D01*
X211331515Y-122263940D01*
X211413304Y-122066483D01*
X211455000Y-121856863D01*
X211455000Y-121643137D01*
X211413304Y-121433517D01*
X211331515Y-121236060D01*
X211212775Y-121058353D01*
X211061647Y-120907225D01*
X210883940Y-120788485D01*
X210686483Y-120706696D01*
X210476863Y-120665000D01*
X210263137Y-120665000D01*
X210053517Y-120706696D01*
X209856060Y-120788485D01*
X209678353Y-120907225D01*
X209527225Y-121058353D01*
X209408485Y-121236060D01*
X209326696Y-121433517D01*
X209285000Y-121643137D01*
X166185001Y-121643137D01*
X166185001Y-119643137D01*
X168015000Y-119643137D01*
X168015000Y-119856863D01*
X168056696Y-120066483D01*
X168138485Y-120263940D01*
X168257225Y-120441647D01*
X168408353Y-120592775D01*
X168586060Y-120711515D01*
X168783517Y-120793304D01*
X168993137Y-120835000D01*
X169206863Y-120835000D01*
X169416483Y-120793304D01*
X169613940Y-120711515D01*
X169791647Y-120592775D01*
X169942775Y-120441647D01*
X170061515Y-120263940D01*
X170143304Y-120066483D01*
X170185000Y-119856863D01*
X170185000Y-119643137D01*
X170143304Y-119433517D01*
X170061515Y-119236060D01*
X169942775Y-119058353D01*
X169791647Y-118907225D01*
X169613940Y-118788485D01*
X169416483Y-118706696D01*
X169206863Y-118665000D01*
X168993137Y-118665000D01*
X168783517Y-118706696D01*
X168586060Y-118788485D01*
X168408353Y-118907225D01*
X168257225Y-119058353D01*
X168138485Y-119236060D01*
X168056696Y-119433517D01*
X168015000Y-119643137D01*
X166185001Y-119643137D01*
X166185001Y-116743137D01*
X168015000Y-116743137D01*
X168015000Y-116956863D01*
X168056696Y-117166483D01*
X168138485Y-117363940D01*
X168257225Y-117541647D01*
X168408353Y-117692775D01*
X168586060Y-117811515D01*
X168783517Y-117893304D01*
X168993137Y-117935000D01*
X169206863Y-117935000D01*
X169416483Y-117893304D01*
X169613940Y-117811515D01*
X169791647Y-117692775D01*
X169942775Y-117541647D01*
X170061515Y-117363940D01*
X170143304Y-117166483D01*
X170185000Y-116956863D01*
X170185000Y-116743137D01*
X170143304Y-116533517D01*
X170061515Y-116336060D01*
X169942775Y-116158353D01*
X169791647Y-116007225D01*
X169613940Y-115888485D01*
X169416483Y-115806696D01*
X169206863Y-115765000D01*
X168993137Y-115765000D01*
X168783517Y-115806696D01*
X168586060Y-115888485D01*
X168408353Y-116007225D01*
X168257225Y-116158353D01*
X168138485Y-116336060D01*
X168056696Y-116533517D01*
X168015000Y-116743137D01*
X166185001Y-116743137D01*
X166185001Y-104943466D01*
X166189282Y-104900000D01*
X166185001Y-104856534D01*
X166185001Y-101793137D01*
X168165000Y-101793137D01*
X168165000Y-102006863D01*
X168206696Y-102216483D01*
X168288485Y-102413940D01*
X168407225Y-102591647D01*
X168558353Y-102742775D01*
X168736060Y-102861515D01*
X168933517Y-102943304D01*
X169143137Y-102985000D01*
X169356863Y-102985000D01*
X169566483Y-102943304D01*
X169763940Y-102861515D01*
X169941647Y-102742775D01*
X170092775Y-102591647D01*
X170211515Y-102413940D01*
X170293304Y-102216483D01*
X170335000Y-102006863D01*
X170335000Y-101793137D01*
X170293304Y-101583517D01*
X170211515Y-101386060D01*
X170092775Y-101208353D01*
X169941647Y-101057225D01*
X169763940Y-100938485D01*
X169566483Y-100856696D01*
X169356863Y-100815000D01*
X169143137Y-100815000D01*
X168933517Y-100856696D01*
X168736060Y-100938485D01*
X168558353Y-101057225D01*
X168407225Y-101208353D01*
X168288485Y-101386060D01*
X168206696Y-101583517D01*
X168165000Y-101793137D01*
X166185001Y-101793137D01*
X166185001Y-98743137D01*
X168115000Y-98743137D01*
X168115000Y-98956863D01*
X168156696Y-99166483D01*
X168238485Y-99363940D01*
X168357225Y-99541647D01*
X168508353Y-99692775D01*
X168686060Y-99811515D01*
X168883517Y-99893304D01*
X169093137Y-99935000D01*
X169306863Y-99935000D01*
X169516483Y-99893304D01*
X169713940Y-99811515D01*
X169891647Y-99692775D01*
X170042775Y-99541647D01*
X170161515Y-99363940D01*
X170243304Y-99166483D01*
X170285000Y-98956863D01*
X170285000Y-98743137D01*
X170243304Y-98533517D01*
X170161515Y-98336060D01*
X170042775Y-98158353D01*
X169891647Y-98007225D01*
X169713940Y-97888485D01*
X169516483Y-97806696D01*
X169306863Y-97765000D01*
X169093137Y-97765000D01*
X168883517Y-97806696D01*
X168686060Y-97888485D01*
X168508353Y-98007225D01*
X168357225Y-98158353D01*
X168238485Y-98336060D01*
X168156696Y-98533517D01*
X168115000Y-98743137D01*
X166185001Y-98743137D01*
X166185001Y-93645779D01*
X169608312Y-93645779D01*
X169608312Y-93849657D01*
X169648086Y-94049616D01*
X169726107Y-94237974D01*
X169771495Y-94305903D01*
X169714452Y-94443617D01*
X169674678Y-94643576D01*
X169674678Y-94847454D01*
X169714452Y-95047413D01*
X169792473Y-95235771D01*
X169905741Y-95405289D01*
X170049904Y-95549452D01*
X170219422Y-95662720D01*
X170407780Y-95740741D01*
X170607739Y-95780515D01*
X170811617Y-95780515D01*
X171011576Y-95740741D01*
X171199934Y-95662720D01*
X171369452Y-95549452D01*
X171513615Y-95405289D01*
X171626883Y-95235771D01*
X171704904Y-95047413D01*
X171744678Y-94847454D01*
X171744678Y-94643576D01*
X171704904Y-94443617D01*
X171626883Y-94255259D01*
X171581495Y-94187330D01*
X171638538Y-94049616D01*
X171678312Y-93849657D01*
X171678312Y-93645779D01*
X171638538Y-93445820D01*
X171564193Y-93266337D01*
X171582977Y-93238225D01*
X171660998Y-93049867D01*
X171700772Y-92849908D01*
X171700772Y-92789166D01*
X171768752Y-92761008D01*
X171835634Y-92716319D01*
X172000098Y-92784443D01*
X172200057Y-92824217D01*
X172403935Y-92824217D01*
X172603894Y-92784443D01*
X172792252Y-92706422D01*
X172961770Y-92593154D01*
X173070657Y-92484267D01*
X173130504Y-92524255D01*
X173287014Y-92589084D01*
X173453164Y-92622133D01*
X173622570Y-92622133D01*
X173752219Y-92596344D01*
X173687878Y-92692637D01*
X173623049Y-92849147D01*
X173590000Y-93015297D01*
X173590000Y-93184703D01*
X173623049Y-93350853D01*
X173643406Y-93400000D01*
X173623049Y-93449147D01*
X173590000Y-93615297D01*
X173590000Y-93784703D01*
X173623049Y-93950853D01*
X173687878Y-94107363D01*
X173781995Y-94248218D01*
X173901782Y-94368005D01*
X174042637Y-94462122D01*
X174199147Y-94526951D01*
X174365297Y-94560000D01*
X174534703Y-94560000D01*
X174700853Y-94526951D01*
X174857363Y-94462122D01*
X174998218Y-94368005D01*
X175118005Y-94248218D01*
X175212122Y-94107363D01*
X175276951Y-93950853D01*
X175310000Y-93784703D01*
X175310000Y-93615297D01*
X175276951Y-93449147D01*
X175256594Y-93400000D01*
X175276951Y-93350853D01*
X175310000Y-93184703D01*
X175310000Y-93015297D01*
X175276951Y-92849147D01*
X175212122Y-92692637D01*
X175118005Y-92551782D01*
X174998218Y-92431995D01*
X174857363Y-92337878D01*
X174700853Y-92273049D01*
X174534703Y-92240000D01*
X174365297Y-92240000D01*
X174235648Y-92265789D01*
X174299989Y-92169496D01*
X174320347Y-92120347D01*
X174369496Y-92099989D01*
X174510351Y-92005872D01*
X174630138Y-91886085D01*
X174668902Y-91828071D01*
X181465000Y-91828071D01*
X181465000Y-92031949D01*
X181504774Y-92231908D01*
X181582795Y-92420266D01*
X181592330Y-92434536D01*
X181588848Y-92439747D01*
X181510827Y-92628105D01*
X181471053Y-92828064D01*
X181471053Y-93031942D01*
X181510827Y-93231901D01*
X181588848Y-93420259D01*
X181640717Y-93497887D01*
X181632795Y-93509744D01*
X181554774Y-93698102D01*
X181515000Y-93898061D01*
X181515000Y-94101939D01*
X181554774Y-94301898D01*
X181632795Y-94490256D01*
X181746063Y-94659774D01*
X181890226Y-94803937D01*
X182059744Y-94917205D01*
X182248102Y-94995226D01*
X182448061Y-95035000D01*
X182651939Y-95035000D01*
X182851898Y-94995226D01*
X183040256Y-94917205D01*
X183209774Y-94803937D01*
X183353937Y-94659774D01*
X183467205Y-94490256D01*
X183545226Y-94301898D01*
X183585000Y-94101939D01*
X183585000Y-93898061D01*
X183545226Y-93698102D01*
X183467205Y-93509744D01*
X183415336Y-93432116D01*
X183423258Y-93420259D01*
X183501279Y-93231901D01*
X183541053Y-93031942D01*
X183541053Y-92828064D01*
X183501279Y-92628105D01*
X183423258Y-92439747D01*
X183413723Y-92425477D01*
X183417205Y-92420266D01*
X183495226Y-92231908D01*
X183535000Y-92031949D01*
X183535000Y-91828071D01*
X183495226Y-91628112D01*
X183417205Y-91439754D01*
X183303937Y-91270236D01*
X183159774Y-91126073D01*
X182990256Y-91012805D01*
X182801898Y-90934784D01*
X182601939Y-90895010D01*
X182398061Y-90895010D01*
X182198102Y-90934784D01*
X182009744Y-91012805D01*
X181840226Y-91126073D01*
X181696063Y-91270236D01*
X181582795Y-91439754D01*
X181504774Y-91628112D01*
X181465000Y-91828071D01*
X174668902Y-91828071D01*
X174724255Y-91745230D01*
X174789084Y-91588720D01*
X174822133Y-91422570D01*
X174822133Y-91253164D01*
X174789084Y-91087014D01*
X174724255Y-90930504D01*
X174630138Y-90789649D01*
X174510351Y-90669862D01*
X174369496Y-90575745D01*
X174212986Y-90510916D01*
X174046836Y-90477867D01*
X173877430Y-90477867D01*
X173711280Y-90510916D01*
X173554770Y-90575745D01*
X173413915Y-90669862D01*
X173294128Y-90789649D01*
X173286153Y-90801584D01*
X173286153Y-90688569D01*
X173246379Y-90488610D01*
X173168358Y-90300252D01*
X173145913Y-90266660D01*
X173217925Y-90092809D01*
X173257699Y-89892850D01*
X173257699Y-89688972D01*
X173217925Y-89489013D01*
X173162204Y-89354491D01*
X173209575Y-89283595D01*
X173287596Y-89095237D01*
X173327370Y-88895278D01*
X173327370Y-88693137D01*
X173815000Y-88693137D01*
X173815000Y-88906863D01*
X173856696Y-89116483D01*
X173938485Y-89313940D01*
X174057225Y-89491647D01*
X174208353Y-89642775D01*
X174386060Y-89761515D01*
X174583517Y-89843304D01*
X174793137Y-89885000D01*
X175006863Y-89885000D01*
X175216483Y-89843304D01*
X175413940Y-89761515D01*
X175591647Y-89642775D01*
X175742775Y-89491647D01*
X175861515Y-89313940D01*
X175943304Y-89116483D01*
X175985000Y-88906863D01*
X175985000Y-88848711D01*
X176090226Y-88953937D01*
X176259744Y-89067205D01*
X176448102Y-89145226D01*
X176520115Y-89159550D01*
X176580206Y-89304621D01*
X176693474Y-89474139D01*
X176837637Y-89618302D01*
X177007155Y-89731570D01*
X177195513Y-89809591D01*
X177395472Y-89849365D01*
X177599350Y-89849365D01*
X177799309Y-89809591D01*
X177987667Y-89731570D01*
X178157185Y-89618302D01*
X178238976Y-89536511D01*
X178359744Y-89617205D01*
X178502762Y-89676446D01*
X178517538Y-89750728D01*
X178595559Y-89939086D01*
X178708827Y-90108604D01*
X178852990Y-90252767D01*
X179022508Y-90366035D01*
X179210866Y-90444056D01*
X179410825Y-90483830D01*
X179520544Y-90483830D01*
X179491853Y-90628071D01*
X179491853Y-90831949D01*
X179531627Y-91031908D01*
X179609648Y-91220266D01*
X179722916Y-91389784D01*
X179867079Y-91533947D01*
X180036597Y-91647215D01*
X180224955Y-91725236D01*
X180424914Y-91765010D01*
X180628792Y-91765010D01*
X180828751Y-91725236D01*
X181017109Y-91647215D01*
X181186627Y-91533947D01*
X181330790Y-91389784D01*
X181444058Y-91220266D01*
X181522079Y-91031908D01*
X181561853Y-90831949D01*
X181561853Y-90628071D01*
X181522079Y-90428112D01*
X181444058Y-90239754D01*
X181330790Y-90070236D01*
X181186627Y-89926073D01*
X181017109Y-89812805D01*
X180828751Y-89734784D01*
X180628792Y-89695010D01*
X180519073Y-89695010D01*
X180547764Y-89550769D01*
X180547764Y-89346891D01*
X180507990Y-89146932D01*
X180429969Y-88958574D01*
X180316701Y-88789056D01*
X180172538Y-88644893D01*
X180003020Y-88531625D01*
X179860002Y-88472384D01*
X179845226Y-88398102D01*
X179767205Y-88209744D01*
X179653937Y-88040226D01*
X179509774Y-87896063D01*
X179340256Y-87782795D01*
X179151898Y-87704774D01*
X178951939Y-87665000D01*
X178748061Y-87665000D01*
X178548102Y-87704774D01*
X178359744Y-87782795D01*
X178190226Y-87896063D01*
X178108435Y-87977854D01*
X177987667Y-87897160D01*
X177799309Y-87819139D01*
X177727296Y-87804815D01*
X177667205Y-87659744D01*
X177553937Y-87490226D01*
X177409774Y-87346063D01*
X177240256Y-87232795D01*
X177051898Y-87154774D01*
X176851939Y-87115000D01*
X176648061Y-87115000D01*
X176448102Y-87154774D01*
X176259744Y-87232795D01*
X176090226Y-87346063D01*
X175946063Y-87490226D01*
X175832795Y-87659744D01*
X175754774Y-87848102D01*
X175715000Y-88048061D01*
X175715000Y-88080578D01*
X175591647Y-87957225D01*
X175413940Y-87838485D01*
X175216483Y-87756696D01*
X175006863Y-87715000D01*
X174793137Y-87715000D01*
X174583517Y-87756696D01*
X174386060Y-87838485D01*
X174208353Y-87957225D01*
X174057225Y-88108353D01*
X173938485Y-88286060D01*
X173856696Y-88483517D01*
X173815000Y-88693137D01*
X173327370Y-88693137D01*
X173327370Y-88691400D01*
X173287596Y-88491441D01*
X173209575Y-88303083D01*
X173096307Y-88133565D01*
X172952144Y-87989402D01*
X172782626Y-87876134D01*
X172594268Y-87798113D01*
X172394309Y-87758339D01*
X172190431Y-87758339D01*
X171990472Y-87798113D01*
X171802114Y-87876134D01*
X171632596Y-87989402D01*
X171488433Y-88133565D01*
X171375165Y-88303083D01*
X171297144Y-88491441D01*
X171257370Y-88691400D01*
X171257370Y-88895278D01*
X171297144Y-89095237D01*
X171352865Y-89229759D01*
X171305494Y-89300655D01*
X171227473Y-89489013D01*
X171187699Y-89688972D01*
X171187699Y-89892850D01*
X171227473Y-90092809D01*
X171305494Y-90281167D01*
X171327939Y-90314759D01*
X171255927Y-90488610D01*
X171216153Y-90688569D01*
X171216153Y-90808803D01*
X171176557Y-90808803D01*
X170976598Y-90848577D01*
X170788240Y-90926598D01*
X170618722Y-91039866D01*
X170474559Y-91184029D01*
X170361291Y-91353547D01*
X170283270Y-91541905D01*
X170243496Y-91741864D01*
X170243496Y-91802606D01*
X170175516Y-91830764D01*
X170005998Y-91944032D01*
X169861835Y-92088195D01*
X169748567Y-92257713D01*
X169670546Y-92446071D01*
X169630772Y-92646030D01*
X169630772Y-92849908D01*
X169670546Y-93049867D01*
X169744891Y-93229350D01*
X169726107Y-93257462D01*
X169648086Y-93445820D01*
X169608312Y-93645779D01*
X166185001Y-93645779D01*
X166185001Y-87693470D01*
X166189282Y-87650001D01*
X166185001Y-87606532D01*
X166185001Y-87606524D01*
X166172196Y-87476511D01*
X166121590Y-87309687D01*
X166039412Y-87155942D01*
X165975518Y-87078086D01*
X169584975Y-87078086D01*
X169584975Y-87281964D01*
X169624749Y-87481923D01*
X169702770Y-87670281D01*
X169816038Y-87839799D01*
X169960201Y-87983962D01*
X170129719Y-88097230D01*
X170318077Y-88175251D01*
X170518036Y-88215025D01*
X170721914Y-88215025D01*
X170921873Y-88175251D01*
X171110231Y-88097230D01*
X171279749Y-87983962D01*
X171423912Y-87839799D01*
X171537180Y-87670281D01*
X171615201Y-87481923D01*
X171654975Y-87281964D01*
X171654975Y-87078086D01*
X171615201Y-86878127D01*
X171537180Y-86689769D01*
X171423912Y-86520251D01*
X171279749Y-86376088D01*
X171110231Y-86262820D01*
X170921873Y-86184799D01*
X170721914Y-86145025D01*
X170518036Y-86145025D01*
X170318077Y-86184799D01*
X170129719Y-86262820D01*
X169960201Y-86376088D01*
X169816038Y-86520251D01*
X169702770Y-86689769D01*
X169624749Y-86878127D01*
X169584975Y-87078086D01*
X165975518Y-87078086D01*
X165956533Y-87054954D01*
X165956531Y-87054952D01*
X165928818Y-87021184D01*
X165895051Y-86993472D01*
X165657618Y-86756039D01*
X165597324Y-86694395D01*
X165554530Y-86647965D01*
X165525731Y-86613975D01*
X165508140Y-86590754D01*
X165497579Y-86574737D01*
X165489304Y-86560049D01*
X165479438Y-86539502D01*
X165465846Y-86506881D01*
X165448917Y-86461737D01*
X165443304Y-86433517D01*
X165361515Y-86236060D01*
X165242775Y-86058353D01*
X165091647Y-85907225D01*
X164913940Y-85788485D01*
X164716483Y-85706696D01*
X164506863Y-85665000D01*
X164293137Y-85665000D01*
X164083517Y-85706696D01*
X163886060Y-85788485D01*
X163708353Y-85907225D01*
X163557225Y-86058353D01*
X163438485Y-86236060D01*
X163356696Y-86433517D01*
X163351084Y-86461730D01*
X163334153Y-86506881D01*
X163320561Y-86539502D01*
X163310695Y-86560049D01*
X163302420Y-86574737D01*
X163291859Y-86590754D01*
X163274268Y-86613975D01*
X163245469Y-86647965D01*
X163202658Y-86694413D01*
X163142423Y-86755998D01*
X161633422Y-88265000D01*
X152071862Y-88265000D01*
X151918147Y-88259251D01*
X151853238Y-88250914D01*
X151845812Y-88175518D01*
X151809502Y-88055820D01*
X151750537Y-87945506D01*
X151671185Y-87848815D01*
X151574494Y-87769463D01*
X151464180Y-87710498D01*
X151344482Y-87674188D01*
X151220000Y-87661928D01*
X149520000Y-87661928D01*
X149395518Y-87674188D01*
X149275820Y-87710498D01*
X149165506Y-87769463D01*
X149068815Y-87848815D01*
X148989463Y-87945506D01*
X148930498Y-88055820D01*
X148894188Y-88175518D01*
X148881928Y-88300000D01*
X126468072Y-88300000D01*
X126455812Y-88175518D01*
X126419502Y-88055820D01*
X126360537Y-87945506D01*
X126281185Y-87848815D01*
X126184494Y-87769463D01*
X126074180Y-87710498D01*
X125954482Y-87674188D01*
X125830000Y-87661928D01*
X125265750Y-87665000D01*
X125107000Y-87823750D01*
X124853000Y-87823750D01*
X124694250Y-87665000D01*
X124130000Y-87661928D01*
X124005518Y-87674188D01*
X123885820Y-87710498D01*
X123775506Y-87769463D01*
X123678815Y-87848815D01*
X123599463Y-87945506D01*
X123540498Y-88055820D01*
X123504188Y-88175518D01*
X123491928Y-88300000D01*
X121710000Y-88300000D01*
X121710000Y-84243137D01*
X168015000Y-84243137D01*
X168015000Y-84456863D01*
X168056696Y-84666483D01*
X168138485Y-84863940D01*
X168257225Y-85041647D01*
X168408353Y-85192775D01*
X168586060Y-85311515D01*
X168783517Y-85393304D01*
X168993137Y-85435000D01*
X169206863Y-85435000D01*
X169416483Y-85393304D01*
X169613940Y-85311515D01*
X169791647Y-85192775D01*
X169942775Y-85041647D01*
X170061515Y-84863940D01*
X170143304Y-84666483D01*
X170185000Y-84456863D01*
X170185000Y-84243137D01*
X170143304Y-84033517D01*
X170061515Y-83836060D01*
X169942775Y-83658353D01*
X169791647Y-83507225D01*
X169613940Y-83388485D01*
X169416483Y-83306696D01*
X169206863Y-83265000D01*
X168993137Y-83265000D01*
X168783517Y-83306696D01*
X168586060Y-83388485D01*
X168408353Y-83507225D01*
X168257225Y-83658353D01*
X168138485Y-83836060D01*
X168056696Y-84033517D01*
X168015000Y-84243137D01*
X121710000Y-84243137D01*
X121710000Y-82643137D01*
X153665000Y-82643137D01*
X153665000Y-82856863D01*
X153706696Y-83066483D01*
X153788485Y-83263940D01*
X153907225Y-83441647D01*
X154058353Y-83592775D01*
X154236060Y-83711515D01*
X154433517Y-83793304D01*
X154643137Y-83835000D01*
X154856863Y-83835000D01*
X155066483Y-83793304D01*
X155263940Y-83711515D01*
X155441647Y-83592775D01*
X155592775Y-83441647D01*
X155711515Y-83263940D01*
X155793304Y-83066483D01*
X155835000Y-82856863D01*
X155835000Y-82643137D01*
X155825055Y-82593137D01*
X166065000Y-82593137D01*
X166065000Y-82806863D01*
X166106696Y-83016483D01*
X166188485Y-83213940D01*
X166307225Y-83391647D01*
X166458353Y-83542775D01*
X166636060Y-83661515D01*
X166833517Y-83743304D01*
X167043137Y-83785000D01*
X167256863Y-83785000D01*
X167466483Y-83743304D01*
X167663940Y-83661515D01*
X167841647Y-83542775D01*
X167992775Y-83391647D01*
X168111515Y-83213940D01*
X168193304Y-83016483D01*
X168235000Y-82806863D01*
X168235000Y-82593137D01*
X168193304Y-82383517D01*
X168111515Y-82186060D01*
X167992775Y-82008353D01*
X167841647Y-81857225D01*
X167663940Y-81738485D01*
X167466483Y-81656696D01*
X167256863Y-81615000D01*
X167043137Y-81615000D01*
X166833517Y-81656696D01*
X166636060Y-81738485D01*
X166458353Y-81857225D01*
X166307225Y-82008353D01*
X166188485Y-82186060D01*
X166106696Y-82383517D01*
X166065000Y-82593137D01*
X155825055Y-82593137D01*
X155793304Y-82433517D01*
X155711515Y-82236060D01*
X155592775Y-82058353D01*
X155441647Y-81907225D01*
X155263940Y-81788485D01*
X155066483Y-81706696D01*
X154856863Y-81665000D01*
X154643137Y-81665000D01*
X154433517Y-81706696D01*
X154236060Y-81788485D01*
X154058353Y-81907225D01*
X153907225Y-82058353D01*
X153788485Y-82236060D01*
X153706696Y-82433517D01*
X153665000Y-82643137D01*
X121710000Y-82643137D01*
X121710000Y-79186361D01*
X166766000Y-79186361D01*
X166766000Y-80463638D01*
X166783566Y-80641985D01*
X166852983Y-80870825D01*
X166965712Y-81081725D01*
X167117419Y-81266581D01*
X167302274Y-81418288D01*
X167513174Y-81531017D01*
X167742014Y-81600434D01*
X167980000Y-81623874D01*
X168217985Y-81600434D01*
X168446825Y-81531017D01*
X168657725Y-81418288D01*
X168842581Y-81266581D01*
X168994288Y-81081726D01*
X169107017Y-80870826D01*
X169176434Y-80641986D01*
X169194000Y-80463639D01*
X169194000Y-80055000D01*
X169456434Y-80055000D01*
X169483378Y-80052346D01*
X169485202Y-80052359D01*
X169494095Y-80051486D01*
X169523652Y-80048380D01*
X169550462Y-80045739D01*
X169551356Y-80045468D01*
X169555237Y-80045060D01*
X169612071Y-80033394D01*
X169669038Y-80022527D01*
X169677593Y-80019944D01*
X169736319Y-80001765D01*
X169789794Y-79979287D01*
X169843573Y-79957559D01*
X169851463Y-79953364D01*
X169905542Y-79924124D01*
X169953624Y-79891692D01*
X170002172Y-79859924D01*
X170009097Y-79854276D01*
X170056466Y-79815089D01*
X170097348Y-79773920D01*
X170138788Y-79733339D01*
X170144484Y-79726453D01*
X170183339Y-79678812D01*
X170195980Y-79659785D01*
X170236063Y-79719774D01*
X170380226Y-79863937D01*
X170549744Y-79977205D01*
X170738102Y-80055226D01*
X170938061Y-80095000D01*
X171141939Y-80095000D01*
X171341898Y-80055226D01*
X171530256Y-79977205D01*
X171699774Y-79863937D01*
X171843937Y-79719774D01*
X171957205Y-79550256D01*
X172035226Y-79361898D01*
X172075000Y-79161939D01*
X172075000Y-78958061D01*
X172061077Y-78888061D01*
X172540000Y-78888061D01*
X172540000Y-79091939D01*
X172579774Y-79291898D01*
X172657795Y-79480256D01*
X172771063Y-79649774D01*
X172915226Y-79793937D01*
X173084744Y-79907205D01*
X173273102Y-79985226D01*
X173473061Y-80025000D01*
X173676939Y-80025000D01*
X173876898Y-79985226D01*
X174065256Y-79907205D01*
X174234774Y-79793937D01*
X174378937Y-79649774D01*
X174453332Y-79538433D01*
X174458121Y-79549994D01*
X174562087Y-79705590D01*
X174694410Y-79837913D01*
X174850006Y-79941879D01*
X175022895Y-80013492D01*
X175206433Y-80050000D01*
X175393567Y-80050000D01*
X175406000Y-80047527D01*
X175406000Y-80463638D01*
X175423566Y-80641985D01*
X175492983Y-80870825D01*
X175605712Y-81081725D01*
X175757419Y-81266581D01*
X175901480Y-81384809D01*
X175836063Y-81450226D01*
X175722795Y-81619744D01*
X175644774Y-81808102D01*
X175605000Y-82008061D01*
X175605000Y-82211939D01*
X175644774Y-82411898D01*
X175722795Y-82600256D01*
X175836063Y-82769774D01*
X175980226Y-82913937D01*
X176149744Y-83027205D01*
X176338102Y-83105226D01*
X176538061Y-83145000D01*
X176741939Y-83145000D01*
X176941898Y-83105226D01*
X177130256Y-83027205D01*
X177299774Y-82913937D01*
X177443937Y-82769774D01*
X177557205Y-82600256D01*
X177635226Y-82411898D01*
X177635713Y-82409451D01*
X177657225Y-82441647D01*
X177808353Y-82592775D01*
X177986060Y-82711515D01*
X178183517Y-82793304D01*
X178393137Y-82835000D01*
X178606863Y-82835000D01*
X178816483Y-82793304D01*
X179013940Y-82711515D01*
X179191647Y-82592775D01*
X179342775Y-82441647D01*
X179461515Y-82263940D01*
X179543304Y-82066483D01*
X179585000Y-81856863D01*
X179585000Y-81643137D01*
X179543304Y-81433517D01*
X179461515Y-81236060D01*
X179342775Y-81058353D01*
X179191647Y-80907225D01*
X179013940Y-80788485D01*
X178816483Y-80706696D01*
X178606863Y-80665000D01*
X178393137Y-80665000D01*
X178183517Y-80706696D01*
X177986060Y-80788485D01*
X177808353Y-80907225D01*
X177657225Y-81058353D01*
X177538485Y-81236060D01*
X177456696Y-81433517D01*
X177451208Y-81461108D01*
X177443937Y-81450226D01*
X177360490Y-81366779D01*
X177482581Y-81266581D01*
X177634288Y-81081726D01*
X177747017Y-80870826D01*
X177816434Y-80641986D01*
X177834000Y-80463639D01*
X177834000Y-79186361D01*
X177816434Y-79008014D01*
X177747017Y-78779174D01*
X177694453Y-78680833D01*
X216459048Y-78680833D01*
X216459048Y-81600833D01*
X216843000Y-81600833D01*
X216843000Y-83400000D01*
X216845440Y-83424776D01*
X216852667Y-83448601D01*
X216864403Y-83470557D01*
X216880197Y-83489803D01*
X216899443Y-83505597D01*
X216921399Y-83517333D01*
X216945224Y-83524560D01*
X216970000Y-83527000D01*
X219100000Y-83527000D01*
X219124776Y-83524560D01*
X219148601Y-83517333D01*
X219170557Y-83505597D01*
X219189803Y-83489803D01*
X219205597Y-83470557D01*
X219217333Y-83448601D01*
X219224560Y-83424776D01*
X219227000Y-83400000D01*
X219227000Y-81600833D01*
X219640953Y-81600833D01*
X219640953Y-78680833D01*
X219227000Y-78680833D01*
X219227000Y-78010000D01*
X219224560Y-77985224D01*
X219217333Y-77961399D01*
X219205597Y-77939443D01*
X219189803Y-77920197D01*
X219170557Y-77904403D01*
X219148601Y-77892667D01*
X219124776Y-77885440D01*
X219100000Y-77883000D01*
X216970000Y-77883000D01*
X216945224Y-77885440D01*
X216921399Y-77892667D01*
X216899443Y-77904403D01*
X216880197Y-77920197D01*
X216864403Y-77939443D01*
X216852667Y-77961399D01*
X216845440Y-77985224D01*
X216843000Y-78010000D01*
X216843000Y-78680833D01*
X216459048Y-78680833D01*
X177694453Y-78680833D01*
X177634288Y-78568274D01*
X177482581Y-78383419D01*
X177297726Y-78231712D01*
X177086826Y-78118983D01*
X176857986Y-78049566D01*
X176620000Y-78026126D01*
X176382015Y-78049566D01*
X176153175Y-78118983D01*
X175942275Y-78231712D01*
X175838244Y-78317088D01*
X175749994Y-78258121D01*
X175577105Y-78186508D01*
X175393567Y-78150000D01*
X175206433Y-78150000D01*
X175022895Y-78186508D01*
X174850006Y-78258121D01*
X174694410Y-78362087D01*
X174562087Y-78494410D01*
X174517584Y-78561014D01*
X174492205Y-78499744D01*
X174378937Y-78330226D01*
X174234774Y-78186063D01*
X174065256Y-78072795D01*
X173876898Y-77994774D01*
X173676939Y-77955000D01*
X173473061Y-77955000D01*
X173273102Y-77994774D01*
X173084744Y-78072795D01*
X172915226Y-78186063D01*
X172771063Y-78330226D01*
X172657795Y-78499744D01*
X172579774Y-78688102D01*
X172540000Y-78888061D01*
X172061077Y-78888061D01*
X172035226Y-78758102D01*
X171957205Y-78569744D01*
X171843937Y-78400226D01*
X171699774Y-78256063D01*
X171530256Y-78142795D01*
X171341898Y-78064774D01*
X171141939Y-78025000D01*
X170938061Y-78025000D01*
X170738102Y-78064774D01*
X170549744Y-78142795D01*
X170380226Y-78256063D01*
X170236063Y-78400226D01*
X170167932Y-78502191D01*
X170140089Y-78468534D01*
X170098920Y-78427652D01*
X170058339Y-78386212D01*
X170051453Y-78380516D01*
X170003811Y-78341661D01*
X169955502Y-78309565D01*
X169907643Y-78276795D01*
X169899782Y-78272545D01*
X169845501Y-78243683D01*
X169791913Y-78221596D01*
X169738556Y-78198726D01*
X169730020Y-78196084D01*
X169671167Y-78178315D01*
X169614250Y-78167045D01*
X169557522Y-78154987D01*
X169548635Y-78154053D01*
X169487452Y-78148054D01*
X169487442Y-78148054D01*
X169456434Y-78145000D01*
X169143566Y-78145000D01*
X169116622Y-78147654D01*
X169114798Y-78147641D01*
X169105905Y-78148514D01*
X169076355Y-78151620D01*
X169049538Y-78154261D01*
X169048644Y-78154532D01*
X169044764Y-78154940D01*
X168987943Y-78166604D01*
X168930962Y-78177473D01*
X168922407Y-78180056D01*
X168863680Y-78198235D01*
X168810225Y-78220705D01*
X168756427Y-78242440D01*
X168748537Y-78246636D01*
X168704756Y-78270308D01*
X168657726Y-78231712D01*
X168446826Y-78118983D01*
X168217986Y-78049566D01*
X167980000Y-78026126D01*
X167742015Y-78049566D01*
X167513175Y-78118983D01*
X167302275Y-78231712D01*
X167117420Y-78383419D01*
X166965713Y-78568274D01*
X166852983Y-78779174D01*
X166783566Y-79008014D01*
X166766000Y-79186361D01*
X121710000Y-79186361D01*
X121710000Y-77034721D01*
X121714710Y-76986684D01*
X154561451Y-76986684D01*
X154561451Y-77200410D01*
X154603147Y-77410030D01*
X154684936Y-77607487D01*
X154803676Y-77785194D01*
X154954804Y-77936322D01*
X155132511Y-78055062D01*
X155329968Y-78136851D01*
X155539588Y-78178547D01*
X155753314Y-78178547D01*
X155962934Y-78136851D01*
X156160391Y-78055062D01*
X156338098Y-77936322D01*
X156489226Y-77785194D01*
X156607966Y-77607487D01*
X156689755Y-77410030D01*
X156731451Y-77200410D01*
X156731451Y-76986684D01*
X156689755Y-76777064D01*
X156607966Y-76579607D01*
X156489226Y-76401900D01*
X156338098Y-76250772D01*
X156160391Y-76132032D01*
X155962934Y-76050243D01*
X155753314Y-76008547D01*
X155539588Y-76008547D01*
X155329968Y-76050243D01*
X155132511Y-76132032D01*
X154954804Y-76250772D01*
X154803676Y-76401900D01*
X154684936Y-76579607D01*
X154603147Y-76777064D01*
X154561451Y-76986684D01*
X121714710Y-76986684D01*
X121756953Y-76555866D01*
X121885938Y-76128645D01*
X122095446Y-75734616D01*
X122377499Y-75388786D01*
X122721351Y-75104327D01*
X123113910Y-74892071D01*
X123540213Y-74760108D01*
X124016964Y-74710000D01*
X166948620Y-74710000D01*
X166948168Y-74710551D01*
%TA.AperFunction,Conductor*%
D20*
G36*
X166948168Y-74710551D02*
G01*
X166833489Y-74925099D01*
X166762870Y-75157898D01*
X166745000Y-75339335D01*
X166745000Y-76660664D01*
X166762870Y-76842101D01*
X166833489Y-77074900D01*
X166948167Y-77289448D01*
X167102498Y-77477502D01*
X167290551Y-77631833D01*
X167505099Y-77746511D01*
X167737898Y-77817130D01*
X167980000Y-77840975D01*
X168222101Y-77817130D01*
X168454900Y-77746511D01*
X168669448Y-77631833D01*
X168857502Y-77477502D01*
X169011833Y-77289449D01*
X169126511Y-77074901D01*
X169197130Y-76842102D01*
X169215000Y-76660665D01*
X169215000Y-75339335D01*
X169197130Y-75157898D01*
X169126511Y-74925099D01*
X169011833Y-74710551D01*
X169011381Y-74710000D01*
X175588620Y-74710000D01*
X175588168Y-74710551D01*
X175473489Y-74925099D01*
X175402870Y-75157898D01*
X175385000Y-75339335D01*
X175385000Y-76660664D01*
X175402870Y-76842101D01*
X175473489Y-77074900D01*
X175588167Y-77289448D01*
X175742498Y-77477502D01*
X175930551Y-77631833D01*
X176145099Y-77746511D01*
X176377898Y-77817130D01*
X176620000Y-77840975D01*
X176862101Y-77817130D01*
X177094900Y-77746511D01*
X177309448Y-77631833D01*
X177497502Y-77477502D01*
X177651833Y-77289449D01*
X177766511Y-77074901D01*
X177837130Y-76842102D01*
X177855000Y-76660665D01*
X177855000Y-75339335D01*
X177837130Y-75157898D01*
X177766511Y-74925099D01*
X177651833Y-74710551D01*
X177651381Y-74710000D01*
X217965279Y-74710000D01*
X218444134Y-74756953D01*
X218871355Y-74885938D01*
X219265384Y-75095446D01*
X219611214Y-75377499D01*
X219895673Y-75721351D01*
X220107929Y-76113910D01*
X220239892Y-76540213D01*
X220290000Y-77016964D01*
X220290001Y-130965269D01*
X220243048Y-131444133D01*
X220114063Y-131871353D01*
X219904554Y-132265384D01*
X219622501Y-132611214D01*
X219278651Y-132895672D01*
X218886093Y-133107927D01*
X218459788Y-133239891D01*
X217983036Y-133290000D01*
X124034721Y-133290000D01*
X123555867Y-133243048D01*
X123128647Y-133114063D01*
X122734616Y-132904554D01*
X122388786Y-132622501D01*
X122104328Y-132278651D01*
X121892073Y-131886093D01*
X121864823Y-131798061D01*
X145865000Y-131798061D01*
X145865000Y-132001939D01*
X145904774Y-132201898D01*
X145982795Y-132390256D01*
X146096063Y-132559774D01*
X146240226Y-132703937D01*
X146409744Y-132817205D01*
X146598102Y-132895226D01*
X146798061Y-132935000D01*
X147001939Y-132935000D01*
X147201898Y-132895226D01*
X147390256Y-132817205D01*
X147559774Y-132703937D01*
X147703937Y-132559774D01*
X147817205Y-132390256D01*
X147895226Y-132201898D01*
X147935000Y-132001939D01*
X147935000Y-131798061D01*
X147895226Y-131598102D01*
X147817205Y-131409744D01*
X147703937Y-131240226D01*
X147559774Y-131096063D01*
X147390256Y-130982795D01*
X147201898Y-130904774D01*
X147001939Y-130865000D01*
X146798061Y-130865000D01*
X146598102Y-130904774D01*
X146409744Y-130982795D01*
X146240226Y-131096063D01*
X146096063Y-131240226D01*
X145982795Y-131409744D01*
X145904774Y-131598102D01*
X145865000Y-131798061D01*
X121864823Y-131798061D01*
X121760109Y-131459788D01*
X121710000Y-130983036D01*
X121710000Y-127893137D01*
X163165000Y-127893137D01*
X163165000Y-128106863D01*
X163206696Y-128316483D01*
X163288485Y-128513940D01*
X163407225Y-128691647D01*
X163558353Y-128842775D01*
X163736060Y-128961515D01*
X163933517Y-129043304D01*
X164143137Y-129085000D01*
X164356863Y-129085000D01*
X164566483Y-129043304D01*
X164763940Y-128961515D01*
X164941647Y-128842775D01*
X165092775Y-128691647D01*
X165211515Y-128513940D01*
X165293304Y-128316483D01*
X165335000Y-128106863D01*
X165335000Y-127893137D01*
X165293304Y-127683517D01*
X165211515Y-127486060D01*
X165092775Y-127308353D01*
X164941647Y-127157225D01*
X164763940Y-127038485D01*
X164566483Y-126956696D01*
X164356863Y-126915000D01*
X164143137Y-126915000D01*
X163933517Y-126956696D01*
X163736060Y-127038485D01*
X163558353Y-127157225D01*
X163407225Y-127308353D01*
X163288485Y-127486060D01*
X163206696Y-127683517D01*
X163165000Y-127893137D01*
X121710000Y-127893137D01*
X121710000Y-126498061D01*
X145865000Y-126498061D01*
X145865000Y-126701939D01*
X145904774Y-126901898D01*
X145982795Y-127090256D01*
X146096063Y-127259774D01*
X146240226Y-127403937D01*
X146409744Y-127517205D01*
X146598102Y-127595226D01*
X146798061Y-127635000D01*
X147001939Y-127635000D01*
X147201898Y-127595226D01*
X147390256Y-127517205D01*
X147559774Y-127403937D01*
X147703937Y-127259774D01*
X147817205Y-127090256D01*
X147895226Y-126901898D01*
X147935000Y-126701939D01*
X147935000Y-126498061D01*
X147895226Y-126298102D01*
X147817205Y-126109744D01*
X147703937Y-125940226D01*
X147559774Y-125796063D01*
X147390256Y-125682795D01*
X147201898Y-125604774D01*
X147001939Y-125565000D01*
X146798061Y-125565000D01*
X146598102Y-125604774D01*
X146409744Y-125682795D01*
X146240226Y-125796063D01*
X146096063Y-125940226D01*
X145982795Y-126109744D01*
X145904774Y-126298102D01*
X145865000Y-126498061D01*
X121710000Y-126498061D01*
X121710000Y-90000000D01*
X123491928Y-90000000D01*
X123504188Y-90124482D01*
X123540498Y-90244180D01*
X123599463Y-90354494D01*
X123678815Y-90451185D01*
X123775506Y-90530537D01*
X123885820Y-90589502D01*
X123958380Y-90611513D01*
X123826525Y-90743368D01*
X123664010Y-90986589D01*
X123552068Y-91256842D01*
X123495000Y-91543740D01*
X123495000Y-91836260D01*
X123552068Y-92123158D01*
X123664010Y-92393411D01*
X123826525Y-92636632D01*
X124033368Y-92843475D01*
X124207760Y-92960000D01*
X124033368Y-93076525D01*
X123826525Y-93283368D01*
X123664010Y-93526589D01*
X123552068Y-93796842D01*
X123495000Y-94083740D01*
X123495000Y-94376260D01*
X123552068Y-94663158D01*
X123664010Y-94933411D01*
X123826525Y-95176632D01*
X124033368Y-95383475D01*
X124207760Y-95500000D01*
X124033368Y-95616525D01*
X123826525Y-95823368D01*
X123664010Y-96066589D01*
X123552068Y-96336842D01*
X123495000Y-96623740D01*
X123495000Y-96916260D01*
X123552068Y-97203158D01*
X123664010Y-97473411D01*
X123826525Y-97716632D01*
X124033368Y-97923475D01*
X124207760Y-98040000D01*
X124033368Y-98156525D01*
X123826525Y-98363368D01*
X123664010Y-98606589D01*
X123552068Y-98876842D01*
X123495000Y-99163740D01*
X123495000Y-99456260D01*
X123552068Y-99743158D01*
X123664010Y-100013411D01*
X123826525Y-100256632D01*
X124033368Y-100463475D01*
X124207760Y-100580000D01*
X124033368Y-100696525D01*
X123826525Y-100903368D01*
X123664010Y-101146589D01*
X123552068Y-101416842D01*
X123495000Y-101703740D01*
X123495000Y-101996260D01*
X123552068Y-102283158D01*
X123664010Y-102553411D01*
X123826525Y-102796632D01*
X124033368Y-103003475D01*
X124207760Y-103120000D01*
X124033368Y-103236525D01*
X123826525Y-103443368D01*
X123664010Y-103686589D01*
X123552068Y-103956842D01*
X123495000Y-104243740D01*
X123495000Y-104536260D01*
X123552068Y-104823158D01*
X123664010Y-105093411D01*
X123826525Y-105336632D01*
X124033368Y-105543475D01*
X124207760Y-105660000D01*
X124033368Y-105776525D01*
X123826525Y-105983368D01*
X123664010Y-106226589D01*
X123552068Y-106496842D01*
X123495000Y-106783740D01*
X123495000Y-107076260D01*
X123552068Y-107363158D01*
X123664010Y-107633411D01*
X123826525Y-107876632D01*
X124033368Y-108083475D01*
X124207760Y-108200000D01*
X124033368Y-108316525D01*
X123826525Y-108523368D01*
X123664010Y-108766589D01*
X123552068Y-109036842D01*
X123495000Y-109323740D01*
X123495000Y-109616260D01*
X123552068Y-109903158D01*
X123664010Y-110173411D01*
X123826525Y-110416632D01*
X124033368Y-110623475D01*
X124207760Y-110740000D01*
X124033368Y-110856525D01*
X123826525Y-111063368D01*
X123664010Y-111306589D01*
X123552068Y-111576842D01*
X123495000Y-111863740D01*
X123495000Y-112156260D01*
X123552068Y-112443158D01*
X123664010Y-112713411D01*
X123826525Y-112956632D01*
X124033368Y-113163475D01*
X124207760Y-113280000D01*
X124033368Y-113396525D01*
X123826525Y-113603368D01*
X123664010Y-113846589D01*
X123552068Y-114116842D01*
X123495000Y-114403740D01*
X123495000Y-114696260D01*
X123552068Y-114983158D01*
X123664010Y-115253411D01*
X123826525Y-115496632D01*
X124033368Y-115703475D01*
X124207760Y-115820000D01*
X124033368Y-115936525D01*
X123826525Y-116143368D01*
X123664010Y-116386589D01*
X123552068Y-116656842D01*
X123495000Y-116943740D01*
X123495000Y-117236260D01*
X123552068Y-117523158D01*
X123664010Y-117793411D01*
X123826525Y-118036632D01*
X124033368Y-118243475D01*
X124207760Y-118360000D01*
X124033368Y-118476525D01*
X123826525Y-118683368D01*
X123664010Y-118926589D01*
X123552068Y-119196842D01*
X123495000Y-119483740D01*
X123495000Y-119776260D01*
X123552068Y-120063158D01*
X123664010Y-120333411D01*
X123826525Y-120576632D01*
X124033368Y-120783475D01*
X124207760Y-120900000D01*
X124033368Y-121016525D01*
X123826525Y-121223368D01*
X123664010Y-121466589D01*
X123552068Y-121736842D01*
X123495000Y-122023740D01*
X123495000Y-122316260D01*
X123552068Y-122603158D01*
X123664010Y-122873411D01*
X123826525Y-123116632D01*
X124033368Y-123323475D01*
X124207760Y-123440000D01*
X124033368Y-123556525D01*
X123826525Y-123763368D01*
X123664010Y-124006589D01*
X123552068Y-124276842D01*
X123495000Y-124563740D01*
X123495000Y-124856260D01*
X123552068Y-125143158D01*
X123664010Y-125413411D01*
X123826525Y-125656632D01*
X124033368Y-125863475D01*
X124276589Y-126025990D01*
X124546842Y-126137932D01*
X124833740Y-126195000D01*
X125126260Y-126195000D01*
X125413158Y-126137932D01*
X125683411Y-126025990D01*
X125926632Y-125863475D01*
X126133475Y-125656632D01*
X126295990Y-125413411D01*
X126407932Y-125143158D01*
X126465000Y-124856260D01*
X126465000Y-124563740D01*
X126407932Y-124276842D01*
X126295990Y-124006589D01*
X126133475Y-123763368D01*
X125926632Y-123556525D01*
X125752240Y-123440000D01*
X125926632Y-123323475D01*
X126133475Y-123116632D01*
X126295990Y-122873411D01*
X126407932Y-122603158D01*
X126465000Y-122316260D01*
X126465000Y-122023740D01*
X126407932Y-121736842D01*
X126295990Y-121466589D01*
X126133475Y-121223368D01*
X125926632Y-121016525D01*
X125752240Y-120900000D01*
X125926632Y-120783475D01*
X126133475Y-120576632D01*
X126295990Y-120333411D01*
X126407932Y-120063158D01*
X126465000Y-119776260D01*
X126465000Y-119483740D01*
X126407932Y-119196842D01*
X126295990Y-118926589D01*
X126133475Y-118683368D01*
X125926632Y-118476525D01*
X125752240Y-118360000D01*
X125926632Y-118243475D01*
X126133475Y-118036632D01*
X126295990Y-117793411D01*
X126407932Y-117523158D01*
X126465000Y-117236260D01*
X126465000Y-116943740D01*
X126407932Y-116656842D01*
X126295990Y-116386589D01*
X126133475Y-116143368D01*
X125926632Y-115936525D01*
X125752240Y-115820000D01*
X125926632Y-115703475D01*
X126133475Y-115496632D01*
X126295990Y-115253411D01*
X126407932Y-114983158D01*
X126465000Y-114696260D01*
X126465000Y-114548061D01*
X132215000Y-114548061D01*
X132215000Y-114751939D01*
X132254774Y-114951898D01*
X132332795Y-115140256D01*
X132446063Y-115309774D01*
X132590226Y-115453937D01*
X132759744Y-115567205D01*
X132948102Y-115645226D01*
X133148061Y-115685000D01*
X133351939Y-115685000D01*
X133551898Y-115645226D01*
X133740256Y-115567205D01*
X133859236Y-115487705D01*
X133998102Y-115545226D01*
X134198061Y-115585000D01*
X134401939Y-115585000D01*
X134601898Y-115545226D01*
X134790256Y-115467205D01*
X134959774Y-115353937D01*
X135103937Y-115209774D01*
X135217205Y-115040256D01*
X135295226Y-114851898D01*
X135335000Y-114651939D01*
X135335000Y-114448061D01*
X135295226Y-114248102D01*
X135217205Y-114059744D01*
X135103937Y-113890226D01*
X134959774Y-113746063D01*
X134790256Y-113632795D01*
X134601898Y-113554774D01*
X134401939Y-113515000D01*
X134198061Y-113515000D01*
X133998102Y-113554774D01*
X133809744Y-113632795D01*
X133690764Y-113712295D01*
X133551898Y-113654774D01*
X133351939Y-113615000D01*
X133148061Y-113615000D01*
X132948102Y-113654774D01*
X132759744Y-113732795D01*
X132590226Y-113846063D01*
X132446063Y-113990226D01*
X132332795Y-114159744D01*
X132254774Y-114348102D01*
X132215000Y-114548061D01*
X126465000Y-114548061D01*
X126465000Y-114403740D01*
X126407932Y-114116842D01*
X126295990Y-113846589D01*
X126133475Y-113603368D01*
X125926632Y-113396525D01*
X125752240Y-113280000D01*
X125926632Y-113163475D01*
X126092046Y-112998061D01*
X146415000Y-112998061D01*
X146415000Y-113201939D01*
X146454774Y-113401898D01*
X146532795Y-113590256D01*
X146646063Y-113759774D01*
X146790226Y-113903937D01*
X146959744Y-114017205D01*
X147148102Y-114095226D01*
X147348061Y-114135000D01*
X147551939Y-114135000D01*
X147751898Y-114095226D01*
X147940256Y-114017205D01*
X148109774Y-113903937D01*
X148253937Y-113759774D01*
X148367205Y-113590256D01*
X148445226Y-113401898D01*
X148485000Y-113201939D01*
X148485000Y-112998061D01*
X148445226Y-112798102D01*
X148367205Y-112609744D01*
X148253937Y-112440226D01*
X148109774Y-112296063D01*
X147940256Y-112182795D01*
X147751898Y-112104774D01*
X147551939Y-112065000D01*
X147348061Y-112065000D01*
X147148102Y-112104774D01*
X146959744Y-112182795D01*
X146790226Y-112296063D01*
X146646063Y-112440226D01*
X146532795Y-112609744D01*
X146454774Y-112798102D01*
X146415000Y-112998061D01*
X126092046Y-112998061D01*
X126133475Y-112956632D01*
X126295990Y-112713411D01*
X126407932Y-112443158D01*
X126465000Y-112156260D01*
X126465000Y-111863740D01*
X126407932Y-111576842D01*
X126295990Y-111306589D01*
X126176702Y-111128061D01*
X145255000Y-111128061D01*
X145255000Y-111331939D01*
X145294774Y-111531898D01*
X145372795Y-111720256D01*
X145486063Y-111889774D01*
X145630226Y-112033937D01*
X145799744Y-112147205D01*
X145988102Y-112225226D01*
X146188061Y-112265000D01*
X146391939Y-112265000D01*
X146591898Y-112225226D01*
X146780256Y-112147205D01*
X146949774Y-112033937D01*
X147093937Y-111889774D01*
X147207205Y-111720256D01*
X147285226Y-111531898D01*
X147294688Y-111484329D01*
X147298061Y-111485000D01*
X147501939Y-111485000D01*
X147701898Y-111445226D01*
X147890256Y-111367205D01*
X148059774Y-111253937D01*
X148203937Y-111109774D01*
X148317205Y-110940256D01*
X148395226Y-110751898D01*
X148435000Y-110551939D01*
X148435000Y-110348061D01*
X148395226Y-110148102D01*
X148317205Y-109959744D01*
X148203937Y-109790226D01*
X148059774Y-109646063D01*
X147890256Y-109532795D01*
X147844987Y-109514044D01*
X148009774Y-109403937D01*
X148153937Y-109259774D01*
X148267205Y-109090256D01*
X148345226Y-108901898D01*
X148385000Y-108701939D01*
X148385000Y-108498061D01*
X148345226Y-108298102D01*
X148267205Y-108109744D01*
X148153937Y-107940226D01*
X148088711Y-107875000D01*
X148103937Y-107859774D01*
X148217205Y-107690256D01*
X148295226Y-107501898D01*
X148335000Y-107301939D01*
X148335000Y-107098061D01*
X148295226Y-106898102D01*
X148217205Y-106709744D01*
X148103937Y-106540226D01*
X147959774Y-106396063D01*
X147790256Y-106282795D01*
X147601898Y-106204774D01*
X147401939Y-106165000D01*
X147198061Y-106165000D01*
X146998102Y-106204774D01*
X146809744Y-106282795D01*
X146640226Y-106396063D01*
X146496063Y-106540226D01*
X146382795Y-106709744D01*
X146304774Y-106898102D01*
X146265000Y-107098061D01*
X146265000Y-107301939D01*
X146304774Y-107501898D01*
X146382795Y-107690256D01*
X146496063Y-107859774D01*
X146561289Y-107925000D01*
X146546063Y-107940226D01*
X146432795Y-108109744D01*
X146354774Y-108298102D01*
X146315000Y-108498061D01*
X146315000Y-108701939D01*
X146354774Y-108901898D01*
X146432795Y-109090256D01*
X146546063Y-109259774D01*
X146690226Y-109403937D01*
X146859744Y-109517205D01*
X146905013Y-109535956D01*
X146740226Y-109646063D01*
X146596063Y-109790226D01*
X146482795Y-109959744D01*
X146404774Y-110148102D01*
X146395312Y-110195671D01*
X146391939Y-110195000D01*
X146188061Y-110195000D01*
X145988102Y-110234774D01*
X145799744Y-110312795D01*
X145630226Y-110426063D01*
X145486063Y-110570226D01*
X145372795Y-110739744D01*
X145294774Y-110928102D01*
X145255000Y-111128061D01*
X126176702Y-111128061D01*
X126133475Y-111063368D01*
X125926632Y-110856525D01*
X125752240Y-110740000D01*
X125926632Y-110623475D01*
X126133475Y-110416632D01*
X126295990Y-110173411D01*
X126407932Y-109903158D01*
X126465000Y-109616260D01*
X126465000Y-109323740D01*
X126407932Y-109036842D01*
X126295990Y-108766589D01*
X126133475Y-108523368D01*
X125926632Y-108316525D01*
X125752240Y-108200000D01*
X125926632Y-108083475D01*
X126133475Y-107876632D01*
X126295990Y-107633411D01*
X126407932Y-107363158D01*
X126465000Y-107076260D01*
X126465000Y-106783740D01*
X126407932Y-106496842D01*
X126295990Y-106226589D01*
X126133475Y-105983368D01*
X125926632Y-105776525D01*
X125752240Y-105660000D01*
X125926632Y-105543475D01*
X126133475Y-105336632D01*
X126295990Y-105093411D01*
X126407932Y-104823158D01*
X126465000Y-104536260D01*
X126465000Y-104243740D01*
X126407932Y-103956842D01*
X126335373Y-103781669D01*
X126368102Y-103795226D01*
X126568061Y-103835000D01*
X126771939Y-103835000D01*
X126971898Y-103795226D01*
X127160256Y-103717205D01*
X127329774Y-103603937D01*
X127473937Y-103459774D01*
X127587205Y-103290256D01*
X127665226Y-103101898D01*
X127705000Y-102901939D01*
X127705000Y-102698061D01*
X127665226Y-102498102D01*
X127587205Y-102309744D01*
X127473937Y-102140226D01*
X127329774Y-101996063D01*
X127160256Y-101882795D01*
X126971898Y-101804774D01*
X126771939Y-101765000D01*
X126568061Y-101765000D01*
X126465000Y-101785500D01*
X126465000Y-101703740D01*
X126407932Y-101416842D01*
X126295990Y-101146589D01*
X126133475Y-100903368D01*
X125926632Y-100696525D01*
X125752240Y-100580000D01*
X125926632Y-100463475D01*
X126133475Y-100256632D01*
X126295990Y-100013411D01*
X126407932Y-99743158D01*
X126465000Y-99456260D01*
X126465000Y-99163740D01*
X126407932Y-98876842D01*
X126295990Y-98606589D01*
X126133475Y-98363368D01*
X125926632Y-98156525D01*
X125752240Y-98040000D01*
X125926632Y-97923475D01*
X126133475Y-97716632D01*
X126295990Y-97473411D01*
X126407932Y-97203158D01*
X126465000Y-96916260D01*
X126465000Y-96623740D01*
X126407932Y-96336842D01*
X126295990Y-96066589D01*
X126133475Y-95823368D01*
X125926632Y-95616525D01*
X125752240Y-95500000D01*
X125926632Y-95383475D01*
X126133475Y-95176632D01*
X126295990Y-94933411D01*
X126407932Y-94663158D01*
X126465000Y-94376260D01*
X126465000Y-94083740D01*
X126407932Y-93796842D01*
X126295990Y-93526589D01*
X126133475Y-93283368D01*
X125926632Y-93076525D01*
X125752240Y-92960000D01*
X125926632Y-92843475D01*
X126133475Y-92636632D01*
X126295990Y-92393411D01*
X126407932Y-92123158D01*
X126465000Y-91836260D01*
X126465000Y-91543740D01*
X126435414Y-91395000D01*
X126446863Y-91395000D01*
X126656483Y-91353304D01*
X126853940Y-91271515D01*
X127031647Y-91152775D01*
X127182775Y-91001647D01*
X127301515Y-90823940D01*
X127383304Y-90626483D01*
X127425000Y-90416863D01*
X127425000Y-90203137D01*
X127383304Y-89993517D01*
X127301515Y-89796060D01*
X127292881Y-89783137D01*
X145165000Y-89783137D01*
X145165000Y-89996863D01*
X145206696Y-90206483D01*
X145288485Y-90403940D01*
X145407225Y-90581647D01*
X145558353Y-90732775D01*
X145736060Y-90851515D01*
X145933517Y-90933304D01*
X146143137Y-90975000D01*
X146356863Y-90975000D01*
X146566483Y-90933304D01*
X146763940Y-90851515D01*
X146941647Y-90732775D01*
X147092775Y-90581647D01*
X147211515Y-90403940D01*
X147293304Y-90206483D01*
X147335000Y-89996863D01*
X147335000Y-89783137D01*
X147293304Y-89573517D01*
X147211515Y-89376060D01*
X147092775Y-89198353D01*
X146941647Y-89047225D01*
X146763940Y-88928485D01*
X146566483Y-88846696D01*
X146356863Y-88805000D01*
X146143137Y-88805000D01*
X145933517Y-88846696D01*
X145736060Y-88928485D01*
X145558353Y-89047225D01*
X145407225Y-89198353D01*
X145288485Y-89376060D01*
X145206696Y-89573517D01*
X145165000Y-89783137D01*
X127292881Y-89783137D01*
X127182775Y-89618353D01*
X127031647Y-89467225D01*
X126853940Y-89348485D01*
X126656483Y-89266696D01*
X126446863Y-89225000D01*
X126233137Y-89225000D01*
X126023517Y-89266696D01*
X125998641Y-89277000D01*
X125107000Y-89277000D01*
X125107000Y-89297000D01*
X124853000Y-89297000D01*
X124853000Y-89277000D01*
X123653750Y-89277000D01*
X123495000Y-89435750D01*
X123491928Y-90000000D01*
X121710000Y-90000000D01*
X121710000Y-88300000D01*
X123491928Y-88300000D01*
X123495000Y-88864250D01*
X123653750Y-89023000D01*
X124853000Y-89023000D01*
X124853000Y-87823750D01*
X125107000Y-87823750D01*
X125107000Y-89023000D01*
X126306250Y-89023000D01*
X126465000Y-88864250D01*
X126468072Y-88300000D01*
X148881928Y-88300000D01*
X148881928Y-90000000D01*
X148894188Y-90124482D01*
X148930498Y-90244180D01*
X148989463Y-90354494D01*
X149068815Y-90451185D01*
X149165506Y-90530537D01*
X149275820Y-90589502D01*
X149348380Y-90611513D01*
X149216525Y-90743368D01*
X149054010Y-90986589D01*
X148942068Y-91256842D01*
X148885000Y-91543740D01*
X148885000Y-91836260D01*
X148942068Y-92123158D01*
X149054010Y-92393411D01*
X149216525Y-92636632D01*
X149423368Y-92843475D01*
X149597760Y-92960000D01*
X149423368Y-93076525D01*
X149216525Y-93283368D01*
X149054010Y-93526589D01*
X148942068Y-93796842D01*
X148885000Y-94083740D01*
X148885000Y-94376260D01*
X148942068Y-94663158D01*
X149054010Y-94933411D01*
X149216525Y-95176632D01*
X149423368Y-95383475D01*
X149597760Y-95500000D01*
X149423368Y-95616525D01*
X149216525Y-95823368D01*
X149054010Y-96066589D01*
X148942068Y-96336842D01*
X148885000Y-96623740D01*
X148885000Y-96916260D01*
X148942068Y-97203158D01*
X149054010Y-97473411D01*
X149216525Y-97716632D01*
X149423368Y-97923475D01*
X149597760Y-98040000D01*
X149423368Y-98156525D01*
X149216525Y-98363368D01*
X149054010Y-98606589D01*
X148942068Y-98876842D01*
X148885000Y-99163740D01*
X148885000Y-99456260D01*
X148942068Y-99743158D01*
X149054010Y-100013411D01*
X149216525Y-100256632D01*
X149423368Y-100463475D01*
X149597760Y-100580000D01*
X149423368Y-100696525D01*
X149216525Y-100903368D01*
X149054010Y-101146589D01*
X148942068Y-101416842D01*
X148885000Y-101703740D01*
X148885000Y-101996260D01*
X148942068Y-102283158D01*
X149054010Y-102553411D01*
X149216525Y-102796632D01*
X149423368Y-103003475D01*
X149597760Y-103120000D01*
X149423368Y-103236525D01*
X149216525Y-103443368D01*
X149054010Y-103686589D01*
X148942068Y-103956842D01*
X148885000Y-104243740D01*
X148885000Y-104536260D01*
X148942068Y-104823158D01*
X149054010Y-105093411D01*
X149216525Y-105336632D01*
X149423368Y-105543475D01*
X149597760Y-105660000D01*
X149423368Y-105776525D01*
X149216525Y-105983368D01*
X149054010Y-106226589D01*
X148942068Y-106496842D01*
X148885000Y-106783740D01*
X148885000Y-107076260D01*
X148942068Y-107363158D01*
X149054010Y-107633411D01*
X149216525Y-107876632D01*
X149423368Y-108083475D01*
X149597760Y-108200000D01*
X149423368Y-108316525D01*
X149216525Y-108523368D01*
X149054010Y-108766589D01*
X148942068Y-109036842D01*
X148885000Y-109323740D01*
X148885000Y-109616260D01*
X148942068Y-109903158D01*
X149054010Y-110173411D01*
X149216525Y-110416632D01*
X149423368Y-110623475D01*
X149597760Y-110740000D01*
X149423368Y-110856525D01*
X149216525Y-111063368D01*
X149054010Y-111306589D01*
X148942068Y-111576842D01*
X148885000Y-111863740D01*
X148885000Y-112156260D01*
X148942068Y-112443158D01*
X149054010Y-112713411D01*
X149216525Y-112956632D01*
X149423368Y-113163475D01*
X149597760Y-113280000D01*
X149423368Y-113396525D01*
X149216525Y-113603368D01*
X149054010Y-113846589D01*
X148942068Y-114116842D01*
X148885000Y-114403740D01*
X148885000Y-114696260D01*
X148942068Y-114983158D01*
X149054010Y-115253411D01*
X149216525Y-115496632D01*
X149423368Y-115703475D01*
X149597760Y-115820000D01*
X149423368Y-115936525D01*
X149216525Y-116143368D01*
X149054010Y-116386589D01*
X148942068Y-116656842D01*
X148885000Y-116943740D01*
X148885000Y-117236260D01*
X148942068Y-117523158D01*
X149054010Y-117793411D01*
X149216525Y-118036632D01*
X149423368Y-118243475D01*
X149597760Y-118360000D01*
X149423368Y-118476525D01*
X149216525Y-118683368D01*
X149054010Y-118926589D01*
X148942068Y-119196842D01*
X148885000Y-119483740D01*
X148885000Y-119776260D01*
X148942068Y-120063158D01*
X149054010Y-120333411D01*
X149216525Y-120576632D01*
X149423368Y-120783475D01*
X149597760Y-120900000D01*
X149423368Y-121016525D01*
X149216525Y-121223368D01*
X149054010Y-121466589D01*
X148942068Y-121736842D01*
X148885000Y-122023740D01*
X148885000Y-122316260D01*
X148942068Y-122603158D01*
X149054010Y-122873411D01*
X149216525Y-123116632D01*
X149423368Y-123323475D01*
X149597760Y-123440000D01*
X149423368Y-123556525D01*
X149216525Y-123763368D01*
X149054010Y-124006589D01*
X148942068Y-124276842D01*
X148885000Y-124563740D01*
X148885000Y-124856260D01*
X148942068Y-125143158D01*
X149054010Y-125413411D01*
X149216525Y-125656632D01*
X149423368Y-125863475D01*
X149666589Y-126025990D01*
X149936842Y-126137932D01*
X150223740Y-126195000D01*
X150516260Y-126195000D01*
X150803158Y-126137932D01*
X151073411Y-126025990D01*
X151316632Y-125863475D01*
X151523475Y-125656632D01*
X151685990Y-125413411D01*
X151797932Y-125143158D01*
X151855000Y-124856260D01*
X151855000Y-124563740D01*
X151811119Y-124343137D01*
X179515000Y-124343137D01*
X179515000Y-124556863D01*
X179556696Y-124766483D01*
X179638485Y-124963940D01*
X179757225Y-125141647D01*
X179908353Y-125292775D01*
X180086060Y-125411515D01*
X180283517Y-125493304D01*
X180493137Y-125535000D01*
X180706863Y-125535000D01*
X180916483Y-125493304D01*
X181113940Y-125411515D01*
X181291647Y-125292775D01*
X181442775Y-125141647D01*
X181561515Y-124963940D01*
X181643304Y-124766483D01*
X181685000Y-124556863D01*
X181685000Y-124343137D01*
X181643304Y-124133517D01*
X181561515Y-123936060D01*
X181442775Y-123758353D01*
X181291647Y-123607225D01*
X181113940Y-123488485D01*
X180916483Y-123406696D01*
X180706863Y-123365000D01*
X180493137Y-123365000D01*
X180283517Y-123406696D01*
X180086060Y-123488485D01*
X179908353Y-123607225D01*
X179757225Y-123758353D01*
X179638485Y-123936060D01*
X179556696Y-124133517D01*
X179515000Y-124343137D01*
X151811119Y-124343137D01*
X151797932Y-124276842D01*
X151685990Y-124006589D01*
X151523475Y-123763368D01*
X151316632Y-123556525D01*
X151142240Y-123440000D01*
X151316632Y-123323475D01*
X151523475Y-123116632D01*
X151627426Y-122961059D01*
X151798061Y-122995000D01*
X152001939Y-122995000D01*
X152201898Y-122955226D01*
X152390256Y-122877205D01*
X152559774Y-122763937D01*
X152703937Y-122619774D01*
X152817205Y-122450256D01*
X152895226Y-122261898D01*
X152935000Y-122061939D01*
X152935000Y-121858061D01*
X152895226Y-121658102D01*
X152817205Y-121469744D01*
X152703937Y-121300226D01*
X152559774Y-121156063D01*
X152398138Y-121048061D01*
X159015000Y-121048061D01*
X159015000Y-121251939D01*
X159054774Y-121451898D01*
X159132795Y-121640256D01*
X159246063Y-121809774D01*
X159390226Y-121953937D01*
X159559744Y-122067205D01*
X159748102Y-122145226D01*
X159948061Y-122185000D01*
X160151939Y-122185000D01*
X160351898Y-122145226D01*
X160540256Y-122067205D01*
X160709774Y-121953937D01*
X160853937Y-121809774D01*
X160967205Y-121640256D01*
X161045226Y-121451898D01*
X161085000Y-121251939D01*
X161085000Y-121048061D01*
X161045226Y-120848102D01*
X160967205Y-120659744D01*
X160853937Y-120490226D01*
X160709774Y-120346063D01*
X160540256Y-120232795D01*
X160351898Y-120154774D01*
X160151939Y-120115000D01*
X159948061Y-120115000D01*
X159748102Y-120154774D01*
X159559744Y-120232795D01*
X159390226Y-120346063D01*
X159246063Y-120490226D01*
X159132795Y-120659744D01*
X159054774Y-120848102D01*
X159015000Y-121048061D01*
X152398138Y-121048061D01*
X152390256Y-121042795D01*
X152201898Y-120964774D01*
X152001939Y-120925000D01*
X151798061Y-120925000D01*
X151598102Y-120964774D01*
X151409744Y-121042795D01*
X151369675Y-121069568D01*
X151316632Y-121016525D01*
X151142240Y-120900000D01*
X151316632Y-120783475D01*
X151523475Y-120576632D01*
X151685990Y-120333411D01*
X151797932Y-120063158D01*
X151855000Y-119776260D01*
X151855000Y-119483740D01*
X151797932Y-119196842D01*
X151685990Y-118926589D01*
X151523475Y-118683368D01*
X151316632Y-118476525D01*
X151142240Y-118360000D01*
X151316632Y-118243475D01*
X151523475Y-118036632D01*
X151685990Y-117793411D01*
X151797932Y-117523158D01*
X151855000Y-117236260D01*
X151855000Y-116998061D01*
X153045010Y-116998061D01*
X153045010Y-117201939D01*
X153084784Y-117401898D01*
X153162805Y-117590256D01*
X153276073Y-117759774D01*
X153420236Y-117903937D01*
X153589754Y-118017205D01*
X153778112Y-118095226D01*
X153978071Y-118135000D01*
X154181949Y-118135000D01*
X154381908Y-118095226D01*
X154570266Y-118017205D01*
X154739784Y-117903937D01*
X154883947Y-117759774D01*
X154997215Y-117590256D01*
X155075236Y-117401898D01*
X155115010Y-117201939D01*
X155115010Y-116998061D01*
X155104086Y-116943137D01*
X155715000Y-116943137D01*
X155715000Y-117156863D01*
X155756696Y-117366483D01*
X155838485Y-117563940D01*
X155957225Y-117741647D01*
X156108353Y-117892775D01*
X156286060Y-118011515D01*
X156483517Y-118093304D01*
X156693137Y-118135000D01*
X156906863Y-118135000D01*
X157116483Y-118093304D01*
X157313940Y-118011515D01*
X157491647Y-117892775D01*
X157642775Y-117741647D01*
X157761515Y-117563940D01*
X157843304Y-117366483D01*
X157885000Y-117156863D01*
X157885000Y-116943137D01*
X157843304Y-116733517D01*
X157761515Y-116536060D01*
X157642775Y-116358353D01*
X157491647Y-116207225D01*
X157313940Y-116088485D01*
X157116483Y-116006696D01*
X156906863Y-115965000D01*
X156693137Y-115965000D01*
X156483517Y-116006696D01*
X156286060Y-116088485D01*
X156108353Y-116207225D01*
X155957225Y-116358353D01*
X155838485Y-116536060D01*
X155756696Y-116733517D01*
X155715000Y-116943137D01*
X155104086Y-116943137D01*
X155075236Y-116798102D01*
X154997215Y-116609744D01*
X154883947Y-116440226D01*
X154739784Y-116296063D01*
X154570266Y-116182795D01*
X154381908Y-116104774D01*
X154181949Y-116065000D01*
X153978071Y-116065000D01*
X153778112Y-116104774D01*
X153589754Y-116182795D01*
X153420236Y-116296063D01*
X153276073Y-116440226D01*
X153162805Y-116609744D01*
X153084784Y-116798102D01*
X153045010Y-116998061D01*
X151855000Y-116998061D01*
X151855000Y-116943740D01*
X151797932Y-116656842D01*
X151685990Y-116386589D01*
X151523475Y-116143368D01*
X151316632Y-115936525D01*
X151142240Y-115820000D01*
X151316632Y-115703475D01*
X151523475Y-115496632D01*
X151685990Y-115253411D01*
X151797932Y-114983158D01*
X151855000Y-114696260D01*
X151855000Y-114403740D01*
X151797932Y-114116842D01*
X151685990Y-113846589D01*
X151523475Y-113603368D01*
X151316632Y-113396525D01*
X151142240Y-113280000D01*
X151316632Y-113163475D01*
X151523475Y-112956632D01*
X151685990Y-112713411D01*
X151797932Y-112443158D01*
X151855000Y-112156260D01*
X151855000Y-111863740D01*
X151797932Y-111576842D01*
X151685990Y-111306589D01*
X151523475Y-111063368D01*
X151316632Y-110856525D01*
X151142240Y-110740000D01*
X151316632Y-110623475D01*
X151523475Y-110416632D01*
X151685990Y-110173411D01*
X151797932Y-109903158D01*
X151855000Y-109616260D01*
X151855000Y-109323740D01*
X151797932Y-109036842D01*
X151685990Y-108766589D01*
X151523475Y-108523368D01*
X151316632Y-108316525D01*
X151142240Y-108200000D01*
X151316632Y-108083475D01*
X151523475Y-107876632D01*
X151685990Y-107633411D01*
X151797932Y-107363158D01*
X151855000Y-107076260D01*
X151855000Y-106783740D01*
X151797932Y-106496842D01*
X151685990Y-106226589D01*
X151523475Y-105983368D01*
X151316632Y-105776525D01*
X151142240Y-105660000D01*
X151316632Y-105543475D01*
X151523475Y-105336632D01*
X151685990Y-105093411D01*
X151797932Y-104823158D01*
X151822815Y-104698061D01*
X153665000Y-104698061D01*
X153665000Y-104901939D01*
X153704774Y-105101898D01*
X153782795Y-105290256D01*
X153896063Y-105459774D01*
X154040226Y-105603937D01*
X154209744Y-105717205D01*
X154398102Y-105795226D01*
X154409596Y-105797512D01*
X154411882Y-105809006D01*
X154489903Y-105997364D01*
X154603171Y-106166882D01*
X154747334Y-106311045D01*
X154916852Y-106424313D01*
X155105210Y-106502334D01*
X155198611Y-106520912D01*
X155204774Y-106551898D01*
X155282795Y-106740256D01*
X155396063Y-106909774D01*
X155540226Y-107053937D01*
X155709744Y-107167205D01*
X155780377Y-107196462D01*
X155810443Y-107347616D01*
X155888464Y-107535974D01*
X156001732Y-107705492D01*
X156145895Y-107849655D01*
X156315413Y-107962923D01*
X156503771Y-108040944D01*
X156592943Y-108058681D01*
X156600688Y-108077379D01*
X156430457Y-108043518D01*
X156226579Y-108043518D01*
X156026620Y-108083292D01*
X155838262Y-108161313D01*
X155668744Y-108274581D01*
X155524581Y-108418744D01*
X155411313Y-108588262D01*
X155333292Y-108776620D01*
X155293518Y-108976579D01*
X155293518Y-109180457D01*
X155333292Y-109380416D01*
X155411313Y-109568774D01*
X155524581Y-109738292D01*
X155668744Y-109882455D01*
X155838262Y-109995723D01*
X156026620Y-110073744D01*
X156226579Y-110113518D01*
X156430457Y-110113518D01*
X156630416Y-110073744D01*
X156818774Y-109995723D01*
X156988292Y-109882455D01*
X157132455Y-109738292D01*
X157245723Y-109568774D01*
X157323744Y-109380416D01*
X157360169Y-109197293D01*
X160481919Y-109197293D01*
X160481919Y-109401171D01*
X160521693Y-109601130D01*
X160599714Y-109789488D01*
X160712982Y-109959006D01*
X160857145Y-110103169D01*
X161026663Y-110216437D01*
X161215021Y-110294458D01*
X161414980Y-110334232D01*
X161618858Y-110334232D01*
X161818817Y-110294458D01*
X162007175Y-110216437D01*
X162176693Y-110103169D01*
X162320856Y-109959006D01*
X162434124Y-109789488D01*
X162512145Y-109601130D01*
X162551919Y-109401171D01*
X162551919Y-109197293D01*
X162512145Y-108997334D01*
X162434124Y-108808976D01*
X162320856Y-108639458D01*
X162176693Y-108495295D01*
X162007175Y-108382027D01*
X161818817Y-108304006D01*
X161618858Y-108264232D01*
X161414980Y-108264232D01*
X161215021Y-108304006D01*
X161026663Y-108382027D01*
X160857145Y-108495295D01*
X160712982Y-108639458D01*
X160599714Y-108808976D01*
X160521693Y-108997334D01*
X160481919Y-109197293D01*
X157360169Y-109197293D01*
X157363518Y-109180457D01*
X157363518Y-108976579D01*
X157323744Y-108776620D01*
X157291594Y-108699004D01*
X157461825Y-108732865D01*
X157665703Y-108732865D01*
X157865662Y-108693091D01*
X158054020Y-108615070D01*
X158223538Y-108501802D01*
X158367701Y-108357639D01*
X158480969Y-108188121D01*
X158558990Y-107999763D01*
X158598764Y-107799804D01*
X158598764Y-107595926D01*
X158558990Y-107395967D01*
X158480969Y-107207609D01*
X158367701Y-107038091D01*
X158223538Y-106893928D01*
X158054020Y-106780660D01*
X157865662Y-106702639D01*
X157776490Y-106684902D01*
X157722874Y-106555462D01*
X157609606Y-106385944D01*
X157465443Y-106241781D01*
X157295925Y-106128513D01*
X157225292Y-106099256D01*
X157195226Y-105948102D01*
X157117205Y-105759744D01*
X157003937Y-105590226D01*
X156859774Y-105446063D01*
X156690256Y-105332795D01*
X156501898Y-105254774D01*
X156408497Y-105236196D01*
X156402334Y-105205210D01*
X156324313Y-105016852D01*
X156211045Y-104847334D01*
X156066882Y-104703171D01*
X155897364Y-104589903D01*
X155709006Y-104511882D01*
X155697512Y-104509596D01*
X155695226Y-104498102D01*
X155617205Y-104309744D01*
X155503937Y-104140226D01*
X155359774Y-103996063D01*
X155190256Y-103882795D01*
X155001898Y-103804774D01*
X154801939Y-103765000D01*
X154598061Y-103765000D01*
X154398102Y-103804774D01*
X154209744Y-103882795D01*
X154040226Y-103996063D01*
X153896063Y-104140226D01*
X153782795Y-104309744D01*
X153704774Y-104498102D01*
X153665000Y-104698061D01*
X151822815Y-104698061D01*
X151855000Y-104536260D01*
X151855000Y-104243740D01*
X151797932Y-103956842D01*
X151685990Y-103686589D01*
X151523475Y-103443368D01*
X151316632Y-103236525D01*
X151142240Y-103120000D01*
X151316632Y-103003475D01*
X151523475Y-102796632D01*
X151685990Y-102553411D01*
X151797932Y-102283158D01*
X151855000Y-101996260D01*
X151855000Y-101703740D01*
X151797932Y-101416842D01*
X151685990Y-101146589D01*
X151523475Y-100903368D01*
X151316632Y-100696525D01*
X151142240Y-100580000D01*
X151316632Y-100463475D01*
X151523475Y-100256632D01*
X151685990Y-100013411D01*
X151797932Y-99743158D01*
X151855000Y-99456260D01*
X151855000Y-99163740D01*
X151797932Y-98876842D01*
X151763261Y-98793137D01*
X155765000Y-98793137D01*
X155765000Y-99006863D01*
X155806696Y-99216483D01*
X155888485Y-99413940D01*
X156007225Y-99591647D01*
X156158353Y-99742775D01*
X156336060Y-99861515D01*
X156533517Y-99943304D01*
X156743137Y-99985000D01*
X156956863Y-99985000D01*
X157166483Y-99943304D01*
X157363940Y-99861515D01*
X157541647Y-99742775D01*
X157692775Y-99591647D01*
X157811515Y-99413940D01*
X157893304Y-99216483D01*
X157935000Y-99006863D01*
X157935000Y-98793137D01*
X157893304Y-98583517D01*
X157811515Y-98386060D01*
X157692775Y-98208353D01*
X157541647Y-98057225D01*
X157363940Y-97938485D01*
X157166483Y-97856696D01*
X156956863Y-97815000D01*
X156743137Y-97815000D01*
X156533517Y-97856696D01*
X156336060Y-97938485D01*
X156158353Y-98057225D01*
X156007225Y-98208353D01*
X155888485Y-98386060D01*
X155806696Y-98583517D01*
X155765000Y-98793137D01*
X151763261Y-98793137D01*
X151685990Y-98606589D01*
X151523475Y-98363368D01*
X151316632Y-98156525D01*
X151142240Y-98040000D01*
X151316632Y-97923475D01*
X151523475Y-97716632D01*
X151685990Y-97473411D01*
X151797932Y-97203158D01*
X151855000Y-96916260D01*
X151855000Y-96623740D01*
X151832994Y-96513110D01*
X151838102Y-96515226D01*
X152038061Y-96555000D01*
X152241939Y-96555000D01*
X152441898Y-96515226D01*
X152630256Y-96437205D01*
X152799774Y-96323937D01*
X152943937Y-96179774D01*
X153057205Y-96010256D01*
X153135226Y-95821898D01*
X153175000Y-95621939D01*
X153175000Y-95418061D01*
X153135226Y-95218102D01*
X153057205Y-95029744D01*
X152943937Y-94860226D01*
X152799774Y-94716063D01*
X152630256Y-94602795D01*
X152441898Y-94524774D01*
X152241939Y-94485000D01*
X152038061Y-94485000D01*
X151838102Y-94524774D01*
X151824323Y-94530481D01*
X151855000Y-94376260D01*
X151855000Y-94083740D01*
X151797932Y-93796842D01*
X151685990Y-93526589D01*
X151523475Y-93283368D01*
X151316632Y-93076525D01*
X151142240Y-92960000D01*
X151316632Y-92843475D01*
X151523475Y-92636632D01*
X151685990Y-92393411D01*
X151797932Y-92123158D01*
X151855000Y-91836260D01*
X151855000Y-91543740D01*
X151797932Y-91256842D01*
X151685990Y-90986589D01*
X151523475Y-90743368D01*
X151391620Y-90611513D01*
X151464180Y-90589502D01*
X151574494Y-90530537D01*
X151625000Y-90489088D01*
X151625000Y-90516863D01*
X151666696Y-90726483D01*
X151748485Y-90923940D01*
X151867225Y-91101647D01*
X152018353Y-91252775D01*
X152196060Y-91371515D01*
X152393517Y-91453304D01*
X152603137Y-91495000D01*
X152816863Y-91495000D01*
X152901906Y-91478084D01*
X152892481Y-91487509D01*
X152779213Y-91657027D01*
X152701192Y-91845385D01*
X152661418Y-92045344D01*
X152661418Y-92249222D01*
X152701192Y-92449181D01*
X152779213Y-92637539D01*
X152892481Y-92807057D01*
X153036644Y-92951220D01*
X153206162Y-93064488D01*
X153394520Y-93142509D01*
X153594479Y-93182283D01*
X153798357Y-93182283D01*
X153998316Y-93142509D01*
X154186674Y-93064488D01*
X154356192Y-92951220D01*
X154500355Y-92807057D01*
X154613623Y-92637539D01*
X154691644Y-92449181D01*
X154731418Y-92249222D01*
X154731418Y-92045344D01*
X154691644Y-91845385D01*
X154613623Y-91657027D01*
X154500355Y-91487509D01*
X154356192Y-91343346D01*
X154186674Y-91230078D01*
X153998316Y-91152057D01*
X153798357Y-91112283D01*
X153594479Y-91112283D01*
X153529143Y-91125279D01*
X153552775Y-91101647D01*
X153671515Y-90923940D01*
X153753304Y-90726483D01*
X153795000Y-90516863D01*
X153795000Y-90303137D01*
X153753304Y-90093517D01*
X153729066Y-90035000D01*
X156495320Y-90035000D01*
X156390270Y-90192219D01*
X156312249Y-90380577D01*
X156272475Y-90580536D01*
X156272475Y-90784414D01*
X156312249Y-90984373D01*
X156390270Y-91172731D01*
X156503538Y-91342249D01*
X156647701Y-91486412D01*
X156817219Y-91599680D01*
X157005577Y-91677701D01*
X157205536Y-91717475D01*
X157409414Y-91717475D01*
X157609373Y-91677701D01*
X157797731Y-91599680D01*
X157967249Y-91486412D01*
X158111412Y-91342249D01*
X158224680Y-91172731D01*
X158302701Y-90984373D01*
X158342475Y-90784414D01*
X158342475Y-90580536D01*
X158302701Y-90380577D01*
X158224680Y-90192219D01*
X158119630Y-90035000D01*
X161956531Y-90035000D01*
X162000000Y-90039281D01*
X162043469Y-90035000D01*
X162043477Y-90035000D01*
X162173490Y-90022195D01*
X162340313Y-89971589D01*
X162494059Y-89889411D01*
X162628817Y-89778817D01*
X162656534Y-89745044D01*
X164393965Y-88007613D01*
X164400000Y-88001711D01*
X164406039Y-88007618D01*
X164415001Y-88016580D01*
X164415001Y-90866619D01*
X164406863Y-90865000D01*
X164193137Y-90865000D01*
X163983517Y-90906696D01*
X163786060Y-90988485D01*
X163608353Y-91107225D01*
X163457225Y-91258353D01*
X163338485Y-91436060D01*
X163256696Y-91633517D01*
X163215000Y-91843137D01*
X163215000Y-92056863D01*
X163256696Y-92266483D01*
X163338485Y-92463940D01*
X163457225Y-92641647D01*
X163608353Y-92792775D01*
X163786060Y-92911515D01*
X163983517Y-92993304D01*
X164193137Y-93035000D01*
X164406863Y-93035000D01*
X164415001Y-93033381D01*
X164415002Y-103615000D01*
X164243137Y-103615000D01*
X164033517Y-103656696D01*
X163836060Y-103738485D01*
X163658353Y-103857225D01*
X163507225Y-104008353D01*
X163388485Y-104186060D01*
X163306696Y-104383517D01*
X163265000Y-104593137D01*
X163265000Y-104806863D01*
X163306696Y-105016483D01*
X163388485Y-105213940D01*
X163507225Y-105391647D01*
X163658353Y-105542775D01*
X163836060Y-105661515D01*
X164033517Y-105743304D01*
X164243137Y-105785000D01*
X164415001Y-105785000D01*
X164415001Y-108846456D01*
X164256863Y-108815000D01*
X164043137Y-108815000D01*
X163833517Y-108856696D01*
X163636060Y-108938485D01*
X163458353Y-109057225D01*
X163307225Y-109208353D01*
X163188485Y-109386060D01*
X163106696Y-109583517D01*
X163065000Y-109793137D01*
X163065000Y-110006863D01*
X163106696Y-110216483D01*
X163188485Y-110413940D01*
X163307225Y-110591647D01*
X163458353Y-110742775D01*
X163636060Y-110861515D01*
X163833517Y-110943304D01*
X164043137Y-110985000D01*
X164256863Y-110985000D01*
X164415001Y-110953544D01*
X164415002Y-121333419D01*
X164406000Y-121342421D01*
X164344413Y-121402658D01*
X164297965Y-121445469D01*
X164263975Y-121474268D01*
X164240754Y-121491859D01*
X164224737Y-121502420D01*
X164210049Y-121510695D01*
X164189502Y-121520561D01*
X164156881Y-121534153D01*
X164111730Y-121551084D01*
X164083517Y-121556696D01*
X163886060Y-121638485D01*
X163708353Y-121757225D01*
X163557225Y-121908353D01*
X163438485Y-122086060D01*
X163356696Y-122283517D01*
X163315000Y-122493137D01*
X163315000Y-122706863D01*
X163356696Y-122916483D01*
X163438485Y-123113940D01*
X163557225Y-123291647D01*
X163708353Y-123442775D01*
X163886060Y-123561515D01*
X164083517Y-123643304D01*
X164293137Y-123685000D01*
X164506863Y-123685000D01*
X164716483Y-123643304D01*
X164913940Y-123561515D01*
X165091647Y-123442775D01*
X165242775Y-123291647D01*
X165361515Y-123113940D01*
X165443304Y-122916483D01*
X165448917Y-122888265D01*
X165465846Y-122843118D01*
X165479438Y-122810497D01*
X165489304Y-122789950D01*
X165497579Y-122775262D01*
X165508140Y-122759245D01*
X165525731Y-122736024D01*
X165554530Y-122702034D01*
X165597324Y-122655605D01*
X165657615Y-122593964D01*
X165895050Y-122356529D01*
X165928818Y-122328816D01*
X165965995Y-122283517D01*
X166039412Y-122194058D01*
X166121590Y-122040313D01*
X166172196Y-121873489D01*
X166185001Y-121743476D01*
X166185001Y-121743468D01*
X166189282Y-121699999D01*
X166185001Y-121656530D01*
X166185001Y-121643137D01*
X209285000Y-121643137D01*
X209285000Y-121856863D01*
X209326696Y-122066483D01*
X209408485Y-122263940D01*
X209527225Y-122441647D01*
X209678353Y-122592775D01*
X209856060Y-122711515D01*
X210053517Y-122793304D01*
X210263137Y-122835000D01*
X210476863Y-122835000D01*
X210686483Y-122793304D01*
X210883940Y-122711515D01*
X211061647Y-122592775D01*
X211212775Y-122441647D01*
X211331515Y-122263940D01*
X211413304Y-122066483D01*
X211455000Y-121856863D01*
X211455000Y-121643137D01*
X211413304Y-121433517D01*
X211331515Y-121236060D01*
X211212775Y-121058353D01*
X211061647Y-120907225D01*
X210883940Y-120788485D01*
X210686483Y-120706696D01*
X210476863Y-120665000D01*
X210263137Y-120665000D01*
X210053517Y-120706696D01*
X209856060Y-120788485D01*
X209678353Y-120907225D01*
X209527225Y-121058353D01*
X209408485Y-121236060D01*
X209326696Y-121433517D01*
X209285000Y-121643137D01*
X166185001Y-121643137D01*
X166185001Y-119643137D01*
X168015000Y-119643137D01*
X168015000Y-119856863D01*
X168056696Y-120066483D01*
X168138485Y-120263940D01*
X168257225Y-120441647D01*
X168408353Y-120592775D01*
X168586060Y-120711515D01*
X168783517Y-120793304D01*
X168993137Y-120835000D01*
X169206863Y-120835000D01*
X169416483Y-120793304D01*
X169613940Y-120711515D01*
X169791647Y-120592775D01*
X169942775Y-120441647D01*
X170061515Y-120263940D01*
X170143304Y-120066483D01*
X170185000Y-119856863D01*
X170185000Y-119643137D01*
X170143304Y-119433517D01*
X170061515Y-119236060D01*
X169942775Y-119058353D01*
X169791647Y-118907225D01*
X169613940Y-118788485D01*
X169416483Y-118706696D01*
X169206863Y-118665000D01*
X168993137Y-118665000D01*
X168783517Y-118706696D01*
X168586060Y-118788485D01*
X168408353Y-118907225D01*
X168257225Y-119058353D01*
X168138485Y-119236060D01*
X168056696Y-119433517D01*
X168015000Y-119643137D01*
X166185001Y-119643137D01*
X166185001Y-116743137D01*
X168015000Y-116743137D01*
X168015000Y-116956863D01*
X168056696Y-117166483D01*
X168138485Y-117363940D01*
X168257225Y-117541647D01*
X168408353Y-117692775D01*
X168586060Y-117811515D01*
X168783517Y-117893304D01*
X168993137Y-117935000D01*
X169206863Y-117935000D01*
X169416483Y-117893304D01*
X169613940Y-117811515D01*
X169791647Y-117692775D01*
X169942775Y-117541647D01*
X170061515Y-117363940D01*
X170143304Y-117166483D01*
X170185000Y-116956863D01*
X170185000Y-116743137D01*
X170143304Y-116533517D01*
X170061515Y-116336060D01*
X169942775Y-116158353D01*
X169791647Y-116007225D01*
X169613940Y-115888485D01*
X169416483Y-115806696D01*
X169206863Y-115765000D01*
X168993137Y-115765000D01*
X168783517Y-115806696D01*
X168586060Y-115888485D01*
X168408353Y-116007225D01*
X168257225Y-116158353D01*
X168138485Y-116336060D01*
X168056696Y-116533517D01*
X168015000Y-116743137D01*
X166185001Y-116743137D01*
X166185001Y-104943466D01*
X166189282Y-104900000D01*
X166185001Y-104856534D01*
X166185001Y-101793137D01*
X168165000Y-101793137D01*
X168165000Y-102006863D01*
X168206696Y-102216483D01*
X168288485Y-102413940D01*
X168407225Y-102591647D01*
X168558353Y-102742775D01*
X168736060Y-102861515D01*
X168933517Y-102943304D01*
X169143137Y-102985000D01*
X169356863Y-102985000D01*
X169566483Y-102943304D01*
X169763940Y-102861515D01*
X169941647Y-102742775D01*
X170092775Y-102591647D01*
X170211515Y-102413940D01*
X170293304Y-102216483D01*
X170335000Y-102006863D01*
X170335000Y-101793137D01*
X170293304Y-101583517D01*
X170211515Y-101386060D01*
X170092775Y-101208353D01*
X169941647Y-101057225D01*
X169763940Y-100938485D01*
X169566483Y-100856696D01*
X169356863Y-100815000D01*
X169143137Y-100815000D01*
X168933517Y-100856696D01*
X168736060Y-100938485D01*
X168558353Y-101057225D01*
X168407225Y-101208353D01*
X168288485Y-101386060D01*
X168206696Y-101583517D01*
X168165000Y-101793137D01*
X166185001Y-101793137D01*
X166185001Y-98743137D01*
X168115000Y-98743137D01*
X168115000Y-98956863D01*
X168156696Y-99166483D01*
X168238485Y-99363940D01*
X168357225Y-99541647D01*
X168508353Y-99692775D01*
X168686060Y-99811515D01*
X168883517Y-99893304D01*
X169093137Y-99935000D01*
X169306863Y-99935000D01*
X169516483Y-99893304D01*
X169713940Y-99811515D01*
X169891647Y-99692775D01*
X170042775Y-99541647D01*
X170161515Y-99363940D01*
X170243304Y-99166483D01*
X170285000Y-98956863D01*
X170285000Y-98743137D01*
X170243304Y-98533517D01*
X170161515Y-98336060D01*
X170042775Y-98158353D01*
X169891647Y-98007225D01*
X169713940Y-97888485D01*
X169516483Y-97806696D01*
X169306863Y-97765000D01*
X169093137Y-97765000D01*
X168883517Y-97806696D01*
X168686060Y-97888485D01*
X168508353Y-98007225D01*
X168357225Y-98158353D01*
X168238485Y-98336060D01*
X168156696Y-98533517D01*
X168115000Y-98743137D01*
X166185001Y-98743137D01*
X166185001Y-93645779D01*
X169608312Y-93645779D01*
X169608312Y-93849657D01*
X169648086Y-94049616D01*
X169726107Y-94237974D01*
X169771495Y-94305903D01*
X169714452Y-94443617D01*
X169674678Y-94643576D01*
X169674678Y-94847454D01*
X169714452Y-95047413D01*
X169792473Y-95235771D01*
X169905741Y-95405289D01*
X170049904Y-95549452D01*
X170219422Y-95662720D01*
X170407780Y-95740741D01*
X170607739Y-95780515D01*
X170811617Y-95780515D01*
X171011576Y-95740741D01*
X171199934Y-95662720D01*
X171369452Y-95549452D01*
X171513615Y-95405289D01*
X171626883Y-95235771D01*
X171704904Y-95047413D01*
X171744678Y-94847454D01*
X171744678Y-94643576D01*
X171704904Y-94443617D01*
X171626883Y-94255259D01*
X171581495Y-94187330D01*
X171638538Y-94049616D01*
X171678312Y-93849657D01*
X171678312Y-93645779D01*
X171638538Y-93445820D01*
X171564193Y-93266337D01*
X171582977Y-93238225D01*
X171660998Y-93049867D01*
X171700772Y-92849908D01*
X171700772Y-92789166D01*
X171768752Y-92761008D01*
X171835634Y-92716319D01*
X172000098Y-92784443D01*
X172200057Y-92824217D01*
X172403935Y-92824217D01*
X172603894Y-92784443D01*
X172792252Y-92706422D01*
X172961770Y-92593154D01*
X173070657Y-92484267D01*
X173130504Y-92524255D01*
X173287014Y-92589084D01*
X173453164Y-92622133D01*
X173622570Y-92622133D01*
X173752219Y-92596344D01*
X173687878Y-92692637D01*
X173623049Y-92849147D01*
X173590000Y-93015297D01*
X173590000Y-93184703D01*
X173623049Y-93350853D01*
X173643406Y-93400000D01*
X173623049Y-93449147D01*
X173590000Y-93615297D01*
X173590000Y-93784703D01*
X173623049Y-93950853D01*
X173687878Y-94107363D01*
X173781995Y-94248218D01*
X173901782Y-94368005D01*
X174042637Y-94462122D01*
X174199147Y-94526951D01*
X174365297Y-94560000D01*
X174534703Y-94560000D01*
X174700853Y-94526951D01*
X174857363Y-94462122D01*
X174998218Y-94368005D01*
X175118005Y-94248218D01*
X175212122Y-94107363D01*
X175276951Y-93950853D01*
X175310000Y-93784703D01*
X175310000Y-93615297D01*
X175276951Y-93449147D01*
X175256594Y-93400000D01*
X175276951Y-93350853D01*
X175310000Y-93184703D01*
X175310000Y-93015297D01*
X175276951Y-92849147D01*
X175212122Y-92692637D01*
X175118005Y-92551782D01*
X174998218Y-92431995D01*
X174857363Y-92337878D01*
X174700853Y-92273049D01*
X174534703Y-92240000D01*
X174365297Y-92240000D01*
X174235648Y-92265789D01*
X174299989Y-92169496D01*
X174320347Y-92120347D01*
X174369496Y-92099989D01*
X174510351Y-92005872D01*
X174630138Y-91886085D01*
X174668902Y-91828071D01*
X181465000Y-91828071D01*
X181465000Y-92031949D01*
X181504774Y-92231908D01*
X181582795Y-92420266D01*
X181592330Y-92434536D01*
X181588848Y-92439747D01*
X181510827Y-92628105D01*
X181471053Y-92828064D01*
X181471053Y-93031942D01*
X181510827Y-93231901D01*
X181588848Y-93420259D01*
X181640717Y-93497887D01*
X181632795Y-93509744D01*
X181554774Y-93698102D01*
X181515000Y-93898061D01*
X181515000Y-94101939D01*
X181554774Y-94301898D01*
X181632795Y-94490256D01*
X181746063Y-94659774D01*
X181890226Y-94803937D01*
X182059744Y-94917205D01*
X182248102Y-94995226D01*
X182448061Y-95035000D01*
X182651939Y-95035000D01*
X182851898Y-94995226D01*
X183040256Y-94917205D01*
X183209774Y-94803937D01*
X183353937Y-94659774D01*
X183467205Y-94490256D01*
X183545226Y-94301898D01*
X183585000Y-94101939D01*
X183585000Y-93898061D01*
X183545226Y-93698102D01*
X183467205Y-93509744D01*
X183415336Y-93432116D01*
X183423258Y-93420259D01*
X183501279Y-93231901D01*
X183541053Y-93031942D01*
X183541053Y-92828064D01*
X183501279Y-92628105D01*
X183423258Y-92439747D01*
X183413723Y-92425477D01*
X183417205Y-92420266D01*
X183495226Y-92231908D01*
X183535000Y-92031949D01*
X183535000Y-91828071D01*
X183495226Y-91628112D01*
X183417205Y-91439754D01*
X183303937Y-91270236D01*
X183159774Y-91126073D01*
X182990256Y-91012805D01*
X182801898Y-90934784D01*
X182601939Y-90895010D01*
X182398061Y-90895010D01*
X182198102Y-90934784D01*
X182009744Y-91012805D01*
X181840226Y-91126073D01*
X181696063Y-91270236D01*
X181582795Y-91439754D01*
X181504774Y-91628112D01*
X181465000Y-91828071D01*
X174668902Y-91828071D01*
X174724255Y-91745230D01*
X174789084Y-91588720D01*
X174822133Y-91422570D01*
X174822133Y-91253164D01*
X174789084Y-91087014D01*
X174724255Y-90930504D01*
X174630138Y-90789649D01*
X174510351Y-90669862D01*
X174369496Y-90575745D01*
X174212986Y-90510916D01*
X174046836Y-90477867D01*
X173877430Y-90477867D01*
X173711280Y-90510916D01*
X173554770Y-90575745D01*
X173413915Y-90669862D01*
X173294128Y-90789649D01*
X173286153Y-90801584D01*
X173286153Y-90688569D01*
X173246379Y-90488610D01*
X173168358Y-90300252D01*
X173145913Y-90266660D01*
X173217925Y-90092809D01*
X173257699Y-89892850D01*
X173257699Y-89688972D01*
X173217925Y-89489013D01*
X173162204Y-89354491D01*
X173209575Y-89283595D01*
X173287596Y-89095237D01*
X173327370Y-88895278D01*
X173327370Y-88693137D01*
X173815000Y-88693137D01*
X173815000Y-88906863D01*
X173856696Y-89116483D01*
X173938485Y-89313940D01*
X174057225Y-89491647D01*
X174208353Y-89642775D01*
X174386060Y-89761515D01*
X174583517Y-89843304D01*
X174793137Y-89885000D01*
X175006863Y-89885000D01*
X175216483Y-89843304D01*
X175413940Y-89761515D01*
X175591647Y-89642775D01*
X175742775Y-89491647D01*
X175861515Y-89313940D01*
X175943304Y-89116483D01*
X175985000Y-88906863D01*
X175985000Y-88848711D01*
X176090226Y-88953937D01*
X176259744Y-89067205D01*
X176448102Y-89145226D01*
X176520115Y-89159550D01*
X176580206Y-89304621D01*
X176693474Y-89474139D01*
X176837637Y-89618302D01*
X177007155Y-89731570D01*
X177195513Y-89809591D01*
X177395472Y-89849365D01*
X177599350Y-89849365D01*
X177799309Y-89809591D01*
X177987667Y-89731570D01*
X178157185Y-89618302D01*
X178238976Y-89536511D01*
X178359744Y-89617205D01*
X178502762Y-89676446D01*
X178517538Y-89750728D01*
X178595559Y-89939086D01*
X178708827Y-90108604D01*
X178852990Y-90252767D01*
X179022508Y-90366035D01*
X179210866Y-90444056D01*
X179410825Y-90483830D01*
X179520544Y-90483830D01*
X179491853Y-90628071D01*
X179491853Y-90831949D01*
X179531627Y-91031908D01*
X179609648Y-91220266D01*
X179722916Y-91389784D01*
X179867079Y-91533947D01*
X180036597Y-91647215D01*
X180224955Y-91725236D01*
X180424914Y-91765010D01*
X180628792Y-91765010D01*
X180828751Y-91725236D01*
X181017109Y-91647215D01*
X181186627Y-91533947D01*
X181330790Y-91389784D01*
X181444058Y-91220266D01*
X181522079Y-91031908D01*
X181561853Y-90831949D01*
X181561853Y-90628071D01*
X181522079Y-90428112D01*
X181444058Y-90239754D01*
X181330790Y-90070236D01*
X181186627Y-89926073D01*
X181017109Y-89812805D01*
X180828751Y-89734784D01*
X180628792Y-89695010D01*
X180519073Y-89695010D01*
X180547764Y-89550769D01*
X180547764Y-89346891D01*
X180507990Y-89146932D01*
X180429969Y-88958574D01*
X180316701Y-88789056D01*
X180172538Y-88644893D01*
X180003020Y-88531625D01*
X179860002Y-88472384D01*
X179845226Y-88398102D01*
X179767205Y-88209744D01*
X179653937Y-88040226D01*
X179509774Y-87896063D01*
X179340256Y-87782795D01*
X179151898Y-87704774D01*
X178951939Y-87665000D01*
X178748061Y-87665000D01*
X178548102Y-87704774D01*
X178359744Y-87782795D01*
X178190226Y-87896063D01*
X178108435Y-87977854D01*
X177987667Y-87897160D01*
X177799309Y-87819139D01*
X177727296Y-87804815D01*
X177667205Y-87659744D01*
X177553937Y-87490226D01*
X177409774Y-87346063D01*
X177240256Y-87232795D01*
X177051898Y-87154774D01*
X176851939Y-87115000D01*
X176648061Y-87115000D01*
X176448102Y-87154774D01*
X176259744Y-87232795D01*
X176090226Y-87346063D01*
X175946063Y-87490226D01*
X175832795Y-87659744D01*
X175754774Y-87848102D01*
X175715000Y-88048061D01*
X175715000Y-88080578D01*
X175591647Y-87957225D01*
X175413940Y-87838485D01*
X175216483Y-87756696D01*
X175006863Y-87715000D01*
X174793137Y-87715000D01*
X174583517Y-87756696D01*
X174386060Y-87838485D01*
X174208353Y-87957225D01*
X174057225Y-88108353D01*
X173938485Y-88286060D01*
X173856696Y-88483517D01*
X173815000Y-88693137D01*
X173327370Y-88693137D01*
X173327370Y-88691400D01*
X173287596Y-88491441D01*
X173209575Y-88303083D01*
X173096307Y-88133565D01*
X172952144Y-87989402D01*
X172782626Y-87876134D01*
X172594268Y-87798113D01*
X172394309Y-87758339D01*
X172190431Y-87758339D01*
X171990472Y-87798113D01*
X171802114Y-87876134D01*
X171632596Y-87989402D01*
X171488433Y-88133565D01*
X171375165Y-88303083D01*
X171297144Y-88491441D01*
X171257370Y-88691400D01*
X171257370Y-88895278D01*
X171297144Y-89095237D01*
X171352865Y-89229759D01*
X171305494Y-89300655D01*
X171227473Y-89489013D01*
X171187699Y-89688972D01*
X171187699Y-89892850D01*
X171227473Y-90092809D01*
X171305494Y-90281167D01*
X171327939Y-90314759D01*
X171255927Y-90488610D01*
X171216153Y-90688569D01*
X171216153Y-90808803D01*
X171176557Y-90808803D01*
X170976598Y-90848577D01*
X170788240Y-90926598D01*
X170618722Y-91039866D01*
X170474559Y-91184029D01*
X170361291Y-91353547D01*
X170283270Y-91541905D01*
X170243496Y-91741864D01*
X170243496Y-91802606D01*
X170175516Y-91830764D01*
X170005998Y-91944032D01*
X169861835Y-92088195D01*
X169748567Y-92257713D01*
X169670546Y-92446071D01*
X169630772Y-92646030D01*
X169630772Y-92849908D01*
X169670546Y-93049867D01*
X169744891Y-93229350D01*
X169726107Y-93257462D01*
X169648086Y-93445820D01*
X169608312Y-93645779D01*
X166185001Y-93645779D01*
X166185001Y-87693470D01*
X166189282Y-87650001D01*
X166185001Y-87606532D01*
X166185001Y-87606524D01*
X166172196Y-87476511D01*
X166121590Y-87309687D01*
X166039412Y-87155942D01*
X165975518Y-87078086D01*
X169584975Y-87078086D01*
X169584975Y-87281964D01*
X169624749Y-87481923D01*
X169702770Y-87670281D01*
X169816038Y-87839799D01*
X169960201Y-87983962D01*
X170129719Y-88097230D01*
X170318077Y-88175251D01*
X170518036Y-88215025D01*
X170721914Y-88215025D01*
X170921873Y-88175251D01*
X171110231Y-88097230D01*
X171279749Y-87983962D01*
X171423912Y-87839799D01*
X171537180Y-87670281D01*
X171615201Y-87481923D01*
X171654975Y-87281964D01*
X171654975Y-87078086D01*
X171615201Y-86878127D01*
X171537180Y-86689769D01*
X171423912Y-86520251D01*
X171279749Y-86376088D01*
X171110231Y-86262820D01*
X170921873Y-86184799D01*
X170721914Y-86145025D01*
X170518036Y-86145025D01*
X170318077Y-86184799D01*
X170129719Y-86262820D01*
X169960201Y-86376088D01*
X169816038Y-86520251D01*
X169702770Y-86689769D01*
X169624749Y-86878127D01*
X169584975Y-87078086D01*
X165975518Y-87078086D01*
X165956533Y-87054954D01*
X165956531Y-87054952D01*
X165928818Y-87021184D01*
X165895051Y-86993472D01*
X165657618Y-86756039D01*
X165597324Y-86694395D01*
X165554530Y-86647965D01*
X165525731Y-86613975D01*
X165508140Y-86590754D01*
X165497579Y-86574737D01*
X165489304Y-86560049D01*
X165479438Y-86539502D01*
X165465846Y-86506881D01*
X165448917Y-86461737D01*
X165443304Y-86433517D01*
X165361515Y-86236060D01*
X165242775Y-86058353D01*
X165091647Y-85907225D01*
X164913940Y-85788485D01*
X164716483Y-85706696D01*
X164506863Y-85665000D01*
X164293137Y-85665000D01*
X164083517Y-85706696D01*
X163886060Y-85788485D01*
X163708353Y-85907225D01*
X163557225Y-86058353D01*
X163438485Y-86236060D01*
X163356696Y-86433517D01*
X163351084Y-86461730D01*
X163334153Y-86506881D01*
X163320561Y-86539502D01*
X163310695Y-86560049D01*
X163302420Y-86574737D01*
X163291859Y-86590754D01*
X163274268Y-86613975D01*
X163245469Y-86647965D01*
X163202658Y-86694413D01*
X163142423Y-86755998D01*
X161633422Y-88265000D01*
X152071862Y-88265000D01*
X151918147Y-88259251D01*
X151853238Y-88250914D01*
X151845812Y-88175518D01*
X151809502Y-88055820D01*
X151750537Y-87945506D01*
X151671185Y-87848815D01*
X151574494Y-87769463D01*
X151464180Y-87710498D01*
X151344482Y-87674188D01*
X151220000Y-87661928D01*
X149520000Y-87661928D01*
X149395518Y-87674188D01*
X149275820Y-87710498D01*
X149165506Y-87769463D01*
X149068815Y-87848815D01*
X148989463Y-87945506D01*
X148930498Y-88055820D01*
X148894188Y-88175518D01*
X148881928Y-88300000D01*
X126468072Y-88300000D01*
X126455812Y-88175518D01*
X126419502Y-88055820D01*
X126360537Y-87945506D01*
X126281185Y-87848815D01*
X126184494Y-87769463D01*
X126074180Y-87710498D01*
X125954482Y-87674188D01*
X125830000Y-87661928D01*
X125265750Y-87665000D01*
X125107000Y-87823750D01*
X124853000Y-87823750D01*
X124694250Y-87665000D01*
X124130000Y-87661928D01*
X124005518Y-87674188D01*
X123885820Y-87710498D01*
X123775506Y-87769463D01*
X123678815Y-87848815D01*
X123599463Y-87945506D01*
X123540498Y-88055820D01*
X123504188Y-88175518D01*
X123491928Y-88300000D01*
X121710000Y-88300000D01*
X121710000Y-84243137D01*
X168015000Y-84243137D01*
X168015000Y-84456863D01*
X168056696Y-84666483D01*
X168138485Y-84863940D01*
X168257225Y-85041647D01*
X168408353Y-85192775D01*
X168586060Y-85311515D01*
X168783517Y-85393304D01*
X168993137Y-85435000D01*
X169206863Y-85435000D01*
X169416483Y-85393304D01*
X169613940Y-85311515D01*
X169791647Y-85192775D01*
X169942775Y-85041647D01*
X170061515Y-84863940D01*
X170143304Y-84666483D01*
X170185000Y-84456863D01*
X170185000Y-84243137D01*
X170143304Y-84033517D01*
X170061515Y-83836060D01*
X169942775Y-83658353D01*
X169791647Y-83507225D01*
X169613940Y-83388485D01*
X169416483Y-83306696D01*
X169206863Y-83265000D01*
X168993137Y-83265000D01*
X168783517Y-83306696D01*
X168586060Y-83388485D01*
X168408353Y-83507225D01*
X168257225Y-83658353D01*
X168138485Y-83836060D01*
X168056696Y-84033517D01*
X168015000Y-84243137D01*
X121710000Y-84243137D01*
X121710000Y-82643137D01*
X153665000Y-82643137D01*
X153665000Y-82856863D01*
X153706696Y-83066483D01*
X153788485Y-83263940D01*
X153907225Y-83441647D01*
X154058353Y-83592775D01*
X154236060Y-83711515D01*
X154433517Y-83793304D01*
X154643137Y-83835000D01*
X154856863Y-83835000D01*
X155066483Y-83793304D01*
X155263940Y-83711515D01*
X155441647Y-83592775D01*
X155592775Y-83441647D01*
X155711515Y-83263940D01*
X155793304Y-83066483D01*
X155835000Y-82856863D01*
X155835000Y-82643137D01*
X155825055Y-82593137D01*
X166065000Y-82593137D01*
X166065000Y-82806863D01*
X166106696Y-83016483D01*
X166188485Y-83213940D01*
X166307225Y-83391647D01*
X166458353Y-83542775D01*
X166636060Y-83661515D01*
X166833517Y-83743304D01*
X167043137Y-83785000D01*
X167256863Y-83785000D01*
X167466483Y-83743304D01*
X167663940Y-83661515D01*
X167841647Y-83542775D01*
X167992775Y-83391647D01*
X168111515Y-83213940D01*
X168193304Y-83016483D01*
X168235000Y-82806863D01*
X168235000Y-82593137D01*
X168193304Y-82383517D01*
X168111515Y-82186060D01*
X167992775Y-82008353D01*
X167841647Y-81857225D01*
X167663940Y-81738485D01*
X167466483Y-81656696D01*
X167256863Y-81615000D01*
X167043137Y-81615000D01*
X166833517Y-81656696D01*
X166636060Y-81738485D01*
X166458353Y-81857225D01*
X166307225Y-82008353D01*
X166188485Y-82186060D01*
X166106696Y-82383517D01*
X166065000Y-82593137D01*
X155825055Y-82593137D01*
X155793304Y-82433517D01*
X155711515Y-82236060D01*
X155592775Y-82058353D01*
X155441647Y-81907225D01*
X155263940Y-81788485D01*
X155066483Y-81706696D01*
X154856863Y-81665000D01*
X154643137Y-81665000D01*
X154433517Y-81706696D01*
X154236060Y-81788485D01*
X154058353Y-81907225D01*
X153907225Y-82058353D01*
X153788485Y-82236060D01*
X153706696Y-82433517D01*
X153665000Y-82643137D01*
X121710000Y-82643137D01*
X121710000Y-79186361D01*
X166766000Y-79186361D01*
X166766000Y-80463638D01*
X166783566Y-80641985D01*
X166852983Y-80870825D01*
X166965712Y-81081725D01*
X167117419Y-81266581D01*
X167302274Y-81418288D01*
X167513174Y-81531017D01*
X167742014Y-81600434D01*
X167980000Y-81623874D01*
X168217985Y-81600434D01*
X168446825Y-81531017D01*
X168657725Y-81418288D01*
X168842581Y-81266581D01*
X168994288Y-81081726D01*
X169107017Y-80870826D01*
X169176434Y-80641986D01*
X169194000Y-80463639D01*
X169194000Y-80055000D01*
X169456434Y-80055000D01*
X169483378Y-80052346D01*
X169485202Y-80052359D01*
X169494095Y-80051486D01*
X169523652Y-80048380D01*
X169550462Y-80045739D01*
X169551356Y-80045468D01*
X169555237Y-80045060D01*
X169612071Y-80033394D01*
X169669038Y-80022527D01*
X169677593Y-80019944D01*
X169736319Y-80001765D01*
X169789794Y-79979287D01*
X169843573Y-79957559D01*
X169851463Y-79953364D01*
X169905542Y-79924124D01*
X169953624Y-79891692D01*
X170002172Y-79859924D01*
X170009097Y-79854276D01*
X170056466Y-79815089D01*
X170097348Y-79773920D01*
X170138788Y-79733339D01*
X170144484Y-79726453D01*
X170183339Y-79678812D01*
X170195980Y-79659785D01*
X170236063Y-79719774D01*
X170380226Y-79863937D01*
X170549744Y-79977205D01*
X170738102Y-80055226D01*
X170938061Y-80095000D01*
X171141939Y-80095000D01*
X171341898Y-80055226D01*
X171530256Y-79977205D01*
X171699774Y-79863937D01*
X171843937Y-79719774D01*
X171957205Y-79550256D01*
X172035226Y-79361898D01*
X172075000Y-79161939D01*
X172075000Y-78958061D01*
X172061077Y-78888061D01*
X172540000Y-78888061D01*
X172540000Y-79091939D01*
X172579774Y-79291898D01*
X172657795Y-79480256D01*
X172771063Y-79649774D01*
X172915226Y-79793937D01*
X173084744Y-79907205D01*
X173273102Y-79985226D01*
X173473061Y-80025000D01*
X173676939Y-80025000D01*
X173876898Y-79985226D01*
X174065256Y-79907205D01*
X174234774Y-79793937D01*
X174378937Y-79649774D01*
X174453332Y-79538433D01*
X174458121Y-79549994D01*
X174562087Y-79705590D01*
X174694410Y-79837913D01*
X174850006Y-79941879D01*
X175022895Y-80013492D01*
X175206433Y-80050000D01*
X175393567Y-80050000D01*
X175406000Y-80047527D01*
X175406000Y-80463638D01*
X175423566Y-80641985D01*
X175492983Y-80870825D01*
X175605712Y-81081725D01*
X175757419Y-81266581D01*
X175901480Y-81384809D01*
X175836063Y-81450226D01*
X175722795Y-81619744D01*
X175644774Y-81808102D01*
X175605000Y-82008061D01*
X175605000Y-82211939D01*
X175644774Y-82411898D01*
X175722795Y-82600256D01*
X175836063Y-82769774D01*
X175980226Y-82913937D01*
X176149744Y-83027205D01*
X176338102Y-83105226D01*
X176538061Y-83145000D01*
X176741939Y-83145000D01*
X176941898Y-83105226D01*
X177130256Y-83027205D01*
X177299774Y-82913937D01*
X177443937Y-82769774D01*
X177557205Y-82600256D01*
X177635226Y-82411898D01*
X177635713Y-82409451D01*
X177657225Y-82441647D01*
X177808353Y-82592775D01*
X177986060Y-82711515D01*
X178183517Y-82793304D01*
X178393137Y-82835000D01*
X178606863Y-82835000D01*
X178816483Y-82793304D01*
X179013940Y-82711515D01*
X179191647Y-82592775D01*
X179342775Y-82441647D01*
X179461515Y-82263940D01*
X179543304Y-82066483D01*
X179585000Y-81856863D01*
X179585000Y-81643137D01*
X179543304Y-81433517D01*
X179461515Y-81236060D01*
X179342775Y-81058353D01*
X179191647Y-80907225D01*
X179013940Y-80788485D01*
X178816483Y-80706696D01*
X178606863Y-80665000D01*
X178393137Y-80665000D01*
X178183517Y-80706696D01*
X177986060Y-80788485D01*
X177808353Y-80907225D01*
X177657225Y-81058353D01*
X177538485Y-81236060D01*
X177456696Y-81433517D01*
X177451208Y-81461108D01*
X177443937Y-81450226D01*
X177360490Y-81366779D01*
X177482581Y-81266581D01*
X177634288Y-81081726D01*
X177747017Y-80870826D01*
X177816434Y-80641986D01*
X177834000Y-80463639D01*
X177834000Y-79186361D01*
X177816434Y-79008014D01*
X177747017Y-78779174D01*
X177694453Y-78680833D01*
X216459048Y-78680833D01*
X216459048Y-81600833D01*
X216843000Y-81600833D01*
X216843000Y-83400000D01*
X216845440Y-83424776D01*
X216852667Y-83448601D01*
X216864403Y-83470557D01*
X216880197Y-83489803D01*
X216899443Y-83505597D01*
X216921399Y-83517333D01*
X216945224Y-83524560D01*
X216970000Y-83527000D01*
X219100000Y-83527000D01*
X219124776Y-83524560D01*
X219148601Y-83517333D01*
X219170557Y-83505597D01*
X219189803Y-83489803D01*
X219205597Y-83470557D01*
X219217333Y-83448601D01*
X219224560Y-83424776D01*
X219227000Y-83400000D01*
X219227000Y-81600833D01*
X219640953Y-81600833D01*
X219640953Y-78680833D01*
X219227000Y-78680833D01*
X219227000Y-78010000D01*
X219224560Y-77985224D01*
X219217333Y-77961399D01*
X219205597Y-77939443D01*
X219189803Y-77920197D01*
X219170557Y-77904403D01*
X219148601Y-77892667D01*
X219124776Y-77885440D01*
X219100000Y-77883000D01*
X216970000Y-77883000D01*
X216945224Y-77885440D01*
X216921399Y-77892667D01*
X216899443Y-77904403D01*
X216880197Y-77920197D01*
X216864403Y-77939443D01*
X216852667Y-77961399D01*
X216845440Y-77985224D01*
X216843000Y-78010000D01*
X216843000Y-78680833D01*
X216459048Y-78680833D01*
X177694453Y-78680833D01*
X177634288Y-78568274D01*
X177482581Y-78383419D01*
X177297726Y-78231712D01*
X177086826Y-78118983D01*
X176857986Y-78049566D01*
X176620000Y-78026126D01*
X176382015Y-78049566D01*
X176153175Y-78118983D01*
X175942275Y-78231712D01*
X175838244Y-78317088D01*
X175749994Y-78258121D01*
X175577105Y-78186508D01*
X175393567Y-78150000D01*
X175206433Y-78150000D01*
X175022895Y-78186508D01*
X174850006Y-78258121D01*
X174694410Y-78362087D01*
X174562087Y-78494410D01*
X174517584Y-78561014D01*
X174492205Y-78499744D01*
X174378937Y-78330226D01*
X174234774Y-78186063D01*
X174065256Y-78072795D01*
X173876898Y-77994774D01*
X173676939Y-77955000D01*
X173473061Y-77955000D01*
X173273102Y-77994774D01*
X173084744Y-78072795D01*
X172915226Y-78186063D01*
X172771063Y-78330226D01*
X172657795Y-78499744D01*
X172579774Y-78688102D01*
X172540000Y-78888061D01*
X172061077Y-78888061D01*
X172035226Y-78758102D01*
X171957205Y-78569744D01*
X171843937Y-78400226D01*
X171699774Y-78256063D01*
X171530256Y-78142795D01*
X171341898Y-78064774D01*
X171141939Y-78025000D01*
X170938061Y-78025000D01*
X170738102Y-78064774D01*
X170549744Y-78142795D01*
X170380226Y-78256063D01*
X170236063Y-78400226D01*
X170167932Y-78502191D01*
X170140089Y-78468534D01*
X170098920Y-78427652D01*
X170058339Y-78386212D01*
X170051453Y-78380516D01*
X170003811Y-78341661D01*
X169955502Y-78309565D01*
X169907643Y-78276795D01*
X169899782Y-78272545D01*
X169845501Y-78243683D01*
X169791913Y-78221596D01*
X169738556Y-78198726D01*
X169730020Y-78196084D01*
X169671167Y-78178315D01*
X169614250Y-78167045D01*
X169557522Y-78154987D01*
X169548635Y-78154053D01*
X169487452Y-78148054D01*
X169487442Y-78148054D01*
X169456434Y-78145000D01*
X169143566Y-78145000D01*
X169116622Y-78147654D01*
X169114798Y-78147641D01*
X169105905Y-78148514D01*
X169076355Y-78151620D01*
X169049538Y-78154261D01*
X169048644Y-78154532D01*
X169044764Y-78154940D01*
X168987943Y-78166604D01*
X168930962Y-78177473D01*
X168922407Y-78180056D01*
X168863680Y-78198235D01*
X168810225Y-78220705D01*
X168756427Y-78242440D01*
X168748537Y-78246636D01*
X168704756Y-78270308D01*
X168657726Y-78231712D01*
X168446826Y-78118983D01*
X168217986Y-78049566D01*
X167980000Y-78026126D01*
X167742015Y-78049566D01*
X167513175Y-78118983D01*
X167302275Y-78231712D01*
X167117420Y-78383419D01*
X166965713Y-78568274D01*
X166852983Y-78779174D01*
X166783566Y-79008014D01*
X166766000Y-79186361D01*
X121710000Y-79186361D01*
X121710000Y-77034721D01*
X121714710Y-76986684D01*
X154561451Y-76986684D01*
X154561451Y-77200410D01*
X154603147Y-77410030D01*
X154684936Y-77607487D01*
X154803676Y-77785194D01*
X154954804Y-77936322D01*
X155132511Y-78055062D01*
X155329968Y-78136851D01*
X155539588Y-78178547D01*
X155753314Y-78178547D01*
X155962934Y-78136851D01*
X156160391Y-78055062D01*
X156338098Y-77936322D01*
X156489226Y-77785194D01*
X156607966Y-77607487D01*
X156689755Y-77410030D01*
X156731451Y-77200410D01*
X156731451Y-76986684D01*
X156689755Y-76777064D01*
X156607966Y-76579607D01*
X156489226Y-76401900D01*
X156338098Y-76250772D01*
X156160391Y-76132032D01*
X155962934Y-76050243D01*
X155753314Y-76008547D01*
X155539588Y-76008547D01*
X155329968Y-76050243D01*
X155132511Y-76132032D01*
X154954804Y-76250772D01*
X154803676Y-76401900D01*
X154684936Y-76579607D01*
X154603147Y-76777064D01*
X154561451Y-76986684D01*
X121714710Y-76986684D01*
X121756953Y-76555866D01*
X121885938Y-76128645D01*
X122095446Y-75734616D01*
X122377499Y-75388786D01*
X122721351Y-75104327D01*
X123113910Y-74892071D01*
X123540213Y-74760108D01*
X124016964Y-74710000D01*
X166948620Y-74710000D01*
X166948168Y-74710551D01*
G37*
%TD.AperFunction*%
%TD*%
D21*
%TO.N,+5V*%
X165188239Y-122147552D02*
X165127713Y-122209433D01*
X165127454Y-122209706D01*
X165069293Y-122272808D01*
X165068942Y-122273205D01*
X165020348Y-122330556D01*
X165019914Y-122331097D01*
X164979307Y-122384702D01*
X164978827Y-122385380D01*
X164944629Y-122437245D01*
X164944167Y-122438002D01*
X164914797Y-122490134D01*
X164914413Y-122490871D01*
X164888292Y-122545275D01*
X164888018Y-122545887D01*
X164863567Y-122604569D01*
X164863399Y-122604995D01*
X164839037Y-122669962D01*
X164838952Y-122670195D01*
X164816030Y-122735152D01*
X164253857Y-122746143D01*
X164264848Y-122183970D01*
X164329804Y-122161047D01*
X164330037Y-122160962D01*
X164395004Y-122136600D01*
X164395430Y-122136432D01*
X164454112Y-122111981D01*
X164454724Y-122111707D01*
X164509128Y-122085586D01*
X164509865Y-122085202D01*
X164561997Y-122055832D01*
X164562754Y-122055370D01*
X164614619Y-122021172D01*
X164615297Y-122020692D01*
X164668902Y-121980085D01*
X164669443Y-121979651D01*
X164726794Y-121931057D01*
X164727191Y-121930706D01*
X164790293Y-121872545D01*
X164790566Y-121872286D01*
X164852448Y-121811761D01*
X165188239Y-122147552D01*
%TA.AperFunction,Conductor*%
D20*
G36*
X165188239Y-122147552D02*
G01*
X165127713Y-122209433D01*
X165127454Y-122209706D01*
X165069293Y-122272808D01*
X165068942Y-122273205D01*
X165020348Y-122330556D01*
X165019914Y-122331097D01*
X164979307Y-122384702D01*
X164978827Y-122385380D01*
X164944629Y-122437245D01*
X164944167Y-122438002D01*
X164914797Y-122490134D01*
X164914413Y-122490871D01*
X164888292Y-122545275D01*
X164888018Y-122545887D01*
X164863567Y-122604569D01*
X164863399Y-122604995D01*
X164839037Y-122669962D01*
X164838952Y-122670195D01*
X164816030Y-122735152D01*
X164253857Y-122746143D01*
X164264848Y-122183970D01*
X164329804Y-122161047D01*
X164330037Y-122160962D01*
X164395004Y-122136600D01*
X164395430Y-122136432D01*
X164454112Y-122111981D01*
X164454724Y-122111707D01*
X164509128Y-122085586D01*
X164509865Y-122085202D01*
X164561997Y-122055832D01*
X164562754Y-122055370D01*
X164614619Y-122021172D01*
X164615297Y-122020692D01*
X164668902Y-121980085D01*
X164669443Y-121979651D01*
X164726794Y-121931057D01*
X164727191Y-121930706D01*
X164790293Y-121872545D01*
X164790566Y-121872286D01*
X164852448Y-121811761D01*
X165188239Y-122147552D01*
G37*
%TD.AperFunction*%
%TD*%
D21*
%TO.N,+5V*%
X164816030Y-86614848D02*
X164838952Y-86679804D01*
X164839037Y-86680037D01*
X164863399Y-86745004D01*
X164863567Y-86745430D01*
X164888018Y-86804112D01*
X164888292Y-86804724D01*
X164914413Y-86859128D01*
X164914797Y-86859865D01*
X164944167Y-86911997D01*
X164944629Y-86912754D01*
X164978827Y-86964619D01*
X164979307Y-86965297D01*
X165019914Y-87018902D01*
X165020348Y-87019443D01*
X165068942Y-87076794D01*
X165069293Y-87077191D01*
X165127454Y-87140293D01*
X165127713Y-87140566D01*
X165188239Y-87202448D01*
X164852448Y-87538239D01*
X164790566Y-87477713D01*
X164790293Y-87477454D01*
X164727191Y-87419293D01*
X164726794Y-87418942D01*
X164669443Y-87370348D01*
X164668902Y-87369914D01*
X164615297Y-87329307D01*
X164614619Y-87328827D01*
X164562754Y-87294629D01*
X164561997Y-87294167D01*
X164509865Y-87264797D01*
X164509128Y-87264413D01*
X164454724Y-87238292D01*
X164454112Y-87238018D01*
X164395430Y-87213567D01*
X164395004Y-87213399D01*
X164330037Y-87189037D01*
X164329804Y-87188952D01*
X164264848Y-87166030D01*
X164253857Y-86603857D01*
X164816030Y-86614848D01*
%TA.AperFunction,Conductor*%
D20*
G36*
X164816030Y-86614848D02*
G01*
X164838952Y-86679804D01*
X164839037Y-86680037D01*
X164863399Y-86745004D01*
X164863567Y-86745430D01*
X164888018Y-86804112D01*
X164888292Y-86804724D01*
X164914413Y-86859128D01*
X164914797Y-86859865D01*
X164944167Y-86911997D01*
X164944629Y-86912754D01*
X164978827Y-86964619D01*
X164979307Y-86965297D01*
X165019914Y-87018902D01*
X165020348Y-87019443D01*
X165068942Y-87076794D01*
X165069293Y-87077191D01*
X165127454Y-87140293D01*
X165127713Y-87140566D01*
X165188239Y-87202448D01*
X164852448Y-87538239D01*
X164790566Y-87477713D01*
X164790293Y-87477454D01*
X164727191Y-87419293D01*
X164726794Y-87418942D01*
X164669443Y-87370348D01*
X164668902Y-87369914D01*
X164615297Y-87329307D01*
X164614619Y-87328827D01*
X164562754Y-87294629D01*
X164561997Y-87294167D01*
X164509865Y-87264797D01*
X164509128Y-87264413D01*
X164454724Y-87238292D01*
X164454112Y-87238018D01*
X164395430Y-87213567D01*
X164395004Y-87213399D01*
X164330037Y-87189037D01*
X164329804Y-87188952D01*
X164264848Y-87166030D01*
X164253857Y-86603857D01*
X164816030Y-86614848D01*
G37*
%TD.AperFunction*%
%TD*%
D21*
%TO.N,+5V*%
X164723454Y-104441819D02*
X164726089Y-104443429D01*
X164791171Y-104473007D01*
X164793710Y-104473851D01*
X164860695Y-104488515D01*
X164862432Y-104488771D01*
X164931287Y-104494093D01*
X164931987Y-104494128D01*
X165002544Y-104495679D01*
X165074250Y-104499000D01*
X165146907Y-104509504D01*
X165220769Y-104532523D01*
X165296283Y-104573538D01*
X165364040Y-104630132D01*
X165028381Y-104965791D01*
X164985614Y-104931290D01*
X164982667Y-104929512D01*
X164933097Y-104908145D01*
X164930725Y-104907389D01*
X164929175Y-104907156D01*
X164881184Y-104902966D01*
X164877465Y-104903190D01*
X164830549Y-104913056D01*
X164827962Y-104913898D01*
X164781621Y-104934698D01*
X164780143Y-104935482D01*
X164733873Y-104964092D01*
X164733179Y-104964553D01*
X164686479Y-104997852D01*
X164686351Y-104997945D01*
X164638892Y-105032683D01*
X164590469Y-105065556D01*
X164548156Y-105089310D01*
X164145897Y-104702477D01*
X164667118Y-104397153D01*
X164723454Y-104441819D01*
%TA.AperFunction,Conductor*%
D20*
G36*
X164723454Y-104441819D02*
G01*
X164726089Y-104443429D01*
X164791171Y-104473007D01*
X164793710Y-104473851D01*
X164860695Y-104488515D01*
X164862432Y-104488771D01*
X164931287Y-104494093D01*
X164931987Y-104494128D01*
X165002544Y-104495679D01*
X165074250Y-104499000D01*
X165146907Y-104509504D01*
X165220769Y-104532523D01*
X165296283Y-104573538D01*
X165364040Y-104630132D01*
X165028381Y-104965791D01*
X164985614Y-104931290D01*
X164982667Y-104929512D01*
X164933097Y-104908145D01*
X164930725Y-104907389D01*
X164929175Y-104907156D01*
X164881184Y-104902966D01*
X164877465Y-104903190D01*
X164830549Y-104913056D01*
X164827962Y-104913898D01*
X164781621Y-104934698D01*
X164780143Y-104935482D01*
X164733873Y-104964092D01*
X164733179Y-104964553D01*
X164686479Y-104997852D01*
X164686351Y-104997945D01*
X164638892Y-105032683D01*
X164590469Y-105065556D01*
X164548156Y-105089310D01*
X164145897Y-104702477D01*
X164667118Y-104397153D01*
X164723454Y-104441819D01*
G37*
%TD.AperFunction*%
%TD*%
D21*
%TO.N,+5V*%
X164535152Y-87166030D02*
X164470195Y-87188952D01*
X164469962Y-87189037D01*
X164404995Y-87213399D01*
X164404569Y-87213567D01*
X164345887Y-87238018D01*
X164345275Y-87238292D01*
X164290871Y-87264413D01*
X164290134Y-87264797D01*
X164238002Y-87294167D01*
X164237245Y-87294629D01*
X164185380Y-87328827D01*
X164184702Y-87329307D01*
X164131097Y-87369914D01*
X164130556Y-87370348D01*
X164073205Y-87418942D01*
X164072808Y-87419293D01*
X164009706Y-87477454D01*
X164009433Y-87477713D01*
X163947552Y-87538239D01*
X163611761Y-87202448D01*
X163672286Y-87140566D01*
X163672545Y-87140293D01*
X163730706Y-87077191D01*
X163731057Y-87076794D01*
X163779651Y-87019443D01*
X163780085Y-87018902D01*
X163820692Y-86965297D01*
X163821172Y-86964619D01*
X163855370Y-86912754D01*
X163855832Y-86911997D01*
X163885202Y-86859865D01*
X163885586Y-86859128D01*
X163911707Y-86804724D01*
X163911981Y-86804112D01*
X163936432Y-86745430D01*
X163936600Y-86745004D01*
X163960962Y-86680037D01*
X163961047Y-86679804D01*
X163983970Y-86614848D01*
X164546143Y-86603857D01*
X164535152Y-87166030D01*
%TA.AperFunction,Conductor*%
D20*
G36*
X164535152Y-87166030D02*
G01*
X164470195Y-87188952D01*
X164469962Y-87189037D01*
X164404995Y-87213399D01*
X164404569Y-87213567D01*
X164345887Y-87238018D01*
X164345275Y-87238292D01*
X164290871Y-87264413D01*
X164290134Y-87264797D01*
X164238002Y-87294167D01*
X164237245Y-87294629D01*
X164185380Y-87328827D01*
X164184702Y-87329307D01*
X164131097Y-87369914D01*
X164130556Y-87370348D01*
X164073205Y-87418942D01*
X164072808Y-87419293D01*
X164009706Y-87477454D01*
X164009433Y-87477713D01*
X163947552Y-87538239D01*
X163611761Y-87202448D01*
X163672286Y-87140566D01*
X163672545Y-87140293D01*
X163730706Y-87077191D01*
X163731057Y-87076794D01*
X163779651Y-87019443D01*
X163780085Y-87018902D01*
X163820692Y-86965297D01*
X163821172Y-86964619D01*
X163855370Y-86912754D01*
X163855832Y-86911997D01*
X163885202Y-86859865D01*
X163885586Y-86859128D01*
X163911707Y-86804724D01*
X163911981Y-86804112D01*
X163936432Y-86745430D01*
X163936600Y-86745004D01*
X163960962Y-86680037D01*
X163961047Y-86679804D01*
X163983970Y-86614848D01*
X164546143Y-86603857D01*
X164535152Y-87166030D01*
G37*
%TD.AperFunction*%
%TD*%
D21*
%TO.N,+5V*%
X150885071Y-88474896D02*
X151013144Y-88551109D01*
X151126060Y-88623772D01*
X151230441Y-88691405D01*
X151230842Y-88691655D01*
X151333328Y-88752772D01*
X151334195Y-88753244D01*
X151441514Y-88806411D01*
X151442762Y-88806948D01*
X151561676Y-88850756D01*
X151563094Y-88851186D01*
X151700366Y-88884224D01*
X151701720Y-88884474D01*
X151864110Y-88905331D01*
X151865253Y-88905425D01*
X152047300Y-88912234D01*
X152047300Y-89387766D01*
X151865253Y-89394574D01*
X151864110Y-89394668D01*
X151701720Y-89415525D01*
X151700366Y-89415775D01*
X151563094Y-89448813D01*
X151561676Y-89449243D01*
X151442762Y-89493051D01*
X151441514Y-89493588D01*
X151334195Y-89546755D01*
X151333328Y-89547227D01*
X151230842Y-89608344D01*
X151230441Y-89608594D01*
X151126060Y-89676227D01*
X151013144Y-89748890D01*
X150885071Y-89825104D01*
X150742722Y-89899512D01*
X149963322Y-89150000D01*
X150742722Y-88400488D01*
X150885071Y-88474896D01*
%TA.AperFunction,Conductor*%
D20*
G36*
X150885071Y-88474896D02*
G01*
X151013144Y-88551109D01*
X151126060Y-88623772D01*
X151230441Y-88691405D01*
X151230842Y-88691655D01*
X151333328Y-88752772D01*
X151334195Y-88753244D01*
X151441514Y-88806411D01*
X151442762Y-88806948D01*
X151561676Y-88850756D01*
X151563094Y-88851186D01*
X151700366Y-88884224D01*
X151701720Y-88884474D01*
X151864110Y-88905331D01*
X151865253Y-88905425D01*
X152047300Y-88912234D01*
X152047300Y-89387766D01*
X151865253Y-89394574D01*
X151864110Y-89394668D01*
X151701720Y-89415525D01*
X151700366Y-89415775D01*
X151563094Y-89448813D01*
X151561676Y-89449243D01*
X151442762Y-89493051D01*
X151441514Y-89493588D01*
X151334195Y-89546755D01*
X151333328Y-89547227D01*
X151230842Y-89608344D01*
X151230441Y-89608594D01*
X151126060Y-89676227D01*
X151013144Y-89748890D01*
X150885071Y-89825104D01*
X150742722Y-89899512D01*
X149963322Y-89150000D01*
X150742722Y-88400488D01*
X150885071Y-88474896D01*
G37*
%TD.AperFunction*%
%TD*%
M02*
