%TF.GenerationSoftware,KiCad,Pcbnew,5.1.9+dfsg1-1+deb11u1*%
%TF.CreationDate,2025-09-19T12:14:10+02:00*%
%TF.ProjectId,ESP32-BOBOARD-5V,45535033-322d-4424-9f42-4f4152442d35,rev?*%
%TF.SameCoordinates,Original*%
%TF.FileFunction,Paste,Top*%
%TF.FilePolarity,Positive*%
%FSLAX46Y46*%
G04 Gerber Fmt 4.6, Leading zero omitted, Abs format (unit mm)*
G04 Created by KiCad (PCBNEW 5.1.9+dfsg1-1+deb11u1) date 2025-09-19 12:14:10*
%MOMM*%
%LPD*%
G01*
G04 APERTURE LIST*
%ADD10R,1.250000X0.760000*%
%ADD11R,1.000000X2.510000*%
%ADD12R,3.150000X1.000000*%
%ADD13R,1.000000X2.000000*%
%ADD14R,0.270000X1.000000*%
%ADD15R,0.520000X1.000000*%
G04 APERTURE END LIST*
D10*
%TO.C,SW1*%
X185300000Y-78635000D03*
X192900000Y-77365000D03*
X185300000Y-77365000D03*
X192900000Y-78635000D03*
%TD*%
D11*
%TO.C,J4*%
X156900000Y-77145000D03*
X159440000Y-80455000D03*
X154360000Y-80455000D03*
%TD*%
D12*
%TO.C,J3*%
X212855000Y-124300000D03*
X207805000Y-124300000D03*
X212855000Y-121760000D03*
X207805000Y-121760000D03*
X212855000Y-119220000D03*
X207805000Y-119220000D03*
X212855000Y-116680000D03*
X207805000Y-116680000D03*
X212855000Y-114140000D03*
X207805000Y-114140000D03*
X212855000Y-111600000D03*
X207805000Y-111600000D03*
X212855000Y-109060000D03*
X207805000Y-109060000D03*
X212855000Y-106520000D03*
X207805000Y-106520000D03*
X212855000Y-103980000D03*
X207805000Y-103980000D03*
X212855000Y-101440000D03*
X207805000Y-101440000D03*
X212855000Y-98900000D03*
X207805000Y-98900000D03*
X212855000Y-96360000D03*
X207805000Y-96360000D03*
X212855000Y-93820000D03*
X207805000Y-93820000D03*
X212855000Y-91280000D03*
X207805000Y-91280000D03*
X212855000Y-88740000D03*
X207805000Y-88740000D03*
X212855000Y-86200000D03*
X207805000Y-86200000D03*
%TD*%
D13*
%TO.C,J5*%
X170900000Y-76000000D03*
X173700000Y-76000000D03*
D14*
X171050000Y-80200000D03*
X171550000Y-80200000D03*
X172050000Y-80200000D03*
X172550000Y-80200000D03*
X173050000Y-80200000D03*
X173550000Y-80200000D03*
X170550000Y-80200000D03*
X174050000Y-80200000D03*
D15*
X169950000Y-80200000D03*
X174650000Y-80200000D03*
X169200000Y-80200000D03*
X175400000Y-80200000D03*
%TD*%
%TO.C,U4*%
G36*
G01*
X165125000Y-122175000D02*
X165125000Y-121975000D01*
G75*
G02*
X165225000Y-121875000I100000J0D01*
G01*
X166500000Y-121875000D01*
G75*
G02*
X166600000Y-121975000I0J-100000D01*
G01*
X166600000Y-122175000D01*
G75*
G02*
X166500000Y-122275000I-100000J0D01*
G01*
X165225000Y-122275000D01*
G75*
G02*
X165125000Y-122175000I0J100000D01*
G01*
G37*
G36*
G01*
X165125000Y-122825000D02*
X165125000Y-122625000D01*
G75*
G02*
X165225000Y-122525000I100000J0D01*
G01*
X166500000Y-122525000D01*
G75*
G02*
X166600000Y-122625000I0J-100000D01*
G01*
X166600000Y-122825000D01*
G75*
G02*
X166500000Y-122925000I-100000J0D01*
G01*
X165225000Y-122925000D01*
G75*
G02*
X165125000Y-122825000I0J100000D01*
G01*
G37*
G36*
G01*
X165125000Y-123475000D02*
X165125000Y-123275000D01*
G75*
G02*
X165225000Y-123175000I100000J0D01*
G01*
X166500000Y-123175000D01*
G75*
G02*
X166600000Y-123275000I0J-100000D01*
G01*
X166600000Y-123475000D01*
G75*
G02*
X166500000Y-123575000I-100000J0D01*
G01*
X165225000Y-123575000D01*
G75*
G02*
X165125000Y-123475000I0J100000D01*
G01*
G37*
G36*
G01*
X165125000Y-124125000D02*
X165125000Y-123925000D01*
G75*
G02*
X165225000Y-123825000I100000J0D01*
G01*
X166500000Y-123825000D01*
G75*
G02*
X166600000Y-123925000I0J-100000D01*
G01*
X166600000Y-124125000D01*
G75*
G02*
X166500000Y-124225000I-100000J0D01*
G01*
X165225000Y-124225000D01*
G75*
G02*
X165125000Y-124125000I0J100000D01*
G01*
G37*
G36*
G01*
X165125000Y-124775000D02*
X165125000Y-124575000D01*
G75*
G02*
X165225000Y-124475000I100000J0D01*
G01*
X166500000Y-124475000D01*
G75*
G02*
X166600000Y-124575000I0J-100000D01*
G01*
X166600000Y-124775000D01*
G75*
G02*
X166500000Y-124875000I-100000J0D01*
G01*
X165225000Y-124875000D01*
G75*
G02*
X165125000Y-124775000I0J100000D01*
G01*
G37*
G36*
G01*
X165125000Y-125425000D02*
X165125000Y-125225000D01*
G75*
G02*
X165225000Y-125125000I100000J0D01*
G01*
X166500000Y-125125000D01*
G75*
G02*
X166600000Y-125225000I0J-100000D01*
G01*
X166600000Y-125425000D01*
G75*
G02*
X166500000Y-125525000I-100000J0D01*
G01*
X165225000Y-125525000D01*
G75*
G02*
X165125000Y-125425000I0J100000D01*
G01*
G37*
G36*
G01*
X165125000Y-126075000D02*
X165125000Y-125875000D01*
G75*
G02*
X165225000Y-125775000I100000J0D01*
G01*
X166500000Y-125775000D01*
G75*
G02*
X166600000Y-125875000I0J-100000D01*
G01*
X166600000Y-126075000D01*
G75*
G02*
X166500000Y-126175000I-100000J0D01*
G01*
X165225000Y-126175000D01*
G75*
G02*
X165125000Y-126075000I0J100000D01*
G01*
G37*
G36*
G01*
X165125000Y-126725000D02*
X165125000Y-126525000D01*
G75*
G02*
X165225000Y-126425000I100000J0D01*
G01*
X166500000Y-126425000D01*
G75*
G02*
X166600000Y-126525000I0J-100000D01*
G01*
X166600000Y-126725000D01*
G75*
G02*
X166500000Y-126825000I-100000J0D01*
G01*
X165225000Y-126825000D01*
G75*
G02*
X165125000Y-126725000I0J100000D01*
G01*
G37*
G36*
G01*
X165125000Y-127375000D02*
X165125000Y-127175000D01*
G75*
G02*
X165225000Y-127075000I100000J0D01*
G01*
X166500000Y-127075000D01*
G75*
G02*
X166600000Y-127175000I0J-100000D01*
G01*
X166600000Y-127375000D01*
G75*
G02*
X166500000Y-127475000I-100000J0D01*
G01*
X165225000Y-127475000D01*
G75*
G02*
X165125000Y-127375000I0J100000D01*
G01*
G37*
G36*
G01*
X165125000Y-128025000D02*
X165125000Y-127825000D01*
G75*
G02*
X165225000Y-127725000I100000J0D01*
G01*
X166500000Y-127725000D01*
G75*
G02*
X166600000Y-127825000I0J-100000D01*
G01*
X166600000Y-128025000D01*
G75*
G02*
X166500000Y-128125000I-100000J0D01*
G01*
X165225000Y-128125000D01*
G75*
G02*
X165125000Y-128025000I0J100000D01*
G01*
G37*
G36*
G01*
X159400000Y-128025000D02*
X159400000Y-127825000D01*
G75*
G02*
X159500000Y-127725000I100000J0D01*
G01*
X160775000Y-127725000D01*
G75*
G02*
X160875000Y-127825000I0J-100000D01*
G01*
X160875000Y-128025000D01*
G75*
G02*
X160775000Y-128125000I-100000J0D01*
G01*
X159500000Y-128125000D01*
G75*
G02*
X159400000Y-128025000I0J100000D01*
G01*
G37*
G36*
G01*
X159400000Y-127375000D02*
X159400000Y-127175000D01*
G75*
G02*
X159500000Y-127075000I100000J0D01*
G01*
X160775000Y-127075000D01*
G75*
G02*
X160875000Y-127175000I0J-100000D01*
G01*
X160875000Y-127375000D01*
G75*
G02*
X160775000Y-127475000I-100000J0D01*
G01*
X159500000Y-127475000D01*
G75*
G02*
X159400000Y-127375000I0J100000D01*
G01*
G37*
G36*
G01*
X159400000Y-126725000D02*
X159400000Y-126525000D01*
G75*
G02*
X159500000Y-126425000I100000J0D01*
G01*
X160775000Y-126425000D01*
G75*
G02*
X160875000Y-126525000I0J-100000D01*
G01*
X160875000Y-126725000D01*
G75*
G02*
X160775000Y-126825000I-100000J0D01*
G01*
X159500000Y-126825000D01*
G75*
G02*
X159400000Y-126725000I0J100000D01*
G01*
G37*
G36*
G01*
X159400000Y-126075000D02*
X159400000Y-125875000D01*
G75*
G02*
X159500000Y-125775000I100000J0D01*
G01*
X160775000Y-125775000D01*
G75*
G02*
X160875000Y-125875000I0J-100000D01*
G01*
X160875000Y-126075000D01*
G75*
G02*
X160775000Y-126175000I-100000J0D01*
G01*
X159500000Y-126175000D01*
G75*
G02*
X159400000Y-126075000I0J100000D01*
G01*
G37*
G36*
G01*
X159400000Y-125425000D02*
X159400000Y-125225000D01*
G75*
G02*
X159500000Y-125125000I100000J0D01*
G01*
X160775000Y-125125000D01*
G75*
G02*
X160875000Y-125225000I0J-100000D01*
G01*
X160875000Y-125425000D01*
G75*
G02*
X160775000Y-125525000I-100000J0D01*
G01*
X159500000Y-125525000D01*
G75*
G02*
X159400000Y-125425000I0J100000D01*
G01*
G37*
G36*
G01*
X159400000Y-124775000D02*
X159400000Y-124575000D01*
G75*
G02*
X159500000Y-124475000I100000J0D01*
G01*
X160775000Y-124475000D01*
G75*
G02*
X160875000Y-124575000I0J-100000D01*
G01*
X160875000Y-124775000D01*
G75*
G02*
X160775000Y-124875000I-100000J0D01*
G01*
X159500000Y-124875000D01*
G75*
G02*
X159400000Y-124775000I0J100000D01*
G01*
G37*
G36*
G01*
X159400000Y-124125000D02*
X159400000Y-123925000D01*
G75*
G02*
X159500000Y-123825000I100000J0D01*
G01*
X160775000Y-123825000D01*
G75*
G02*
X160875000Y-123925000I0J-100000D01*
G01*
X160875000Y-124125000D01*
G75*
G02*
X160775000Y-124225000I-100000J0D01*
G01*
X159500000Y-124225000D01*
G75*
G02*
X159400000Y-124125000I0J100000D01*
G01*
G37*
G36*
G01*
X159400000Y-123475000D02*
X159400000Y-123275000D01*
G75*
G02*
X159500000Y-123175000I100000J0D01*
G01*
X160775000Y-123175000D01*
G75*
G02*
X160875000Y-123275000I0J-100000D01*
G01*
X160875000Y-123475000D01*
G75*
G02*
X160775000Y-123575000I-100000J0D01*
G01*
X159500000Y-123575000D01*
G75*
G02*
X159400000Y-123475000I0J100000D01*
G01*
G37*
G36*
G01*
X159400000Y-122825000D02*
X159400000Y-122625000D01*
G75*
G02*
X159500000Y-122525000I100000J0D01*
G01*
X160775000Y-122525000D01*
G75*
G02*
X160875000Y-122625000I0J-100000D01*
G01*
X160875000Y-122825000D01*
G75*
G02*
X160775000Y-122925000I-100000J0D01*
G01*
X159500000Y-122925000D01*
G75*
G02*
X159400000Y-122825000I0J100000D01*
G01*
G37*
G36*
G01*
X159400000Y-122175000D02*
X159400000Y-121975000D01*
G75*
G02*
X159500000Y-121875000I100000J0D01*
G01*
X160775000Y-121875000D01*
G75*
G02*
X160875000Y-121975000I0J-100000D01*
G01*
X160875000Y-122175000D01*
G75*
G02*
X160775000Y-122275000I-100000J0D01*
G01*
X159500000Y-122275000D01*
G75*
G02*
X159400000Y-122175000I0J100000D01*
G01*
G37*
%TD*%
%TO.C,U3*%
G36*
G01*
X165125000Y-104175000D02*
X165125000Y-103975000D01*
G75*
G02*
X165225000Y-103875000I100000J0D01*
G01*
X166500000Y-103875000D01*
G75*
G02*
X166600000Y-103975000I0J-100000D01*
G01*
X166600000Y-104175000D01*
G75*
G02*
X166500000Y-104275000I-100000J0D01*
G01*
X165225000Y-104275000D01*
G75*
G02*
X165125000Y-104175000I0J100000D01*
G01*
G37*
G36*
G01*
X165125000Y-104825000D02*
X165125000Y-104625000D01*
G75*
G02*
X165225000Y-104525000I100000J0D01*
G01*
X166500000Y-104525000D01*
G75*
G02*
X166600000Y-104625000I0J-100000D01*
G01*
X166600000Y-104825000D01*
G75*
G02*
X166500000Y-104925000I-100000J0D01*
G01*
X165225000Y-104925000D01*
G75*
G02*
X165125000Y-104825000I0J100000D01*
G01*
G37*
G36*
G01*
X165125000Y-105475000D02*
X165125000Y-105275000D01*
G75*
G02*
X165225000Y-105175000I100000J0D01*
G01*
X166500000Y-105175000D01*
G75*
G02*
X166600000Y-105275000I0J-100000D01*
G01*
X166600000Y-105475000D01*
G75*
G02*
X166500000Y-105575000I-100000J0D01*
G01*
X165225000Y-105575000D01*
G75*
G02*
X165125000Y-105475000I0J100000D01*
G01*
G37*
G36*
G01*
X165125000Y-106125000D02*
X165125000Y-105925000D01*
G75*
G02*
X165225000Y-105825000I100000J0D01*
G01*
X166500000Y-105825000D01*
G75*
G02*
X166600000Y-105925000I0J-100000D01*
G01*
X166600000Y-106125000D01*
G75*
G02*
X166500000Y-106225000I-100000J0D01*
G01*
X165225000Y-106225000D01*
G75*
G02*
X165125000Y-106125000I0J100000D01*
G01*
G37*
G36*
G01*
X165125000Y-106775000D02*
X165125000Y-106575000D01*
G75*
G02*
X165225000Y-106475000I100000J0D01*
G01*
X166500000Y-106475000D01*
G75*
G02*
X166600000Y-106575000I0J-100000D01*
G01*
X166600000Y-106775000D01*
G75*
G02*
X166500000Y-106875000I-100000J0D01*
G01*
X165225000Y-106875000D01*
G75*
G02*
X165125000Y-106775000I0J100000D01*
G01*
G37*
G36*
G01*
X165125000Y-107425000D02*
X165125000Y-107225000D01*
G75*
G02*
X165225000Y-107125000I100000J0D01*
G01*
X166500000Y-107125000D01*
G75*
G02*
X166600000Y-107225000I0J-100000D01*
G01*
X166600000Y-107425000D01*
G75*
G02*
X166500000Y-107525000I-100000J0D01*
G01*
X165225000Y-107525000D01*
G75*
G02*
X165125000Y-107425000I0J100000D01*
G01*
G37*
G36*
G01*
X165125000Y-108075000D02*
X165125000Y-107875000D01*
G75*
G02*
X165225000Y-107775000I100000J0D01*
G01*
X166500000Y-107775000D01*
G75*
G02*
X166600000Y-107875000I0J-100000D01*
G01*
X166600000Y-108075000D01*
G75*
G02*
X166500000Y-108175000I-100000J0D01*
G01*
X165225000Y-108175000D01*
G75*
G02*
X165125000Y-108075000I0J100000D01*
G01*
G37*
G36*
G01*
X165125000Y-108725000D02*
X165125000Y-108525000D01*
G75*
G02*
X165225000Y-108425000I100000J0D01*
G01*
X166500000Y-108425000D01*
G75*
G02*
X166600000Y-108525000I0J-100000D01*
G01*
X166600000Y-108725000D01*
G75*
G02*
X166500000Y-108825000I-100000J0D01*
G01*
X165225000Y-108825000D01*
G75*
G02*
X165125000Y-108725000I0J100000D01*
G01*
G37*
G36*
G01*
X165125000Y-109375000D02*
X165125000Y-109175000D01*
G75*
G02*
X165225000Y-109075000I100000J0D01*
G01*
X166500000Y-109075000D01*
G75*
G02*
X166600000Y-109175000I0J-100000D01*
G01*
X166600000Y-109375000D01*
G75*
G02*
X166500000Y-109475000I-100000J0D01*
G01*
X165225000Y-109475000D01*
G75*
G02*
X165125000Y-109375000I0J100000D01*
G01*
G37*
G36*
G01*
X165125000Y-110025000D02*
X165125000Y-109825000D01*
G75*
G02*
X165225000Y-109725000I100000J0D01*
G01*
X166500000Y-109725000D01*
G75*
G02*
X166600000Y-109825000I0J-100000D01*
G01*
X166600000Y-110025000D01*
G75*
G02*
X166500000Y-110125000I-100000J0D01*
G01*
X165225000Y-110125000D01*
G75*
G02*
X165125000Y-110025000I0J100000D01*
G01*
G37*
G36*
G01*
X159400000Y-110025000D02*
X159400000Y-109825000D01*
G75*
G02*
X159500000Y-109725000I100000J0D01*
G01*
X160775000Y-109725000D01*
G75*
G02*
X160875000Y-109825000I0J-100000D01*
G01*
X160875000Y-110025000D01*
G75*
G02*
X160775000Y-110125000I-100000J0D01*
G01*
X159500000Y-110125000D01*
G75*
G02*
X159400000Y-110025000I0J100000D01*
G01*
G37*
G36*
G01*
X159400000Y-109375000D02*
X159400000Y-109175000D01*
G75*
G02*
X159500000Y-109075000I100000J0D01*
G01*
X160775000Y-109075000D01*
G75*
G02*
X160875000Y-109175000I0J-100000D01*
G01*
X160875000Y-109375000D01*
G75*
G02*
X160775000Y-109475000I-100000J0D01*
G01*
X159500000Y-109475000D01*
G75*
G02*
X159400000Y-109375000I0J100000D01*
G01*
G37*
G36*
G01*
X159400000Y-108725000D02*
X159400000Y-108525000D01*
G75*
G02*
X159500000Y-108425000I100000J0D01*
G01*
X160775000Y-108425000D01*
G75*
G02*
X160875000Y-108525000I0J-100000D01*
G01*
X160875000Y-108725000D01*
G75*
G02*
X160775000Y-108825000I-100000J0D01*
G01*
X159500000Y-108825000D01*
G75*
G02*
X159400000Y-108725000I0J100000D01*
G01*
G37*
G36*
G01*
X159400000Y-108075000D02*
X159400000Y-107875000D01*
G75*
G02*
X159500000Y-107775000I100000J0D01*
G01*
X160775000Y-107775000D01*
G75*
G02*
X160875000Y-107875000I0J-100000D01*
G01*
X160875000Y-108075000D01*
G75*
G02*
X160775000Y-108175000I-100000J0D01*
G01*
X159500000Y-108175000D01*
G75*
G02*
X159400000Y-108075000I0J100000D01*
G01*
G37*
G36*
G01*
X159400000Y-107425000D02*
X159400000Y-107225000D01*
G75*
G02*
X159500000Y-107125000I100000J0D01*
G01*
X160775000Y-107125000D01*
G75*
G02*
X160875000Y-107225000I0J-100000D01*
G01*
X160875000Y-107425000D01*
G75*
G02*
X160775000Y-107525000I-100000J0D01*
G01*
X159500000Y-107525000D01*
G75*
G02*
X159400000Y-107425000I0J100000D01*
G01*
G37*
G36*
G01*
X159400000Y-106775000D02*
X159400000Y-106575000D01*
G75*
G02*
X159500000Y-106475000I100000J0D01*
G01*
X160775000Y-106475000D01*
G75*
G02*
X160875000Y-106575000I0J-100000D01*
G01*
X160875000Y-106775000D01*
G75*
G02*
X160775000Y-106875000I-100000J0D01*
G01*
X159500000Y-106875000D01*
G75*
G02*
X159400000Y-106775000I0J100000D01*
G01*
G37*
G36*
G01*
X159400000Y-106125000D02*
X159400000Y-105925000D01*
G75*
G02*
X159500000Y-105825000I100000J0D01*
G01*
X160775000Y-105825000D01*
G75*
G02*
X160875000Y-105925000I0J-100000D01*
G01*
X160875000Y-106125000D01*
G75*
G02*
X160775000Y-106225000I-100000J0D01*
G01*
X159500000Y-106225000D01*
G75*
G02*
X159400000Y-106125000I0J100000D01*
G01*
G37*
G36*
G01*
X159400000Y-105475000D02*
X159400000Y-105275000D01*
G75*
G02*
X159500000Y-105175000I100000J0D01*
G01*
X160775000Y-105175000D01*
G75*
G02*
X160875000Y-105275000I0J-100000D01*
G01*
X160875000Y-105475000D01*
G75*
G02*
X160775000Y-105575000I-100000J0D01*
G01*
X159500000Y-105575000D01*
G75*
G02*
X159400000Y-105475000I0J100000D01*
G01*
G37*
G36*
G01*
X159400000Y-104825000D02*
X159400000Y-104625000D01*
G75*
G02*
X159500000Y-104525000I100000J0D01*
G01*
X160775000Y-104525000D01*
G75*
G02*
X160875000Y-104625000I0J-100000D01*
G01*
X160875000Y-104825000D01*
G75*
G02*
X160775000Y-104925000I-100000J0D01*
G01*
X159500000Y-104925000D01*
G75*
G02*
X159400000Y-104825000I0J100000D01*
G01*
G37*
G36*
G01*
X159400000Y-104175000D02*
X159400000Y-103975000D01*
G75*
G02*
X159500000Y-103875000I100000J0D01*
G01*
X160775000Y-103875000D01*
G75*
G02*
X160875000Y-103975000I0J-100000D01*
G01*
X160875000Y-104175000D01*
G75*
G02*
X160775000Y-104275000I-100000J0D01*
G01*
X159500000Y-104275000D01*
G75*
G02*
X159400000Y-104175000I0J100000D01*
G01*
G37*
%TD*%
%TO.C,U1*%
G36*
G01*
X165125000Y-86175000D02*
X165125000Y-85975000D01*
G75*
G02*
X165225000Y-85875000I100000J0D01*
G01*
X166500000Y-85875000D01*
G75*
G02*
X166600000Y-85975000I0J-100000D01*
G01*
X166600000Y-86175000D01*
G75*
G02*
X166500000Y-86275000I-100000J0D01*
G01*
X165225000Y-86275000D01*
G75*
G02*
X165125000Y-86175000I0J100000D01*
G01*
G37*
G36*
G01*
X165125000Y-86825000D02*
X165125000Y-86625000D01*
G75*
G02*
X165225000Y-86525000I100000J0D01*
G01*
X166500000Y-86525000D01*
G75*
G02*
X166600000Y-86625000I0J-100000D01*
G01*
X166600000Y-86825000D01*
G75*
G02*
X166500000Y-86925000I-100000J0D01*
G01*
X165225000Y-86925000D01*
G75*
G02*
X165125000Y-86825000I0J100000D01*
G01*
G37*
G36*
G01*
X165125000Y-87475000D02*
X165125000Y-87275000D01*
G75*
G02*
X165225000Y-87175000I100000J0D01*
G01*
X166500000Y-87175000D01*
G75*
G02*
X166600000Y-87275000I0J-100000D01*
G01*
X166600000Y-87475000D01*
G75*
G02*
X166500000Y-87575000I-100000J0D01*
G01*
X165225000Y-87575000D01*
G75*
G02*
X165125000Y-87475000I0J100000D01*
G01*
G37*
G36*
G01*
X165125000Y-88125000D02*
X165125000Y-87925000D01*
G75*
G02*
X165225000Y-87825000I100000J0D01*
G01*
X166500000Y-87825000D01*
G75*
G02*
X166600000Y-87925000I0J-100000D01*
G01*
X166600000Y-88125000D01*
G75*
G02*
X166500000Y-88225000I-100000J0D01*
G01*
X165225000Y-88225000D01*
G75*
G02*
X165125000Y-88125000I0J100000D01*
G01*
G37*
G36*
G01*
X165125000Y-88775000D02*
X165125000Y-88575000D01*
G75*
G02*
X165225000Y-88475000I100000J0D01*
G01*
X166500000Y-88475000D01*
G75*
G02*
X166600000Y-88575000I0J-100000D01*
G01*
X166600000Y-88775000D01*
G75*
G02*
X166500000Y-88875000I-100000J0D01*
G01*
X165225000Y-88875000D01*
G75*
G02*
X165125000Y-88775000I0J100000D01*
G01*
G37*
G36*
G01*
X165125000Y-89425000D02*
X165125000Y-89225000D01*
G75*
G02*
X165225000Y-89125000I100000J0D01*
G01*
X166500000Y-89125000D01*
G75*
G02*
X166600000Y-89225000I0J-100000D01*
G01*
X166600000Y-89425000D01*
G75*
G02*
X166500000Y-89525000I-100000J0D01*
G01*
X165225000Y-89525000D01*
G75*
G02*
X165125000Y-89425000I0J100000D01*
G01*
G37*
G36*
G01*
X165125000Y-90075000D02*
X165125000Y-89875000D01*
G75*
G02*
X165225000Y-89775000I100000J0D01*
G01*
X166500000Y-89775000D01*
G75*
G02*
X166600000Y-89875000I0J-100000D01*
G01*
X166600000Y-90075000D01*
G75*
G02*
X166500000Y-90175000I-100000J0D01*
G01*
X165225000Y-90175000D01*
G75*
G02*
X165125000Y-90075000I0J100000D01*
G01*
G37*
G36*
G01*
X165125000Y-90725000D02*
X165125000Y-90525000D01*
G75*
G02*
X165225000Y-90425000I100000J0D01*
G01*
X166500000Y-90425000D01*
G75*
G02*
X166600000Y-90525000I0J-100000D01*
G01*
X166600000Y-90725000D01*
G75*
G02*
X166500000Y-90825000I-100000J0D01*
G01*
X165225000Y-90825000D01*
G75*
G02*
X165125000Y-90725000I0J100000D01*
G01*
G37*
G36*
G01*
X165125000Y-91375000D02*
X165125000Y-91175000D01*
G75*
G02*
X165225000Y-91075000I100000J0D01*
G01*
X166500000Y-91075000D01*
G75*
G02*
X166600000Y-91175000I0J-100000D01*
G01*
X166600000Y-91375000D01*
G75*
G02*
X166500000Y-91475000I-100000J0D01*
G01*
X165225000Y-91475000D01*
G75*
G02*
X165125000Y-91375000I0J100000D01*
G01*
G37*
G36*
G01*
X165125000Y-92025000D02*
X165125000Y-91825000D01*
G75*
G02*
X165225000Y-91725000I100000J0D01*
G01*
X166500000Y-91725000D01*
G75*
G02*
X166600000Y-91825000I0J-100000D01*
G01*
X166600000Y-92025000D01*
G75*
G02*
X166500000Y-92125000I-100000J0D01*
G01*
X165225000Y-92125000D01*
G75*
G02*
X165125000Y-92025000I0J100000D01*
G01*
G37*
G36*
G01*
X159400000Y-92025000D02*
X159400000Y-91825000D01*
G75*
G02*
X159500000Y-91725000I100000J0D01*
G01*
X160775000Y-91725000D01*
G75*
G02*
X160875000Y-91825000I0J-100000D01*
G01*
X160875000Y-92025000D01*
G75*
G02*
X160775000Y-92125000I-100000J0D01*
G01*
X159500000Y-92125000D01*
G75*
G02*
X159400000Y-92025000I0J100000D01*
G01*
G37*
G36*
G01*
X159400000Y-91375000D02*
X159400000Y-91175000D01*
G75*
G02*
X159500000Y-91075000I100000J0D01*
G01*
X160775000Y-91075000D01*
G75*
G02*
X160875000Y-91175000I0J-100000D01*
G01*
X160875000Y-91375000D01*
G75*
G02*
X160775000Y-91475000I-100000J0D01*
G01*
X159500000Y-91475000D01*
G75*
G02*
X159400000Y-91375000I0J100000D01*
G01*
G37*
G36*
G01*
X159400000Y-90725000D02*
X159400000Y-90525000D01*
G75*
G02*
X159500000Y-90425000I100000J0D01*
G01*
X160775000Y-90425000D01*
G75*
G02*
X160875000Y-90525000I0J-100000D01*
G01*
X160875000Y-90725000D01*
G75*
G02*
X160775000Y-90825000I-100000J0D01*
G01*
X159500000Y-90825000D01*
G75*
G02*
X159400000Y-90725000I0J100000D01*
G01*
G37*
G36*
G01*
X159400000Y-90075000D02*
X159400000Y-89875000D01*
G75*
G02*
X159500000Y-89775000I100000J0D01*
G01*
X160775000Y-89775000D01*
G75*
G02*
X160875000Y-89875000I0J-100000D01*
G01*
X160875000Y-90075000D01*
G75*
G02*
X160775000Y-90175000I-100000J0D01*
G01*
X159500000Y-90175000D01*
G75*
G02*
X159400000Y-90075000I0J100000D01*
G01*
G37*
G36*
G01*
X159400000Y-89425000D02*
X159400000Y-89225000D01*
G75*
G02*
X159500000Y-89125000I100000J0D01*
G01*
X160775000Y-89125000D01*
G75*
G02*
X160875000Y-89225000I0J-100000D01*
G01*
X160875000Y-89425000D01*
G75*
G02*
X160775000Y-89525000I-100000J0D01*
G01*
X159500000Y-89525000D01*
G75*
G02*
X159400000Y-89425000I0J100000D01*
G01*
G37*
G36*
G01*
X159400000Y-88775000D02*
X159400000Y-88575000D01*
G75*
G02*
X159500000Y-88475000I100000J0D01*
G01*
X160775000Y-88475000D01*
G75*
G02*
X160875000Y-88575000I0J-100000D01*
G01*
X160875000Y-88775000D01*
G75*
G02*
X160775000Y-88875000I-100000J0D01*
G01*
X159500000Y-88875000D01*
G75*
G02*
X159400000Y-88775000I0J100000D01*
G01*
G37*
G36*
G01*
X159400000Y-88125000D02*
X159400000Y-87925000D01*
G75*
G02*
X159500000Y-87825000I100000J0D01*
G01*
X160775000Y-87825000D01*
G75*
G02*
X160875000Y-87925000I0J-100000D01*
G01*
X160875000Y-88125000D01*
G75*
G02*
X160775000Y-88225000I-100000J0D01*
G01*
X159500000Y-88225000D01*
G75*
G02*
X159400000Y-88125000I0J100000D01*
G01*
G37*
G36*
G01*
X159400000Y-87475000D02*
X159400000Y-87275000D01*
G75*
G02*
X159500000Y-87175000I100000J0D01*
G01*
X160775000Y-87175000D01*
G75*
G02*
X160875000Y-87275000I0J-100000D01*
G01*
X160875000Y-87475000D01*
G75*
G02*
X160775000Y-87575000I-100000J0D01*
G01*
X159500000Y-87575000D01*
G75*
G02*
X159400000Y-87475000I0J100000D01*
G01*
G37*
G36*
G01*
X159400000Y-86825000D02*
X159400000Y-86625000D01*
G75*
G02*
X159500000Y-86525000I100000J0D01*
G01*
X160775000Y-86525000D01*
G75*
G02*
X160875000Y-86625000I0J-100000D01*
G01*
X160875000Y-86825000D01*
G75*
G02*
X160775000Y-86925000I-100000J0D01*
G01*
X159500000Y-86925000D01*
G75*
G02*
X159400000Y-86825000I0J100000D01*
G01*
G37*
G36*
G01*
X159400000Y-86175000D02*
X159400000Y-85975000D01*
G75*
G02*
X159500000Y-85875000I100000J0D01*
G01*
X160775000Y-85875000D01*
G75*
G02*
X160875000Y-85975000I0J-100000D01*
G01*
X160875000Y-86175000D01*
G75*
G02*
X160775000Y-86275000I-100000J0D01*
G01*
X159500000Y-86275000D01*
G75*
G02*
X159400000Y-86175000I0J100000D01*
G01*
G37*
%TD*%
%TO.C,C1*%
G36*
G01*
X129149999Y-90820000D02*
X131350001Y-90820000D01*
G75*
G02*
X131600000Y-91069999I0J-249999D01*
G01*
X131600000Y-91895001D01*
G75*
G02*
X131350001Y-92145000I-249999J0D01*
G01*
X129149999Y-92145000D01*
G75*
G02*
X128900000Y-91895001I0J249999D01*
G01*
X128900000Y-91069999D01*
G75*
G02*
X129149999Y-90820000I249999J0D01*
G01*
G37*
G36*
G01*
X129149999Y-87695000D02*
X131350001Y-87695000D01*
G75*
G02*
X131600000Y-87944999I0J-249999D01*
G01*
X131600000Y-88770001D01*
G75*
G02*
X131350001Y-89020000I-249999J0D01*
G01*
X129149999Y-89020000D01*
G75*
G02*
X128900000Y-88770001I0J249999D01*
G01*
X128900000Y-87944999D01*
G75*
G02*
X129149999Y-87695000I249999J0D01*
G01*
G37*
%TD*%
%TO.C,C2*%
G36*
G01*
X145179999Y-87645000D02*
X147380001Y-87645000D01*
G75*
G02*
X147630000Y-87894999I0J-249999D01*
G01*
X147630000Y-88720001D01*
G75*
G02*
X147380001Y-88970000I-249999J0D01*
G01*
X145179999Y-88970000D01*
G75*
G02*
X144930000Y-88720001I0J249999D01*
G01*
X144930000Y-87894999D01*
G75*
G02*
X145179999Y-87645000I249999J0D01*
G01*
G37*
G36*
G01*
X145179999Y-90770000D02*
X147380001Y-90770000D01*
G75*
G02*
X147630000Y-91019999I0J-249999D01*
G01*
X147630000Y-91845001D01*
G75*
G02*
X147380001Y-92095000I-249999J0D01*
G01*
X145179999Y-92095000D01*
G75*
G02*
X144930000Y-91845001I0J249999D01*
G01*
X144930000Y-91019999D01*
G75*
G02*
X145179999Y-90770000I249999J0D01*
G01*
G37*
%TD*%
%TO.C,C3*%
G36*
G01*
X170350001Y-83370000D02*
X168149999Y-83370000D01*
G75*
G02*
X167900000Y-83120001I0J249999D01*
G01*
X167900000Y-82294999D01*
G75*
G02*
X168149999Y-82045000I249999J0D01*
G01*
X170350001Y-82045000D01*
G75*
G02*
X170600000Y-82294999I0J-249999D01*
G01*
X170600000Y-83120001D01*
G75*
G02*
X170350001Y-83370000I-249999J0D01*
G01*
G37*
G36*
G01*
X170350001Y-86495000D02*
X168149999Y-86495000D01*
G75*
G02*
X167900000Y-86245001I0J249999D01*
G01*
X167900000Y-85419999D01*
G75*
G02*
X168149999Y-85170000I249999J0D01*
G01*
X170350001Y-85170000D01*
G75*
G02*
X170600000Y-85419999I0J-249999D01*
G01*
X170600000Y-86245001D01*
G75*
G02*
X170350001Y-86495000I-249999J0D01*
G01*
G37*
%TD*%
%TO.C,C4*%
G36*
G01*
X158050001Y-86485000D02*
X155849999Y-86485000D01*
G75*
G02*
X155600000Y-86235001I0J249999D01*
G01*
X155600000Y-85409999D01*
G75*
G02*
X155849999Y-85160000I249999J0D01*
G01*
X158050001Y-85160000D01*
G75*
G02*
X158300000Y-85409999I0J-249999D01*
G01*
X158300000Y-86235001D01*
G75*
G02*
X158050001Y-86485000I-249999J0D01*
G01*
G37*
G36*
G01*
X158050001Y-83360000D02*
X155849999Y-83360000D01*
G75*
G02*
X155600000Y-83110001I0J249999D01*
G01*
X155600000Y-82284999D01*
G75*
G02*
X155849999Y-82035000I249999J0D01*
G01*
X158050001Y-82035000D01*
G75*
G02*
X158300000Y-82284999I0J-249999D01*
G01*
X158300000Y-83110001D01*
G75*
G02*
X158050001Y-83360000I-249999J0D01*
G01*
G37*
%TD*%
%TO.C,C5*%
G36*
G01*
X170400001Y-100920000D02*
X168199999Y-100920000D01*
G75*
G02*
X167950000Y-100670001I0J249999D01*
G01*
X167950000Y-99844999D01*
G75*
G02*
X168199999Y-99595000I249999J0D01*
G01*
X170400001Y-99595000D01*
G75*
G02*
X170650000Y-99844999I0J-249999D01*
G01*
X170650000Y-100670001D01*
G75*
G02*
X170400001Y-100920000I-249999J0D01*
G01*
G37*
G36*
G01*
X170400001Y-104045000D02*
X168199999Y-104045000D01*
G75*
G02*
X167950000Y-103795001I0J249999D01*
G01*
X167950000Y-102969999D01*
G75*
G02*
X168199999Y-102720000I249999J0D01*
G01*
X170400001Y-102720000D01*
G75*
G02*
X170650000Y-102969999I0J-249999D01*
G01*
X170650000Y-103795001D01*
G75*
G02*
X170400001Y-104045000I-249999J0D01*
G01*
G37*
%TD*%
%TO.C,C6*%
G36*
G01*
X158000001Y-104065000D02*
X155799999Y-104065000D01*
G75*
G02*
X155550000Y-103815001I0J249999D01*
G01*
X155550000Y-102989999D01*
G75*
G02*
X155799999Y-102740000I249999J0D01*
G01*
X158000001Y-102740000D01*
G75*
G02*
X158250000Y-102989999I0J-249999D01*
G01*
X158250000Y-103815001D01*
G75*
G02*
X158000001Y-104065000I-249999J0D01*
G01*
G37*
G36*
G01*
X158000001Y-100940000D02*
X155799999Y-100940000D01*
G75*
G02*
X155550000Y-100690001I0J249999D01*
G01*
X155550000Y-99864999D01*
G75*
G02*
X155799999Y-99615000I249999J0D01*
G01*
X158000001Y-99615000D01*
G75*
G02*
X158250000Y-99864999I0J-249999D01*
G01*
X158250000Y-100690001D01*
G75*
G02*
X158000001Y-100940000I-249999J0D01*
G01*
G37*
%TD*%
%TO.C,C7*%
G36*
G01*
X170250001Y-118800000D02*
X168049999Y-118800000D01*
G75*
G02*
X167800000Y-118550001I0J249999D01*
G01*
X167800000Y-117724999D01*
G75*
G02*
X168049999Y-117475000I249999J0D01*
G01*
X170250001Y-117475000D01*
G75*
G02*
X170500000Y-117724999I0J-249999D01*
G01*
X170500000Y-118550001D01*
G75*
G02*
X170250001Y-118800000I-249999J0D01*
G01*
G37*
G36*
G01*
X170250001Y-121925000D02*
X168049999Y-121925000D01*
G75*
G02*
X167800000Y-121675001I0J249999D01*
G01*
X167800000Y-120849999D01*
G75*
G02*
X168049999Y-120600000I249999J0D01*
G01*
X170250001Y-120600000D01*
G75*
G02*
X170500000Y-120849999I0J-249999D01*
G01*
X170500000Y-121675001D01*
G75*
G02*
X170250001Y-121925000I-249999J0D01*
G01*
G37*
%TD*%
%TO.C,C8*%
G36*
G01*
X158000001Y-122125000D02*
X155799999Y-122125000D01*
G75*
G02*
X155550000Y-121875001I0J249999D01*
G01*
X155550000Y-121049999D01*
G75*
G02*
X155799999Y-120800000I249999J0D01*
G01*
X158000001Y-120800000D01*
G75*
G02*
X158250000Y-121049999I0J-249999D01*
G01*
X158250000Y-121875001D01*
G75*
G02*
X158000001Y-122125000I-249999J0D01*
G01*
G37*
G36*
G01*
X158000001Y-119000000D02*
X155799999Y-119000000D01*
G75*
G02*
X155550000Y-118750001I0J249999D01*
G01*
X155550000Y-117924999D01*
G75*
G02*
X155799999Y-117675000I249999J0D01*
G01*
X158000001Y-117675000D01*
G75*
G02*
X158250000Y-117924999I0J-249999D01*
G01*
X158250000Y-118750001D01*
G75*
G02*
X158000001Y-119000000I-249999J0D01*
G01*
G37*
%TD*%
%TO.C,C9*%
G36*
G01*
X171175000Y-83990001D02*
X171175000Y-81789999D01*
G75*
G02*
X171424999Y-81540000I249999J0D01*
G01*
X172250001Y-81540000D01*
G75*
G02*
X172500000Y-81789999I0J-249999D01*
G01*
X172500000Y-83990001D01*
G75*
G02*
X172250001Y-84240000I-249999J0D01*
G01*
X171424999Y-84240000D01*
G75*
G02*
X171175000Y-83990001I0J249999D01*
G01*
G37*
G36*
G01*
X174300000Y-83990001D02*
X174300000Y-81789999D01*
G75*
G02*
X174549999Y-81540000I249999J0D01*
G01*
X175375001Y-81540000D01*
G75*
G02*
X175625000Y-81789999I0J-249999D01*
G01*
X175625000Y-83990001D01*
G75*
G02*
X175375001Y-84240000I-249999J0D01*
G01*
X174549999Y-84240000D01*
G75*
G02*
X174300000Y-83990001I0J249999D01*
G01*
G37*
%TD*%
%TO.C,C10*%
G36*
G01*
X179449999Y-79460000D02*
X181650001Y-79460000D01*
G75*
G02*
X181900000Y-79709999I0J-249999D01*
G01*
X181900000Y-80535001D01*
G75*
G02*
X181650001Y-80785000I-249999J0D01*
G01*
X179449999Y-80785000D01*
G75*
G02*
X179200000Y-80535001I0J249999D01*
G01*
X179200000Y-79709999D01*
G75*
G02*
X179449999Y-79460000I249999J0D01*
G01*
G37*
G36*
G01*
X179449999Y-76335000D02*
X181650001Y-76335000D01*
G75*
G02*
X181900000Y-76584999I0J-249999D01*
G01*
X181900000Y-77410001D01*
G75*
G02*
X181650001Y-77660000I-249999J0D01*
G01*
X179449999Y-77660000D01*
G75*
G02*
X179200000Y-77410001I0J249999D01*
G01*
X179200000Y-76584999D01*
G75*
G02*
X179449999Y-76335000I249999J0D01*
G01*
G37*
%TD*%
%TO.C,R1*%
G36*
G01*
X158950000Y-95295000D02*
X158950000Y-93145000D01*
G75*
G02*
X159200000Y-92895000I250000J0D01*
G01*
X160000000Y-92895000D01*
G75*
G02*
X160250000Y-93145000I0J-250000D01*
G01*
X160250000Y-95295000D01*
G75*
G02*
X160000000Y-95545000I-250000J0D01*
G01*
X159200000Y-95545000D01*
G75*
G02*
X158950000Y-95295000I0J250000D01*
G01*
G37*
G36*
G01*
X155850000Y-95295000D02*
X155850000Y-93145000D01*
G75*
G02*
X156100000Y-92895000I250000J0D01*
G01*
X156900000Y-92895000D01*
G75*
G02*
X157150000Y-93145000I0J-250000D01*
G01*
X157150000Y-95295000D01*
G75*
G02*
X156900000Y-95545000I-250000J0D01*
G01*
X156100000Y-95545000D01*
G75*
G02*
X155850000Y-95295000I0J250000D01*
G01*
G37*
%TD*%
%TO.C,R2*%
G36*
G01*
X145635000Y-125170000D02*
X143485000Y-125170000D01*
G75*
G02*
X143235000Y-124920000I0J250000D01*
G01*
X143235000Y-124120000D01*
G75*
G02*
X143485000Y-123870000I250000J0D01*
G01*
X145635000Y-123870000D01*
G75*
G02*
X145885000Y-124120000I0J-250000D01*
G01*
X145885000Y-124920000D01*
G75*
G02*
X145635000Y-125170000I-250000J0D01*
G01*
G37*
G36*
G01*
X145635000Y-122070000D02*
X143485000Y-122070000D01*
G75*
G02*
X143235000Y-121820000I0J250000D01*
G01*
X143235000Y-121020000D01*
G75*
G02*
X143485000Y-120770000I250000J0D01*
G01*
X145635000Y-120770000D01*
G75*
G02*
X145885000Y-121020000I0J-250000D01*
G01*
X145885000Y-121820000D01*
G75*
G02*
X145635000Y-122070000I-250000J0D01*
G01*
G37*
%TD*%
%TO.C,R3*%
G36*
G01*
X155810000Y-113785000D02*
X155810000Y-111635000D01*
G75*
G02*
X156060000Y-111385000I250000J0D01*
G01*
X156860000Y-111385000D01*
G75*
G02*
X157110000Y-111635000I0J-250000D01*
G01*
X157110000Y-113785000D01*
G75*
G02*
X156860000Y-114035000I-250000J0D01*
G01*
X156060000Y-114035000D01*
G75*
G02*
X155810000Y-113785000I0J250000D01*
G01*
G37*
G36*
G01*
X158910000Y-113785000D02*
X158910000Y-111635000D01*
G75*
G02*
X159160000Y-111385000I250000J0D01*
G01*
X159960000Y-111385000D01*
G75*
G02*
X160210000Y-111635000I0J-250000D01*
G01*
X160210000Y-113785000D01*
G75*
G02*
X159960000Y-114035000I-250000J0D01*
G01*
X159160000Y-114035000D01*
G75*
G02*
X158910000Y-113785000I0J250000D01*
G01*
G37*
%TD*%
%TO.C,R4*%
G36*
G01*
X158980000Y-131445000D02*
X158980000Y-129295000D01*
G75*
G02*
X159230000Y-129045000I250000J0D01*
G01*
X160030000Y-129045000D01*
G75*
G02*
X160280000Y-129295000I0J-250000D01*
G01*
X160280000Y-131445000D01*
G75*
G02*
X160030000Y-131695000I-250000J0D01*
G01*
X159230000Y-131695000D01*
G75*
G02*
X158980000Y-131445000I0J250000D01*
G01*
G37*
G36*
G01*
X155880000Y-131445000D02*
X155880000Y-129295000D01*
G75*
G02*
X156130000Y-129045000I250000J0D01*
G01*
X156930000Y-129045000D01*
G75*
G02*
X157180000Y-129295000I0J-250000D01*
G01*
X157180000Y-131445000D01*
G75*
G02*
X156930000Y-131695000I-250000J0D01*
G01*
X156130000Y-131695000D01*
G75*
G02*
X155880000Y-131445000I0J250000D01*
G01*
G37*
%TD*%
%TO.C,R5*%
G36*
G01*
X174340000Y-87125000D02*
X174340000Y-84975000D01*
G75*
G02*
X174590000Y-84725000I250000J0D01*
G01*
X175390000Y-84725000D01*
G75*
G02*
X175640000Y-84975000I0J-250000D01*
G01*
X175640000Y-87125000D01*
G75*
G02*
X175390000Y-87375000I-250000J0D01*
G01*
X174590000Y-87375000D01*
G75*
G02*
X174340000Y-87125000I0J250000D01*
G01*
G37*
G36*
G01*
X171240000Y-87125000D02*
X171240000Y-84975000D01*
G75*
G02*
X171490000Y-84725000I250000J0D01*
G01*
X172290000Y-84725000D01*
G75*
G02*
X172540000Y-84975000I0J-250000D01*
G01*
X172540000Y-87125000D01*
G75*
G02*
X172290000Y-87375000I-250000J0D01*
G01*
X171490000Y-87375000D01*
G75*
G02*
X171240000Y-87125000I0J250000D01*
G01*
G37*
%TD*%
%TO.C,R6*%
G36*
G01*
X182830000Y-82885000D02*
X182830000Y-85035000D01*
G75*
G02*
X182580000Y-85285000I-250000J0D01*
G01*
X181780000Y-85285000D01*
G75*
G02*
X181530000Y-85035000I0J250000D01*
G01*
X181530000Y-82885000D01*
G75*
G02*
X181780000Y-82635000I250000J0D01*
G01*
X182580000Y-82635000D01*
G75*
G02*
X182830000Y-82885000I0J-250000D01*
G01*
G37*
G36*
G01*
X179730000Y-82885000D02*
X179730000Y-85035000D01*
G75*
G02*
X179480000Y-85285000I-250000J0D01*
G01*
X178680000Y-85285000D01*
G75*
G02*
X178430000Y-85035000I0J250000D01*
G01*
X178430000Y-82885000D01*
G75*
G02*
X178680000Y-82635000I250000J0D01*
G01*
X179480000Y-82635000D01*
G75*
G02*
X179730000Y-82885000I0J-250000D01*
G01*
G37*
%TD*%
%TO.C,R7*%
G36*
G01*
X178420000Y-96515000D02*
X178420000Y-94365000D01*
G75*
G02*
X178670000Y-94115000I250000J0D01*
G01*
X179470000Y-94115000D01*
G75*
G02*
X179720000Y-94365000I0J-250000D01*
G01*
X179720000Y-96515000D01*
G75*
G02*
X179470000Y-96765000I-250000J0D01*
G01*
X178670000Y-96765000D01*
G75*
G02*
X178420000Y-96515000I0J250000D01*
G01*
G37*
G36*
G01*
X175320000Y-96515000D02*
X175320000Y-94365000D01*
G75*
G02*
X175570000Y-94115000I250000J0D01*
G01*
X176370000Y-94115000D01*
G75*
G02*
X176620000Y-94365000I0J-250000D01*
G01*
X176620000Y-96515000D01*
G75*
G02*
X176370000Y-96765000I-250000J0D01*
G01*
X175570000Y-96765000D01*
G75*
G02*
X175320000Y-96515000I0J250000D01*
G01*
G37*
%TD*%
%TO.C,R8*%
G36*
G01*
X175370000Y-92515000D02*
X175370000Y-90365000D01*
G75*
G02*
X175620000Y-90115000I250000J0D01*
G01*
X176420000Y-90115000D01*
G75*
G02*
X176670000Y-90365000I0J-250000D01*
G01*
X176670000Y-92515000D01*
G75*
G02*
X176420000Y-92765000I-250000J0D01*
G01*
X175620000Y-92765000D01*
G75*
G02*
X175370000Y-92515000I0J250000D01*
G01*
G37*
G36*
G01*
X178470000Y-92515000D02*
X178470000Y-90365000D01*
G75*
G02*
X178720000Y-90115000I250000J0D01*
G01*
X179520000Y-90115000D01*
G75*
G02*
X179770000Y-90365000I0J-250000D01*
G01*
X179770000Y-92515000D01*
G75*
G02*
X179520000Y-92765000I-250000J0D01*
G01*
X178720000Y-92765000D01*
G75*
G02*
X178470000Y-92515000I0J250000D01*
G01*
G37*
%TD*%
M02*
