%TF.GenerationSoftware,KiCad,Pcbnew,5.1.9+dfsg1-1+deb11u1*%
%TF.CreationDate,2025-09-19T12:14:10+02:00*%
%TF.ProjectId,ESP32-BOBOARD-5V,45535033-322d-4424-9f42-4f4152442d35,rev?*%
%TF.SameCoordinates,Original*%
%TF.FileFunction,Soldermask,Top*%
%TF.FilePolarity,Negative*%
%FSLAX46Y46*%
G04 Gerber Fmt 4.6, Leading zero omitted, Abs format (unit mm)*
G04 Created by KiCad (PCBNEW 5.1.9+dfsg1-1+deb11u1) date 2025-09-19 12:14:10*
%MOMM*%
%LPD*%
G01*
G04 APERTURE LIST*
%ADD10O,1.900000X1.900000*%
%ADD11O,1.404000X2.604000*%
%ADD12O,1.362000X2.520000*%
%ADD13C,0.830000*%
%ADD14C,0.800000*%
G04 APERTURE END LIST*
%TO.C,SW1*%
G36*
G01*
X186025000Y-78255000D02*
X186025000Y-79015000D01*
G75*
G02*
X185925000Y-79115000I-100000J0D01*
G01*
X184675000Y-79115000D01*
G75*
G02*
X184575000Y-79015000I0J100000D01*
G01*
X184575000Y-78255000D01*
G75*
G02*
X184675000Y-78155000I100000J0D01*
G01*
X185925000Y-78155000D01*
G75*
G02*
X186025000Y-78255000I0J-100000D01*
G01*
G37*
G36*
G01*
X193625000Y-76985000D02*
X193625000Y-77745000D01*
G75*
G02*
X193525000Y-77845000I-100000J0D01*
G01*
X192275000Y-77845000D01*
G75*
G02*
X192175000Y-77745000I0J100000D01*
G01*
X192175000Y-76985000D01*
G75*
G02*
X192275000Y-76885000I100000J0D01*
G01*
X193525000Y-76885000D01*
G75*
G02*
X193625000Y-76985000I0J-100000D01*
G01*
G37*
G36*
G01*
X186025000Y-76985000D02*
X186025000Y-77745000D01*
G75*
G02*
X185925000Y-77845000I-100000J0D01*
G01*
X184675000Y-77845000D01*
G75*
G02*
X184575000Y-77745000I0J100000D01*
G01*
X184575000Y-76985000D01*
G75*
G02*
X184675000Y-76885000I100000J0D01*
G01*
X185925000Y-76885000D01*
G75*
G02*
X186025000Y-76985000I0J-100000D01*
G01*
G37*
G36*
G01*
X193625000Y-78255000D02*
X193625000Y-79015000D01*
G75*
G02*
X193525000Y-79115000I-100000J0D01*
G01*
X192275000Y-79115000D01*
G75*
G02*
X192175000Y-79015000I0J100000D01*
G01*
X192175000Y-78255000D01*
G75*
G02*
X192275000Y-78155000I100000J0D01*
G01*
X193525000Y-78155000D01*
G75*
G02*
X193625000Y-78255000I0J-100000D01*
G01*
G37*
%TD*%
D10*
%TO.C,J2*%
X150370000Y-124710000D03*
X150370000Y-122170000D03*
X150370000Y-119630000D03*
X150370000Y-117090000D03*
X150370000Y-114550000D03*
X150370000Y-112010000D03*
X150370000Y-109470000D03*
X150370000Y-106930000D03*
X150370000Y-104390000D03*
X150370000Y-101850000D03*
X150370000Y-99310000D03*
X150370000Y-96770000D03*
X150370000Y-94230000D03*
X150370000Y-91690000D03*
G36*
G01*
X149420000Y-90000000D02*
X149420000Y-88300000D01*
G75*
G02*
X149520000Y-88200000I100000J0D01*
G01*
X151220000Y-88200000D01*
G75*
G02*
X151320000Y-88300000I0J-100000D01*
G01*
X151320000Y-90000000D01*
G75*
G02*
X151220000Y-90100000I-100000J0D01*
G01*
X149520000Y-90100000D01*
G75*
G02*
X149420000Y-90000000I0J100000D01*
G01*
G37*
%TD*%
%TO.C,J1*%
X124980000Y-124710000D03*
X124980000Y-122170000D03*
X124980000Y-119630000D03*
X124980000Y-117090000D03*
X124980000Y-114550000D03*
X124980000Y-112010000D03*
X124980000Y-109470000D03*
X124980000Y-106930000D03*
X124980000Y-104390000D03*
X124980000Y-101850000D03*
X124980000Y-99310000D03*
X124980000Y-96770000D03*
X124980000Y-94230000D03*
X124980000Y-91690000D03*
G36*
G01*
X124030000Y-90000000D02*
X124030000Y-88300000D01*
G75*
G02*
X124130000Y-88200000I100000J0D01*
G01*
X125830000Y-88200000D01*
G75*
G02*
X125930000Y-88300000I0J-100000D01*
G01*
X125930000Y-90000000D01*
G75*
G02*
X125830000Y-90100000I-100000J0D01*
G01*
X124130000Y-90100000D01*
G75*
G02*
X124030000Y-90000000I0J100000D01*
G01*
G37*
%TD*%
%TO.C,J4*%
G36*
G01*
X157400000Y-78500000D02*
X156400000Y-78500000D01*
G75*
G02*
X156300000Y-78400000I0J100000D01*
G01*
X156300000Y-75890000D01*
G75*
G02*
X156400000Y-75790000I100000J0D01*
G01*
X157400000Y-75790000D01*
G75*
G02*
X157500000Y-75890000I0J-100000D01*
G01*
X157500000Y-78400000D01*
G75*
G02*
X157400000Y-78500000I-100000J0D01*
G01*
G37*
G36*
G01*
X159940000Y-81810000D02*
X158940000Y-81810000D01*
G75*
G02*
X158840000Y-81710000I0J100000D01*
G01*
X158840000Y-79200000D01*
G75*
G02*
X158940000Y-79100000I100000J0D01*
G01*
X159940000Y-79100000D01*
G75*
G02*
X160040000Y-79200000I0J-100000D01*
G01*
X160040000Y-81710000D01*
G75*
G02*
X159940000Y-81810000I-100000J0D01*
G01*
G37*
G36*
G01*
X154860000Y-81810000D02*
X153860000Y-81810000D01*
G75*
G02*
X153760000Y-81710000I0J100000D01*
G01*
X153760000Y-79200000D01*
G75*
G02*
X153860000Y-79100000I100000J0D01*
G01*
X154860000Y-79100000D01*
G75*
G02*
X154960000Y-79200000I0J-100000D01*
G01*
X154960000Y-81710000D01*
G75*
G02*
X154860000Y-81810000I-100000J0D01*
G01*
G37*
%TD*%
%TO.C,J3*%
G36*
G01*
X211180000Y-124800000D02*
X211180000Y-123800000D01*
G75*
G02*
X211280000Y-123700000I100000J0D01*
G01*
X214430000Y-123700000D01*
G75*
G02*
X214530000Y-123800000I0J-100000D01*
G01*
X214530000Y-124800000D01*
G75*
G02*
X214430000Y-124900000I-100000J0D01*
G01*
X211280000Y-124900000D01*
G75*
G02*
X211180000Y-124800000I0J100000D01*
G01*
G37*
G36*
G01*
X206130000Y-124800000D02*
X206130000Y-123800000D01*
G75*
G02*
X206230000Y-123700000I100000J0D01*
G01*
X209380000Y-123700000D01*
G75*
G02*
X209480000Y-123800000I0J-100000D01*
G01*
X209480000Y-124800000D01*
G75*
G02*
X209380000Y-124900000I-100000J0D01*
G01*
X206230000Y-124900000D01*
G75*
G02*
X206130000Y-124800000I0J100000D01*
G01*
G37*
G36*
G01*
X211180000Y-122260000D02*
X211180000Y-121260000D01*
G75*
G02*
X211280000Y-121160000I100000J0D01*
G01*
X214430000Y-121160000D01*
G75*
G02*
X214530000Y-121260000I0J-100000D01*
G01*
X214530000Y-122260000D01*
G75*
G02*
X214430000Y-122360000I-100000J0D01*
G01*
X211280000Y-122360000D01*
G75*
G02*
X211180000Y-122260000I0J100000D01*
G01*
G37*
G36*
G01*
X206130000Y-122260000D02*
X206130000Y-121260000D01*
G75*
G02*
X206230000Y-121160000I100000J0D01*
G01*
X209380000Y-121160000D01*
G75*
G02*
X209480000Y-121260000I0J-100000D01*
G01*
X209480000Y-122260000D01*
G75*
G02*
X209380000Y-122360000I-100000J0D01*
G01*
X206230000Y-122360000D01*
G75*
G02*
X206130000Y-122260000I0J100000D01*
G01*
G37*
G36*
G01*
X211180000Y-119720000D02*
X211180000Y-118720000D01*
G75*
G02*
X211280000Y-118620000I100000J0D01*
G01*
X214430000Y-118620000D01*
G75*
G02*
X214530000Y-118720000I0J-100000D01*
G01*
X214530000Y-119720000D01*
G75*
G02*
X214430000Y-119820000I-100000J0D01*
G01*
X211280000Y-119820000D01*
G75*
G02*
X211180000Y-119720000I0J100000D01*
G01*
G37*
G36*
G01*
X206130000Y-119720000D02*
X206130000Y-118720000D01*
G75*
G02*
X206230000Y-118620000I100000J0D01*
G01*
X209380000Y-118620000D01*
G75*
G02*
X209480000Y-118720000I0J-100000D01*
G01*
X209480000Y-119720000D01*
G75*
G02*
X209380000Y-119820000I-100000J0D01*
G01*
X206230000Y-119820000D01*
G75*
G02*
X206130000Y-119720000I0J100000D01*
G01*
G37*
G36*
G01*
X211180000Y-117180000D02*
X211180000Y-116180000D01*
G75*
G02*
X211280000Y-116080000I100000J0D01*
G01*
X214430000Y-116080000D01*
G75*
G02*
X214530000Y-116180000I0J-100000D01*
G01*
X214530000Y-117180000D01*
G75*
G02*
X214430000Y-117280000I-100000J0D01*
G01*
X211280000Y-117280000D01*
G75*
G02*
X211180000Y-117180000I0J100000D01*
G01*
G37*
G36*
G01*
X206130000Y-117180000D02*
X206130000Y-116180000D01*
G75*
G02*
X206230000Y-116080000I100000J0D01*
G01*
X209380000Y-116080000D01*
G75*
G02*
X209480000Y-116180000I0J-100000D01*
G01*
X209480000Y-117180000D01*
G75*
G02*
X209380000Y-117280000I-100000J0D01*
G01*
X206230000Y-117280000D01*
G75*
G02*
X206130000Y-117180000I0J100000D01*
G01*
G37*
G36*
G01*
X211180000Y-114640000D02*
X211180000Y-113640000D01*
G75*
G02*
X211280000Y-113540000I100000J0D01*
G01*
X214430000Y-113540000D01*
G75*
G02*
X214530000Y-113640000I0J-100000D01*
G01*
X214530000Y-114640000D01*
G75*
G02*
X214430000Y-114740000I-100000J0D01*
G01*
X211280000Y-114740000D01*
G75*
G02*
X211180000Y-114640000I0J100000D01*
G01*
G37*
G36*
G01*
X206130000Y-114640000D02*
X206130000Y-113640000D01*
G75*
G02*
X206230000Y-113540000I100000J0D01*
G01*
X209380000Y-113540000D01*
G75*
G02*
X209480000Y-113640000I0J-100000D01*
G01*
X209480000Y-114640000D01*
G75*
G02*
X209380000Y-114740000I-100000J0D01*
G01*
X206230000Y-114740000D01*
G75*
G02*
X206130000Y-114640000I0J100000D01*
G01*
G37*
G36*
G01*
X211180000Y-112100000D02*
X211180000Y-111100000D01*
G75*
G02*
X211280000Y-111000000I100000J0D01*
G01*
X214430000Y-111000000D01*
G75*
G02*
X214530000Y-111100000I0J-100000D01*
G01*
X214530000Y-112100000D01*
G75*
G02*
X214430000Y-112200000I-100000J0D01*
G01*
X211280000Y-112200000D01*
G75*
G02*
X211180000Y-112100000I0J100000D01*
G01*
G37*
G36*
G01*
X206130000Y-112100000D02*
X206130000Y-111100000D01*
G75*
G02*
X206230000Y-111000000I100000J0D01*
G01*
X209380000Y-111000000D01*
G75*
G02*
X209480000Y-111100000I0J-100000D01*
G01*
X209480000Y-112100000D01*
G75*
G02*
X209380000Y-112200000I-100000J0D01*
G01*
X206230000Y-112200000D01*
G75*
G02*
X206130000Y-112100000I0J100000D01*
G01*
G37*
G36*
G01*
X211180000Y-109560000D02*
X211180000Y-108560000D01*
G75*
G02*
X211280000Y-108460000I100000J0D01*
G01*
X214430000Y-108460000D01*
G75*
G02*
X214530000Y-108560000I0J-100000D01*
G01*
X214530000Y-109560000D01*
G75*
G02*
X214430000Y-109660000I-100000J0D01*
G01*
X211280000Y-109660000D01*
G75*
G02*
X211180000Y-109560000I0J100000D01*
G01*
G37*
G36*
G01*
X206130000Y-109560000D02*
X206130000Y-108560000D01*
G75*
G02*
X206230000Y-108460000I100000J0D01*
G01*
X209380000Y-108460000D01*
G75*
G02*
X209480000Y-108560000I0J-100000D01*
G01*
X209480000Y-109560000D01*
G75*
G02*
X209380000Y-109660000I-100000J0D01*
G01*
X206230000Y-109660000D01*
G75*
G02*
X206130000Y-109560000I0J100000D01*
G01*
G37*
G36*
G01*
X211180000Y-107020000D02*
X211180000Y-106020000D01*
G75*
G02*
X211280000Y-105920000I100000J0D01*
G01*
X214430000Y-105920000D01*
G75*
G02*
X214530000Y-106020000I0J-100000D01*
G01*
X214530000Y-107020000D01*
G75*
G02*
X214430000Y-107120000I-100000J0D01*
G01*
X211280000Y-107120000D01*
G75*
G02*
X211180000Y-107020000I0J100000D01*
G01*
G37*
G36*
G01*
X206130000Y-107020000D02*
X206130000Y-106020000D01*
G75*
G02*
X206230000Y-105920000I100000J0D01*
G01*
X209380000Y-105920000D01*
G75*
G02*
X209480000Y-106020000I0J-100000D01*
G01*
X209480000Y-107020000D01*
G75*
G02*
X209380000Y-107120000I-100000J0D01*
G01*
X206230000Y-107120000D01*
G75*
G02*
X206130000Y-107020000I0J100000D01*
G01*
G37*
G36*
G01*
X211180000Y-104480000D02*
X211180000Y-103480000D01*
G75*
G02*
X211280000Y-103380000I100000J0D01*
G01*
X214430000Y-103380000D01*
G75*
G02*
X214530000Y-103480000I0J-100000D01*
G01*
X214530000Y-104480000D01*
G75*
G02*
X214430000Y-104580000I-100000J0D01*
G01*
X211280000Y-104580000D01*
G75*
G02*
X211180000Y-104480000I0J100000D01*
G01*
G37*
G36*
G01*
X206130000Y-104480000D02*
X206130000Y-103480000D01*
G75*
G02*
X206230000Y-103380000I100000J0D01*
G01*
X209380000Y-103380000D01*
G75*
G02*
X209480000Y-103480000I0J-100000D01*
G01*
X209480000Y-104480000D01*
G75*
G02*
X209380000Y-104580000I-100000J0D01*
G01*
X206230000Y-104580000D01*
G75*
G02*
X206130000Y-104480000I0J100000D01*
G01*
G37*
G36*
G01*
X211180000Y-101940000D02*
X211180000Y-100940000D01*
G75*
G02*
X211280000Y-100840000I100000J0D01*
G01*
X214430000Y-100840000D01*
G75*
G02*
X214530000Y-100940000I0J-100000D01*
G01*
X214530000Y-101940000D01*
G75*
G02*
X214430000Y-102040000I-100000J0D01*
G01*
X211280000Y-102040000D01*
G75*
G02*
X211180000Y-101940000I0J100000D01*
G01*
G37*
G36*
G01*
X206130000Y-101940000D02*
X206130000Y-100940000D01*
G75*
G02*
X206230000Y-100840000I100000J0D01*
G01*
X209380000Y-100840000D01*
G75*
G02*
X209480000Y-100940000I0J-100000D01*
G01*
X209480000Y-101940000D01*
G75*
G02*
X209380000Y-102040000I-100000J0D01*
G01*
X206230000Y-102040000D01*
G75*
G02*
X206130000Y-101940000I0J100000D01*
G01*
G37*
G36*
G01*
X211180000Y-99400000D02*
X211180000Y-98400000D01*
G75*
G02*
X211280000Y-98300000I100000J0D01*
G01*
X214430000Y-98300000D01*
G75*
G02*
X214530000Y-98400000I0J-100000D01*
G01*
X214530000Y-99400000D01*
G75*
G02*
X214430000Y-99500000I-100000J0D01*
G01*
X211280000Y-99500000D01*
G75*
G02*
X211180000Y-99400000I0J100000D01*
G01*
G37*
G36*
G01*
X206130000Y-99400000D02*
X206130000Y-98400000D01*
G75*
G02*
X206230000Y-98300000I100000J0D01*
G01*
X209380000Y-98300000D01*
G75*
G02*
X209480000Y-98400000I0J-100000D01*
G01*
X209480000Y-99400000D01*
G75*
G02*
X209380000Y-99500000I-100000J0D01*
G01*
X206230000Y-99500000D01*
G75*
G02*
X206130000Y-99400000I0J100000D01*
G01*
G37*
G36*
G01*
X211180000Y-96860000D02*
X211180000Y-95860000D01*
G75*
G02*
X211280000Y-95760000I100000J0D01*
G01*
X214430000Y-95760000D01*
G75*
G02*
X214530000Y-95860000I0J-100000D01*
G01*
X214530000Y-96860000D01*
G75*
G02*
X214430000Y-96960000I-100000J0D01*
G01*
X211280000Y-96960000D01*
G75*
G02*
X211180000Y-96860000I0J100000D01*
G01*
G37*
G36*
G01*
X206130000Y-96860000D02*
X206130000Y-95860000D01*
G75*
G02*
X206230000Y-95760000I100000J0D01*
G01*
X209380000Y-95760000D01*
G75*
G02*
X209480000Y-95860000I0J-100000D01*
G01*
X209480000Y-96860000D01*
G75*
G02*
X209380000Y-96960000I-100000J0D01*
G01*
X206230000Y-96960000D01*
G75*
G02*
X206130000Y-96860000I0J100000D01*
G01*
G37*
G36*
G01*
X211180000Y-94320000D02*
X211180000Y-93320000D01*
G75*
G02*
X211280000Y-93220000I100000J0D01*
G01*
X214430000Y-93220000D01*
G75*
G02*
X214530000Y-93320000I0J-100000D01*
G01*
X214530000Y-94320000D01*
G75*
G02*
X214430000Y-94420000I-100000J0D01*
G01*
X211280000Y-94420000D01*
G75*
G02*
X211180000Y-94320000I0J100000D01*
G01*
G37*
G36*
G01*
X206130000Y-94320000D02*
X206130000Y-93320000D01*
G75*
G02*
X206230000Y-93220000I100000J0D01*
G01*
X209380000Y-93220000D01*
G75*
G02*
X209480000Y-93320000I0J-100000D01*
G01*
X209480000Y-94320000D01*
G75*
G02*
X209380000Y-94420000I-100000J0D01*
G01*
X206230000Y-94420000D01*
G75*
G02*
X206130000Y-94320000I0J100000D01*
G01*
G37*
G36*
G01*
X211180000Y-91780000D02*
X211180000Y-90780000D01*
G75*
G02*
X211280000Y-90680000I100000J0D01*
G01*
X214430000Y-90680000D01*
G75*
G02*
X214530000Y-90780000I0J-100000D01*
G01*
X214530000Y-91780000D01*
G75*
G02*
X214430000Y-91880000I-100000J0D01*
G01*
X211280000Y-91880000D01*
G75*
G02*
X211180000Y-91780000I0J100000D01*
G01*
G37*
G36*
G01*
X206130000Y-91780000D02*
X206130000Y-90780000D01*
G75*
G02*
X206230000Y-90680000I100000J0D01*
G01*
X209380000Y-90680000D01*
G75*
G02*
X209480000Y-90780000I0J-100000D01*
G01*
X209480000Y-91780000D01*
G75*
G02*
X209380000Y-91880000I-100000J0D01*
G01*
X206230000Y-91880000D01*
G75*
G02*
X206130000Y-91780000I0J100000D01*
G01*
G37*
G36*
G01*
X211180000Y-89240000D02*
X211180000Y-88240000D01*
G75*
G02*
X211280000Y-88140000I100000J0D01*
G01*
X214430000Y-88140000D01*
G75*
G02*
X214530000Y-88240000I0J-100000D01*
G01*
X214530000Y-89240000D01*
G75*
G02*
X214430000Y-89340000I-100000J0D01*
G01*
X211280000Y-89340000D01*
G75*
G02*
X211180000Y-89240000I0J100000D01*
G01*
G37*
G36*
G01*
X206130000Y-89240000D02*
X206130000Y-88240000D01*
G75*
G02*
X206230000Y-88140000I100000J0D01*
G01*
X209380000Y-88140000D01*
G75*
G02*
X209480000Y-88240000I0J-100000D01*
G01*
X209480000Y-89240000D01*
G75*
G02*
X209380000Y-89340000I-100000J0D01*
G01*
X206230000Y-89340000D01*
G75*
G02*
X206130000Y-89240000I0J100000D01*
G01*
G37*
G36*
G01*
X211180000Y-86700000D02*
X211180000Y-85700000D01*
G75*
G02*
X211280000Y-85600000I100000J0D01*
G01*
X214430000Y-85600000D01*
G75*
G02*
X214530000Y-85700000I0J-100000D01*
G01*
X214530000Y-86700000D01*
G75*
G02*
X214430000Y-86800000I-100000J0D01*
G01*
X211280000Y-86800000D01*
G75*
G02*
X211180000Y-86700000I0J100000D01*
G01*
G37*
G36*
G01*
X206130000Y-86700000D02*
X206130000Y-85700000D01*
G75*
G02*
X206230000Y-85600000I100000J0D01*
G01*
X209380000Y-85600000D01*
G75*
G02*
X209480000Y-85700000I0J-100000D01*
G01*
X209480000Y-86700000D01*
G75*
G02*
X209380000Y-86800000I-100000J0D01*
G01*
X206230000Y-86800000D01*
G75*
G02*
X206130000Y-86700000I0J100000D01*
G01*
G37*
%TD*%
D11*
%TO.C,J5*%
X167980000Y-76000000D03*
X176620000Y-76000000D03*
D12*
X167980000Y-79825000D03*
X176620000Y-79825000D03*
D13*
X175300000Y-79100000D03*
G36*
G01*
X171502000Y-75000000D02*
X171502000Y-77000000D01*
G75*
G02*
X171400000Y-77102000I-102000J0D01*
G01*
X170400000Y-77102000D01*
G75*
G02*
X170298000Y-77000000I0J102000D01*
G01*
X170298000Y-75000000D01*
G75*
G02*
X170400000Y-74898000I102000J0D01*
G01*
X171400000Y-74898000D01*
G75*
G02*
X171502000Y-75000000I0J-102000D01*
G01*
G37*
G36*
G01*
X174302000Y-75000000D02*
X174302000Y-77000000D01*
G75*
G02*
X174200000Y-77102000I-102000J0D01*
G01*
X173200000Y-77102000D01*
G75*
G02*
X173098000Y-77000000I0J102000D01*
G01*
X173098000Y-75000000D01*
G75*
G02*
X173200000Y-74898000I102000J0D01*
G01*
X174200000Y-74898000D01*
G75*
G02*
X174302000Y-75000000I0J-102000D01*
G01*
G37*
X169300000Y-79100000D03*
D14*
X169300000Y-79100000D03*
G36*
G01*
X171287000Y-79700000D02*
X171287000Y-80700000D01*
G75*
G02*
X171185000Y-80802000I-102000J0D01*
G01*
X170915000Y-80802000D01*
G75*
G02*
X170813000Y-80700000I0J102000D01*
G01*
X170813000Y-79700000D01*
G75*
G02*
X170915000Y-79598000I102000J0D01*
G01*
X171185000Y-79598000D01*
G75*
G02*
X171287000Y-79700000I0J-102000D01*
G01*
G37*
G36*
G01*
X171787000Y-79700000D02*
X171787000Y-80700000D01*
G75*
G02*
X171685000Y-80802000I-102000J0D01*
G01*
X171415000Y-80802000D01*
G75*
G02*
X171313000Y-80700000I0J102000D01*
G01*
X171313000Y-79700000D01*
G75*
G02*
X171415000Y-79598000I102000J0D01*
G01*
X171685000Y-79598000D01*
G75*
G02*
X171787000Y-79700000I0J-102000D01*
G01*
G37*
G36*
G01*
X172287000Y-79700000D02*
X172287000Y-80700000D01*
G75*
G02*
X172185000Y-80802000I-102000J0D01*
G01*
X171915000Y-80802000D01*
G75*
G02*
X171813000Y-80700000I0J102000D01*
G01*
X171813000Y-79700000D01*
G75*
G02*
X171915000Y-79598000I102000J0D01*
G01*
X172185000Y-79598000D01*
G75*
G02*
X172287000Y-79700000I0J-102000D01*
G01*
G37*
G36*
G01*
X172787000Y-79700000D02*
X172787000Y-80700000D01*
G75*
G02*
X172685000Y-80802000I-102000J0D01*
G01*
X172415000Y-80802000D01*
G75*
G02*
X172313000Y-80700000I0J102000D01*
G01*
X172313000Y-79700000D01*
G75*
G02*
X172415000Y-79598000I102000J0D01*
G01*
X172685000Y-79598000D01*
G75*
G02*
X172787000Y-79700000I0J-102000D01*
G01*
G37*
G36*
G01*
X173287000Y-79700000D02*
X173287000Y-80700000D01*
G75*
G02*
X173185000Y-80802000I-102000J0D01*
G01*
X172915000Y-80802000D01*
G75*
G02*
X172813000Y-80700000I0J102000D01*
G01*
X172813000Y-79700000D01*
G75*
G02*
X172915000Y-79598000I102000J0D01*
G01*
X173185000Y-79598000D01*
G75*
G02*
X173287000Y-79700000I0J-102000D01*
G01*
G37*
G36*
G01*
X173787000Y-79700000D02*
X173787000Y-80700000D01*
G75*
G02*
X173685000Y-80802000I-102000J0D01*
G01*
X173415000Y-80802000D01*
G75*
G02*
X173313000Y-80700000I0J102000D01*
G01*
X173313000Y-79700000D01*
G75*
G02*
X173415000Y-79598000I102000J0D01*
G01*
X173685000Y-79598000D01*
G75*
G02*
X173787000Y-79700000I0J-102000D01*
G01*
G37*
G36*
G01*
X170787000Y-79700000D02*
X170787000Y-80700000D01*
G75*
G02*
X170685000Y-80802000I-102000J0D01*
G01*
X170415000Y-80802000D01*
G75*
G02*
X170313000Y-80700000I0J102000D01*
G01*
X170313000Y-79700000D01*
G75*
G02*
X170415000Y-79598000I102000J0D01*
G01*
X170685000Y-79598000D01*
G75*
G02*
X170787000Y-79700000I0J-102000D01*
G01*
G37*
G36*
G01*
X174287000Y-79700000D02*
X174287000Y-80700000D01*
G75*
G02*
X174185000Y-80802000I-102000J0D01*
G01*
X173915000Y-80802000D01*
G75*
G02*
X173813000Y-80700000I0J102000D01*
G01*
X173813000Y-79700000D01*
G75*
G02*
X173915000Y-79598000I102000J0D01*
G01*
X174185000Y-79598000D01*
G75*
G02*
X174287000Y-79700000I0J-102000D01*
G01*
G37*
G36*
G01*
X170312000Y-79700000D02*
X170312000Y-80700000D01*
G75*
G02*
X170210000Y-80802000I-102000J0D01*
G01*
X169690000Y-80802000D01*
G75*
G02*
X169588000Y-80700000I0J102000D01*
G01*
X169588000Y-79700000D01*
G75*
G02*
X169690000Y-79598000I102000J0D01*
G01*
X170210000Y-79598000D01*
G75*
G02*
X170312000Y-79700000I0J-102000D01*
G01*
G37*
G36*
G01*
X175012000Y-79700000D02*
X175012000Y-80700000D01*
G75*
G02*
X174910000Y-80802000I-102000J0D01*
G01*
X174390000Y-80802000D01*
G75*
G02*
X174288000Y-80700000I0J102000D01*
G01*
X174288000Y-79700000D01*
G75*
G02*
X174390000Y-79598000I102000J0D01*
G01*
X174910000Y-79598000D01*
G75*
G02*
X175012000Y-79700000I0J-102000D01*
G01*
G37*
G36*
G01*
X169562000Y-79700000D02*
X169562000Y-80700000D01*
G75*
G02*
X169460000Y-80802000I-102000J0D01*
G01*
X168940000Y-80802000D01*
G75*
G02*
X168838000Y-80700000I0J102000D01*
G01*
X168838000Y-79700000D01*
G75*
G02*
X168940000Y-79598000I102000J0D01*
G01*
X169460000Y-79598000D01*
G75*
G02*
X169562000Y-79700000I0J-102000D01*
G01*
G37*
G36*
G01*
X175762000Y-79700000D02*
X175762000Y-80700000D01*
G75*
G02*
X175660000Y-80802000I-102000J0D01*
G01*
X175140000Y-80802000D01*
G75*
G02*
X175038000Y-80700000I0J102000D01*
G01*
X175038000Y-79700000D01*
G75*
G02*
X175140000Y-79598000I102000J0D01*
G01*
X175660000Y-79598000D01*
G75*
G02*
X175762000Y-79700000I0J-102000D01*
G01*
G37*
%TD*%
%TO.C,U4*%
G36*
G01*
X165025000Y-122225000D02*
X165025000Y-121925000D01*
G75*
G02*
X165175000Y-121775000I150000J0D01*
G01*
X166550000Y-121775000D01*
G75*
G02*
X166700000Y-121925000I0J-150000D01*
G01*
X166700000Y-122225000D01*
G75*
G02*
X166550000Y-122375000I-150000J0D01*
G01*
X165175000Y-122375000D01*
G75*
G02*
X165025000Y-122225000I0J150000D01*
G01*
G37*
G36*
G01*
X165025000Y-122875000D02*
X165025000Y-122575000D01*
G75*
G02*
X165175000Y-122425000I150000J0D01*
G01*
X166550000Y-122425000D01*
G75*
G02*
X166700000Y-122575000I0J-150000D01*
G01*
X166700000Y-122875000D01*
G75*
G02*
X166550000Y-123025000I-150000J0D01*
G01*
X165175000Y-123025000D01*
G75*
G02*
X165025000Y-122875000I0J150000D01*
G01*
G37*
G36*
G01*
X165025000Y-123525000D02*
X165025000Y-123225000D01*
G75*
G02*
X165175000Y-123075000I150000J0D01*
G01*
X166550000Y-123075000D01*
G75*
G02*
X166700000Y-123225000I0J-150000D01*
G01*
X166700000Y-123525000D01*
G75*
G02*
X166550000Y-123675000I-150000J0D01*
G01*
X165175000Y-123675000D01*
G75*
G02*
X165025000Y-123525000I0J150000D01*
G01*
G37*
G36*
G01*
X165025000Y-124175000D02*
X165025000Y-123875000D01*
G75*
G02*
X165175000Y-123725000I150000J0D01*
G01*
X166550000Y-123725000D01*
G75*
G02*
X166700000Y-123875000I0J-150000D01*
G01*
X166700000Y-124175000D01*
G75*
G02*
X166550000Y-124325000I-150000J0D01*
G01*
X165175000Y-124325000D01*
G75*
G02*
X165025000Y-124175000I0J150000D01*
G01*
G37*
G36*
G01*
X165025000Y-124825000D02*
X165025000Y-124525000D01*
G75*
G02*
X165175000Y-124375000I150000J0D01*
G01*
X166550000Y-124375000D01*
G75*
G02*
X166700000Y-124525000I0J-150000D01*
G01*
X166700000Y-124825000D01*
G75*
G02*
X166550000Y-124975000I-150000J0D01*
G01*
X165175000Y-124975000D01*
G75*
G02*
X165025000Y-124825000I0J150000D01*
G01*
G37*
G36*
G01*
X165025000Y-125475000D02*
X165025000Y-125175000D01*
G75*
G02*
X165175000Y-125025000I150000J0D01*
G01*
X166550000Y-125025000D01*
G75*
G02*
X166700000Y-125175000I0J-150000D01*
G01*
X166700000Y-125475000D01*
G75*
G02*
X166550000Y-125625000I-150000J0D01*
G01*
X165175000Y-125625000D01*
G75*
G02*
X165025000Y-125475000I0J150000D01*
G01*
G37*
G36*
G01*
X165025000Y-126125000D02*
X165025000Y-125825000D01*
G75*
G02*
X165175000Y-125675000I150000J0D01*
G01*
X166550000Y-125675000D01*
G75*
G02*
X166700000Y-125825000I0J-150000D01*
G01*
X166700000Y-126125000D01*
G75*
G02*
X166550000Y-126275000I-150000J0D01*
G01*
X165175000Y-126275000D01*
G75*
G02*
X165025000Y-126125000I0J150000D01*
G01*
G37*
G36*
G01*
X165025000Y-126775000D02*
X165025000Y-126475000D01*
G75*
G02*
X165175000Y-126325000I150000J0D01*
G01*
X166550000Y-126325000D01*
G75*
G02*
X166700000Y-126475000I0J-150000D01*
G01*
X166700000Y-126775000D01*
G75*
G02*
X166550000Y-126925000I-150000J0D01*
G01*
X165175000Y-126925000D01*
G75*
G02*
X165025000Y-126775000I0J150000D01*
G01*
G37*
G36*
G01*
X165025000Y-127425000D02*
X165025000Y-127125000D01*
G75*
G02*
X165175000Y-126975000I150000J0D01*
G01*
X166550000Y-126975000D01*
G75*
G02*
X166700000Y-127125000I0J-150000D01*
G01*
X166700000Y-127425000D01*
G75*
G02*
X166550000Y-127575000I-150000J0D01*
G01*
X165175000Y-127575000D01*
G75*
G02*
X165025000Y-127425000I0J150000D01*
G01*
G37*
G36*
G01*
X165025000Y-128075000D02*
X165025000Y-127775000D01*
G75*
G02*
X165175000Y-127625000I150000J0D01*
G01*
X166550000Y-127625000D01*
G75*
G02*
X166700000Y-127775000I0J-150000D01*
G01*
X166700000Y-128075000D01*
G75*
G02*
X166550000Y-128225000I-150000J0D01*
G01*
X165175000Y-128225000D01*
G75*
G02*
X165025000Y-128075000I0J150000D01*
G01*
G37*
G36*
G01*
X159300000Y-128075000D02*
X159300000Y-127775000D01*
G75*
G02*
X159450000Y-127625000I150000J0D01*
G01*
X160825000Y-127625000D01*
G75*
G02*
X160975000Y-127775000I0J-150000D01*
G01*
X160975000Y-128075000D01*
G75*
G02*
X160825000Y-128225000I-150000J0D01*
G01*
X159450000Y-128225000D01*
G75*
G02*
X159300000Y-128075000I0J150000D01*
G01*
G37*
G36*
G01*
X159300000Y-127425000D02*
X159300000Y-127125000D01*
G75*
G02*
X159450000Y-126975000I150000J0D01*
G01*
X160825000Y-126975000D01*
G75*
G02*
X160975000Y-127125000I0J-150000D01*
G01*
X160975000Y-127425000D01*
G75*
G02*
X160825000Y-127575000I-150000J0D01*
G01*
X159450000Y-127575000D01*
G75*
G02*
X159300000Y-127425000I0J150000D01*
G01*
G37*
G36*
G01*
X159300000Y-126775000D02*
X159300000Y-126475000D01*
G75*
G02*
X159450000Y-126325000I150000J0D01*
G01*
X160825000Y-126325000D01*
G75*
G02*
X160975000Y-126475000I0J-150000D01*
G01*
X160975000Y-126775000D01*
G75*
G02*
X160825000Y-126925000I-150000J0D01*
G01*
X159450000Y-126925000D01*
G75*
G02*
X159300000Y-126775000I0J150000D01*
G01*
G37*
G36*
G01*
X159300000Y-126125000D02*
X159300000Y-125825000D01*
G75*
G02*
X159450000Y-125675000I150000J0D01*
G01*
X160825000Y-125675000D01*
G75*
G02*
X160975000Y-125825000I0J-150000D01*
G01*
X160975000Y-126125000D01*
G75*
G02*
X160825000Y-126275000I-150000J0D01*
G01*
X159450000Y-126275000D01*
G75*
G02*
X159300000Y-126125000I0J150000D01*
G01*
G37*
G36*
G01*
X159300000Y-125475000D02*
X159300000Y-125175000D01*
G75*
G02*
X159450000Y-125025000I150000J0D01*
G01*
X160825000Y-125025000D01*
G75*
G02*
X160975000Y-125175000I0J-150000D01*
G01*
X160975000Y-125475000D01*
G75*
G02*
X160825000Y-125625000I-150000J0D01*
G01*
X159450000Y-125625000D01*
G75*
G02*
X159300000Y-125475000I0J150000D01*
G01*
G37*
G36*
G01*
X159300000Y-124825000D02*
X159300000Y-124525000D01*
G75*
G02*
X159450000Y-124375000I150000J0D01*
G01*
X160825000Y-124375000D01*
G75*
G02*
X160975000Y-124525000I0J-150000D01*
G01*
X160975000Y-124825000D01*
G75*
G02*
X160825000Y-124975000I-150000J0D01*
G01*
X159450000Y-124975000D01*
G75*
G02*
X159300000Y-124825000I0J150000D01*
G01*
G37*
G36*
G01*
X159300000Y-124175000D02*
X159300000Y-123875000D01*
G75*
G02*
X159450000Y-123725000I150000J0D01*
G01*
X160825000Y-123725000D01*
G75*
G02*
X160975000Y-123875000I0J-150000D01*
G01*
X160975000Y-124175000D01*
G75*
G02*
X160825000Y-124325000I-150000J0D01*
G01*
X159450000Y-124325000D01*
G75*
G02*
X159300000Y-124175000I0J150000D01*
G01*
G37*
G36*
G01*
X159300000Y-123525000D02*
X159300000Y-123225000D01*
G75*
G02*
X159450000Y-123075000I150000J0D01*
G01*
X160825000Y-123075000D01*
G75*
G02*
X160975000Y-123225000I0J-150000D01*
G01*
X160975000Y-123525000D01*
G75*
G02*
X160825000Y-123675000I-150000J0D01*
G01*
X159450000Y-123675000D01*
G75*
G02*
X159300000Y-123525000I0J150000D01*
G01*
G37*
G36*
G01*
X159300000Y-122875000D02*
X159300000Y-122575000D01*
G75*
G02*
X159450000Y-122425000I150000J0D01*
G01*
X160825000Y-122425000D01*
G75*
G02*
X160975000Y-122575000I0J-150000D01*
G01*
X160975000Y-122875000D01*
G75*
G02*
X160825000Y-123025000I-150000J0D01*
G01*
X159450000Y-123025000D01*
G75*
G02*
X159300000Y-122875000I0J150000D01*
G01*
G37*
G36*
G01*
X159300000Y-122225000D02*
X159300000Y-121925000D01*
G75*
G02*
X159450000Y-121775000I150000J0D01*
G01*
X160825000Y-121775000D01*
G75*
G02*
X160975000Y-121925000I0J-150000D01*
G01*
X160975000Y-122225000D01*
G75*
G02*
X160825000Y-122375000I-150000J0D01*
G01*
X159450000Y-122375000D01*
G75*
G02*
X159300000Y-122225000I0J150000D01*
G01*
G37*
%TD*%
%TO.C,U3*%
G36*
G01*
X165025000Y-104225000D02*
X165025000Y-103925000D01*
G75*
G02*
X165175000Y-103775000I150000J0D01*
G01*
X166550000Y-103775000D01*
G75*
G02*
X166700000Y-103925000I0J-150000D01*
G01*
X166700000Y-104225000D01*
G75*
G02*
X166550000Y-104375000I-150000J0D01*
G01*
X165175000Y-104375000D01*
G75*
G02*
X165025000Y-104225000I0J150000D01*
G01*
G37*
G36*
G01*
X165025000Y-104875000D02*
X165025000Y-104575000D01*
G75*
G02*
X165175000Y-104425000I150000J0D01*
G01*
X166550000Y-104425000D01*
G75*
G02*
X166700000Y-104575000I0J-150000D01*
G01*
X166700000Y-104875000D01*
G75*
G02*
X166550000Y-105025000I-150000J0D01*
G01*
X165175000Y-105025000D01*
G75*
G02*
X165025000Y-104875000I0J150000D01*
G01*
G37*
G36*
G01*
X165025000Y-105525000D02*
X165025000Y-105225000D01*
G75*
G02*
X165175000Y-105075000I150000J0D01*
G01*
X166550000Y-105075000D01*
G75*
G02*
X166700000Y-105225000I0J-150000D01*
G01*
X166700000Y-105525000D01*
G75*
G02*
X166550000Y-105675000I-150000J0D01*
G01*
X165175000Y-105675000D01*
G75*
G02*
X165025000Y-105525000I0J150000D01*
G01*
G37*
G36*
G01*
X165025000Y-106175000D02*
X165025000Y-105875000D01*
G75*
G02*
X165175000Y-105725000I150000J0D01*
G01*
X166550000Y-105725000D01*
G75*
G02*
X166700000Y-105875000I0J-150000D01*
G01*
X166700000Y-106175000D01*
G75*
G02*
X166550000Y-106325000I-150000J0D01*
G01*
X165175000Y-106325000D01*
G75*
G02*
X165025000Y-106175000I0J150000D01*
G01*
G37*
G36*
G01*
X165025000Y-106825000D02*
X165025000Y-106525000D01*
G75*
G02*
X165175000Y-106375000I150000J0D01*
G01*
X166550000Y-106375000D01*
G75*
G02*
X166700000Y-106525000I0J-150000D01*
G01*
X166700000Y-106825000D01*
G75*
G02*
X166550000Y-106975000I-150000J0D01*
G01*
X165175000Y-106975000D01*
G75*
G02*
X165025000Y-106825000I0J150000D01*
G01*
G37*
G36*
G01*
X165025000Y-107475000D02*
X165025000Y-107175000D01*
G75*
G02*
X165175000Y-107025000I150000J0D01*
G01*
X166550000Y-107025000D01*
G75*
G02*
X166700000Y-107175000I0J-150000D01*
G01*
X166700000Y-107475000D01*
G75*
G02*
X166550000Y-107625000I-150000J0D01*
G01*
X165175000Y-107625000D01*
G75*
G02*
X165025000Y-107475000I0J150000D01*
G01*
G37*
G36*
G01*
X165025000Y-108125000D02*
X165025000Y-107825000D01*
G75*
G02*
X165175000Y-107675000I150000J0D01*
G01*
X166550000Y-107675000D01*
G75*
G02*
X166700000Y-107825000I0J-150000D01*
G01*
X166700000Y-108125000D01*
G75*
G02*
X166550000Y-108275000I-150000J0D01*
G01*
X165175000Y-108275000D01*
G75*
G02*
X165025000Y-108125000I0J150000D01*
G01*
G37*
G36*
G01*
X165025000Y-108775000D02*
X165025000Y-108475000D01*
G75*
G02*
X165175000Y-108325000I150000J0D01*
G01*
X166550000Y-108325000D01*
G75*
G02*
X166700000Y-108475000I0J-150000D01*
G01*
X166700000Y-108775000D01*
G75*
G02*
X166550000Y-108925000I-150000J0D01*
G01*
X165175000Y-108925000D01*
G75*
G02*
X165025000Y-108775000I0J150000D01*
G01*
G37*
G36*
G01*
X165025000Y-109425000D02*
X165025000Y-109125000D01*
G75*
G02*
X165175000Y-108975000I150000J0D01*
G01*
X166550000Y-108975000D01*
G75*
G02*
X166700000Y-109125000I0J-150000D01*
G01*
X166700000Y-109425000D01*
G75*
G02*
X166550000Y-109575000I-150000J0D01*
G01*
X165175000Y-109575000D01*
G75*
G02*
X165025000Y-109425000I0J150000D01*
G01*
G37*
G36*
G01*
X165025000Y-110075000D02*
X165025000Y-109775000D01*
G75*
G02*
X165175000Y-109625000I150000J0D01*
G01*
X166550000Y-109625000D01*
G75*
G02*
X166700000Y-109775000I0J-150000D01*
G01*
X166700000Y-110075000D01*
G75*
G02*
X166550000Y-110225000I-150000J0D01*
G01*
X165175000Y-110225000D01*
G75*
G02*
X165025000Y-110075000I0J150000D01*
G01*
G37*
G36*
G01*
X159300000Y-110075000D02*
X159300000Y-109775000D01*
G75*
G02*
X159450000Y-109625000I150000J0D01*
G01*
X160825000Y-109625000D01*
G75*
G02*
X160975000Y-109775000I0J-150000D01*
G01*
X160975000Y-110075000D01*
G75*
G02*
X160825000Y-110225000I-150000J0D01*
G01*
X159450000Y-110225000D01*
G75*
G02*
X159300000Y-110075000I0J150000D01*
G01*
G37*
G36*
G01*
X159300000Y-109425000D02*
X159300000Y-109125000D01*
G75*
G02*
X159450000Y-108975000I150000J0D01*
G01*
X160825000Y-108975000D01*
G75*
G02*
X160975000Y-109125000I0J-150000D01*
G01*
X160975000Y-109425000D01*
G75*
G02*
X160825000Y-109575000I-150000J0D01*
G01*
X159450000Y-109575000D01*
G75*
G02*
X159300000Y-109425000I0J150000D01*
G01*
G37*
G36*
G01*
X159300000Y-108775000D02*
X159300000Y-108475000D01*
G75*
G02*
X159450000Y-108325000I150000J0D01*
G01*
X160825000Y-108325000D01*
G75*
G02*
X160975000Y-108475000I0J-150000D01*
G01*
X160975000Y-108775000D01*
G75*
G02*
X160825000Y-108925000I-150000J0D01*
G01*
X159450000Y-108925000D01*
G75*
G02*
X159300000Y-108775000I0J150000D01*
G01*
G37*
G36*
G01*
X159300000Y-108125000D02*
X159300000Y-107825000D01*
G75*
G02*
X159450000Y-107675000I150000J0D01*
G01*
X160825000Y-107675000D01*
G75*
G02*
X160975000Y-107825000I0J-150000D01*
G01*
X160975000Y-108125000D01*
G75*
G02*
X160825000Y-108275000I-150000J0D01*
G01*
X159450000Y-108275000D01*
G75*
G02*
X159300000Y-108125000I0J150000D01*
G01*
G37*
G36*
G01*
X159300000Y-107475000D02*
X159300000Y-107175000D01*
G75*
G02*
X159450000Y-107025000I150000J0D01*
G01*
X160825000Y-107025000D01*
G75*
G02*
X160975000Y-107175000I0J-150000D01*
G01*
X160975000Y-107475000D01*
G75*
G02*
X160825000Y-107625000I-150000J0D01*
G01*
X159450000Y-107625000D01*
G75*
G02*
X159300000Y-107475000I0J150000D01*
G01*
G37*
G36*
G01*
X159300000Y-106825000D02*
X159300000Y-106525000D01*
G75*
G02*
X159450000Y-106375000I150000J0D01*
G01*
X160825000Y-106375000D01*
G75*
G02*
X160975000Y-106525000I0J-150000D01*
G01*
X160975000Y-106825000D01*
G75*
G02*
X160825000Y-106975000I-150000J0D01*
G01*
X159450000Y-106975000D01*
G75*
G02*
X159300000Y-106825000I0J150000D01*
G01*
G37*
G36*
G01*
X159300000Y-106175000D02*
X159300000Y-105875000D01*
G75*
G02*
X159450000Y-105725000I150000J0D01*
G01*
X160825000Y-105725000D01*
G75*
G02*
X160975000Y-105875000I0J-150000D01*
G01*
X160975000Y-106175000D01*
G75*
G02*
X160825000Y-106325000I-150000J0D01*
G01*
X159450000Y-106325000D01*
G75*
G02*
X159300000Y-106175000I0J150000D01*
G01*
G37*
G36*
G01*
X159300000Y-105525000D02*
X159300000Y-105225000D01*
G75*
G02*
X159450000Y-105075000I150000J0D01*
G01*
X160825000Y-105075000D01*
G75*
G02*
X160975000Y-105225000I0J-150000D01*
G01*
X160975000Y-105525000D01*
G75*
G02*
X160825000Y-105675000I-150000J0D01*
G01*
X159450000Y-105675000D01*
G75*
G02*
X159300000Y-105525000I0J150000D01*
G01*
G37*
G36*
G01*
X159300000Y-104875000D02*
X159300000Y-104575000D01*
G75*
G02*
X159450000Y-104425000I150000J0D01*
G01*
X160825000Y-104425000D01*
G75*
G02*
X160975000Y-104575000I0J-150000D01*
G01*
X160975000Y-104875000D01*
G75*
G02*
X160825000Y-105025000I-150000J0D01*
G01*
X159450000Y-105025000D01*
G75*
G02*
X159300000Y-104875000I0J150000D01*
G01*
G37*
G36*
G01*
X159300000Y-104225000D02*
X159300000Y-103925000D01*
G75*
G02*
X159450000Y-103775000I150000J0D01*
G01*
X160825000Y-103775000D01*
G75*
G02*
X160975000Y-103925000I0J-150000D01*
G01*
X160975000Y-104225000D01*
G75*
G02*
X160825000Y-104375000I-150000J0D01*
G01*
X159450000Y-104375000D01*
G75*
G02*
X159300000Y-104225000I0J150000D01*
G01*
G37*
%TD*%
%TO.C,U1*%
G36*
G01*
X165025000Y-86225000D02*
X165025000Y-85925000D01*
G75*
G02*
X165175000Y-85775000I150000J0D01*
G01*
X166550000Y-85775000D01*
G75*
G02*
X166700000Y-85925000I0J-150000D01*
G01*
X166700000Y-86225000D01*
G75*
G02*
X166550000Y-86375000I-150000J0D01*
G01*
X165175000Y-86375000D01*
G75*
G02*
X165025000Y-86225000I0J150000D01*
G01*
G37*
G36*
G01*
X165025000Y-86875000D02*
X165025000Y-86575000D01*
G75*
G02*
X165175000Y-86425000I150000J0D01*
G01*
X166550000Y-86425000D01*
G75*
G02*
X166700000Y-86575000I0J-150000D01*
G01*
X166700000Y-86875000D01*
G75*
G02*
X166550000Y-87025000I-150000J0D01*
G01*
X165175000Y-87025000D01*
G75*
G02*
X165025000Y-86875000I0J150000D01*
G01*
G37*
G36*
G01*
X165025000Y-87525000D02*
X165025000Y-87225000D01*
G75*
G02*
X165175000Y-87075000I150000J0D01*
G01*
X166550000Y-87075000D01*
G75*
G02*
X166700000Y-87225000I0J-150000D01*
G01*
X166700000Y-87525000D01*
G75*
G02*
X166550000Y-87675000I-150000J0D01*
G01*
X165175000Y-87675000D01*
G75*
G02*
X165025000Y-87525000I0J150000D01*
G01*
G37*
G36*
G01*
X165025000Y-88175000D02*
X165025000Y-87875000D01*
G75*
G02*
X165175000Y-87725000I150000J0D01*
G01*
X166550000Y-87725000D01*
G75*
G02*
X166700000Y-87875000I0J-150000D01*
G01*
X166700000Y-88175000D01*
G75*
G02*
X166550000Y-88325000I-150000J0D01*
G01*
X165175000Y-88325000D01*
G75*
G02*
X165025000Y-88175000I0J150000D01*
G01*
G37*
G36*
G01*
X165025000Y-88825000D02*
X165025000Y-88525000D01*
G75*
G02*
X165175000Y-88375000I150000J0D01*
G01*
X166550000Y-88375000D01*
G75*
G02*
X166700000Y-88525000I0J-150000D01*
G01*
X166700000Y-88825000D01*
G75*
G02*
X166550000Y-88975000I-150000J0D01*
G01*
X165175000Y-88975000D01*
G75*
G02*
X165025000Y-88825000I0J150000D01*
G01*
G37*
G36*
G01*
X165025000Y-89475000D02*
X165025000Y-89175000D01*
G75*
G02*
X165175000Y-89025000I150000J0D01*
G01*
X166550000Y-89025000D01*
G75*
G02*
X166700000Y-89175000I0J-150000D01*
G01*
X166700000Y-89475000D01*
G75*
G02*
X166550000Y-89625000I-150000J0D01*
G01*
X165175000Y-89625000D01*
G75*
G02*
X165025000Y-89475000I0J150000D01*
G01*
G37*
G36*
G01*
X165025000Y-90125000D02*
X165025000Y-89825000D01*
G75*
G02*
X165175000Y-89675000I150000J0D01*
G01*
X166550000Y-89675000D01*
G75*
G02*
X166700000Y-89825000I0J-150000D01*
G01*
X166700000Y-90125000D01*
G75*
G02*
X166550000Y-90275000I-150000J0D01*
G01*
X165175000Y-90275000D01*
G75*
G02*
X165025000Y-90125000I0J150000D01*
G01*
G37*
G36*
G01*
X165025000Y-90775000D02*
X165025000Y-90475000D01*
G75*
G02*
X165175000Y-90325000I150000J0D01*
G01*
X166550000Y-90325000D01*
G75*
G02*
X166700000Y-90475000I0J-150000D01*
G01*
X166700000Y-90775000D01*
G75*
G02*
X166550000Y-90925000I-150000J0D01*
G01*
X165175000Y-90925000D01*
G75*
G02*
X165025000Y-90775000I0J150000D01*
G01*
G37*
G36*
G01*
X165025000Y-91425000D02*
X165025000Y-91125000D01*
G75*
G02*
X165175000Y-90975000I150000J0D01*
G01*
X166550000Y-90975000D01*
G75*
G02*
X166700000Y-91125000I0J-150000D01*
G01*
X166700000Y-91425000D01*
G75*
G02*
X166550000Y-91575000I-150000J0D01*
G01*
X165175000Y-91575000D01*
G75*
G02*
X165025000Y-91425000I0J150000D01*
G01*
G37*
G36*
G01*
X165025000Y-92075000D02*
X165025000Y-91775000D01*
G75*
G02*
X165175000Y-91625000I150000J0D01*
G01*
X166550000Y-91625000D01*
G75*
G02*
X166700000Y-91775000I0J-150000D01*
G01*
X166700000Y-92075000D01*
G75*
G02*
X166550000Y-92225000I-150000J0D01*
G01*
X165175000Y-92225000D01*
G75*
G02*
X165025000Y-92075000I0J150000D01*
G01*
G37*
G36*
G01*
X159300000Y-92075000D02*
X159300000Y-91775000D01*
G75*
G02*
X159450000Y-91625000I150000J0D01*
G01*
X160825000Y-91625000D01*
G75*
G02*
X160975000Y-91775000I0J-150000D01*
G01*
X160975000Y-92075000D01*
G75*
G02*
X160825000Y-92225000I-150000J0D01*
G01*
X159450000Y-92225000D01*
G75*
G02*
X159300000Y-92075000I0J150000D01*
G01*
G37*
G36*
G01*
X159300000Y-91425000D02*
X159300000Y-91125000D01*
G75*
G02*
X159450000Y-90975000I150000J0D01*
G01*
X160825000Y-90975000D01*
G75*
G02*
X160975000Y-91125000I0J-150000D01*
G01*
X160975000Y-91425000D01*
G75*
G02*
X160825000Y-91575000I-150000J0D01*
G01*
X159450000Y-91575000D01*
G75*
G02*
X159300000Y-91425000I0J150000D01*
G01*
G37*
G36*
G01*
X159300000Y-90775000D02*
X159300000Y-90475000D01*
G75*
G02*
X159450000Y-90325000I150000J0D01*
G01*
X160825000Y-90325000D01*
G75*
G02*
X160975000Y-90475000I0J-150000D01*
G01*
X160975000Y-90775000D01*
G75*
G02*
X160825000Y-90925000I-150000J0D01*
G01*
X159450000Y-90925000D01*
G75*
G02*
X159300000Y-90775000I0J150000D01*
G01*
G37*
G36*
G01*
X159300000Y-90125000D02*
X159300000Y-89825000D01*
G75*
G02*
X159450000Y-89675000I150000J0D01*
G01*
X160825000Y-89675000D01*
G75*
G02*
X160975000Y-89825000I0J-150000D01*
G01*
X160975000Y-90125000D01*
G75*
G02*
X160825000Y-90275000I-150000J0D01*
G01*
X159450000Y-90275000D01*
G75*
G02*
X159300000Y-90125000I0J150000D01*
G01*
G37*
G36*
G01*
X159300000Y-89475000D02*
X159300000Y-89175000D01*
G75*
G02*
X159450000Y-89025000I150000J0D01*
G01*
X160825000Y-89025000D01*
G75*
G02*
X160975000Y-89175000I0J-150000D01*
G01*
X160975000Y-89475000D01*
G75*
G02*
X160825000Y-89625000I-150000J0D01*
G01*
X159450000Y-89625000D01*
G75*
G02*
X159300000Y-89475000I0J150000D01*
G01*
G37*
G36*
G01*
X159300000Y-88825000D02*
X159300000Y-88525000D01*
G75*
G02*
X159450000Y-88375000I150000J0D01*
G01*
X160825000Y-88375000D01*
G75*
G02*
X160975000Y-88525000I0J-150000D01*
G01*
X160975000Y-88825000D01*
G75*
G02*
X160825000Y-88975000I-150000J0D01*
G01*
X159450000Y-88975000D01*
G75*
G02*
X159300000Y-88825000I0J150000D01*
G01*
G37*
G36*
G01*
X159300000Y-88175000D02*
X159300000Y-87875000D01*
G75*
G02*
X159450000Y-87725000I150000J0D01*
G01*
X160825000Y-87725000D01*
G75*
G02*
X160975000Y-87875000I0J-150000D01*
G01*
X160975000Y-88175000D01*
G75*
G02*
X160825000Y-88325000I-150000J0D01*
G01*
X159450000Y-88325000D01*
G75*
G02*
X159300000Y-88175000I0J150000D01*
G01*
G37*
G36*
G01*
X159300000Y-87525000D02*
X159300000Y-87225000D01*
G75*
G02*
X159450000Y-87075000I150000J0D01*
G01*
X160825000Y-87075000D01*
G75*
G02*
X160975000Y-87225000I0J-150000D01*
G01*
X160975000Y-87525000D01*
G75*
G02*
X160825000Y-87675000I-150000J0D01*
G01*
X159450000Y-87675000D01*
G75*
G02*
X159300000Y-87525000I0J150000D01*
G01*
G37*
G36*
G01*
X159300000Y-86875000D02*
X159300000Y-86575000D01*
G75*
G02*
X159450000Y-86425000I150000J0D01*
G01*
X160825000Y-86425000D01*
G75*
G02*
X160975000Y-86575000I0J-150000D01*
G01*
X160975000Y-86875000D01*
G75*
G02*
X160825000Y-87025000I-150000J0D01*
G01*
X159450000Y-87025000D01*
G75*
G02*
X159300000Y-86875000I0J150000D01*
G01*
G37*
G36*
G01*
X159300000Y-86225000D02*
X159300000Y-85925000D01*
G75*
G02*
X159450000Y-85775000I150000J0D01*
G01*
X160825000Y-85775000D01*
G75*
G02*
X160975000Y-85925000I0J-150000D01*
G01*
X160975000Y-86225000D01*
G75*
G02*
X160825000Y-86375000I-150000J0D01*
G01*
X159450000Y-86375000D01*
G75*
G02*
X159300000Y-86225000I0J150000D01*
G01*
G37*
%TD*%
%TO.C,C1*%
G36*
G01*
X129087734Y-90720000D02*
X131412266Y-90720000D01*
G75*
G02*
X131700000Y-91007734I0J-287734D01*
G01*
X131700000Y-91957266D01*
G75*
G02*
X131412266Y-92245000I-287734J0D01*
G01*
X129087734Y-92245000D01*
G75*
G02*
X128800000Y-91957266I0J287734D01*
G01*
X128800000Y-91007734D01*
G75*
G02*
X129087734Y-90720000I287734J0D01*
G01*
G37*
G36*
G01*
X129087734Y-87595000D02*
X131412266Y-87595000D01*
G75*
G02*
X131700000Y-87882734I0J-287734D01*
G01*
X131700000Y-88832266D01*
G75*
G02*
X131412266Y-89120000I-287734J0D01*
G01*
X129087734Y-89120000D01*
G75*
G02*
X128800000Y-88832266I0J287734D01*
G01*
X128800000Y-87882734D01*
G75*
G02*
X129087734Y-87595000I287734J0D01*
G01*
G37*
%TD*%
%TO.C,C2*%
G36*
G01*
X145117734Y-87545000D02*
X147442266Y-87545000D01*
G75*
G02*
X147730000Y-87832734I0J-287734D01*
G01*
X147730000Y-88782266D01*
G75*
G02*
X147442266Y-89070000I-287734J0D01*
G01*
X145117734Y-89070000D01*
G75*
G02*
X144830000Y-88782266I0J287734D01*
G01*
X144830000Y-87832734D01*
G75*
G02*
X145117734Y-87545000I287734J0D01*
G01*
G37*
G36*
G01*
X145117734Y-90670000D02*
X147442266Y-90670000D01*
G75*
G02*
X147730000Y-90957734I0J-287734D01*
G01*
X147730000Y-91907266D01*
G75*
G02*
X147442266Y-92195000I-287734J0D01*
G01*
X145117734Y-92195000D01*
G75*
G02*
X144830000Y-91907266I0J287734D01*
G01*
X144830000Y-90957734D01*
G75*
G02*
X145117734Y-90670000I287734J0D01*
G01*
G37*
%TD*%
%TO.C,C3*%
G36*
G01*
X170412266Y-83470000D02*
X168087734Y-83470000D01*
G75*
G02*
X167800000Y-83182266I0J287734D01*
G01*
X167800000Y-82232734D01*
G75*
G02*
X168087734Y-81945000I287734J0D01*
G01*
X170412266Y-81945000D01*
G75*
G02*
X170700000Y-82232734I0J-287734D01*
G01*
X170700000Y-83182266D01*
G75*
G02*
X170412266Y-83470000I-287734J0D01*
G01*
G37*
G36*
G01*
X170412266Y-86595000D02*
X168087734Y-86595000D01*
G75*
G02*
X167800000Y-86307266I0J287734D01*
G01*
X167800000Y-85357734D01*
G75*
G02*
X168087734Y-85070000I287734J0D01*
G01*
X170412266Y-85070000D01*
G75*
G02*
X170700000Y-85357734I0J-287734D01*
G01*
X170700000Y-86307266D01*
G75*
G02*
X170412266Y-86595000I-287734J0D01*
G01*
G37*
%TD*%
%TO.C,C4*%
G36*
G01*
X158112266Y-86585000D02*
X155787734Y-86585000D01*
G75*
G02*
X155500000Y-86297266I0J287734D01*
G01*
X155500000Y-85347734D01*
G75*
G02*
X155787734Y-85060000I287734J0D01*
G01*
X158112266Y-85060000D01*
G75*
G02*
X158400000Y-85347734I0J-287734D01*
G01*
X158400000Y-86297266D01*
G75*
G02*
X158112266Y-86585000I-287734J0D01*
G01*
G37*
G36*
G01*
X158112266Y-83460000D02*
X155787734Y-83460000D01*
G75*
G02*
X155500000Y-83172266I0J287734D01*
G01*
X155500000Y-82222734D01*
G75*
G02*
X155787734Y-81935000I287734J0D01*
G01*
X158112266Y-81935000D01*
G75*
G02*
X158400000Y-82222734I0J-287734D01*
G01*
X158400000Y-83172266D01*
G75*
G02*
X158112266Y-83460000I-287734J0D01*
G01*
G37*
%TD*%
%TO.C,C5*%
G36*
G01*
X170462266Y-101020000D02*
X168137734Y-101020000D01*
G75*
G02*
X167850000Y-100732266I0J287734D01*
G01*
X167850000Y-99782734D01*
G75*
G02*
X168137734Y-99495000I287734J0D01*
G01*
X170462266Y-99495000D01*
G75*
G02*
X170750000Y-99782734I0J-287734D01*
G01*
X170750000Y-100732266D01*
G75*
G02*
X170462266Y-101020000I-287734J0D01*
G01*
G37*
G36*
G01*
X170462266Y-104145000D02*
X168137734Y-104145000D01*
G75*
G02*
X167850000Y-103857266I0J287734D01*
G01*
X167850000Y-102907734D01*
G75*
G02*
X168137734Y-102620000I287734J0D01*
G01*
X170462266Y-102620000D01*
G75*
G02*
X170750000Y-102907734I0J-287734D01*
G01*
X170750000Y-103857266D01*
G75*
G02*
X170462266Y-104145000I-287734J0D01*
G01*
G37*
%TD*%
%TO.C,C6*%
G36*
G01*
X158062266Y-104165000D02*
X155737734Y-104165000D01*
G75*
G02*
X155450000Y-103877266I0J287734D01*
G01*
X155450000Y-102927734D01*
G75*
G02*
X155737734Y-102640000I287734J0D01*
G01*
X158062266Y-102640000D01*
G75*
G02*
X158350000Y-102927734I0J-287734D01*
G01*
X158350000Y-103877266D01*
G75*
G02*
X158062266Y-104165000I-287734J0D01*
G01*
G37*
G36*
G01*
X158062266Y-101040000D02*
X155737734Y-101040000D01*
G75*
G02*
X155450000Y-100752266I0J287734D01*
G01*
X155450000Y-99802734D01*
G75*
G02*
X155737734Y-99515000I287734J0D01*
G01*
X158062266Y-99515000D01*
G75*
G02*
X158350000Y-99802734I0J-287734D01*
G01*
X158350000Y-100752266D01*
G75*
G02*
X158062266Y-101040000I-287734J0D01*
G01*
G37*
%TD*%
%TO.C,C7*%
G36*
G01*
X170312266Y-118900000D02*
X167987734Y-118900000D01*
G75*
G02*
X167700000Y-118612266I0J287734D01*
G01*
X167700000Y-117662734D01*
G75*
G02*
X167987734Y-117375000I287734J0D01*
G01*
X170312266Y-117375000D01*
G75*
G02*
X170600000Y-117662734I0J-287734D01*
G01*
X170600000Y-118612266D01*
G75*
G02*
X170312266Y-118900000I-287734J0D01*
G01*
G37*
G36*
G01*
X170312266Y-122025000D02*
X167987734Y-122025000D01*
G75*
G02*
X167700000Y-121737266I0J287734D01*
G01*
X167700000Y-120787734D01*
G75*
G02*
X167987734Y-120500000I287734J0D01*
G01*
X170312266Y-120500000D01*
G75*
G02*
X170600000Y-120787734I0J-287734D01*
G01*
X170600000Y-121737266D01*
G75*
G02*
X170312266Y-122025000I-287734J0D01*
G01*
G37*
%TD*%
%TO.C,C8*%
G36*
G01*
X158062266Y-122225000D02*
X155737734Y-122225000D01*
G75*
G02*
X155450000Y-121937266I0J287734D01*
G01*
X155450000Y-120987734D01*
G75*
G02*
X155737734Y-120700000I287734J0D01*
G01*
X158062266Y-120700000D01*
G75*
G02*
X158350000Y-120987734I0J-287734D01*
G01*
X158350000Y-121937266D01*
G75*
G02*
X158062266Y-122225000I-287734J0D01*
G01*
G37*
G36*
G01*
X158062266Y-119100000D02*
X155737734Y-119100000D01*
G75*
G02*
X155450000Y-118812266I0J287734D01*
G01*
X155450000Y-117862734D01*
G75*
G02*
X155737734Y-117575000I287734J0D01*
G01*
X158062266Y-117575000D01*
G75*
G02*
X158350000Y-117862734I0J-287734D01*
G01*
X158350000Y-118812266D01*
G75*
G02*
X158062266Y-119100000I-287734J0D01*
G01*
G37*
%TD*%
%TO.C,C9*%
G36*
G01*
X171075000Y-84052266D02*
X171075000Y-81727734D01*
G75*
G02*
X171362734Y-81440000I287734J0D01*
G01*
X172312266Y-81440000D01*
G75*
G02*
X172600000Y-81727734I0J-287734D01*
G01*
X172600000Y-84052266D01*
G75*
G02*
X172312266Y-84340000I-287734J0D01*
G01*
X171362734Y-84340000D01*
G75*
G02*
X171075000Y-84052266I0J287734D01*
G01*
G37*
G36*
G01*
X174200000Y-84052266D02*
X174200000Y-81727734D01*
G75*
G02*
X174487734Y-81440000I287734J0D01*
G01*
X175437266Y-81440000D01*
G75*
G02*
X175725000Y-81727734I0J-287734D01*
G01*
X175725000Y-84052266D01*
G75*
G02*
X175437266Y-84340000I-287734J0D01*
G01*
X174487734Y-84340000D01*
G75*
G02*
X174200000Y-84052266I0J287734D01*
G01*
G37*
%TD*%
%TO.C,C10*%
G36*
G01*
X179387734Y-79360000D02*
X181712266Y-79360000D01*
G75*
G02*
X182000000Y-79647734I0J-287734D01*
G01*
X182000000Y-80597266D01*
G75*
G02*
X181712266Y-80885000I-287734J0D01*
G01*
X179387734Y-80885000D01*
G75*
G02*
X179100000Y-80597266I0J287734D01*
G01*
X179100000Y-79647734D01*
G75*
G02*
X179387734Y-79360000I287734J0D01*
G01*
G37*
G36*
G01*
X179387734Y-76235000D02*
X181712266Y-76235000D01*
G75*
G02*
X182000000Y-76522734I0J-287734D01*
G01*
X182000000Y-77472266D01*
G75*
G02*
X181712266Y-77760000I-287734J0D01*
G01*
X179387734Y-77760000D01*
G75*
G02*
X179100000Y-77472266I0J287734D01*
G01*
X179100000Y-76522734D01*
G75*
G02*
X179387734Y-76235000I287734J0D01*
G01*
G37*
%TD*%
%TO.C,R1*%
G36*
G01*
X158850000Y-95356539D02*
X158850000Y-93083461D01*
G75*
G02*
X159138461Y-92795000I288461J0D01*
G01*
X160061539Y-92795000D01*
G75*
G02*
X160350000Y-93083461I0J-288461D01*
G01*
X160350000Y-95356539D01*
G75*
G02*
X160061539Y-95645000I-288461J0D01*
G01*
X159138461Y-95645000D01*
G75*
G02*
X158850000Y-95356539I0J288461D01*
G01*
G37*
G36*
G01*
X155750000Y-95356539D02*
X155750000Y-93083461D01*
G75*
G02*
X156038461Y-92795000I288461J0D01*
G01*
X156961539Y-92795000D01*
G75*
G02*
X157250000Y-93083461I0J-288461D01*
G01*
X157250000Y-95356539D01*
G75*
G02*
X156961539Y-95645000I-288461J0D01*
G01*
X156038461Y-95645000D01*
G75*
G02*
X155750000Y-95356539I0J288461D01*
G01*
G37*
%TD*%
%TO.C,R2*%
G36*
G01*
X145696539Y-125270000D02*
X143423461Y-125270000D01*
G75*
G02*
X143135000Y-124981539I0J288461D01*
G01*
X143135000Y-124058461D01*
G75*
G02*
X143423461Y-123770000I288461J0D01*
G01*
X145696539Y-123770000D01*
G75*
G02*
X145985000Y-124058461I0J-288461D01*
G01*
X145985000Y-124981539D01*
G75*
G02*
X145696539Y-125270000I-288461J0D01*
G01*
G37*
G36*
G01*
X145696539Y-122170000D02*
X143423461Y-122170000D01*
G75*
G02*
X143135000Y-121881539I0J288461D01*
G01*
X143135000Y-120958461D01*
G75*
G02*
X143423461Y-120670000I288461J0D01*
G01*
X145696539Y-120670000D01*
G75*
G02*
X145985000Y-120958461I0J-288461D01*
G01*
X145985000Y-121881539D01*
G75*
G02*
X145696539Y-122170000I-288461J0D01*
G01*
G37*
%TD*%
%TO.C,R3*%
G36*
G01*
X155710000Y-113846539D02*
X155710000Y-111573461D01*
G75*
G02*
X155998461Y-111285000I288461J0D01*
G01*
X156921539Y-111285000D01*
G75*
G02*
X157210000Y-111573461I0J-288461D01*
G01*
X157210000Y-113846539D01*
G75*
G02*
X156921539Y-114135000I-288461J0D01*
G01*
X155998461Y-114135000D01*
G75*
G02*
X155710000Y-113846539I0J288461D01*
G01*
G37*
G36*
G01*
X158810000Y-113846539D02*
X158810000Y-111573461D01*
G75*
G02*
X159098461Y-111285000I288461J0D01*
G01*
X160021539Y-111285000D01*
G75*
G02*
X160310000Y-111573461I0J-288461D01*
G01*
X160310000Y-113846539D01*
G75*
G02*
X160021539Y-114135000I-288461J0D01*
G01*
X159098461Y-114135000D01*
G75*
G02*
X158810000Y-113846539I0J288461D01*
G01*
G37*
%TD*%
%TO.C,R4*%
G36*
G01*
X158880000Y-131506539D02*
X158880000Y-129233461D01*
G75*
G02*
X159168461Y-128945000I288461J0D01*
G01*
X160091539Y-128945000D01*
G75*
G02*
X160380000Y-129233461I0J-288461D01*
G01*
X160380000Y-131506539D01*
G75*
G02*
X160091539Y-131795000I-288461J0D01*
G01*
X159168461Y-131795000D01*
G75*
G02*
X158880000Y-131506539I0J288461D01*
G01*
G37*
G36*
G01*
X155780000Y-131506539D02*
X155780000Y-129233461D01*
G75*
G02*
X156068461Y-128945000I288461J0D01*
G01*
X156991539Y-128945000D01*
G75*
G02*
X157280000Y-129233461I0J-288461D01*
G01*
X157280000Y-131506539D01*
G75*
G02*
X156991539Y-131795000I-288461J0D01*
G01*
X156068461Y-131795000D01*
G75*
G02*
X155780000Y-131506539I0J288461D01*
G01*
G37*
%TD*%
%TO.C,R5*%
G36*
G01*
X174240000Y-87186539D02*
X174240000Y-84913461D01*
G75*
G02*
X174528461Y-84625000I288461J0D01*
G01*
X175451539Y-84625000D01*
G75*
G02*
X175740000Y-84913461I0J-288461D01*
G01*
X175740000Y-87186539D01*
G75*
G02*
X175451539Y-87475000I-288461J0D01*
G01*
X174528461Y-87475000D01*
G75*
G02*
X174240000Y-87186539I0J288461D01*
G01*
G37*
G36*
G01*
X171140000Y-87186539D02*
X171140000Y-84913461D01*
G75*
G02*
X171428461Y-84625000I288461J0D01*
G01*
X172351539Y-84625000D01*
G75*
G02*
X172640000Y-84913461I0J-288461D01*
G01*
X172640000Y-87186539D01*
G75*
G02*
X172351539Y-87475000I-288461J0D01*
G01*
X171428461Y-87475000D01*
G75*
G02*
X171140000Y-87186539I0J288461D01*
G01*
G37*
%TD*%
%TO.C,R6*%
G36*
G01*
X182930000Y-82823461D02*
X182930000Y-85096539D01*
G75*
G02*
X182641539Y-85385000I-288461J0D01*
G01*
X181718461Y-85385000D01*
G75*
G02*
X181430000Y-85096539I0J288461D01*
G01*
X181430000Y-82823461D01*
G75*
G02*
X181718461Y-82535000I288461J0D01*
G01*
X182641539Y-82535000D01*
G75*
G02*
X182930000Y-82823461I0J-288461D01*
G01*
G37*
G36*
G01*
X179830000Y-82823461D02*
X179830000Y-85096539D01*
G75*
G02*
X179541539Y-85385000I-288461J0D01*
G01*
X178618461Y-85385000D01*
G75*
G02*
X178330000Y-85096539I0J288461D01*
G01*
X178330000Y-82823461D01*
G75*
G02*
X178618461Y-82535000I288461J0D01*
G01*
X179541539Y-82535000D01*
G75*
G02*
X179830000Y-82823461I0J-288461D01*
G01*
G37*
%TD*%
%TO.C,R7*%
G36*
G01*
X178320000Y-96576539D02*
X178320000Y-94303461D01*
G75*
G02*
X178608461Y-94015000I288461J0D01*
G01*
X179531539Y-94015000D01*
G75*
G02*
X179820000Y-94303461I0J-288461D01*
G01*
X179820000Y-96576539D01*
G75*
G02*
X179531539Y-96865000I-288461J0D01*
G01*
X178608461Y-96865000D01*
G75*
G02*
X178320000Y-96576539I0J288461D01*
G01*
G37*
G36*
G01*
X175220000Y-96576539D02*
X175220000Y-94303461D01*
G75*
G02*
X175508461Y-94015000I288461J0D01*
G01*
X176431539Y-94015000D01*
G75*
G02*
X176720000Y-94303461I0J-288461D01*
G01*
X176720000Y-96576539D01*
G75*
G02*
X176431539Y-96865000I-288461J0D01*
G01*
X175508461Y-96865000D01*
G75*
G02*
X175220000Y-96576539I0J288461D01*
G01*
G37*
%TD*%
%TO.C,R8*%
G36*
G01*
X175270000Y-92576539D02*
X175270000Y-90303461D01*
G75*
G02*
X175558461Y-90015000I288461J0D01*
G01*
X176481539Y-90015000D01*
G75*
G02*
X176770000Y-90303461I0J-288461D01*
G01*
X176770000Y-92576539D01*
G75*
G02*
X176481539Y-92865000I-288461J0D01*
G01*
X175558461Y-92865000D01*
G75*
G02*
X175270000Y-92576539I0J288461D01*
G01*
G37*
G36*
G01*
X178370000Y-92576539D02*
X178370000Y-90303461D01*
G75*
G02*
X178658461Y-90015000I288461J0D01*
G01*
X179581539Y-90015000D01*
G75*
G02*
X179870000Y-90303461I0J-288461D01*
G01*
X179870000Y-92576539D01*
G75*
G02*
X179581539Y-92865000I-288461J0D01*
G01*
X178658461Y-92865000D01*
G75*
G02*
X178370000Y-92576539I0J288461D01*
G01*
G37*
%TD*%
M02*
