%TF.GenerationSoftware,KiCad,Pcbnew,5.1.9+dfsg1-1+deb11u1*%
%TF.CreationDate,2025-07-23T09:27:32+02:00*%
%TF.ProjectId,ESP32-BOBOARD-5V,45535033-322d-4424-9f42-4f4152442d35,rev?*%
%TF.SameCoordinates,Original*%
%TF.FileFunction,Soldermask,Top*%
%TF.FilePolarity,Negative*%
%FSLAX46Y46*%
G04 Gerber Fmt 4.6, Leading zero omitted, Abs format (unit mm)*
G04 Created by KiCad (PCBNEW 5.1.9+dfsg1-1+deb11u1) date 2025-07-23 09:27:32*
%MOMM*%
%LPD*%
G01*
G04 APERTURE LIST*
%ADD10O,1.900000X1.900000*%
%ADD11O,1.404000X2.604000*%
%ADD12O,1.362000X2.520000*%
%ADD13C,0.830000*%
%ADD14C,0.800000*%
G04 APERTURE END LIST*
D10*
%TO.C,J2*%
X150370000Y-124710000D03*
X150370000Y-122170000D03*
X150370000Y-119630000D03*
X150370000Y-117090000D03*
X150370000Y-114550000D03*
X150370000Y-112010000D03*
X150370000Y-109470000D03*
X150370000Y-106930000D03*
X150370000Y-104390000D03*
X150370000Y-101850000D03*
X150370000Y-99310000D03*
X150370000Y-96770000D03*
X150370000Y-94230000D03*
X150370000Y-91690000D03*
G36*
G01*
X149420000Y-90000000D02*
X149420000Y-88300000D01*
G75*
G02*
X149520000Y-88200000I100000J0D01*
G01*
X151220000Y-88200000D01*
G75*
G02*
X151320000Y-88300000I0J-100000D01*
G01*
X151320000Y-90000000D01*
G75*
G02*
X151220000Y-90100000I-100000J0D01*
G01*
X149520000Y-90100000D01*
G75*
G02*
X149420000Y-90000000I0J100000D01*
G01*
G37*
%TD*%
%TO.C,J1*%
X124980000Y-124710000D03*
X124980000Y-122170000D03*
X124980000Y-119630000D03*
X124980000Y-117090000D03*
X124980000Y-114550000D03*
X124980000Y-112010000D03*
X124980000Y-109470000D03*
X124980000Y-106930000D03*
X124980000Y-104390000D03*
X124980000Y-101850000D03*
X124980000Y-99310000D03*
X124980000Y-96770000D03*
X124980000Y-94230000D03*
X124980000Y-91690000D03*
G36*
G01*
X124030000Y-90000000D02*
X124030000Y-88300000D01*
G75*
G02*
X124130000Y-88200000I100000J0D01*
G01*
X125830000Y-88200000D01*
G75*
G02*
X125930000Y-88300000I0J-100000D01*
G01*
X125930000Y-90000000D01*
G75*
G02*
X125830000Y-90100000I-100000J0D01*
G01*
X124130000Y-90100000D01*
G75*
G02*
X124030000Y-90000000I0J100000D01*
G01*
G37*
%TD*%
%TO.C,J4*%
G36*
G01*
X157400000Y-78500000D02*
X156400000Y-78500000D01*
G75*
G02*
X156300000Y-78400000I0J100000D01*
G01*
X156300000Y-75890000D01*
G75*
G02*
X156400000Y-75790000I100000J0D01*
G01*
X157400000Y-75790000D01*
G75*
G02*
X157500000Y-75890000I0J-100000D01*
G01*
X157500000Y-78400000D01*
G75*
G02*
X157400000Y-78500000I-100000J0D01*
G01*
G37*
G36*
G01*
X159940000Y-81810000D02*
X158940000Y-81810000D01*
G75*
G02*
X158840000Y-81710000I0J100000D01*
G01*
X158840000Y-79200000D01*
G75*
G02*
X158940000Y-79100000I100000J0D01*
G01*
X159940000Y-79100000D01*
G75*
G02*
X160040000Y-79200000I0J-100000D01*
G01*
X160040000Y-81710000D01*
G75*
G02*
X159940000Y-81810000I-100000J0D01*
G01*
G37*
G36*
G01*
X154860000Y-81810000D02*
X153860000Y-81810000D01*
G75*
G02*
X153760000Y-81710000I0J100000D01*
G01*
X153760000Y-79200000D01*
G75*
G02*
X153860000Y-79100000I100000J0D01*
G01*
X154860000Y-79100000D01*
G75*
G02*
X154960000Y-79200000I0J-100000D01*
G01*
X154960000Y-81710000D01*
G75*
G02*
X154860000Y-81810000I-100000J0D01*
G01*
G37*
%TD*%
%TO.C,J3*%
G36*
G01*
X211180000Y-124800000D02*
X211180000Y-123800000D01*
G75*
G02*
X211280000Y-123700000I100000J0D01*
G01*
X214430000Y-123700000D01*
G75*
G02*
X214530000Y-123800000I0J-100000D01*
G01*
X214530000Y-124800000D01*
G75*
G02*
X214430000Y-124900000I-100000J0D01*
G01*
X211280000Y-124900000D01*
G75*
G02*
X211180000Y-124800000I0J100000D01*
G01*
G37*
G36*
G01*
X206130000Y-124800000D02*
X206130000Y-123800000D01*
G75*
G02*
X206230000Y-123700000I100000J0D01*
G01*
X209380000Y-123700000D01*
G75*
G02*
X209480000Y-123800000I0J-100000D01*
G01*
X209480000Y-124800000D01*
G75*
G02*
X209380000Y-124900000I-100000J0D01*
G01*
X206230000Y-124900000D01*
G75*
G02*
X206130000Y-124800000I0J100000D01*
G01*
G37*
G36*
G01*
X211180000Y-122260000D02*
X211180000Y-121260000D01*
G75*
G02*
X211280000Y-121160000I100000J0D01*
G01*
X214430000Y-121160000D01*
G75*
G02*
X214530000Y-121260000I0J-100000D01*
G01*
X214530000Y-122260000D01*
G75*
G02*
X214430000Y-122360000I-100000J0D01*
G01*
X211280000Y-122360000D01*
G75*
G02*
X211180000Y-122260000I0J100000D01*
G01*
G37*
G36*
G01*
X206130000Y-122260000D02*
X206130000Y-121260000D01*
G75*
G02*
X206230000Y-121160000I100000J0D01*
G01*
X209380000Y-121160000D01*
G75*
G02*
X209480000Y-121260000I0J-100000D01*
G01*
X209480000Y-122260000D01*
G75*
G02*
X209380000Y-122360000I-100000J0D01*
G01*
X206230000Y-122360000D01*
G75*
G02*
X206130000Y-122260000I0J100000D01*
G01*
G37*
G36*
G01*
X211180000Y-119720000D02*
X211180000Y-118720000D01*
G75*
G02*
X211280000Y-118620000I100000J0D01*
G01*
X214430000Y-118620000D01*
G75*
G02*
X214530000Y-118720000I0J-100000D01*
G01*
X214530000Y-119720000D01*
G75*
G02*
X214430000Y-119820000I-100000J0D01*
G01*
X211280000Y-119820000D01*
G75*
G02*
X211180000Y-119720000I0J100000D01*
G01*
G37*
G36*
G01*
X206130000Y-119720000D02*
X206130000Y-118720000D01*
G75*
G02*
X206230000Y-118620000I100000J0D01*
G01*
X209380000Y-118620000D01*
G75*
G02*
X209480000Y-118720000I0J-100000D01*
G01*
X209480000Y-119720000D01*
G75*
G02*
X209380000Y-119820000I-100000J0D01*
G01*
X206230000Y-119820000D01*
G75*
G02*
X206130000Y-119720000I0J100000D01*
G01*
G37*
G36*
G01*
X211180000Y-117180000D02*
X211180000Y-116180000D01*
G75*
G02*
X211280000Y-116080000I100000J0D01*
G01*
X214430000Y-116080000D01*
G75*
G02*
X214530000Y-116180000I0J-100000D01*
G01*
X214530000Y-117180000D01*
G75*
G02*
X214430000Y-117280000I-100000J0D01*
G01*
X211280000Y-117280000D01*
G75*
G02*
X211180000Y-117180000I0J100000D01*
G01*
G37*
G36*
G01*
X206130000Y-117180000D02*
X206130000Y-116180000D01*
G75*
G02*
X206230000Y-116080000I100000J0D01*
G01*
X209380000Y-116080000D01*
G75*
G02*
X209480000Y-116180000I0J-100000D01*
G01*
X209480000Y-117180000D01*
G75*
G02*
X209380000Y-117280000I-100000J0D01*
G01*
X206230000Y-117280000D01*
G75*
G02*
X206130000Y-117180000I0J100000D01*
G01*
G37*
G36*
G01*
X211180000Y-114640000D02*
X211180000Y-113640000D01*
G75*
G02*
X211280000Y-113540000I100000J0D01*
G01*
X214430000Y-113540000D01*
G75*
G02*
X214530000Y-113640000I0J-100000D01*
G01*
X214530000Y-114640000D01*
G75*
G02*
X214430000Y-114740000I-100000J0D01*
G01*
X211280000Y-114740000D01*
G75*
G02*
X211180000Y-114640000I0J100000D01*
G01*
G37*
G36*
G01*
X206130000Y-114640000D02*
X206130000Y-113640000D01*
G75*
G02*
X206230000Y-113540000I100000J0D01*
G01*
X209380000Y-113540000D01*
G75*
G02*
X209480000Y-113640000I0J-100000D01*
G01*
X209480000Y-114640000D01*
G75*
G02*
X209380000Y-114740000I-100000J0D01*
G01*
X206230000Y-114740000D01*
G75*
G02*
X206130000Y-114640000I0J100000D01*
G01*
G37*
G36*
G01*
X211180000Y-112100000D02*
X211180000Y-111100000D01*
G75*
G02*
X211280000Y-111000000I100000J0D01*
G01*
X214430000Y-111000000D01*
G75*
G02*
X214530000Y-111100000I0J-100000D01*
G01*
X214530000Y-112100000D01*
G75*
G02*
X214430000Y-112200000I-100000J0D01*
G01*
X211280000Y-112200000D01*
G75*
G02*
X211180000Y-112100000I0J100000D01*
G01*
G37*
G36*
G01*
X206130000Y-112100000D02*
X206130000Y-111100000D01*
G75*
G02*
X206230000Y-111000000I100000J0D01*
G01*
X209380000Y-111000000D01*
G75*
G02*
X209480000Y-111100000I0J-100000D01*
G01*
X209480000Y-112100000D01*
G75*
G02*
X209380000Y-112200000I-100000J0D01*
G01*
X206230000Y-112200000D01*
G75*
G02*
X206130000Y-112100000I0J100000D01*
G01*
G37*
G36*
G01*
X211180000Y-109560000D02*
X211180000Y-108560000D01*
G75*
G02*
X211280000Y-108460000I100000J0D01*
G01*
X214430000Y-108460000D01*
G75*
G02*
X214530000Y-108560000I0J-100000D01*
G01*
X214530000Y-109560000D01*
G75*
G02*
X214430000Y-109660000I-100000J0D01*
G01*
X211280000Y-109660000D01*
G75*
G02*
X211180000Y-109560000I0J100000D01*
G01*
G37*
G36*
G01*
X206130000Y-109560000D02*
X206130000Y-108560000D01*
G75*
G02*
X206230000Y-108460000I100000J0D01*
G01*
X209380000Y-108460000D01*
G75*
G02*
X209480000Y-108560000I0J-100000D01*
G01*
X209480000Y-109560000D01*
G75*
G02*
X209380000Y-109660000I-100000J0D01*
G01*
X206230000Y-109660000D01*
G75*
G02*
X206130000Y-109560000I0J100000D01*
G01*
G37*
G36*
G01*
X211180000Y-107020000D02*
X211180000Y-106020000D01*
G75*
G02*
X211280000Y-105920000I100000J0D01*
G01*
X214430000Y-105920000D01*
G75*
G02*
X214530000Y-106020000I0J-100000D01*
G01*
X214530000Y-107020000D01*
G75*
G02*
X214430000Y-107120000I-100000J0D01*
G01*
X211280000Y-107120000D01*
G75*
G02*
X211180000Y-107020000I0J100000D01*
G01*
G37*
G36*
G01*
X206130000Y-107020000D02*
X206130000Y-106020000D01*
G75*
G02*
X206230000Y-105920000I100000J0D01*
G01*
X209380000Y-105920000D01*
G75*
G02*
X209480000Y-106020000I0J-100000D01*
G01*
X209480000Y-107020000D01*
G75*
G02*
X209380000Y-107120000I-100000J0D01*
G01*
X206230000Y-107120000D01*
G75*
G02*
X206130000Y-107020000I0J100000D01*
G01*
G37*
G36*
G01*
X211180000Y-104480000D02*
X211180000Y-103480000D01*
G75*
G02*
X211280000Y-103380000I100000J0D01*
G01*
X214430000Y-103380000D01*
G75*
G02*
X214530000Y-103480000I0J-100000D01*
G01*
X214530000Y-104480000D01*
G75*
G02*
X214430000Y-104580000I-100000J0D01*
G01*
X211280000Y-104580000D01*
G75*
G02*
X211180000Y-104480000I0J100000D01*
G01*
G37*
G36*
G01*
X206130000Y-104480000D02*
X206130000Y-103480000D01*
G75*
G02*
X206230000Y-103380000I100000J0D01*
G01*
X209380000Y-103380000D01*
G75*
G02*
X209480000Y-103480000I0J-100000D01*
G01*
X209480000Y-104480000D01*
G75*
G02*
X209380000Y-104580000I-100000J0D01*
G01*
X206230000Y-104580000D01*
G75*
G02*
X206130000Y-104480000I0J100000D01*
G01*
G37*
G36*
G01*
X211180000Y-101940000D02*
X211180000Y-100940000D01*
G75*
G02*
X211280000Y-100840000I100000J0D01*
G01*
X214430000Y-100840000D01*
G75*
G02*
X214530000Y-100940000I0J-100000D01*
G01*
X214530000Y-101940000D01*
G75*
G02*
X214430000Y-102040000I-100000J0D01*
G01*
X211280000Y-102040000D01*
G75*
G02*
X211180000Y-101940000I0J100000D01*
G01*
G37*
G36*
G01*
X206130000Y-101940000D02*
X206130000Y-100940000D01*
G75*
G02*
X206230000Y-100840000I100000J0D01*
G01*
X209380000Y-100840000D01*
G75*
G02*
X209480000Y-100940000I0J-100000D01*
G01*
X209480000Y-101940000D01*
G75*
G02*
X209380000Y-102040000I-100000J0D01*
G01*
X206230000Y-102040000D01*
G75*
G02*
X206130000Y-101940000I0J100000D01*
G01*
G37*
G36*
G01*
X211180000Y-99400000D02*
X211180000Y-98400000D01*
G75*
G02*
X211280000Y-98300000I100000J0D01*
G01*
X214430000Y-98300000D01*
G75*
G02*
X214530000Y-98400000I0J-100000D01*
G01*
X214530000Y-99400000D01*
G75*
G02*
X214430000Y-99500000I-100000J0D01*
G01*
X211280000Y-99500000D01*
G75*
G02*
X211180000Y-99400000I0J100000D01*
G01*
G37*
G36*
G01*
X206130000Y-99400000D02*
X206130000Y-98400000D01*
G75*
G02*
X206230000Y-98300000I100000J0D01*
G01*
X209380000Y-98300000D01*
G75*
G02*
X209480000Y-98400000I0J-100000D01*
G01*
X209480000Y-99400000D01*
G75*
G02*
X209380000Y-99500000I-100000J0D01*
G01*
X206230000Y-99500000D01*
G75*
G02*
X206130000Y-99400000I0J100000D01*
G01*
G37*
G36*
G01*
X211180000Y-96860000D02*
X211180000Y-95860000D01*
G75*
G02*
X211280000Y-95760000I100000J0D01*
G01*
X214430000Y-95760000D01*
G75*
G02*
X214530000Y-95860000I0J-100000D01*
G01*
X214530000Y-96860000D01*
G75*
G02*
X214430000Y-96960000I-100000J0D01*
G01*
X211280000Y-96960000D01*
G75*
G02*
X211180000Y-96860000I0J100000D01*
G01*
G37*
G36*
G01*
X206130000Y-96860000D02*
X206130000Y-95860000D01*
G75*
G02*
X206230000Y-95760000I100000J0D01*
G01*
X209380000Y-95760000D01*
G75*
G02*
X209480000Y-95860000I0J-100000D01*
G01*
X209480000Y-96860000D01*
G75*
G02*
X209380000Y-96960000I-100000J0D01*
G01*
X206230000Y-96960000D01*
G75*
G02*
X206130000Y-96860000I0J100000D01*
G01*
G37*
G36*
G01*
X211180000Y-94320000D02*
X211180000Y-93320000D01*
G75*
G02*
X211280000Y-93220000I100000J0D01*
G01*
X214430000Y-93220000D01*
G75*
G02*
X214530000Y-93320000I0J-100000D01*
G01*
X214530000Y-94320000D01*
G75*
G02*
X214430000Y-94420000I-100000J0D01*
G01*
X211280000Y-94420000D01*
G75*
G02*
X211180000Y-94320000I0J100000D01*
G01*
G37*
G36*
G01*
X206130000Y-94320000D02*
X206130000Y-93320000D01*
G75*
G02*
X206230000Y-93220000I100000J0D01*
G01*
X209380000Y-93220000D01*
G75*
G02*
X209480000Y-93320000I0J-100000D01*
G01*
X209480000Y-94320000D01*
G75*
G02*
X209380000Y-94420000I-100000J0D01*
G01*
X206230000Y-94420000D01*
G75*
G02*
X206130000Y-94320000I0J100000D01*
G01*
G37*
G36*
G01*
X211180000Y-91780000D02*
X211180000Y-90780000D01*
G75*
G02*
X211280000Y-90680000I100000J0D01*
G01*
X214430000Y-90680000D01*
G75*
G02*
X214530000Y-90780000I0J-100000D01*
G01*
X214530000Y-91780000D01*
G75*
G02*
X214430000Y-91880000I-100000J0D01*
G01*
X211280000Y-91880000D01*
G75*
G02*
X211180000Y-91780000I0J100000D01*
G01*
G37*
G36*
G01*
X206130000Y-91780000D02*
X206130000Y-90780000D01*
G75*
G02*
X206230000Y-90680000I100000J0D01*
G01*
X209380000Y-90680000D01*
G75*
G02*
X209480000Y-90780000I0J-100000D01*
G01*
X209480000Y-91780000D01*
G75*
G02*
X209380000Y-91880000I-100000J0D01*
G01*
X206230000Y-91880000D01*
G75*
G02*
X206130000Y-91780000I0J100000D01*
G01*
G37*
G36*
G01*
X211180000Y-89240000D02*
X211180000Y-88240000D01*
G75*
G02*
X211280000Y-88140000I100000J0D01*
G01*
X214430000Y-88140000D01*
G75*
G02*
X214530000Y-88240000I0J-100000D01*
G01*
X214530000Y-89240000D01*
G75*
G02*
X214430000Y-89340000I-100000J0D01*
G01*
X211280000Y-89340000D01*
G75*
G02*
X211180000Y-89240000I0J100000D01*
G01*
G37*
G36*
G01*
X206130000Y-89240000D02*
X206130000Y-88240000D01*
G75*
G02*
X206230000Y-88140000I100000J0D01*
G01*
X209380000Y-88140000D01*
G75*
G02*
X209480000Y-88240000I0J-100000D01*
G01*
X209480000Y-89240000D01*
G75*
G02*
X209380000Y-89340000I-100000J0D01*
G01*
X206230000Y-89340000D01*
G75*
G02*
X206130000Y-89240000I0J100000D01*
G01*
G37*
G36*
G01*
X211180000Y-86700000D02*
X211180000Y-85700000D01*
G75*
G02*
X211280000Y-85600000I100000J0D01*
G01*
X214430000Y-85600000D01*
G75*
G02*
X214530000Y-85700000I0J-100000D01*
G01*
X214530000Y-86700000D01*
G75*
G02*
X214430000Y-86800000I-100000J0D01*
G01*
X211280000Y-86800000D01*
G75*
G02*
X211180000Y-86700000I0J100000D01*
G01*
G37*
G36*
G01*
X206130000Y-86700000D02*
X206130000Y-85700000D01*
G75*
G02*
X206230000Y-85600000I100000J0D01*
G01*
X209380000Y-85600000D01*
G75*
G02*
X209480000Y-85700000I0J-100000D01*
G01*
X209480000Y-86700000D01*
G75*
G02*
X209380000Y-86800000I-100000J0D01*
G01*
X206230000Y-86800000D01*
G75*
G02*
X206130000Y-86700000I0J100000D01*
G01*
G37*
%TD*%
%TO.C,R8*%
G36*
G01*
X178300000Y-92686540D02*
X178300000Y-90413460D01*
G75*
G02*
X178588460Y-90125000I288460J0D01*
G01*
X179511540Y-90125000D01*
G75*
G02*
X179800000Y-90413460I0J-288460D01*
G01*
X179800000Y-92686540D01*
G75*
G02*
X179511540Y-92975000I-288460J0D01*
G01*
X178588460Y-92975000D01*
G75*
G02*
X178300000Y-92686540I0J288460D01*
G01*
G37*
G36*
G01*
X175200000Y-92686540D02*
X175200000Y-90413460D01*
G75*
G02*
X175488460Y-90125000I288460J0D01*
G01*
X176411540Y-90125000D01*
G75*
G02*
X176700000Y-90413460I0J-288460D01*
G01*
X176700000Y-92686540D01*
G75*
G02*
X176411540Y-92975000I-288460J0D01*
G01*
X175488460Y-92975000D01*
G75*
G02*
X175200000Y-92686540I0J288460D01*
G01*
G37*
%TD*%
%TO.C,R7*%
G36*
G01*
X178350000Y-96286540D02*
X178350000Y-94013460D01*
G75*
G02*
X178638460Y-93725000I288460J0D01*
G01*
X179561540Y-93725000D01*
G75*
G02*
X179850000Y-94013460I0J-288460D01*
G01*
X179850000Y-96286540D01*
G75*
G02*
X179561540Y-96575000I-288460J0D01*
G01*
X178638460Y-96575000D01*
G75*
G02*
X178350000Y-96286540I0J288460D01*
G01*
G37*
G36*
G01*
X175250000Y-96286540D02*
X175250000Y-94013460D01*
G75*
G02*
X175538460Y-93725000I288460J0D01*
G01*
X176461540Y-93725000D01*
G75*
G02*
X176750000Y-94013460I0J-288460D01*
G01*
X176750000Y-96286540D01*
G75*
G02*
X176461540Y-96575000I-288460J0D01*
G01*
X175538460Y-96575000D01*
G75*
G02*
X175250000Y-96286540I0J288460D01*
G01*
G37*
%TD*%
%TO.C,R6*%
G36*
G01*
X181500000Y-85286540D02*
X181500000Y-83013460D01*
G75*
G02*
X181788460Y-82725000I288460J0D01*
G01*
X182711540Y-82725000D01*
G75*
G02*
X183000000Y-83013460I0J-288460D01*
G01*
X183000000Y-85286540D01*
G75*
G02*
X182711540Y-85575000I-288460J0D01*
G01*
X181788460Y-85575000D01*
G75*
G02*
X181500000Y-85286540I0J288460D01*
G01*
G37*
G36*
G01*
X178400000Y-85286540D02*
X178400000Y-83013460D01*
G75*
G02*
X178688460Y-82725000I288460J0D01*
G01*
X179611540Y-82725000D01*
G75*
G02*
X179900000Y-83013460I0J-288460D01*
G01*
X179900000Y-85286540D01*
G75*
G02*
X179611540Y-85575000I-288460J0D01*
G01*
X178688460Y-85575000D01*
G75*
G02*
X178400000Y-85286540I0J288460D01*
G01*
G37*
%TD*%
%TO.C,R5*%
G36*
G01*
X174150000Y-87836540D02*
X174150000Y-85563460D01*
G75*
G02*
X174438460Y-85275000I288460J0D01*
G01*
X175361540Y-85275000D01*
G75*
G02*
X175650000Y-85563460I0J-288460D01*
G01*
X175650000Y-87836540D01*
G75*
G02*
X175361540Y-88125000I-288460J0D01*
G01*
X174438460Y-88125000D01*
G75*
G02*
X174150000Y-87836540I0J288460D01*
G01*
G37*
G36*
G01*
X171050000Y-87836540D02*
X171050000Y-85563460D01*
G75*
G02*
X171338460Y-85275000I288460J0D01*
G01*
X172261540Y-85275000D01*
G75*
G02*
X172550000Y-85563460I0J-288460D01*
G01*
X172550000Y-87836540D01*
G75*
G02*
X172261540Y-88125000I-288460J0D01*
G01*
X171338460Y-88125000D01*
G75*
G02*
X171050000Y-87836540I0J288460D01*
G01*
G37*
%TD*%
D11*
%TO.C,J5*%
X167980000Y-76000000D03*
X176620000Y-76000000D03*
D12*
X167980000Y-79825000D03*
X176620000Y-79825000D03*
D13*
X175300000Y-79100000D03*
G36*
G01*
X171502000Y-75000000D02*
X171502000Y-77000000D01*
G75*
G02*
X171400000Y-77102000I-102000J0D01*
G01*
X170400000Y-77102000D01*
G75*
G02*
X170298000Y-77000000I0J102000D01*
G01*
X170298000Y-75000000D01*
G75*
G02*
X170400000Y-74898000I102000J0D01*
G01*
X171400000Y-74898000D01*
G75*
G02*
X171502000Y-75000000I0J-102000D01*
G01*
G37*
G36*
G01*
X174302000Y-75000000D02*
X174302000Y-77000000D01*
G75*
G02*
X174200000Y-77102000I-102000J0D01*
G01*
X173200000Y-77102000D01*
G75*
G02*
X173098000Y-77000000I0J102000D01*
G01*
X173098000Y-75000000D01*
G75*
G02*
X173200000Y-74898000I102000J0D01*
G01*
X174200000Y-74898000D01*
G75*
G02*
X174302000Y-75000000I0J-102000D01*
G01*
G37*
X169300000Y-79100000D03*
D14*
X169300000Y-79100000D03*
G36*
G01*
X171287000Y-79700000D02*
X171287000Y-80700000D01*
G75*
G02*
X171185000Y-80802000I-102000J0D01*
G01*
X170915000Y-80802000D01*
G75*
G02*
X170813000Y-80700000I0J102000D01*
G01*
X170813000Y-79700000D01*
G75*
G02*
X170915000Y-79598000I102000J0D01*
G01*
X171185000Y-79598000D01*
G75*
G02*
X171287000Y-79700000I0J-102000D01*
G01*
G37*
G36*
G01*
X171787000Y-79700000D02*
X171787000Y-80700000D01*
G75*
G02*
X171685000Y-80802000I-102000J0D01*
G01*
X171415000Y-80802000D01*
G75*
G02*
X171313000Y-80700000I0J102000D01*
G01*
X171313000Y-79700000D01*
G75*
G02*
X171415000Y-79598000I102000J0D01*
G01*
X171685000Y-79598000D01*
G75*
G02*
X171787000Y-79700000I0J-102000D01*
G01*
G37*
G36*
G01*
X172287000Y-79700000D02*
X172287000Y-80700000D01*
G75*
G02*
X172185000Y-80802000I-102000J0D01*
G01*
X171915000Y-80802000D01*
G75*
G02*
X171813000Y-80700000I0J102000D01*
G01*
X171813000Y-79700000D01*
G75*
G02*
X171915000Y-79598000I102000J0D01*
G01*
X172185000Y-79598000D01*
G75*
G02*
X172287000Y-79700000I0J-102000D01*
G01*
G37*
G36*
G01*
X172787000Y-79700000D02*
X172787000Y-80700000D01*
G75*
G02*
X172685000Y-80802000I-102000J0D01*
G01*
X172415000Y-80802000D01*
G75*
G02*
X172313000Y-80700000I0J102000D01*
G01*
X172313000Y-79700000D01*
G75*
G02*
X172415000Y-79598000I102000J0D01*
G01*
X172685000Y-79598000D01*
G75*
G02*
X172787000Y-79700000I0J-102000D01*
G01*
G37*
G36*
G01*
X173287000Y-79700000D02*
X173287000Y-80700000D01*
G75*
G02*
X173185000Y-80802000I-102000J0D01*
G01*
X172915000Y-80802000D01*
G75*
G02*
X172813000Y-80700000I0J102000D01*
G01*
X172813000Y-79700000D01*
G75*
G02*
X172915000Y-79598000I102000J0D01*
G01*
X173185000Y-79598000D01*
G75*
G02*
X173287000Y-79700000I0J-102000D01*
G01*
G37*
G36*
G01*
X173787000Y-79700000D02*
X173787000Y-80700000D01*
G75*
G02*
X173685000Y-80802000I-102000J0D01*
G01*
X173415000Y-80802000D01*
G75*
G02*
X173313000Y-80700000I0J102000D01*
G01*
X173313000Y-79700000D01*
G75*
G02*
X173415000Y-79598000I102000J0D01*
G01*
X173685000Y-79598000D01*
G75*
G02*
X173787000Y-79700000I0J-102000D01*
G01*
G37*
G36*
G01*
X170787000Y-79700000D02*
X170787000Y-80700000D01*
G75*
G02*
X170685000Y-80802000I-102000J0D01*
G01*
X170415000Y-80802000D01*
G75*
G02*
X170313000Y-80700000I0J102000D01*
G01*
X170313000Y-79700000D01*
G75*
G02*
X170415000Y-79598000I102000J0D01*
G01*
X170685000Y-79598000D01*
G75*
G02*
X170787000Y-79700000I0J-102000D01*
G01*
G37*
G36*
G01*
X174287000Y-79700000D02*
X174287000Y-80700000D01*
G75*
G02*
X174185000Y-80802000I-102000J0D01*
G01*
X173915000Y-80802000D01*
G75*
G02*
X173813000Y-80700000I0J102000D01*
G01*
X173813000Y-79700000D01*
G75*
G02*
X173915000Y-79598000I102000J0D01*
G01*
X174185000Y-79598000D01*
G75*
G02*
X174287000Y-79700000I0J-102000D01*
G01*
G37*
G36*
G01*
X170312000Y-79700000D02*
X170312000Y-80700000D01*
G75*
G02*
X170210000Y-80802000I-102000J0D01*
G01*
X169690000Y-80802000D01*
G75*
G02*
X169588000Y-80700000I0J102000D01*
G01*
X169588000Y-79700000D01*
G75*
G02*
X169690000Y-79598000I102000J0D01*
G01*
X170210000Y-79598000D01*
G75*
G02*
X170312000Y-79700000I0J-102000D01*
G01*
G37*
G36*
G01*
X175012000Y-79700000D02*
X175012000Y-80700000D01*
G75*
G02*
X174910000Y-80802000I-102000J0D01*
G01*
X174390000Y-80802000D01*
G75*
G02*
X174288000Y-80700000I0J102000D01*
G01*
X174288000Y-79700000D01*
G75*
G02*
X174390000Y-79598000I102000J0D01*
G01*
X174910000Y-79598000D01*
G75*
G02*
X175012000Y-79700000I0J-102000D01*
G01*
G37*
G36*
G01*
X169562000Y-79700000D02*
X169562000Y-80700000D01*
G75*
G02*
X169460000Y-80802000I-102000J0D01*
G01*
X168940000Y-80802000D01*
G75*
G02*
X168838000Y-80700000I0J102000D01*
G01*
X168838000Y-79700000D01*
G75*
G02*
X168940000Y-79598000I102000J0D01*
G01*
X169460000Y-79598000D01*
G75*
G02*
X169562000Y-79700000I0J-102000D01*
G01*
G37*
G36*
G01*
X175762000Y-79700000D02*
X175762000Y-80700000D01*
G75*
G02*
X175660000Y-80802000I-102000J0D01*
G01*
X175140000Y-80802000D01*
G75*
G02*
X175038000Y-80700000I0J102000D01*
G01*
X175038000Y-79700000D01*
G75*
G02*
X175140000Y-79598000I102000J0D01*
G01*
X175660000Y-79598000D01*
G75*
G02*
X175762000Y-79700000I0J-102000D01*
G01*
G37*
%TD*%
%TO.C,C10*%
G36*
G01*
X180562268Y-77800000D02*
X178237732Y-77800000D01*
G75*
G02*
X177950000Y-77512268I0J287732D01*
G01*
X177950000Y-76562732D01*
G75*
G02*
X178237732Y-76275000I287732J0D01*
G01*
X180562268Y-76275000D01*
G75*
G02*
X180850000Y-76562732I0J-287732D01*
G01*
X180850000Y-77512268D01*
G75*
G02*
X180562268Y-77800000I-287732J0D01*
G01*
G37*
G36*
G01*
X180562268Y-80925000D02*
X178237732Y-80925000D01*
G75*
G02*
X177950000Y-80637268I0J287732D01*
G01*
X177950000Y-79687732D01*
G75*
G02*
X178237732Y-79400000I287732J0D01*
G01*
X180562268Y-79400000D01*
G75*
G02*
X180850000Y-79687732I0J-287732D01*
G01*
X180850000Y-80637268D01*
G75*
G02*
X180562268Y-80925000I-287732J0D01*
G01*
G37*
%TD*%
%TO.C,C9*%
G36*
G01*
X174150000Y-84462268D02*
X174150000Y-82137732D01*
G75*
G02*
X174437732Y-81850000I287732J0D01*
G01*
X175387268Y-81850000D01*
G75*
G02*
X175675000Y-82137732I0J-287732D01*
G01*
X175675000Y-84462268D01*
G75*
G02*
X175387268Y-84750000I-287732J0D01*
G01*
X174437732Y-84750000D01*
G75*
G02*
X174150000Y-84462268I0J287732D01*
G01*
G37*
G36*
G01*
X171025000Y-84462268D02*
X171025000Y-82137732D01*
G75*
G02*
X171312732Y-81850000I287732J0D01*
G01*
X172262268Y-81850000D01*
G75*
G02*
X172550000Y-82137732I0J-287732D01*
G01*
X172550000Y-84462268D01*
G75*
G02*
X172262268Y-84750000I-287732J0D01*
G01*
X171312732Y-84750000D01*
G75*
G02*
X171025000Y-84462268I0J287732D01*
G01*
G37*
%TD*%
%TO.C,U4*%
G36*
G01*
X165025000Y-122225000D02*
X165025000Y-121925000D01*
G75*
G02*
X165175000Y-121775000I150000J0D01*
G01*
X166550000Y-121775000D01*
G75*
G02*
X166700000Y-121925000I0J-150000D01*
G01*
X166700000Y-122225000D01*
G75*
G02*
X166550000Y-122375000I-150000J0D01*
G01*
X165175000Y-122375000D01*
G75*
G02*
X165025000Y-122225000I0J150000D01*
G01*
G37*
G36*
G01*
X165025000Y-122875000D02*
X165025000Y-122575000D01*
G75*
G02*
X165175000Y-122425000I150000J0D01*
G01*
X166550000Y-122425000D01*
G75*
G02*
X166700000Y-122575000I0J-150000D01*
G01*
X166700000Y-122875000D01*
G75*
G02*
X166550000Y-123025000I-150000J0D01*
G01*
X165175000Y-123025000D01*
G75*
G02*
X165025000Y-122875000I0J150000D01*
G01*
G37*
G36*
G01*
X165025000Y-123525000D02*
X165025000Y-123225000D01*
G75*
G02*
X165175000Y-123075000I150000J0D01*
G01*
X166550000Y-123075000D01*
G75*
G02*
X166700000Y-123225000I0J-150000D01*
G01*
X166700000Y-123525000D01*
G75*
G02*
X166550000Y-123675000I-150000J0D01*
G01*
X165175000Y-123675000D01*
G75*
G02*
X165025000Y-123525000I0J150000D01*
G01*
G37*
G36*
G01*
X165025000Y-124175000D02*
X165025000Y-123875000D01*
G75*
G02*
X165175000Y-123725000I150000J0D01*
G01*
X166550000Y-123725000D01*
G75*
G02*
X166700000Y-123875000I0J-150000D01*
G01*
X166700000Y-124175000D01*
G75*
G02*
X166550000Y-124325000I-150000J0D01*
G01*
X165175000Y-124325000D01*
G75*
G02*
X165025000Y-124175000I0J150000D01*
G01*
G37*
G36*
G01*
X165025000Y-124825000D02*
X165025000Y-124525000D01*
G75*
G02*
X165175000Y-124375000I150000J0D01*
G01*
X166550000Y-124375000D01*
G75*
G02*
X166700000Y-124525000I0J-150000D01*
G01*
X166700000Y-124825000D01*
G75*
G02*
X166550000Y-124975000I-150000J0D01*
G01*
X165175000Y-124975000D01*
G75*
G02*
X165025000Y-124825000I0J150000D01*
G01*
G37*
G36*
G01*
X165025000Y-125475000D02*
X165025000Y-125175000D01*
G75*
G02*
X165175000Y-125025000I150000J0D01*
G01*
X166550000Y-125025000D01*
G75*
G02*
X166700000Y-125175000I0J-150000D01*
G01*
X166700000Y-125475000D01*
G75*
G02*
X166550000Y-125625000I-150000J0D01*
G01*
X165175000Y-125625000D01*
G75*
G02*
X165025000Y-125475000I0J150000D01*
G01*
G37*
G36*
G01*
X165025000Y-126125000D02*
X165025000Y-125825000D01*
G75*
G02*
X165175000Y-125675000I150000J0D01*
G01*
X166550000Y-125675000D01*
G75*
G02*
X166700000Y-125825000I0J-150000D01*
G01*
X166700000Y-126125000D01*
G75*
G02*
X166550000Y-126275000I-150000J0D01*
G01*
X165175000Y-126275000D01*
G75*
G02*
X165025000Y-126125000I0J150000D01*
G01*
G37*
G36*
G01*
X165025000Y-126775000D02*
X165025000Y-126475000D01*
G75*
G02*
X165175000Y-126325000I150000J0D01*
G01*
X166550000Y-126325000D01*
G75*
G02*
X166700000Y-126475000I0J-150000D01*
G01*
X166700000Y-126775000D01*
G75*
G02*
X166550000Y-126925000I-150000J0D01*
G01*
X165175000Y-126925000D01*
G75*
G02*
X165025000Y-126775000I0J150000D01*
G01*
G37*
G36*
G01*
X165025000Y-127425000D02*
X165025000Y-127125000D01*
G75*
G02*
X165175000Y-126975000I150000J0D01*
G01*
X166550000Y-126975000D01*
G75*
G02*
X166700000Y-127125000I0J-150000D01*
G01*
X166700000Y-127425000D01*
G75*
G02*
X166550000Y-127575000I-150000J0D01*
G01*
X165175000Y-127575000D01*
G75*
G02*
X165025000Y-127425000I0J150000D01*
G01*
G37*
G36*
G01*
X165025000Y-128075000D02*
X165025000Y-127775000D01*
G75*
G02*
X165175000Y-127625000I150000J0D01*
G01*
X166550000Y-127625000D01*
G75*
G02*
X166700000Y-127775000I0J-150000D01*
G01*
X166700000Y-128075000D01*
G75*
G02*
X166550000Y-128225000I-150000J0D01*
G01*
X165175000Y-128225000D01*
G75*
G02*
X165025000Y-128075000I0J150000D01*
G01*
G37*
G36*
G01*
X159300000Y-128075000D02*
X159300000Y-127775000D01*
G75*
G02*
X159450000Y-127625000I150000J0D01*
G01*
X160825000Y-127625000D01*
G75*
G02*
X160975000Y-127775000I0J-150000D01*
G01*
X160975000Y-128075000D01*
G75*
G02*
X160825000Y-128225000I-150000J0D01*
G01*
X159450000Y-128225000D01*
G75*
G02*
X159300000Y-128075000I0J150000D01*
G01*
G37*
G36*
G01*
X159300000Y-127425000D02*
X159300000Y-127125000D01*
G75*
G02*
X159450000Y-126975000I150000J0D01*
G01*
X160825000Y-126975000D01*
G75*
G02*
X160975000Y-127125000I0J-150000D01*
G01*
X160975000Y-127425000D01*
G75*
G02*
X160825000Y-127575000I-150000J0D01*
G01*
X159450000Y-127575000D01*
G75*
G02*
X159300000Y-127425000I0J150000D01*
G01*
G37*
G36*
G01*
X159300000Y-126775000D02*
X159300000Y-126475000D01*
G75*
G02*
X159450000Y-126325000I150000J0D01*
G01*
X160825000Y-126325000D01*
G75*
G02*
X160975000Y-126475000I0J-150000D01*
G01*
X160975000Y-126775000D01*
G75*
G02*
X160825000Y-126925000I-150000J0D01*
G01*
X159450000Y-126925000D01*
G75*
G02*
X159300000Y-126775000I0J150000D01*
G01*
G37*
G36*
G01*
X159300000Y-126125000D02*
X159300000Y-125825000D01*
G75*
G02*
X159450000Y-125675000I150000J0D01*
G01*
X160825000Y-125675000D01*
G75*
G02*
X160975000Y-125825000I0J-150000D01*
G01*
X160975000Y-126125000D01*
G75*
G02*
X160825000Y-126275000I-150000J0D01*
G01*
X159450000Y-126275000D01*
G75*
G02*
X159300000Y-126125000I0J150000D01*
G01*
G37*
G36*
G01*
X159300000Y-125475000D02*
X159300000Y-125175000D01*
G75*
G02*
X159450000Y-125025000I150000J0D01*
G01*
X160825000Y-125025000D01*
G75*
G02*
X160975000Y-125175000I0J-150000D01*
G01*
X160975000Y-125475000D01*
G75*
G02*
X160825000Y-125625000I-150000J0D01*
G01*
X159450000Y-125625000D01*
G75*
G02*
X159300000Y-125475000I0J150000D01*
G01*
G37*
G36*
G01*
X159300000Y-124825000D02*
X159300000Y-124525000D01*
G75*
G02*
X159450000Y-124375000I150000J0D01*
G01*
X160825000Y-124375000D01*
G75*
G02*
X160975000Y-124525000I0J-150000D01*
G01*
X160975000Y-124825000D01*
G75*
G02*
X160825000Y-124975000I-150000J0D01*
G01*
X159450000Y-124975000D01*
G75*
G02*
X159300000Y-124825000I0J150000D01*
G01*
G37*
G36*
G01*
X159300000Y-124175000D02*
X159300000Y-123875000D01*
G75*
G02*
X159450000Y-123725000I150000J0D01*
G01*
X160825000Y-123725000D01*
G75*
G02*
X160975000Y-123875000I0J-150000D01*
G01*
X160975000Y-124175000D01*
G75*
G02*
X160825000Y-124325000I-150000J0D01*
G01*
X159450000Y-124325000D01*
G75*
G02*
X159300000Y-124175000I0J150000D01*
G01*
G37*
G36*
G01*
X159300000Y-123525000D02*
X159300000Y-123225000D01*
G75*
G02*
X159450000Y-123075000I150000J0D01*
G01*
X160825000Y-123075000D01*
G75*
G02*
X160975000Y-123225000I0J-150000D01*
G01*
X160975000Y-123525000D01*
G75*
G02*
X160825000Y-123675000I-150000J0D01*
G01*
X159450000Y-123675000D01*
G75*
G02*
X159300000Y-123525000I0J150000D01*
G01*
G37*
G36*
G01*
X159300000Y-122875000D02*
X159300000Y-122575000D01*
G75*
G02*
X159450000Y-122425000I150000J0D01*
G01*
X160825000Y-122425000D01*
G75*
G02*
X160975000Y-122575000I0J-150000D01*
G01*
X160975000Y-122875000D01*
G75*
G02*
X160825000Y-123025000I-150000J0D01*
G01*
X159450000Y-123025000D01*
G75*
G02*
X159300000Y-122875000I0J150000D01*
G01*
G37*
G36*
G01*
X159300000Y-122225000D02*
X159300000Y-121925000D01*
G75*
G02*
X159450000Y-121775000I150000J0D01*
G01*
X160825000Y-121775000D01*
G75*
G02*
X160975000Y-121925000I0J-150000D01*
G01*
X160975000Y-122225000D01*
G75*
G02*
X160825000Y-122375000I-150000J0D01*
G01*
X159450000Y-122375000D01*
G75*
G02*
X159300000Y-122225000I0J150000D01*
G01*
G37*
%TD*%
%TO.C,U3*%
G36*
G01*
X165025000Y-104225000D02*
X165025000Y-103925000D01*
G75*
G02*
X165175000Y-103775000I150000J0D01*
G01*
X166550000Y-103775000D01*
G75*
G02*
X166700000Y-103925000I0J-150000D01*
G01*
X166700000Y-104225000D01*
G75*
G02*
X166550000Y-104375000I-150000J0D01*
G01*
X165175000Y-104375000D01*
G75*
G02*
X165025000Y-104225000I0J150000D01*
G01*
G37*
G36*
G01*
X165025000Y-104875000D02*
X165025000Y-104575000D01*
G75*
G02*
X165175000Y-104425000I150000J0D01*
G01*
X166550000Y-104425000D01*
G75*
G02*
X166700000Y-104575000I0J-150000D01*
G01*
X166700000Y-104875000D01*
G75*
G02*
X166550000Y-105025000I-150000J0D01*
G01*
X165175000Y-105025000D01*
G75*
G02*
X165025000Y-104875000I0J150000D01*
G01*
G37*
G36*
G01*
X165025000Y-105525000D02*
X165025000Y-105225000D01*
G75*
G02*
X165175000Y-105075000I150000J0D01*
G01*
X166550000Y-105075000D01*
G75*
G02*
X166700000Y-105225000I0J-150000D01*
G01*
X166700000Y-105525000D01*
G75*
G02*
X166550000Y-105675000I-150000J0D01*
G01*
X165175000Y-105675000D01*
G75*
G02*
X165025000Y-105525000I0J150000D01*
G01*
G37*
G36*
G01*
X165025000Y-106175000D02*
X165025000Y-105875000D01*
G75*
G02*
X165175000Y-105725000I150000J0D01*
G01*
X166550000Y-105725000D01*
G75*
G02*
X166700000Y-105875000I0J-150000D01*
G01*
X166700000Y-106175000D01*
G75*
G02*
X166550000Y-106325000I-150000J0D01*
G01*
X165175000Y-106325000D01*
G75*
G02*
X165025000Y-106175000I0J150000D01*
G01*
G37*
G36*
G01*
X165025000Y-106825000D02*
X165025000Y-106525000D01*
G75*
G02*
X165175000Y-106375000I150000J0D01*
G01*
X166550000Y-106375000D01*
G75*
G02*
X166700000Y-106525000I0J-150000D01*
G01*
X166700000Y-106825000D01*
G75*
G02*
X166550000Y-106975000I-150000J0D01*
G01*
X165175000Y-106975000D01*
G75*
G02*
X165025000Y-106825000I0J150000D01*
G01*
G37*
G36*
G01*
X165025000Y-107475000D02*
X165025000Y-107175000D01*
G75*
G02*
X165175000Y-107025000I150000J0D01*
G01*
X166550000Y-107025000D01*
G75*
G02*
X166700000Y-107175000I0J-150000D01*
G01*
X166700000Y-107475000D01*
G75*
G02*
X166550000Y-107625000I-150000J0D01*
G01*
X165175000Y-107625000D01*
G75*
G02*
X165025000Y-107475000I0J150000D01*
G01*
G37*
G36*
G01*
X165025000Y-108125000D02*
X165025000Y-107825000D01*
G75*
G02*
X165175000Y-107675000I150000J0D01*
G01*
X166550000Y-107675000D01*
G75*
G02*
X166700000Y-107825000I0J-150000D01*
G01*
X166700000Y-108125000D01*
G75*
G02*
X166550000Y-108275000I-150000J0D01*
G01*
X165175000Y-108275000D01*
G75*
G02*
X165025000Y-108125000I0J150000D01*
G01*
G37*
G36*
G01*
X165025000Y-108775000D02*
X165025000Y-108475000D01*
G75*
G02*
X165175000Y-108325000I150000J0D01*
G01*
X166550000Y-108325000D01*
G75*
G02*
X166700000Y-108475000I0J-150000D01*
G01*
X166700000Y-108775000D01*
G75*
G02*
X166550000Y-108925000I-150000J0D01*
G01*
X165175000Y-108925000D01*
G75*
G02*
X165025000Y-108775000I0J150000D01*
G01*
G37*
G36*
G01*
X165025000Y-109425000D02*
X165025000Y-109125000D01*
G75*
G02*
X165175000Y-108975000I150000J0D01*
G01*
X166550000Y-108975000D01*
G75*
G02*
X166700000Y-109125000I0J-150000D01*
G01*
X166700000Y-109425000D01*
G75*
G02*
X166550000Y-109575000I-150000J0D01*
G01*
X165175000Y-109575000D01*
G75*
G02*
X165025000Y-109425000I0J150000D01*
G01*
G37*
G36*
G01*
X165025000Y-110075000D02*
X165025000Y-109775000D01*
G75*
G02*
X165175000Y-109625000I150000J0D01*
G01*
X166550000Y-109625000D01*
G75*
G02*
X166700000Y-109775000I0J-150000D01*
G01*
X166700000Y-110075000D01*
G75*
G02*
X166550000Y-110225000I-150000J0D01*
G01*
X165175000Y-110225000D01*
G75*
G02*
X165025000Y-110075000I0J150000D01*
G01*
G37*
G36*
G01*
X159300000Y-110075000D02*
X159300000Y-109775000D01*
G75*
G02*
X159450000Y-109625000I150000J0D01*
G01*
X160825000Y-109625000D01*
G75*
G02*
X160975000Y-109775000I0J-150000D01*
G01*
X160975000Y-110075000D01*
G75*
G02*
X160825000Y-110225000I-150000J0D01*
G01*
X159450000Y-110225000D01*
G75*
G02*
X159300000Y-110075000I0J150000D01*
G01*
G37*
G36*
G01*
X159300000Y-109425000D02*
X159300000Y-109125000D01*
G75*
G02*
X159450000Y-108975000I150000J0D01*
G01*
X160825000Y-108975000D01*
G75*
G02*
X160975000Y-109125000I0J-150000D01*
G01*
X160975000Y-109425000D01*
G75*
G02*
X160825000Y-109575000I-150000J0D01*
G01*
X159450000Y-109575000D01*
G75*
G02*
X159300000Y-109425000I0J150000D01*
G01*
G37*
G36*
G01*
X159300000Y-108775000D02*
X159300000Y-108475000D01*
G75*
G02*
X159450000Y-108325000I150000J0D01*
G01*
X160825000Y-108325000D01*
G75*
G02*
X160975000Y-108475000I0J-150000D01*
G01*
X160975000Y-108775000D01*
G75*
G02*
X160825000Y-108925000I-150000J0D01*
G01*
X159450000Y-108925000D01*
G75*
G02*
X159300000Y-108775000I0J150000D01*
G01*
G37*
G36*
G01*
X159300000Y-108125000D02*
X159300000Y-107825000D01*
G75*
G02*
X159450000Y-107675000I150000J0D01*
G01*
X160825000Y-107675000D01*
G75*
G02*
X160975000Y-107825000I0J-150000D01*
G01*
X160975000Y-108125000D01*
G75*
G02*
X160825000Y-108275000I-150000J0D01*
G01*
X159450000Y-108275000D01*
G75*
G02*
X159300000Y-108125000I0J150000D01*
G01*
G37*
G36*
G01*
X159300000Y-107475000D02*
X159300000Y-107175000D01*
G75*
G02*
X159450000Y-107025000I150000J0D01*
G01*
X160825000Y-107025000D01*
G75*
G02*
X160975000Y-107175000I0J-150000D01*
G01*
X160975000Y-107475000D01*
G75*
G02*
X160825000Y-107625000I-150000J0D01*
G01*
X159450000Y-107625000D01*
G75*
G02*
X159300000Y-107475000I0J150000D01*
G01*
G37*
G36*
G01*
X159300000Y-106825000D02*
X159300000Y-106525000D01*
G75*
G02*
X159450000Y-106375000I150000J0D01*
G01*
X160825000Y-106375000D01*
G75*
G02*
X160975000Y-106525000I0J-150000D01*
G01*
X160975000Y-106825000D01*
G75*
G02*
X160825000Y-106975000I-150000J0D01*
G01*
X159450000Y-106975000D01*
G75*
G02*
X159300000Y-106825000I0J150000D01*
G01*
G37*
G36*
G01*
X159300000Y-106175000D02*
X159300000Y-105875000D01*
G75*
G02*
X159450000Y-105725000I150000J0D01*
G01*
X160825000Y-105725000D01*
G75*
G02*
X160975000Y-105875000I0J-150000D01*
G01*
X160975000Y-106175000D01*
G75*
G02*
X160825000Y-106325000I-150000J0D01*
G01*
X159450000Y-106325000D01*
G75*
G02*
X159300000Y-106175000I0J150000D01*
G01*
G37*
G36*
G01*
X159300000Y-105525000D02*
X159300000Y-105225000D01*
G75*
G02*
X159450000Y-105075000I150000J0D01*
G01*
X160825000Y-105075000D01*
G75*
G02*
X160975000Y-105225000I0J-150000D01*
G01*
X160975000Y-105525000D01*
G75*
G02*
X160825000Y-105675000I-150000J0D01*
G01*
X159450000Y-105675000D01*
G75*
G02*
X159300000Y-105525000I0J150000D01*
G01*
G37*
G36*
G01*
X159300000Y-104875000D02*
X159300000Y-104575000D01*
G75*
G02*
X159450000Y-104425000I150000J0D01*
G01*
X160825000Y-104425000D01*
G75*
G02*
X160975000Y-104575000I0J-150000D01*
G01*
X160975000Y-104875000D01*
G75*
G02*
X160825000Y-105025000I-150000J0D01*
G01*
X159450000Y-105025000D01*
G75*
G02*
X159300000Y-104875000I0J150000D01*
G01*
G37*
G36*
G01*
X159300000Y-104225000D02*
X159300000Y-103925000D01*
G75*
G02*
X159450000Y-103775000I150000J0D01*
G01*
X160825000Y-103775000D01*
G75*
G02*
X160975000Y-103925000I0J-150000D01*
G01*
X160975000Y-104225000D01*
G75*
G02*
X160825000Y-104375000I-150000J0D01*
G01*
X159450000Y-104375000D01*
G75*
G02*
X159300000Y-104225000I0J150000D01*
G01*
G37*
%TD*%
%TO.C,U1*%
G36*
G01*
X165025000Y-86225000D02*
X165025000Y-85925000D01*
G75*
G02*
X165175000Y-85775000I150000J0D01*
G01*
X166550000Y-85775000D01*
G75*
G02*
X166700000Y-85925000I0J-150000D01*
G01*
X166700000Y-86225000D01*
G75*
G02*
X166550000Y-86375000I-150000J0D01*
G01*
X165175000Y-86375000D01*
G75*
G02*
X165025000Y-86225000I0J150000D01*
G01*
G37*
G36*
G01*
X165025000Y-86875000D02*
X165025000Y-86575000D01*
G75*
G02*
X165175000Y-86425000I150000J0D01*
G01*
X166550000Y-86425000D01*
G75*
G02*
X166700000Y-86575000I0J-150000D01*
G01*
X166700000Y-86875000D01*
G75*
G02*
X166550000Y-87025000I-150000J0D01*
G01*
X165175000Y-87025000D01*
G75*
G02*
X165025000Y-86875000I0J150000D01*
G01*
G37*
G36*
G01*
X165025000Y-87525000D02*
X165025000Y-87225000D01*
G75*
G02*
X165175000Y-87075000I150000J0D01*
G01*
X166550000Y-87075000D01*
G75*
G02*
X166700000Y-87225000I0J-150000D01*
G01*
X166700000Y-87525000D01*
G75*
G02*
X166550000Y-87675000I-150000J0D01*
G01*
X165175000Y-87675000D01*
G75*
G02*
X165025000Y-87525000I0J150000D01*
G01*
G37*
G36*
G01*
X165025000Y-88175000D02*
X165025000Y-87875000D01*
G75*
G02*
X165175000Y-87725000I150000J0D01*
G01*
X166550000Y-87725000D01*
G75*
G02*
X166700000Y-87875000I0J-150000D01*
G01*
X166700000Y-88175000D01*
G75*
G02*
X166550000Y-88325000I-150000J0D01*
G01*
X165175000Y-88325000D01*
G75*
G02*
X165025000Y-88175000I0J150000D01*
G01*
G37*
G36*
G01*
X165025000Y-88825000D02*
X165025000Y-88525000D01*
G75*
G02*
X165175000Y-88375000I150000J0D01*
G01*
X166550000Y-88375000D01*
G75*
G02*
X166700000Y-88525000I0J-150000D01*
G01*
X166700000Y-88825000D01*
G75*
G02*
X166550000Y-88975000I-150000J0D01*
G01*
X165175000Y-88975000D01*
G75*
G02*
X165025000Y-88825000I0J150000D01*
G01*
G37*
G36*
G01*
X165025000Y-89475000D02*
X165025000Y-89175000D01*
G75*
G02*
X165175000Y-89025000I150000J0D01*
G01*
X166550000Y-89025000D01*
G75*
G02*
X166700000Y-89175000I0J-150000D01*
G01*
X166700000Y-89475000D01*
G75*
G02*
X166550000Y-89625000I-150000J0D01*
G01*
X165175000Y-89625000D01*
G75*
G02*
X165025000Y-89475000I0J150000D01*
G01*
G37*
G36*
G01*
X165025000Y-90125000D02*
X165025000Y-89825000D01*
G75*
G02*
X165175000Y-89675000I150000J0D01*
G01*
X166550000Y-89675000D01*
G75*
G02*
X166700000Y-89825000I0J-150000D01*
G01*
X166700000Y-90125000D01*
G75*
G02*
X166550000Y-90275000I-150000J0D01*
G01*
X165175000Y-90275000D01*
G75*
G02*
X165025000Y-90125000I0J150000D01*
G01*
G37*
G36*
G01*
X165025000Y-90775000D02*
X165025000Y-90475000D01*
G75*
G02*
X165175000Y-90325000I150000J0D01*
G01*
X166550000Y-90325000D01*
G75*
G02*
X166700000Y-90475000I0J-150000D01*
G01*
X166700000Y-90775000D01*
G75*
G02*
X166550000Y-90925000I-150000J0D01*
G01*
X165175000Y-90925000D01*
G75*
G02*
X165025000Y-90775000I0J150000D01*
G01*
G37*
G36*
G01*
X165025000Y-91425000D02*
X165025000Y-91125000D01*
G75*
G02*
X165175000Y-90975000I150000J0D01*
G01*
X166550000Y-90975000D01*
G75*
G02*
X166700000Y-91125000I0J-150000D01*
G01*
X166700000Y-91425000D01*
G75*
G02*
X166550000Y-91575000I-150000J0D01*
G01*
X165175000Y-91575000D01*
G75*
G02*
X165025000Y-91425000I0J150000D01*
G01*
G37*
G36*
G01*
X165025000Y-92075000D02*
X165025000Y-91775000D01*
G75*
G02*
X165175000Y-91625000I150000J0D01*
G01*
X166550000Y-91625000D01*
G75*
G02*
X166700000Y-91775000I0J-150000D01*
G01*
X166700000Y-92075000D01*
G75*
G02*
X166550000Y-92225000I-150000J0D01*
G01*
X165175000Y-92225000D01*
G75*
G02*
X165025000Y-92075000I0J150000D01*
G01*
G37*
G36*
G01*
X159300000Y-92075000D02*
X159300000Y-91775000D01*
G75*
G02*
X159450000Y-91625000I150000J0D01*
G01*
X160825000Y-91625000D01*
G75*
G02*
X160975000Y-91775000I0J-150000D01*
G01*
X160975000Y-92075000D01*
G75*
G02*
X160825000Y-92225000I-150000J0D01*
G01*
X159450000Y-92225000D01*
G75*
G02*
X159300000Y-92075000I0J150000D01*
G01*
G37*
G36*
G01*
X159300000Y-91425000D02*
X159300000Y-91125000D01*
G75*
G02*
X159450000Y-90975000I150000J0D01*
G01*
X160825000Y-90975000D01*
G75*
G02*
X160975000Y-91125000I0J-150000D01*
G01*
X160975000Y-91425000D01*
G75*
G02*
X160825000Y-91575000I-150000J0D01*
G01*
X159450000Y-91575000D01*
G75*
G02*
X159300000Y-91425000I0J150000D01*
G01*
G37*
G36*
G01*
X159300000Y-90775000D02*
X159300000Y-90475000D01*
G75*
G02*
X159450000Y-90325000I150000J0D01*
G01*
X160825000Y-90325000D01*
G75*
G02*
X160975000Y-90475000I0J-150000D01*
G01*
X160975000Y-90775000D01*
G75*
G02*
X160825000Y-90925000I-150000J0D01*
G01*
X159450000Y-90925000D01*
G75*
G02*
X159300000Y-90775000I0J150000D01*
G01*
G37*
G36*
G01*
X159300000Y-90125000D02*
X159300000Y-89825000D01*
G75*
G02*
X159450000Y-89675000I150000J0D01*
G01*
X160825000Y-89675000D01*
G75*
G02*
X160975000Y-89825000I0J-150000D01*
G01*
X160975000Y-90125000D01*
G75*
G02*
X160825000Y-90275000I-150000J0D01*
G01*
X159450000Y-90275000D01*
G75*
G02*
X159300000Y-90125000I0J150000D01*
G01*
G37*
G36*
G01*
X159300000Y-89475000D02*
X159300000Y-89175000D01*
G75*
G02*
X159450000Y-89025000I150000J0D01*
G01*
X160825000Y-89025000D01*
G75*
G02*
X160975000Y-89175000I0J-150000D01*
G01*
X160975000Y-89475000D01*
G75*
G02*
X160825000Y-89625000I-150000J0D01*
G01*
X159450000Y-89625000D01*
G75*
G02*
X159300000Y-89475000I0J150000D01*
G01*
G37*
G36*
G01*
X159300000Y-88825000D02*
X159300000Y-88525000D01*
G75*
G02*
X159450000Y-88375000I150000J0D01*
G01*
X160825000Y-88375000D01*
G75*
G02*
X160975000Y-88525000I0J-150000D01*
G01*
X160975000Y-88825000D01*
G75*
G02*
X160825000Y-88975000I-150000J0D01*
G01*
X159450000Y-88975000D01*
G75*
G02*
X159300000Y-88825000I0J150000D01*
G01*
G37*
G36*
G01*
X159300000Y-88175000D02*
X159300000Y-87875000D01*
G75*
G02*
X159450000Y-87725000I150000J0D01*
G01*
X160825000Y-87725000D01*
G75*
G02*
X160975000Y-87875000I0J-150000D01*
G01*
X160975000Y-88175000D01*
G75*
G02*
X160825000Y-88325000I-150000J0D01*
G01*
X159450000Y-88325000D01*
G75*
G02*
X159300000Y-88175000I0J150000D01*
G01*
G37*
G36*
G01*
X159300000Y-87525000D02*
X159300000Y-87225000D01*
G75*
G02*
X159450000Y-87075000I150000J0D01*
G01*
X160825000Y-87075000D01*
G75*
G02*
X160975000Y-87225000I0J-150000D01*
G01*
X160975000Y-87525000D01*
G75*
G02*
X160825000Y-87675000I-150000J0D01*
G01*
X159450000Y-87675000D01*
G75*
G02*
X159300000Y-87525000I0J150000D01*
G01*
G37*
G36*
G01*
X159300000Y-86875000D02*
X159300000Y-86575000D01*
G75*
G02*
X159450000Y-86425000I150000J0D01*
G01*
X160825000Y-86425000D01*
G75*
G02*
X160975000Y-86575000I0J-150000D01*
G01*
X160975000Y-86875000D01*
G75*
G02*
X160825000Y-87025000I-150000J0D01*
G01*
X159450000Y-87025000D01*
G75*
G02*
X159300000Y-86875000I0J150000D01*
G01*
G37*
G36*
G01*
X159300000Y-86225000D02*
X159300000Y-85925000D01*
G75*
G02*
X159450000Y-85775000I150000J0D01*
G01*
X160825000Y-85775000D01*
G75*
G02*
X160975000Y-85925000I0J-150000D01*
G01*
X160975000Y-86225000D01*
G75*
G02*
X160825000Y-86375000I-150000J0D01*
G01*
X159450000Y-86375000D01*
G75*
G02*
X159300000Y-86225000I0J150000D01*
G01*
G37*
%TD*%
%TO.C,R4*%
G36*
G01*
X159000000Y-131586540D02*
X159000000Y-129313460D01*
G75*
G02*
X159288460Y-129025000I288460J0D01*
G01*
X160211540Y-129025000D01*
G75*
G02*
X160500000Y-129313460I0J-288460D01*
G01*
X160500000Y-131586540D01*
G75*
G02*
X160211540Y-131875000I-288460J0D01*
G01*
X159288460Y-131875000D01*
G75*
G02*
X159000000Y-131586540I0J288460D01*
G01*
G37*
G36*
G01*
X155900000Y-131586540D02*
X155900000Y-129313460D01*
G75*
G02*
X156188460Y-129025000I288460J0D01*
G01*
X157111540Y-129025000D01*
G75*
G02*
X157400000Y-129313460I0J-288460D01*
G01*
X157400000Y-131586540D01*
G75*
G02*
X157111540Y-131875000I-288460J0D01*
G01*
X156188460Y-131875000D01*
G75*
G02*
X155900000Y-131586540I0J288460D01*
G01*
G37*
%TD*%
%TO.C,R3*%
G36*
G01*
X158800000Y-113786540D02*
X158800000Y-111513460D01*
G75*
G02*
X159088460Y-111225000I288460J0D01*
G01*
X160011540Y-111225000D01*
G75*
G02*
X160300000Y-111513460I0J-288460D01*
G01*
X160300000Y-113786540D01*
G75*
G02*
X160011540Y-114075000I-288460J0D01*
G01*
X159088460Y-114075000D01*
G75*
G02*
X158800000Y-113786540I0J288460D01*
G01*
G37*
G36*
G01*
X155700000Y-113786540D02*
X155700000Y-111513460D01*
G75*
G02*
X155988460Y-111225000I288460J0D01*
G01*
X156911540Y-111225000D01*
G75*
G02*
X157200000Y-111513460I0J-288460D01*
G01*
X157200000Y-113786540D01*
G75*
G02*
X156911540Y-114075000I-288460J0D01*
G01*
X155988460Y-114075000D01*
G75*
G02*
X155700000Y-113786540I0J288460D01*
G01*
G37*
%TD*%
%TO.C,R2*%
G36*
G01*
X143503460Y-123880000D02*
X145776540Y-123880000D01*
G75*
G02*
X146065000Y-124168460I0J-288460D01*
G01*
X146065000Y-125091540D01*
G75*
G02*
X145776540Y-125380000I-288460J0D01*
G01*
X143503460Y-125380000D01*
G75*
G02*
X143215000Y-125091540I0J288460D01*
G01*
X143215000Y-124168460D01*
G75*
G02*
X143503460Y-123880000I288460J0D01*
G01*
G37*
G36*
G01*
X143503460Y-120780000D02*
X145776540Y-120780000D01*
G75*
G02*
X146065000Y-121068460I0J-288460D01*
G01*
X146065000Y-121991540D01*
G75*
G02*
X145776540Y-122280000I-288460J0D01*
G01*
X143503460Y-122280000D01*
G75*
G02*
X143215000Y-121991540I0J288460D01*
G01*
X143215000Y-121068460D01*
G75*
G02*
X143503460Y-120780000I288460J0D01*
G01*
G37*
%TD*%
%TO.C,R1*%
G36*
G01*
X158900000Y-95636540D02*
X158900000Y-93363460D01*
G75*
G02*
X159188460Y-93075000I288460J0D01*
G01*
X160111540Y-93075000D01*
G75*
G02*
X160400000Y-93363460I0J-288460D01*
G01*
X160400000Y-95636540D01*
G75*
G02*
X160111540Y-95925000I-288460J0D01*
G01*
X159188460Y-95925000D01*
G75*
G02*
X158900000Y-95636540I0J288460D01*
G01*
G37*
G36*
G01*
X155800000Y-95636540D02*
X155800000Y-93363460D01*
G75*
G02*
X156088460Y-93075000I288460J0D01*
G01*
X157011540Y-93075000D01*
G75*
G02*
X157300000Y-93363460I0J-288460D01*
G01*
X157300000Y-95636540D01*
G75*
G02*
X157011540Y-95925000I-288460J0D01*
G01*
X156088460Y-95925000D01*
G75*
G02*
X155800000Y-95636540I0J288460D01*
G01*
G37*
%TD*%
%TO.C,C8*%
G36*
G01*
X158012268Y-119000000D02*
X155687732Y-119000000D01*
G75*
G02*
X155400000Y-118712268I0J287732D01*
G01*
X155400000Y-117762732D01*
G75*
G02*
X155687732Y-117475000I287732J0D01*
G01*
X158012268Y-117475000D01*
G75*
G02*
X158300000Y-117762732I0J-287732D01*
G01*
X158300000Y-118712268D01*
G75*
G02*
X158012268Y-119000000I-287732J0D01*
G01*
G37*
G36*
G01*
X158012268Y-122125000D02*
X155687732Y-122125000D01*
G75*
G02*
X155400000Y-121837268I0J287732D01*
G01*
X155400000Y-120887732D01*
G75*
G02*
X155687732Y-120600000I287732J0D01*
G01*
X158012268Y-120600000D01*
G75*
G02*
X158300000Y-120887732I0J-287732D01*
G01*
X158300000Y-121837268D01*
G75*
G02*
X158012268Y-122125000I-287732J0D01*
G01*
G37*
%TD*%
%TO.C,C7*%
G36*
G01*
X170362268Y-118950000D02*
X168037732Y-118950000D01*
G75*
G02*
X167750000Y-118662268I0J287732D01*
G01*
X167750000Y-117712732D01*
G75*
G02*
X168037732Y-117425000I287732J0D01*
G01*
X170362268Y-117425000D01*
G75*
G02*
X170650000Y-117712732I0J-287732D01*
G01*
X170650000Y-118662268D01*
G75*
G02*
X170362268Y-118950000I-287732J0D01*
G01*
G37*
G36*
G01*
X170362268Y-122075000D02*
X168037732Y-122075000D01*
G75*
G02*
X167750000Y-121787268I0J287732D01*
G01*
X167750000Y-120837732D01*
G75*
G02*
X168037732Y-120550000I287732J0D01*
G01*
X170362268Y-120550000D01*
G75*
G02*
X170650000Y-120837732I0J-287732D01*
G01*
X170650000Y-121787268D01*
G75*
G02*
X170362268Y-122075000I-287732J0D01*
G01*
G37*
%TD*%
%TO.C,C6*%
G36*
G01*
X158012268Y-101050000D02*
X155687732Y-101050000D01*
G75*
G02*
X155400000Y-100762268I0J287732D01*
G01*
X155400000Y-99812732D01*
G75*
G02*
X155687732Y-99525000I287732J0D01*
G01*
X158012268Y-99525000D01*
G75*
G02*
X158300000Y-99812732I0J-287732D01*
G01*
X158300000Y-100762268D01*
G75*
G02*
X158012268Y-101050000I-287732J0D01*
G01*
G37*
G36*
G01*
X158012268Y-104175000D02*
X155687732Y-104175000D01*
G75*
G02*
X155400000Y-103887268I0J287732D01*
G01*
X155400000Y-102937732D01*
G75*
G02*
X155687732Y-102650000I287732J0D01*
G01*
X158012268Y-102650000D01*
G75*
G02*
X158300000Y-102937732I0J-287732D01*
G01*
X158300000Y-103887268D01*
G75*
G02*
X158012268Y-104175000I-287732J0D01*
G01*
G37*
%TD*%
%TO.C,C5*%
G36*
G01*
X170412268Y-101050000D02*
X168087732Y-101050000D01*
G75*
G02*
X167800000Y-100762268I0J287732D01*
G01*
X167800000Y-99812732D01*
G75*
G02*
X168087732Y-99525000I287732J0D01*
G01*
X170412268Y-99525000D01*
G75*
G02*
X170700000Y-99812732I0J-287732D01*
G01*
X170700000Y-100762268D01*
G75*
G02*
X170412268Y-101050000I-287732J0D01*
G01*
G37*
G36*
G01*
X170412268Y-104175000D02*
X168087732Y-104175000D01*
G75*
G02*
X167800000Y-103887268I0J287732D01*
G01*
X167800000Y-102937732D01*
G75*
G02*
X168087732Y-102650000I287732J0D01*
G01*
X170412268Y-102650000D01*
G75*
G02*
X170700000Y-102937732I0J-287732D01*
G01*
X170700000Y-103887268D01*
G75*
G02*
X170412268Y-104175000I-287732J0D01*
G01*
G37*
%TD*%
%TO.C,C4*%
G36*
G01*
X147412268Y-89100000D02*
X145087732Y-89100000D01*
G75*
G02*
X144800000Y-88812268I0J287732D01*
G01*
X144800000Y-87862732D01*
G75*
G02*
X145087732Y-87575000I287732J0D01*
G01*
X147412268Y-87575000D01*
G75*
G02*
X147700000Y-87862732I0J-287732D01*
G01*
X147700000Y-88812268D01*
G75*
G02*
X147412268Y-89100000I-287732J0D01*
G01*
G37*
G36*
G01*
X147412268Y-92225000D02*
X145087732Y-92225000D01*
G75*
G02*
X144800000Y-91937268I0J287732D01*
G01*
X144800000Y-90987732D01*
G75*
G02*
X145087732Y-90700000I287732J0D01*
G01*
X147412268Y-90700000D01*
G75*
G02*
X147700000Y-90987732I0J-287732D01*
G01*
X147700000Y-91937268D01*
G75*
G02*
X147412268Y-92225000I-287732J0D01*
G01*
G37*
%TD*%
%TO.C,C3*%
G36*
G01*
X129107732Y-90690000D02*
X131432268Y-90690000D01*
G75*
G02*
X131720000Y-90977732I0J-287732D01*
G01*
X131720000Y-91927268D01*
G75*
G02*
X131432268Y-92215000I-287732J0D01*
G01*
X129107732Y-92215000D01*
G75*
G02*
X128820000Y-91927268I0J287732D01*
G01*
X128820000Y-90977732D01*
G75*
G02*
X129107732Y-90690000I287732J0D01*
G01*
G37*
G36*
G01*
X129107732Y-87565000D02*
X131432268Y-87565000D01*
G75*
G02*
X131720000Y-87852732I0J-287732D01*
G01*
X131720000Y-88802268D01*
G75*
G02*
X131432268Y-89090000I-287732J0D01*
G01*
X129107732Y-89090000D01*
G75*
G02*
X128820000Y-88802268I0J287732D01*
G01*
X128820000Y-87852732D01*
G75*
G02*
X129107732Y-87565000I287732J0D01*
G01*
G37*
%TD*%
%TO.C,C2*%
G36*
G01*
X158062268Y-83500000D02*
X155737732Y-83500000D01*
G75*
G02*
X155450000Y-83212268I0J287732D01*
G01*
X155450000Y-82262732D01*
G75*
G02*
X155737732Y-81975000I287732J0D01*
G01*
X158062268Y-81975000D01*
G75*
G02*
X158350000Y-82262732I0J-287732D01*
G01*
X158350000Y-83212268D01*
G75*
G02*
X158062268Y-83500000I-287732J0D01*
G01*
G37*
G36*
G01*
X158062268Y-86625000D02*
X155737732Y-86625000D01*
G75*
G02*
X155450000Y-86337268I0J287732D01*
G01*
X155450000Y-85387732D01*
G75*
G02*
X155737732Y-85100000I287732J0D01*
G01*
X158062268Y-85100000D01*
G75*
G02*
X158350000Y-85387732I0J-287732D01*
G01*
X158350000Y-86337268D01*
G75*
G02*
X158062268Y-86625000I-287732J0D01*
G01*
G37*
%TD*%
%TO.C,C1*%
G36*
G01*
X170262268Y-83500000D02*
X167937732Y-83500000D01*
G75*
G02*
X167650000Y-83212268I0J287732D01*
G01*
X167650000Y-82262732D01*
G75*
G02*
X167937732Y-81975000I287732J0D01*
G01*
X170262268Y-81975000D01*
G75*
G02*
X170550000Y-82262732I0J-287732D01*
G01*
X170550000Y-83212268D01*
G75*
G02*
X170262268Y-83500000I-287732J0D01*
G01*
G37*
G36*
G01*
X170262268Y-86625000D02*
X167937732Y-86625000D01*
G75*
G02*
X167650000Y-86337268I0J287732D01*
G01*
X167650000Y-85387732D01*
G75*
G02*
X167937732Y-85100000I287732J0D01*
G01*
X170262268Y-85100000D01*
G75*
G02*
X170550000Y-85387732I0J-287732D01*
G01*
X170550000Y-86337268D01*
G75*
G02*
X170262268Y-86625000I-287732J0D01*
G01*
G37*
%TD*%
M02*
