%TF.GenerationSoftware,KiCad,Pcbnew,5.1.9+dfsg1-1+deb11u1*%
%TF.CreationDate,2025-08-01T09:18:43+02:00*%
%TF.ProjectId,ESP32-BOBOARD-5V,45535033-322d-4424-9f42-4f4152442d35,rev?*%
%TF.SameCoordinates,Original*%
%TF.FileFunction,Paste,Top*%
%TF.FilePolarity,Positive*%
%FSLAX46Y46*%
G04 Gerber Fmt 4.6, Leading zero omitted, Abs format (unit mm)*
G04 Created by KiCad (PCBNEW 5.1.9+dfsg1-1+deb11u1) date 2025-08-01 09:18:43*
%MOMM*%
%LPD*%
G01*
G04 APERTURE LIST*
%ADD10R,1.250000X0.760000*%
%ADD11R,1.000000X2.510000*%
%ADD12R,3.150000X1.000000*%
%ADD13R,1.000000X2.000000*%
%ADD14R,0.270000X1.000000*%
%ADD15R,0.520000X1.000000*%
G04 APERTURE END LIST*
D10*
%TO.C,SW1*%
X185300000Y-78635000D03*
X192900000Y-77365000D03*
X185300000Y-77365000D03*
X192900000Y-78635000D03*
%TD*%
D11*
%TO.C,J4*%
X156900000Y-77145000D03*
X159440000Y-80455000D03*
X154360000Y-80455000D03*
%TD*%
D12*
%TO.C,J3*%
X212855000Y-124300000D03*
X207805000Y-124300000D03*
X212855000Y-121760000D03*
X207805000Y-121760000D03*
X212855000Y-119220000D03*
X207805000Y-119220000D03*
X212855000Y-116680000D03*
X207805000Y-116680000D03*
X212855000Y-114140000D03*
X207805000Y-114140000D03*
X212855000Y-111600000D03*
X207805000Y-111600000D03*
X212855000Y-109060000D03*
X207805000Y-109060000D03*
X212855000Y-106520000D03*
X207805000Y-106520000D03*
X212855000Y-103980000D03*
X207805000Y-103980000D03*
X212855000Y-101440000D03*
X207805000Y-101440000D03*
X212855000Y-98900000D03*
X207805000Y-98900000D03*
X212855000Y-96360000D03*
X207805000Y-96360000D03*
X212855000Y-93820000D03*
X207805000Y-93820000D03*
X212855000Y-91280000D03*
X207805000Y-91280000D03*
X212855000Y-88740000D03*
X207805000Y-88740000D03*
X212855000Y-86200000D03*
X207805000Y-86200000D03*
%TD*%
%TO.C,R8*%
G36*
G01*
X178400000Y-92625001D02*
X178400000Y-90474999D01*
G75*
G02*
X178649999Y-90225000I249999J0D01*
G01*
X179450001Y-90225000D01*
G75*
G02*
X179700000Y-90474999I0J-249999D01*
G01*
X179700000Y-92625001D01*
G75*
G02*
X179450001Y-92875000I-249999J0D01*
G01*
X178649999Y-92875000D01*
G75*
G02*
X178400000Y-92625001I0J249999D01*
G01*
G37*
G36*
G01*
X175300000Y-92625001D02*
X175300000Y-90474999D01*
G75*
G02*
X175549999Y-90225000I249999J0D01*
G01*
X176350001Y-90225000D01*
G75*
G02*
X176600000Y-90474999I0J-249999D01*
G01*
X176600000Y-92625001D01*
G75*
G02*
X176350001Y-92875000I-249999J0D01*
G01*
X175549999Y-92875000D01*
G75*
G02*
X175300000Y-92625001I0J249999D01*
G01*
G37*
%TD*%
%TO.C,R7*%
G36*
G01*
X178450000Y-96225001D02*
X178450000Y-94074999D01*
G75*
G02*
X178699999Y-93825000I249999J0D01*
G01*
X179500001Y-93825000D01*
G75*
G02*
X179750000Y-94074999I0J-249999D01*
G01*
X179750000Y-96225001D01*
G75*
G02*
X179500001Y-96475000I-249999J0D01*
G01*
X178699999Y-96475000D01*
G75*
G02*
X178450000Y-96225001I0J249999D01*
G01*
G37*
G36*
G01*
X175350000Y-96225001D02*
X175350000Y-94074999D01*
G75*
G02*
X175599999Y-93825000I249999J0D01*
G01*
X176400001Y-93825000D01*
G75*
G02*
X176650000Y-94074999I0J-249999D01*
G01*
X176650000Y-96225001D01*
G75*
G02*
X176400001Y-96475000I-249999J0D01*
G01*
X175599999Y-96475000D01*
G75*
G02*
X175350000Y-96225001I0J249999D01*
G01*
G37*
%TD*%
%TO.C,R6*%
G36*
G01*
X181600000Y-85225001D02*
X181600000Y-83074999D01*
G75*
G02*
X181849999Y-82825000I249999J0D01*
G01*
X182650001Y-82825000D01*
G75*
G02*
X182900000Y-83074999I0J-249999D01*
G01*
X182900000Y-85225001D01*
G75*
G02*
X182650001Y-85475000I-249999J0D01*
G01*
X181849999Y-85475000D01*
G75*
G02*
X181600000Y-85225001I0J249999D01*
G01*
G37*
G36*
G01*
X178500000Y-85225001D02*
X178500000Y-83074999D01*
G75*
G02*
X178749999Y-82825000I249999J0D01*
G01*
X179550001Y-82825000D01*
G75*
G02*
X179800000Y-83074999I0J-249999D01*
G01*
X179800000Y-85225001D01*
G75*
G02*
X179550001Y-85475000I-249999J0D01*
G01*
X178749999Y-85475000D01*
G75*
G02*
X178500000Y-85225001I0J249999D01*
G01*
G37*
%TD*%
%TO.C,R5*%
G36*
G01*
X174250000Y-87775001D02*
X174250000Y-85624999D01*
G75*
G02*
X174499999Y-85375000I249999J0D01*
G01*
X175300001Y-85375000D01*
G75*
G02*
X175550000Y-85624999I0J-249999D01*
G01*
X175550000Y-87775001D01*
G75*
G02*
X175300001Y-88025000I-249999J0D01*
G01*
X174499999Y-88025000D01*
G75*
G02*
X174250000Y-87775001I0J249999D01*
G01*
G37*
G36*
G01*
X171150000Y-87775001D02*
X171150000Y-85624999D01*
G75*
G02*
X171399999Y-85375000I249999J0D01*
G01*
X172200001Y-85375000D01*
G75*
G02*
X172450000Y-85624999I0J-249999D01*
G01*
X172450000Y-87775001D01*
G75*
G02*
X172200001Y-88025000I-249999J0D01*
G01*
X171399999Y-88025000D01*
G75*
G02*
X171150000Y-87775001I0J249999D01*
G01*
G37*
%TD*%
D13*
%TO.C,J5*%
X170900000Y-76000000D03*
X173700000Y-76000000D03*
D14*
X171050000Y-80200000D03*
X171550000Y-80200000D03*
X172050000Y-80200000D03*
X172550000Y-80200000D03*
X173050000Y-80200000D03*
X173550000Y-80200000D03*
X170550000Y-80200000D03*
X174050000Y-80200000D03*
D15*
X169950000Y-80200000D03*
X174650000Y-80200000D03*
X169200000Y-80200000D03*
X175400000Y-80200000D03*
%TD*%
%TO.C,C10*%
G36*
G01*
X180500003Y-77700000D02*
X178299997Y-77700000D01*
G75*
G02*
X178050000Y-77450003I0J249997D01*
G01*
X178050000Y-76624997D01*
G75*
G02*
X178299997Y-76375000I249997J0D01*
G01*
X180500003Y-76375000D01*
G75*
G02*
X180750000Y-76624997I0J-249997D01*
G01*
X180750000Y-77450003D01*
G75*
G02*
X180500003Y-77700000I-249997J0D01*
G01*
G37*
G36*
G01*
X180500003Y-80825000D02*
X178299997Y-80825000D01*
G75*
G02*
X178050000Y-80575003I0J249997D01*
G01*
X178050000Y-79749997D01*
G75*
G02*
X178299997Y-79500000I249997J0D01*
G01*
X180500003Y-79500000D01*
G75*
G02*
X180750000Y-79749997I0J-249997D01*
G01*
X180750000Y-80575003D01*
G75*
G02*
X180500003Y-80825000I-249997J0D01*
G01*
G37*
%TD*%
%TO.C,C9*%
G36*
G01*
X174250000Y-84400003D02*
X174250000Y-82199997D01*
G75*
G02*
X174499997Y-81950000I249997J0D01*
G01*
X175325003Y-81950000D01*
G75*
G02*
X175575000Y-82199997I0J-249997D01*
G01*
X175575000Y-84400003D01*
G75*
G02*
X175325003Y-84650000I-249997J0D01*
G01*
X174499997Y-84650000D01*
G75*
G02*
X174250000Y-84400003I0J249997D01*
G01*
G37*
G36*
G01*
X171125000Y-84400003D02*
X171125000Y-82199997D01*
G75*
G02*
X171374997Y-81950000I249997J0D01*
G01*
X172200003Y-81950000D01*
G75*
G02*
X172450000Y-82199997I0J-249997D01*
G01*
X172450000Y-84400003D01*
G75*
G02*
X172200003Y-84650000I-249997J0D01*
G01*
X171374997Y-84650000D01*
G75*
G02*
X171125000Y-84400003I0J249997D01*
G01*
G37*
%TD*%
%TO.C,U4*%
G36*
G01*
X165125000Y-122175000D02*
X165125000Y-121975000D01*
G75*
G02*
X165225000Y-121875000I100000J0D01*
G01*
X166500000Y-121875000D01*
G75*
G02*
X166600000Y-121975000I0J-100000D01*
G01*
X166600000Y-122175000D01*
G75*
G02*
X166500000Y-122275000I-100000J0D01*
G01*
X165225000Y-122275000D01*
G75*
G02*
X165125000Y-122175000I0J100000D01*
G01*
G37*
G36*
G01*
X165125000Y-122825000D02*
X165125000Y-122625000D01*
G75*
G02*
X165225000Y-122525000I100000J0D01*
G01*
X166500000Y-122525000D01*
G75*
G02*
X166600000Y-122625000I0J-100000D01*
G01*
X166600000Y-122825000D01*
G75*
G02*
X166500000Y-122925000I-100000J0D01*
G01*
X165225000Y-122925000D01*
G75*
G02*
X165125000Y-122825000I0J100000D01*
G01*
G37*
G36*
G01*
X165125000Y-123475000D02*
X165125000Y-123275000D01*
G75*
G02*
X165225000Y-123175000I100000J0D01*
G01*
X166500000Y-123175000D01*
G75*
G02*
X166600000Y-123275000I0J-100000D01*
G01*
X166600000Y-123475000D01*
G75*
G02*
X166500000Y-123575000I-100000J0D01*
G01*
X165225000Y-123575000D01*
G75*
G02*
X165125000Y-123475000I0J100000D01*
G01*
G37*
G36*
G01*
X165125000Y-124125000D02*
X165125000Y-123925000D01*
G75*
G02*
X165225000Y-123825000I100000J0D01*
G01*
X166500000Y-123825000D01*
G75*
G02*
X166600000Y-123925000I0J-100000D01*
G01*
X166600000Y-124125000D01*
G75*
G02*
X166500000Y-124225000I-100000J0D01*
G01*
X165225000Y-124225000D01*
G75*
G02*
X165125000Y-124125000I0J100000D01*
G01*
G37*
G36*
G01*
X165125000Y-124775000D02*
X165125000Y-124575000D01*
G75*
G02*
X165225000Y-124475000I100000J0D01*
G01*
X166500000Y-124475000D01*
G75*
G02*
X166600000Y-124575000I0J-100000D01*
G01*
X166600000Y-124775000D01*
G75*
G02*
X166500000Y-124875000I-100000J0D01*
G01*
X165225000Y-124875000D01*
G75*
G02*
X165125000Y-124775000I0J100000D01*
G01*
G37*
G36*
G01*
X165125000Y-125425000D02*
X165125000Y-125225000D01*
G75*
G02*
X165225000Y-125125000I100000J0D01*
G01*
X166500000Y-125125000D01*
G75*
G02*
X166600000Y-125225000I0J-100000D01*
G01*
X166600000Y-125425000D01*
G75*
G02*
X166500000Y-125525000I-100000J0D01*
G01*
X165225000Y-125525000D01*
G75*
G02*
X165125000Y-125425000I0J100000D01*
G01*
G37*
G36*
G01*
X165125000Y-126075000D02*
X165125000Y-125875000D01*
G75*
G02*
X165225000Y-125775000I100000J0D01*
G01*
X166500000Y-125775000D01*
G75*
G02*
X166600000Y-125875000I0J-100000D01*
G01*
X166600000Y-126075000D01*
G75*
G02*
X166500000Y-126175000I-100000J0D01*
G01*
X165225000Y-126175000D01*
G75*
G02*
X165125000Y-126075000I0J100000D01*
G01*
G37*
G36*
G01*
X165125000Y-126725000D02*
X165125000Y-126525000D01*
G75*
G02*
X165225000Y-126425000I100000J0D01*
G01*
X166500000Y-126425000D01*
G75*
G02*
X166600000Y-126525000I0J-100000D01*
G01*
X166600000Y-126725000D01*
G75*
G02*
X166500000Y-126825000I-100000J0D01*
G01*
X165225000Y-126825000D01*
G75*
G02*
X165125000Y-126725000I0J100000D01*
G01*
G37*
G36*
G01*
X165125000Y-127375000D02*
X165125000Y-127175000D01*
G75*
G02*
X165225000Y-127075000I100000J0D01*
G01*
X166500000Y-127075000D01*
G75*
G02*
X166600000Y-127175000I0J-100000D01*
G01*
X166600000Y-127375000D01*
G75*
G02*
X166500000Y-127475000I-100000J0D01*
G01*
X165225000Y-127475000D01*
G75*
G02*
X165125000Y-127375000I0J100000D01*
G01*
G37*
G36*
G01*
X165125000Y-128025000D02*
X165125000Y-127825000D01*
G75*
G02*
X165225000Y-127725000I100000J0D01*
G01*
X166500000Y-127725000D01*
G75*
G02*
X166600000Y-127825000I0J-100000D01*
G01*
X166600000Y-128025000D01*
G75*
G02*
X166500000Y-128125000I-100000J0D01*
G01*
X165225000Y-128125000D01*
G75*
G02*
X165125000Y-128025000I0J100000D01*
G01*
G37*
G36*
G01*
X159400000Y-128025000D02*
X159400000Y-127825000D01*
G75*
G02*
X159500000Y-127725000I100000J0D01*
G01*
X160775000Y-127725000D01*
G75*
G02*
X160875000Y-127825000I0J-100000D01*
G01*
X160875000Y-128025000D01*
G75*
G02*
X160775000Y-128125000I-100000J0D01*
G01*
X159500000Y-128125000D01*
G75*
G02*
X159400000Y-128025000I0J100000D01*
G01*
G37*
G36*
G01*
X159400000Y-127375000D02*
X159400000Y-127175000D01*
G75*
G02*
X159500000Y-127075000I100000J0D01*
G01*
X160775000Y-127075000D01*
G75*
G02*
X160875000Y-127175000I0J-100000D01*
G01*
X160875000Y-127375000D01*
G75*
G02*
X160775000Y-127475000I-100000J0D01*
G01*
X159500000Y-127475000D01*
G75*
G02*
X159400000Y-127375000I0J100000D01*
G01*
G37*
G36*
G01*
X159400000Y-126725000D02*
X159400000Y-126525000D01*
G75*
G02*
X159500000Y-126425000I100000J0D01*
G01*
X160775000Y-126425000D01*
G75*
G02*
X160875000Y-126525000I0J-100000D01*
G01*
X160875000Y-126725000D01*
G75*
G02*
X160775000Y-126825000I-100000J0D01*
G01*
X159500000Y-126825000D01*
G75*
G02*
X159400000Y-126725000I0J100000D01*
G01*
G37*
G36*
G01*
X159400000Y-126075000D02*
X159400000Y-125875000D01*
G75*
G02*
X159500000Y-125775000I100000J0D01*
G01*
X160775000Y-125775000D01*
G75*
G02*
X160875000Y-125875000I0J-100000D01*
G01*
X160875000Y-126075000D01*
G75*
G02*
X160775000Y-126175000I-100000J0D01*
G01*
X159500000Y-126175000D01*
G75*
G02*
X159400000Y-126075000I0J100000D01*
G01*
G37*
G36*
G01*
X159400000Y-125425000D02*
X159400000Y-125225000D01*
G75*
G02*
X159500000Y-125125000I100000J0D01*
G01*
X160775000Y-125125000D01*
G75*
G02*
X160875000Y-125225000I0J-100000D01*
G01*
X160875000Y-125425000D01*
G75*
G02*
X160775000Y-125525000I-100000J0D01*
G01*
X159500000Y-125525000D01*
G75*
G02*
X159400000Y-125425000I0J100000D01*
G01*
G37*
G36*
G01*
X159400000Y-124775000D02*
X159400000Y-124575000D01*
G75*
G02*
X159500000Y-124475000I100000J0D01*
G01*
X160775000Y-124475000D01*
G75*
G02*
X160875000Y-124575000I0J-100000D01*
G01*
X160875000Y-124775000D01*
G75*
G02*
X160775000Y-124875000I-100000J0D01*
G01*
X159500000Y-124875000D01*
G75*
G02*
X159400000Y-124775000I0J100000D01*
G01*
G37*
G36*
G01*
X159400000Y-124125000D02*
X159400000Y-123925000D01*
G75*
G02*
X159500000Y-123825000I100000J0D01*
G01*
X160775000Y-123825000D01*
G75*
G02*
X160875000Y-123925000I0J-100000D01*
G01*
X160875000Y-124125000D01*
G75*
G02*
X160775000Y-124225000I-100000J0D01*
G01*
X159500000Y-124225000D01*
G75*
G02*
X159400000Y-124125000I0J100000D01*
G01*
G37*
G36*
G01*
X159400000Y-123475000D02*
X159400000Y-123275000D01*
G75*
G02*
X159500000Y-123175000I100000J0D01*
G01*
X160775000Y-123175000D01*
G75*
G02*
X160875000Y-123275000I0J-100000D01*
G01*
X160875000Y-123475000D01*
G75*
G02*
X160775000Y-123575000I-100000J0D01*
G01*
X159500000Y-123575000D01*
G75*
G02*
X159400000Y-123475000I0J100000D01*
G01*
G37*
G36*
G01*
X159400000Y-122825000D02*
X159400000Y-122625000D01*
G75*
G02*
X159500000Y-122525000I100000J0D01*
G01*
X160775000Y-122525000D01*
G75*
G02*
X160875000Y-122625000I0J-100000D01*
G01*
X160875000Y-122825000D01*
G75*
G02*
X160775000Y-122925000I-100000J0D01*
G01*
X159500000Y-122925000D01*
G75*
G02*
X159400000Y-122825000I0J100000D01*
G01*
G37*
G36*
G01*
X159400000Y-122175000D02*
X159400000Y-121975000D01*
G75*
G02*
X159500000Y-121875000I100000J0D01*
G01*
X160775000Y-121875000D01*
G75*
G02*
X160875000Y-121975000I0J-100000D01*
G01*
X160875000Y-122175000D01*
G75*
G02*
X160775000Y-122275000I-100000J0D01*
G01*
X159500000Y-122275000D01*
G75*
G02*
X159400000Y-122175000I0J100000D01*
G01*
G37*
%TD*%
%TO.C,U3*%
G36*
G01*
X165125000Y-104175000D02*
X165125000Y-103975000D01*
G75*
G02*
X165225000Y-103875000I100000J0D01*
G01*
X166500000Y-103875000D01*
G75*
G02*
X166600000Y-103975000I0J-100000D01*
G01*
X166600000Y-104175000D01*
G75*
G02*
X166500000Y-104275000I-100000J0D01*
G01*
X165225000Y-104275000D01*
G75*
G02*
X165125000Y-104175000I0J100000D01*
G01*
G37*
G36*
G01*
X165125000Y-104825000D02*
X165125000Y-104625000D01*
G75*
G02*
X165225000Y-104525000I100000J0D01*
G01*
X166500000Y-104525000D01*
G75*
G02*
X166600000Y-104625000I0J-100000D01*
G01*
X166600000Y-104825000D01*
G75*
G02*
X166500000Y-104925000I-100000J0D01*
G01*
X165225000Y-104925000D01*
G75*
G02*
X165125000Y-104825000I0J100000D01*
G01*
G37*
G36*
G01*
X165125000Y-105475000D02*
X165125000Y-105275000D01*
G75*
G02*
X165225000Y-105175000I100000J0D01*
G01*
X166500000Y-105175000D01*
G75*
G02*
X166600000Y-105275000I0J-100000D01*
G01*
X166600000Y-105475000D01*
G75*
G02*
X166500000Y-105575000I-100000J0D01*
G01*
X165225000Y-105575000D01*
G75*
G02*
X165125000Y-105475000I0J100000D01*
G01*
G37*
G36*
G01*
X165125000Y-106125000D02*
X165125000Y-105925000D01*
G75*
G02*
X165225000Y-105825000I100000J0D01*
G01*
X166500000Y-105825000D01*
G75*
G02*
X166600000Y-105925000I0J-100000D01*
G01*
X166600000Y-106125000D01*
G75*
G02*
X166500000Y-106225000I-100000J0D01*
G01*
X165225000Y-106225000D01*
G75*
G02*
X165125000Y-106125000I0J100000D01*
G01*
G37*
G36*
G01*
X165125000Y-106775000D02*
X165125000Y-106575000D01*
G75*
G02*
X165225000Y-106475000I100000J0D01*
G01*
X166500000Y-106475000D01*
G75*
G02*
X166600000Y-106575000I0J-100000D01*
G01*
X166600000Y-106775000D01*
G75*
G02*
X166500000Y-106875000I-100000J0D01*
G01*
X165225000Y-106875000D01*
G75*
G02*
X165125000Y-106775000I0J100000D01*
G01*
G37*
G36*
G01*
X165125000Y-107425000D02*
X165125000Y-107225000D01*
G75*
G02*
X165225000Y-107125000I100000J0D01*
G01*
X166500000Y-107125000D01*
G75*
G02*
X166600000Y-107225000I0J-100000D01*
G01*
X166600000Y-107425000D01*
G75*
G02*
X166500000Y-107525000I-100000J0D01*
G01*
X165225000Y-107525000D01*
G75*
G02*
X165125000Y-107425000I0J100000D01*
G01*
G37*
G36*
G01*
X165125000Y-108075000D02*
X165125000Y-107875000D01*
G75*
G02*
X165225000Y-107775000I100000J0D01*
G01*
X166500000Y-107775000D01*
G75*
G02*
X166600000Y-107875000I0J-100000D01*
G01*
X166600000Y-108075000D01*
G75*
G02*
X166500000Y-108175000I-100000J0D01*
G01*
X165225000Y-108175000D01*
G75*
G02*
X165125000Y-108075000I0J100000D01*
G01*
G37*
G36*
G01*
X165125000Y-108725000D02*
X165125000Y-108525000D01*
G75*
G02*
X165225000Y-108425000I100000J0D01*
G01*
X166500000Y-108425000D01*
G75*
G02*
X166600000Y-108525000I0J-100000D01*
G01*
X166600000Y-108725000D01*
G75*
G02*
X166500000Y-108825000I-100000J0D01*
G01*
X165225000Y-108825000D01*
G75*
G02*
X165125000Y-108725000I0J100000D01*
G01*
G37*
G36*
G01*
X165125000Y-109375000D02*
X165125000Y-109175000D01*
G75*
G02*
X165225000Y-109075000I100000J0D01*
G01*
X166500000Y-109075000D01*
G75*
G02*
X166600000Y-109175000I0J-100000D01*
G01*
X166600000Y-109375000D01*
G75*
G02*
X166500000Y-109475000I-100000J0D01*
G01*
X165225000Y-109475000D01*
G75*
G02*
X165125000Y-109375000I0J100000D01*
G01*
G37*
G36*
G01*
X165125000Y-110025000D02*
X165125000Y-109825000D01*
G75*
G02*
X165225000Y-109725000I100000J0D01*
G01*
X166500000Y-109725000D01*
G75*
G02*
X166600000Y-109825000I0J-100000D01*
G01*
X166600000Y-110025000D01*
G75*
G02*
X166500000Y-110125000I-100000J0D01*
G01*
X165225000Y-110125000D01*
G75*
G02*
X165125000Y-110025000I0J100000D01*
G01*
G37*
G36*
G01*
X159400000Y-110025000D02*
X159400000Y-109825000D01*
G75*
G02*
X159500000Y-109725000I100000J0D01*
G01*
X160775000Y-109725000D01*
G75*
G02*
X160875000Y-109825000I0J-100000D01*
G01*
X160875000Y-110025000D01*
G75*
G02*
X160775000Y-110125000I-100000J0D01*
G01*
X159500000Y-110125000D01*
G75*
G02*
X159400000Y-110025000I0J100000D01*
G01*
G37*
G36*
G01*
X159400000Y-109375000D02*
X159400000Y-109175000D01*
G75*
G02*
X159500000Y-109075000I100000J0D01*
G01*
X160775000Y-109075000D01*
G75*
G02*
X160875000Y-109175000I0J-100000D01*
G01*
X160875000Y-109375000D01*
G75*
G02*
X160775000Y-109475000I-100000J0D01*
G01*
X159500000Y-109475000D01*
G75*
G02*
X159400000Y-109375000I0J100000D01*
G01*
G37*
G36*
G01*
X159400000Y-108725000D02*
X159400000Y-108525000D01*
G75*
G02*
X159500000Y-108425000I100000J0D01*
G01*
X160775000Y-108425000D01*
G75*
G02*
X160875000Y-108525000I0J-100000D01*
G01*
X160875000Y-108725000D01*
G75*
G02*
X160775000Y-108825000I-100000J0D01*
G01*
X159500000Y-108825000D01*
G75*
G02*
X159400000Y-108725000I0J100000D01*
G01*
G37*
G36*
G01*
X159400000Y-108075000D02*
X159400000Y-107875000D01*
G75*
G02*
X159500000Y-107775000I100000J0D01*
G01*
X160775000Y-107775000D01*
G75*
G02*
X160875000Y-107875000I0J-100000D01*
G01*
X160875000Y-108075000D01*
G75*
G02*
X160775000Y-108175000I-100000J0D01*
G01*
X159500000Y-108175000D01*
G75*
G02*
X159400000Y-108075000I0J100000D01*
G01*
G37*
G36*
G01*
X159400000Y-107425000D02*
X159400000Y-107225000D01*
G75*
G02*
X159500000Y-107125000I100000J0D01*
G01*
X160775000Y-107125000D01*
G75*
G02*
X160875000Y-107225000I0J-100000D01*
G01*
X160875000Y-107425000D01*
G75*
G02*
X160775000Y-107525000I-100000J0D01*
G01*
X159500000Y-107525000D01*
G75*
G02*
X159400000Y-107425000I0J100000D01*
G01*
G37*
G36*
G01*
X159400000Y-106775000D02*
X159400000Y-106575000D01*
G75*
G02*
X159500000Y-106475000I100000J0D01*
G01*
X160775000Y-106475000D01*
G75*
G02*
X160875000Y-106575000I0J-100000D01*
G01*
X160875000Y-106775000D01*
G75*
G02*
X160775000Y-106875000I-100000J0D01*
G01*
X159500000Y-106875000D01*
G75*
G02*
X159400000Y-106775000I0J100000D01*
G01*
G37*
G36*
G01*
X159400000Y-106125000D02*
X159400000Y-105925000D01*
G75*
G02*
X159500000Y-105825000I100000J0D01*
G01*
X160775000Y-105825000D01*
G75*
G02*
X160875000Y-105925000I0J-100000D01*
G01*
X160875000Y-106125000D01*
G75*
G02*
X160775000Y-106225000I-100000J0D01*
G01*
X159500000Y-106225000D01*
G75*
G02*
X159400000Y-106125000I0J100000D01*
G01*
G37*
G36*
G01*
X159400000Y-105475000D02*
X159400000Y-105275000D01*
G75*
G02*
X159500000Y-105175000I100000J0D01*
G01*
X160775000Y-105175000D01*
G75*
G02*
X160875000Y-105275000I0J-100000D01*
G01*
X160875000Y-105475000D01*
G75*
G02*
X160775000Y-105575000I-100000J0D01*
G01*
X159500000Y-105575000D01*
G75*
G02*
X159400000Y-105475000I0J100000D01*
G01*
G37*
G36*
G01*
X159400000Y-104825000D02*
X159400000Y-104625000D01*
G75*
G02*
X159500000Y-104525000I100000J0D01*
G01*
X160775000Y-104525000D01*
G75*
G02*
X160875000Y-104625000I0J-100000D01*
G01*
X160875000Y-104825000D01*
G75*
G02*
X160775000Y-104925000I-100000J0D01*
G01*
X159500000Y-104925000D01*
G75*
G02*
X159400000Y-104825000I0J100000D01*
G01*
G37*
G36*
G01*
X159400000Y-104175000D02*
X159400000Y-103975000D01*
G75*
G02*
X159500000Y-103875000I100000J0D01*
G01*
X160775000Y-103875000D01*
G75*
G02*
X160875000Y-103975000I0J-100000D01*
G01*
X160875000Y-104175000D01*
G75*
G02*
X160775000Y-104275000I-100000J0D01*
G01*
X159500000Y-104275000D01*
G75*
G02*
X159400000Y-104175000I0J100000D01*
G01*
G37*
%TD*%
%TO.C,U1*%
G36*
G01*
X165125000Y-86175000D02*
X165125000Y-85975000D01*
G75*
G02*
X165225000Y-85875000I100000J0D01*
G01*
X166500000Y-85875000D01*
G75*
G02*
X166600000Y-85975000I0J-100000D01*
G01*
X166600000Y-86175000D01*
G75*
G02*
X166500000Y-86275000I-100000J0D01*
G01*
X165225000Y-86275000D01*
G75*
G02*
X165125000Y-86175000I0J100000D01*
G01*
G37*
G36*
G01*
X165125000Y-86825000D02*
X165125000Y-86625000D01*
G75*
G02*
X165225000Y-86525000I100000J0D01*
G01*
X166500000Y-86525000D01*
G75*
G02*
X166600000Y-86625000I0J-100000D01*
G01*
X166600000Y-86825000D01*
G75*
G02*
X166500000Y-86925000I-100000J0D01*
G01*
X165225000Y-86925000D01*
G75*
G02*
X165125000Y-86825000I0J100000D01*
G01*
G37*
G36*
G01*
X165125000Y-87475000D02*
X165125000Y-87275000D01*
G75*
G02*
X165225000Y-87175000I100000J0D01*
G01*
X166500000Y-87175000D01*
G75*
G02*
X166600000Y-87275000I0J-100000D01*
G01*
X166600000Y-87475000D01*
G75*
G02*
X166500000Y-87575000I-100000J0D01*
G01*
X165225000Y-87575000D01*
G75*
G02*
X165125000Y-87475000I0J100000D01*
G01*
G37*
G36*
G01*
X165125000Y-88125000D02*
X165125000Y-87925000D01*
G75*
G02*
X165225000Y-87825000I100000J0D01*
G01*
X166500000Y-87825000D01*
G75*
G02*
X166600000Y-87925000I0J-100000D01*
G01*
X166600000Y-88125000D01*
G75*
G02*
X166500000Y-88225000I-100000J0D01*
G01*
X165225000Y-88225000D01*
G75*
G02*
X165125000Y-88125000I0J100000D01*
G01*
G37*
G36*
G01*
X165125000Y-88775000D02*
X165125000Y-88575000D01*
G75*
G02*
X165225000Y-88475000I100000J0D01*
G01*
X166500000Y-88475000D01*
G75*
G02*
X166600000Y-88575000I0J-100000D01*
G01*
X166600000Y-88775000D01*
G75*
G02*
X166500000Y-88875000I-100000J0D01*
G01*
X165225000Y-88875000D01*
G75*
G02*
X165125000Y-88775000I0J100000D01*
G01*
G37*
G36*
G01*
X165125000Y-89425000D02*
X165125000Y-89225000D01*
G75*
G02*
X165225000Y-89125000I100000J0D01*
G01*
X166500000Y-89125000D01*
G75*
G02*
X166600000Y-89225000I0J-100000D01*
G01*
X166600000Y-89425000D01*
G75*
G02*
X166500000Y-89525000I-100000J0D01*
G01*
X165225000Y-89525000D01*
G75*
G02*
X165125000Y-89425000I0J100000D01*
G01*
G37*
G36*
G01*
X165125000Y-90075000D02*
X165125000Y-89875000D01*
G75*
G02*
X165225000Y-89775000I100000J0D01*
G01*
X166500000Y-89775000D01*
G75*
G02*
X166600000Y-89875000I0J-100000D01*
G01*
X166600000Y-90075000D01*
G75*
G02*
X166500000Y-90175000I-100000J0D01*
G01*
X165225000Y-90175000D01*
G75*
G02*
X165125000Y-90075000I0J100000D01*
G01*
G37*
G36*
G01*
X165125000Y-90725000D02*
X165125000Y-90525000D01*
G75*
G02*
X165225000Y-90425000I100000J0D01*
G01*
X166500000Y-90425000D01*
G75*
G02*
X166600000Y-90525000I0J-100000D01*
G01*
X166600000Y-90725000D01*
G75*
G02*
X166500000Y-90825000I-100000J0D01*
G01*
X165225000Y-90825000D01*
G75*
G02*
X165125000Y-90725000I0J100000D01*
G01*
G37*
G36*
G01*
X165125000Y-91375000D02*
X165125000Y-91175000D01*
G75*
G02*
X165225000Y-91075000I100000J0D01*
G01*
X166500000Y-91075000D01*
G75*
G02*
X166600000Y-91175000I0J-100000D01*
G01*
X166600000Y-91375000D01*
G75*
G02*
X166500000Y-91475000I-100000J0D01*
G01*
X165225000Y-91475000D01*
G75*
G02*
X165125000Y-91375000I0J100000D01*
G01*
G37*
G36*
G01*
X165125000Y-92025000D02*
X165125000Y-91825000D01*
G75*
G02*
X165225000Y-91725000I100000J0D01*
G01*
X166500000Y-91725000D01*
G75*
G02*
X166600000Y-91825000I0J-100000D01*
G01*
X166600000Y-92025000D01*
G75*
G02*
X166500000Y-92125000I-100000J0D01*
G01*
X165225000Y-92125000D01*
G75*
G02*
X165125000Y-92025000I0J100000D01*
G01*
G37*
G36*
G01*
X159400000Y-92025000D02*
X159400000Y-91825000D01*
G75*
G02*
X159500000Y-91725000I100000J0D01*
G01*
X160775000Y-91725000D01*
G75*
G02*
X160875000Y-91825000I0J-100000D01*
G01*
X160875000Y-92025000D01*
G75*
G02*
X160775000Y-92125000I-100000J0D01*
G01*
X159500000Y-92125000D01*
G75*
G02*
X159400000Y-92025000I0J100000D01*
G01*
G37*
G36*
G01*
X159400000Y-91375000D02*
X159400000Y-91175000D01*
G75*
G02*
X159500000Y-91075000I100000J0D01*
G01*
X160775000Y-91075000D01*
G75*
G02*
X160875000Y-91175000I0J-100000D01*
G01*
X160875000Y-91375000D01*
G75*
G02*
X160775000Y-91475000I-100000J0D01*
G01*
X159500000Y-91475000D01*
G75*
G02*
X159400000Y-91375000I0J100000D01*
G01*
G37*
G36*
G01*
X159400000Y-90725000D02*
X159400000Y-90525000D01*
G75*
G02*
X159500000Y-90425000I100000J0D01*
G01*
X160775000Y-90425000D01*
G75*
G02*
X160875000Y-90525000I0J-100000D01*
G01*
X160875000Y-90725000D01*
G75*
G02*
X160775000Y-90825000I-100000J0D01*
G01*
X159500000Y-90825000D01*
G75*
G02*
X159400000Y-90725000I0J100000D01*
G01*
G37*
G36*
G01*
X159400000Y-90075000D02*
X159400000Y-89875000D01*
G75*
G02*
X159500000Y-89775000I100000J0D01*
G01*
X160775000Y-89775000D01*
G75*
G02*
X160875000Y-89875000I0J-100000D01*
G01*
X160875000Y-90075000D01*
G75*
G02*
X160775000Y-90175000I-100000J0D01*
G01*
X159500000Y-90175000D01*
G75*
G02*
X159400000Y-90075000I0J100000D01*
G01*
G37*
G36*
G01*
X159400000Y-89425000D02*
X159400000Y-89225000D01*
G75*
G02*
X159500000Y-89125000I100000J0D01*
G01*
X160775000Y-89125000D01*
G75*
G02*
X160875000Y-89225000I0J-100000D01*
G01*
X160875000Y-89425000D01*
G75*
G02*
X160775000Y-89525000I-100000J0D01*
G01*
X159500000Y-89525000D01*
G75*
G02*
X159400000Y-89425000I0J100000D01*
G01*
G37*
G36*
G01*
X159400000Y-88775000D02*
X159400000Y-88575000D01*
G75*
G02*
X159500000Y-88475000I100000J0D01*
G01*
X160775000Y-88475000D01*
G75*
G02*
X160875000Y-88575000I0J-100000D01*
G01*
X160875000Y-88775000D01*
G75*
G02*
X160775000Y-88875000I-100000J0D01*
G01*
X159500000Y-88875000D01*
G75*
G02*
X159400000Y-88775000I0J100000D01*
G01*
G37*
G36*
G01*
X159400000Y-88125000D02*
X159400000Y-87925000D01*
G75*
G02*
X159500000Y-87825000I100000J0D01*
G01*
X160775000Y-87825000D01*
G75*
G02*
X160875000Y-87925000I0J-100000D01*
G01*
X160875000Y-88125000D01*
G75*
G02*
X160775000Y-88225000I-100000J0D01*
G01*
X159500000Y-88225000D01*
G75*
G02*
X159400000Y-88125000I0J100000D01*
G01*
G37*
G36*
G01*
X159400000Y-87475000D02*
X159400000Y-87275000D01*
G75*
G02*
X159500000Y-87175000I100000J0D01*
G01*
X160775000Y-87175000D01*
G75*
G02*
X160875000Y-87275000I0J-100000D01*
G01*
X160875000Y-87475000D01*
G75*
G02*
X160775000Y-87575000I-100000J0D01*
G01*
X159500000Y-87575000D01*
G75*
G02*
X159400000Y-87475000I0J100000D01*
G01*
G37*
G36*
G01*
X159400000Y-86825000D02*
X159400000Y-86625000D01*
G75*
G02*
X159500000Y-86525000I100000J0D01*
G01*
X160775000Y-86525000D01*
G75*
G02*
X160875000Y-86625000I0J-100000D01*
G01*
X160875000Y-86825000D01*
G75*
G02*
X160775000Y-86925000I-100000J0D01*
G01*
X159500000Y-86925000D01*
G75*
G02*
X159400000Y-86825000I0J100000D01*
G01*
G37*
G36*
G01*
X159400000Y-86175000D02*
X159400000Y-85975000D01*
G75*
G02*
X159500000Y-85875000I100000J0D01*
G01*
X160775000Y-85875000D01*
G75*
G02*
X160875000Y-85975000I0J-100000D01*
G01*
X160875000Y-86175000D01*
G75*
G02*
X160775000Y-86275000I-100000J0D01*
G01*
X159500000Y-86275000D01*
G75*
G02*
X159400000Y-86175000I0J100000D01*
G01*
G37*
%TD*%
%TO.C,R4*%
G36*
G01*
X159100000Y-131525001D02*
X159100000Y-129374999D01*
G75*
G02*
X159349999Y-129125000I249999J0D01*
G01*
X160150001Y-129125000D01*
G75*
G02*
X160400000Y-129374999I0J-249999D01*
G01*
X160400000Y-131525001D01*
G75*
G02*
X160150001Y-131775000I-249999J0D01*
G01*
X159349999Y-131775000D01*
G75*
G02*
X159100000Y-131525001I0J249999D01*
G01*
G37*
G36*
G01*
X156000000Y-131525001D02*
X156000000Y-129374999D01*
G75*
G02*
X156249999Y-129125000I249999J0D01*
G01*
X157050001Y-129125000D01*
G75*
G02*
X157300000Y-129374999I0J-249999D01*
G01*
X157300000Y-131525001D01*
G75*
G02*
X157050001Y-131775000I-249999J0D01*
G01*
X156249999Y-131775000D01*
G75*
G02*
X156000000Y-131525001I0J249999D01*
G01*
G37*
%TD*%
%TO.C,R3*%
G36*
G01*
X158900000Y-113725001D02*
X158900000Y-111574999D01*
G75*
G02*
X159149999Y-111325000I249999J0D01*
G01*
X159950001Y-111325000D01*
G75*
G02*
X160200000Y-111574999I0J-249999D01*
G01*
X160200000Y-113725001D01*
G75*
G02*
X159950001Y-113975000I-249999J0D01*
G01*
X159149999Y-113975000D01*
G75*
G02*
X158900000Y-113725001I0J249999D01*
G01*
G37*
G36*
G01*
X155800000Y-113725001D02*
X155800000Y-111574999D01*
G75*
G02*
X156049999Y-111325000I249999J0D01*
G01*
X156850001Y-111325000D01*
G75*
G02*
X157100000Y-111574999I0J-249999D01*
G01*
X157100000Y-113725001D01*
G75*
G02*
X156850001Y-113975000I-249999J0D01*
G01*
X156049999Y-113975000D01*
G75*
G02*
X155800000Y-113725001I0J249999D01*
G01*
G37*
%TD*%
%TO.C,R2*%
G36*
G01*
X143564999Y-123980000D02*
X145715001Y-123980000D01*
G75*
G02*
X145965000Y-124229999I0J-249999D01*
G01*
X145965000Y-125030001D01*
G75*
G02*
X145715001Y-125280000I-249999J0D01*
G01*
X143564999Y-125280000D01*
G75*
G02*
X143315000Y-125030001I0J249999D01*
G01*
X143315000Y-124229999D01*
G75*
G02*
X143564999Y-123980000I249999J0D01*
G01*
G37*
G36*
G01*
X143564999Y-120880000D02*
X145715001Y-120880000D01*
G75*
G02*
X145965000Y-121129999I0J-249999D01*
G01*
X145965000Y-121930001D01*
G75*
G02*
X145715001Y-122180000I-249999J0D01*
G01*
X143564999Y-122180000D01*
G75*
G02*
X143315000Y-121930001I0J249999D01*
G01*
X143315000Y-121129999D01*
G75*
G02*
X143564999Y-120880000I249999J0D01*
G01*
G37*
%TD*%
%TO.C,R1*%
G36*
G01*
X159000000Y-95575001D02*
X159000000Y-93424999D01*
G75*
G02*
X159249999Y-93175000I249999J0D01*
G01*
X160050001Y-93175000D01*
G75*
G02*
X160300000Y-93424999I0J-249999D01*
G01*
X160300000Y-95575001D01*
G75*
G02*
X160050001Y-95825000I-249999J0D01*
G01*
X159249999Y-95825000D01*
G75*
G02*
X159000000Y-95575001I0J249999D01*
G01*
G37*
G36*
G01*
X155900000Y-95575001D02*
X155900000Y-93424999D01*
G75*
G02*
X156149999Y-93175000I249999J0D01*
G01*
X156950001Y-93175000D01*
G75*
G02*
X157200000Y-93424999I0J-249999D01*
G01*
X157200000Y-95575001D01*
G75*
G02*
X156950001Y-95825000I-249999J0D01*
G01*
X156149999Y-95825000D01*
G75*
G02*
X155900000Y-95575001I0J249999D01*
G01*
G37*
%TD*%
%TO.C,C8*%
G36*
G01*
X157950003Y-118900000D02*
X155749997Y-118900000D01*
G75*
G02*
X155500000Y-118650003I0J249997D01*
G01*
X155500000Y-117824997D01*
G75*
G02*
X155749997Y-117575000I249997J0D01*
G01*
X157950003Y-117575000D01*
G75*
G02*
X158200000Y-117824997I0J-249997D01*
G01*
X158200000Y-118650003D01*
G75*
G02*
X157950003Y-118900000I-249997J0D01*
G01*
G37*
G36*
G01*
X157950003Y-122025000D02*
X155749997Y-122025000D01*
G75*
G02*
X155500000Y-121775003I0J249997D01*
G01*
X155500000Y-120949997D01*
G75*
G02*
X155749997Y-120700000I249997J0D01*
G01*
X157950003Y-120700000D01*
G75*
G02*
X158200000Y-120949997I0J-249997D01*
G01*
X158200000Y-121775003D01*
G75*
G02*
X157950003Y-122025000I-249997J0D01*
G01*
G37*
%TD*%
%TO.C,C7*%
G36*
G01*
X170300003Y-118850000D02*
X168099997Y-118850000D01*
G75*
G02*
X167850000Y-118600003I0J249997D01*
G01*
X167850000Y-117774997D01*
G75*
G02*
X168099997Y-117525000I249997J0D01*
G01*
X170300003Y-117525000D01*
G75*
G02*
X170550000Y-117774997I0J-249997D01*
G01*
X170550000Y-118600003D01*
G75*
G02*
X170300003Y-118850000I-249997J0D01*
G01*
G37*
G36*
G01*
X170300003Y-121975000D02*
X168099997Y-121975000D01*
G75*
G02*
X167850000Y-121725003I0J249997D01*
G01*
X167850000Y-120899997D01*
G75*
G02*
X168099997Y-120650000I249997J0D01*
G01*
X170300003Y-120650000D01*
G75*
G02*
X170550000Y-120899997I0J-249997D01*
G01*
X170550000Y-121725003D01*
G75*
G02*
X170300003Y-121975000I-249997J0D01*
G01*
G37*
%TD*%
%TO.C,C6*%
G36*
G01*
X157950003Y-100950000D02*
X155749997Y-100950000D01*
G75*
G02*
X155500000Y-100700003I0J249997D01*
G01*
X155500000Y-99874997D01*
G75*
G02*
X155749997Y-99625000I249997J0D01*
G01*
X157950003Y-99625000D01*
G75*
G02*
X158200000Y-99874997I0J-249997D01*
G01*
X158200000Y-100700003D01*
G75*
G02*
X157950003Y-100950000I-249997J0D01*
G01*
G37*
G36*
G01*
X157950003Y-104075000D02*
X155749997Y-104075000D01*
G75*
G02*
X155500000Y-103825003I0J249997D01*
G01*
X155500000Y-102999997D01*
G75*
G02*
X155749997Y-102750000I249997J0D01*
G01*
X157950003Y-102750000D01*
G75*
G02*
X158200000Y-102999997I0J-249997D01*
G01*
X158200000Y-103825003D01*
G75*
G02*
X157950003Y-104075000I-249997J0D01*
G01*
G37*
%TD*%
%TO.C,C5*%
G36*
G01*
X170350003Y-100950000D02*
X168149997Y-100950000D01*
G75*
G02*
X167900000Y-100700003I0J249997D01*
G01*
X167900000Y-99874997D01*
G75*
G02*
X168149997Y-99625000I249997J0D01*
G01*
X170350003Y-99625000D01*
G75*
G02*
X170600000Y-99874997I0J-249997D01*
G01*
X170600000Y-100700003D01*
G75*
G02*
X170350003Y-100950000I-249997J0D01*
G01*
G37*
G36*
G01*
X170350003Y-104075000D02*
X168149997Y-104075000D01*
G75*
G02*
X167900000Y-103825003I0J249997D01*
G01*
X167900000Y-102999997D01*
G75*
G02*
X168149997Y-102750000I249997J0D01*
G01*
X170350003Y-102750000D01*
G75*
G02*
X170600000Y-102999997I0J-249997D01*
G01*
X170600000Y-103825003D01*
G75*
G02*
X170350003Y-104075000I-249997J0D01*
G01*
G37*
%TD*%
%TO.C,C4*%
G36*
G01*
X147350003Y-89000000D02*
X145149997Y-89000000D01*
G75*
G02*
X144900000Y-88750003I0J249997D01*
G01*
X144900000Y-87924997D01*
G75*
G02*
X145149997Y-87675000I249997J0D01*
G01*
X147350003Y-87675000D01*
G75*
G02*
X147600000Y-87924997I0J-249997D01*
G01*
X147600000Y-88750003D01*
G75*
G02*
X147350003Y-89000000I-249997J0D01*
G01*
G37*
G36*
G01*
X147350003Y-92125000D02*
X145149997Y-92125000D01*
G75*
G02*
X144900000Y-91875003I0J249997D01*
G01*
X144900000Y-91049997D01*
G75*
G02*
X145149997Y-90800000I249997J0D01*
G01*
X147350003Y-90800000D01*
G75*
G02*
X147600000Y-91049997I0J-249997D01*
G01*
X147600000Y-91875003D01*
G75*
G02*
X147350003Y-92125000I-249997J0D01*
G01*
G37*
%TD*%
%TO.C,C3*%
G36*
G01*
X129169997Y-90790000D02*
X131370003Y-90790000D01*
G75*
G02*
X131620000Y-91039997I0J-249997D01*
G01*
X131620000Y-91865003D01*
G75*
G02*
X131370003Y-92115000I-249997J0D01*
G01*
X129169997Y-92115000D01*
G75*
G02*
X128920000Y-91865003I0J249997D01*
G01*
X128920000Y-91039997D01*
G75*
G02*
X129169997Y-90790000I249997J0D01*
G01*
G37*
G36*
G01*
X129169997Y-87665000D02*
X131370003Y-87665000D01*
G75*
G02*
X131620000Y-87914997I0J-249997D01*
G01*
X131620000Y-88740003D01*
G75*
G02*
X131370003Y-88990000I-249997J0D01*
G01*
X129169997Y-88990000D01*
G75*
G02*
X128920000Y-88740003I0J249997D01*
G01*
X128920000Y-87914997D01*
G75*
G02*
X129169997Y-87665000I249997J0D01*
G01*
G37*
%TD*%
%TO.C,C2*%
G36*
G01*
X158000003Y-83400000D02*
X155799997Y-83400000D01*
G75*
G02*
X155550000Y-83150003I0J249997D01*
G01*
X155550000Y-82324997D01*
G75*
G02*
X155799997Y-82075000I249997J0D01*
G01*
X158000003Y-82075000D01*
G75*
G02*
X158250000Y-82324997I0J-249997D01*
G01*
X158250000Y-83150003D01*
G75*
G02*
X158000003Y-83400000I-249997J0D01*
G01*
G37*
G36*
G01*
X158000003Y-86525000D02*
X155799997Y-86525000D01*
G75*
G02*
X155550000Y-86275003I0J249997D01*
G01*
X155550000Y-85449997D01*
G75*
G02*
X155799997Y-85200000I249997J0D01*
G01*
X158000003Y-85200000D01*
G75*
G02*
X158250000Y-85449997I0J-249997D01*
G01*
X158250000Y-86275003D01*
G75*
G02*
X158000003Y-86525000I-249997J0D01*
G01*
G37*
%TD*%
%TO.C,C1*%
G36*
G01*
X170200003Y-83400000D02*
X167999997Y-83400000D01*
G75*
G02*
X167750000Y-83150003I0J249997D01*
G01*
X167750000Y-82324997D01*
G75*
G02*
X167999997Y-82075000I249997J0D01*
G01*
X170200003Y-82075000D01*
G75*
G02*
X170450000Y-82324997I0J-249997D01*
G01*
X170450000Y-83150003D01*
G75*
G02*
X170200003Y-83400000I-249997J0D01*
G01*
G37*
G36*
G01*
X170200003Y-86525000D02*
X167999997Y-86525000D01*
G75*
G02*
X167750000Y-86275003I0J249997D01*
G01*
X167750000Y-85449997D01*
G75*
G02*
X167999997Y-85200000I249997J0D01*
G01*
X170200003Y-85200000D01*
G75*
G02*
X170450000Y-85449997I0J-249997D01*
G01*
X170450000Y-86275003D01*
G75*
G02*
X170200003Y-86525000I-249997J0D01*
G01*
G37*
%TD*%
M02*
