%TF.GenerationSoftware,KiCad,Pcbnew,5.1.9+dfsg1-1+deb11u1*%
%TF.CreationDate,2025-09-19T15:47:38+02:00*%
%TF.ProjectId,ESP32-BOBOARD-5V,45535033-322d-4424-9f42-4f4152442d35,PCB_V1.1*%
%TF.SameCoordinates,Original*%
%TF.FileFunction,Paste,Top*%
%TF.FilePolarity,Positive*%
%FSLAX46Y46*%
G04 Gerber Fmt 4.6, Leading zero omitted, Abs format (unit mm)*
G04 Created by KiCad (PCBNEW 5.1.9+dfsg1-1+deb11u1) date 2025-09-19 15:47:38*
%MOMM*%
%LPD*%
G01*
G04 APERTURE LIST*
%ADD10R,1.000000X2.000000*%
%ADD11R,0.270000X1.000000*%
%ADD12R,0.520000X1.000000*%
%ADD13R,1.250000X0.760000*%
%ADD14R,1.000000X2.510000*%
%ADD15R,3.150000X1.000000*%
G04 APERTURE END LIST*
D10*
%TO.C,J5*%
X170900000Y-76000000D03*
X173700000Y-76000000D03*
D11*
X171050000Y-80200000D03*
X171550000Y-80200000D03*
X172050000Y-80200000D03*
X172550000Y-80200000D03*
X173050000Y-80200000D03*
X173550000Y-80200000D03*
X170550000Y-80200000D03*
X174050000Y-80200000D03*
D12*
X169950000Y-80200000D03*
X174650000Y-80200000D03*
X169200000Y-80200000D03*
X175400000Y-80200000D03*
%TD*%
D13*
%TO.C,SW1*%
X185300000Y-78635000D03*
X192900000Y-77365000D03*
X185300000Y-77365000D03*
X192900000Y-78635000D03*
%TD*%
D14*
%TO.C,J4*%
X156900000Y-77145000D03*
X159440000Y-80455000D03*
X154360000Y-80455000D03*
%TD*%
%TO.C,U4*%
G36*
G01*
X165125000Y-122175000D02*
X165125000Y-121975000D01*
G75*
G02*
X165225000Y-121875000I100000J0D01*
G01*
X166500000Y-121875000D01*
G75*
G02*
X166600000Y-121975000I0J-100000D01*
G01*
X166600000Y-122175000D01*
G75*
G02*
X166500000Y-122275000I-100000J0D01*
G01*
X165225000Y-122275000D01*
G75*
G02*
X165125000Y-122175000I0J100000D01*
G01*
G37*
G36*
G01*
X165125000Y-122825000D02*
X165125000Y-122625000D01*
G75*
G02*
X165225000Y-122525000I100000J0D01*
G01*
X166500000Y-122525000D01*
G75*
G02*
X166600000Y-122625000I0J-100000D01*
G01*
X166600000Y-122825000D01*
G75*
G02*
X166500000Y-122925000I-100000J0D01*
G01*
X165225000Y-122925000D01*
G75*
G02*
X165125000Y-122825000I0J100000D01*
G01*
G37*
G36*
G01*
X165125000Y-123475000D02*
X165125000Y-123275000D01*
G75*
G02*
X165225000Y-123175000I100000J0D01*
G01*
X166500000Y-123175000D01*
G75*
G02*
X166600000Y-123275000I0J-100000D01*
G01*
X166600000Y-123475000D01*
G75*
G02*
X166500000Y-123575000I-100000J0D01*
G01*
X165225000Y-123575000D01*
G75*
G02*
X165125000Y-123475000I0J100000D01*
G01*
G37*
G36*
G01*
X165125000Y-124125000D02*
X165125000Y-123925000D01*
G75*
G02*
X165225000Y-123825000I100000J0D01*
G01*
X166500000Y-123825000D01*
G75*
G02*
X166600000Y-123925000I0J-100000D01*
G01*
X166600000Y-124125000D01*
G75*
G02*
X166500000Y-124225000I-100000J0D01*
G01*
X165225000Y-124225000D01*
G75*
G02*
X165125000Y-124125000I0J100000D01*
G01*
G37*
G36*
G01*
X165125000Y-124775000D02*
X165125000Y-124575000D01*
G75*
G02*
X165225000Y-124475000I100000J0D01*
G01*
X166500000Y-124475000D01*
G75*
G02*
X166600000Y-124575000I0J-100000D01*
G01*
X166600000Y-124775000D01*
G75*
G02*
X166500000Y-124875000I-100000J0D01*
G01*
X165225000Y-124875000D01*
G75*
G02*
X165125000Y-124775000I0J100000D01*
G01*
G37*
G36*
G01*
X165125000Y-125425000D02*
X165125000Y-125225000D01*
G75*
G02*
X165225000Y-125125000I100000J0D01*
G01*
X166500000Y-125125000D01*
G75*
G02*
X166600000Y-125225000I0J-100000D01*
G01*
X166600000Y-125425000D01*
G75*
G02*
X166500000Y-125525000I-100000J0D01*
G01*
X165225000Y-125525000D01*
G75*
G02*
X165125000Y-125425000I0J100000D01*
G01*
G37*
G36*
G01*
X165125000Y-126075000D02*
X165125000Y-125875000D01*
G75*
G02*
X165225000Y-125775000I100000J0D01*
G01*
X166500000Y-125775000D01*
G75*
G02*
X166600000Y-125875000I0J-100000D01*
G01*
X166600000Y-126075000D01*
G75*
G02*
X166500000Y-126175000I-100000J0D01*
G01*
X165225000Y-126175000D01*
G75*
G02*
X165125000Y-126075000I0J100000D01*
G01*
G37*
G36*
G01*
X165125000Y-126725000D02*
X165125000Y-126525000D01*
G75*
G02*
X165225000Y-126425000I100000J0D01*
G01*
X166500000Y-126425000D01*
G75*
G02*
X166600000Y-126525000I0J-100000D01*
G01*
X166600000Y-126725000D01*
G75*
G02*
X166500000Y-126825000I-100000J0D01*
G01*
X165225000Y-126825000D01*
G75*
G02*
X165125000Y-126725000I0J100000D01*
G01*
G37*
G36*
G01*
X165125000Y-127375000D02*
X165125000Y-127175000D01*
G75*
G02*
X165225000Y-127075000I100000J0D01*
G01*
X166500000Y-127075000D01*
G75*
G02*
X166600000Y-127175000I0J-100000D01*
G01*
X166600000Y-127375000D01*
G75*
G02*
X166500000Y-127475000I-100000J0D01*
G01*
X165225000Y-127475000D01*
G75*
G02*
X165125000Y-127375000I0J100000D01*
G01*
G37*
G36*
G01*
X165125000Y-128025000D02*
X165125000Y-127825000D01*
G75*
G02*
X165225000Y-127725000I100000J0D01*
G01*
X166500000Y-127725000D01*
G75*
G02*
X166600000Y-127825000I0J-100000D01*
G01*
X166600000Y-128025000D01*
G75*
G02*
X166500000Y-128125000I-100000J0D01*
G01*
X165225000Y-128125000D01*
G75*
G02*
X165125000Y-128025000I0J100000D01*
G01*
G37*
G36*
G01*
X159400000Y-128025000D02*
X159400000Y-127825000D01*
G75*
G02*
X159500000Y-127725000I100000J0D01*
G01*
X160775000Y-127725000D01*
G75*
G02*
X160875000Y-127825000I0J-100000D01*
G01*
X160875000Y-128025000D01*
G75*
G02*
X160775000Y-128125000I-100000J0D01*
G01*
X159500000Y-128125000D01*
G75*
G02*
X159400000Y-128025000I0J100000D01*
G01*
G37*
G36*
G01*
X159400000Y-127375000D02*
X159400000Y-127175000D01*
G75*
G02*
X159500000Y-127075000I100000J0D01*
G01*
X160775000Y-127075000D01*
G75*
G02*
X160875000Y-127175000I0J-100000D01*
G01*
X160875000Y-127375000D01*
G75*
G02*
X160775000Y-127475000I-100000J0D01*
G01*
X159500000Y-127475000D01*
G75*
G02*
X159400000Y-127375000I0J100000D01*
G01*
G37*
G36*
G01*
X159400000Y-126725000D02*
X159400000Y-126525000D01*
G75*
G02*
X159500000Y-126425000I100000J0D01*
G01*
X160775000Y-126425000D01*
G75*
G02*
X160875000Y-126525000I0J-100000D01*
G01*
X160875000Y-126725000D01*
G75*
G02*
X160775000Y-126825000I-100000J0D01*
G01*
X159500000Y-126825000D01*
G75*
G02*
X159400000Y-126725000I0J100000D01*
G01*
G37*
G36*
G01*
X159400000Y-126075000D02*
X159400000Y-125875000D01*
G75*
G02*
X159500000Y-125775000I100000J0D01*
G01*
X160775000Y-125775000D01*
G75*
G02*
X160875000Y-125875000I0J-100000D01*
G01*
X160875000Y-126075000D01*
G75*
G02*
X160775000Y-126175000I-100000J0D01*
G01*
X159500000Y-126175000D01*
G75*
G02*
X159400000Y-126075000I0J100000D01*
G01*
G37*
G36*
G01*
X159400000Y-125425000D02*
X159400000Y-125225000D01*
G75*
G02*
X159500000Y-125125000I100000J0D01*
G01*
X160775000Y-125125000D01*
G75*
G02*
X160875000Y-125225000I0J-100000D01*
G01*
X160875000Y-125425000D01*
G75*
G02*
X160775000Y-125525000I-100000J0D01*
G01*
X159500000Y-125525000D01*
G75*
G02*
X159400000Y-125425000I0J100000D01*
G01*
G37*
G36*
G01*
X159400000Y-124775000D02*
X159400000Y-124575000D01*
G75*
G02*
X159500000Y-124475000I100000J0D01*
G01*
X160775000Y-124475000D01*
G75*
G02*
X160875000Y-124575000I0J-100000D01*
G01*
X160875000Y-124775000D01*
G75*
G02*
X160775000Y-124875000I-100000J0D01*
G01*
X159500000Y-124875000D01*
G75*
G02*
X159400000Y-124775000I0J100000D01*
G01*
G37*
G36*
G01*
X159400000Y-124125000D02*
X159400000Y-123925000D01*
G75*
G02*
X159500000Y-123825000I100000J0D01*
G01*
X160775000Y-123825000D01*
G75*
G02*
X160875000Y-123925000I0J-100000D01*
G01*
X160875000Y-124125000D01*
G75*
G02*
X160775000Y-124225000I-100000J0D01*
G01*
X159500000Y-124225000D01*
G75*
G02*
X159400000Y-124125000I0J100000D01*
G01*
G37*
G36*
G01*
X159400000Y-123475000D02*
X159400000Y-123275000D01*
G75*
G02*
X159500000Y-123175000I100000J0D01*
G01*
X160775000Y-123175000D01*
G75*
G02*
X160875000Y-123275000I0J-100000D01*
G01*
X160875000Y-123475000D01*
G75*
G02*
X160775000Y-123575000I-100000J0D01*
G01*
X159500000Y-123575000D01*
G75*
G02*
X159400000Y-123475000I0J100000D01*
G01*
G37*
G36*
G01*
X159400000Y-122825000D02*
X159400000Y-122625000D01*
G75*
G02*
X159500000Y-122525000I100000J0D01*
G01*
X160775000Y-122525000D01*
G75*
G02*
X160875000Y-122625000I0J-100000D01*
G01*
X160875000Y-122825000D01*
G75*
G02*
X160775000Y-122925000I-100000J0D01*
G01*
X159500000Y-122925000D01*
G75*
G02*
X159400000Y-122825000I0J100000D01*
G01*
G37*
G36*
G01*
X159400000Y-122175000D02*
X159400000Y-121975000D01*
G75*
G02*
X159500000Y-121875000I100000J0D01*
G01*
X160775000Y-121875000D01*
G75*
G02*
X160875000Y-121975000I0J-100000D01*
G01*
X160875000Y-122175000D01*
G75*
G02*
X160775000Y-122275000I-100000J0D01*
G01*
X159500000Y-122275000D01*
G75*
G02*
X159400000Y-122175000I0J100000D01*
G01*
G37*
%TD*%
%TO.C,U3*%
G36*
G01*
X165125000Y-104175000D02*
X165125000Y-103975000D01*
G75*
G02*
X165225000Y-103875000I100000J0D01*
G01*
X166500000Y-103875000D01*
G75*
G02*
X166600000Y-103975000I0J-100000D01*
G01*
X166600000Y-104175000D01*
G75*
G02*
X166500000Y-104275000I-100000J0D01*
G01*
X165225000Y-104275000D01*
G75*
G02*
X165125000Y-104175000I0J100000D01*
G01*
G37*
G36*
G01*
X165125000Y-104825000D02*
X165125000Y-104625000D01*
G75*
G02*
X165225000Y-104525000I100000J0D01*
G01*
X166500000Y-104525000D01*
G75*
G02*
X166600000Y-104625000I0J-100000D01*
G01*
X166600000Y-104825000D01*
G75*
G02*
X166500000Y-104925000I-100000J0D01*
G01*
X165225000Y-104925000D01*
G75*
G02*
X165125000Y-104825000I0J100000D01*
G01*
G37*
G36*
G01*
X165125000Y-105475000D02*
X165125000Y-105275000D01*
G75*
G02*
X165225000Y-105175000I100000J0D01*
G01*
X166500000Y-105175000D01*
G75*
G02*
X166600000Y-105275000I0J-100000D01*
G01*
X166600000Y-105475000D01*
G75*
G02*
X166500000Y-105575000I-100000J0D01*
G01*
X165225000Y-105575000D01*
G75*
G02*
X165125000Y-105475000I0J100000D01*
G01*
G37*
G36*
G01*
X165125000Y-106125000D02*
X165125000Y-105925000D01*
G75*
G02*
X165225000Y-105825000I100000J0D01*
G01*
X166500000Y-105825000D01*
G75*
G02*
X166600000Y-105925000I0J-100000D01*
G01*
X166600000Y-106125000D01*
G75*
G02*
X166500000Y-106225000I-100000J0D01*
G01*
X165225000Y-106225000D01*
G75*
G02*
X165125000Y-106125000I0J100000D01*
G01*
G37*
G36*
G01*
X165125000Y-106775000D02*
X165125000Y-106575000D01*
G75*
G02*
X165225000Y-106475000I100000J0D01*
G01*
X166500000Y-106475000D01*
G75*
G02*
X166600000Y-106575000I0J-100000D01*
G01*
X166600000Y-106775000D01*
G75*
G02*
X166500000Y-106875000I-100000J0D01*
G01*
X165225000Y-106875000D01*
G75*
G02*
X165125000Y-106775000I0J100000D01*
G01*
G37*
G36*
G01*
X165125000Y-107425000D02*
X165125000Y-107225000D01*
G75*
G02*
X165225000Y-107125000I100000J0D01*
G01*
X166500000Y-107125000D01*
G75*
G02*
X166600000Y-107225000I0J-100000D01*
G01*
X166600000Y-107425000D01*
G75*
G02*
X166500000Y-107525000I-100000J0D01*
G01*
X165225000Y-107525000D01*
G75*
G02*
X165125000Y-107425000I0J100000D01*
G01*
G37*
G36*
G01*
X165125000Y-108075000D02*
X165125000Y-107875000D01*
G75*
G02*
X165225000Y-107775000I100000J0D01*
G01*
X166500000Y-107775000D01*
G75*
G02*
X166600000Y-107875000I0J-100000D01*
G01*
X166600000Y-108075000D01*
G75*
G02*
X166500000Y-108175000I-100000J0D01*
G01*
X165225000Y-108175000D01*
G75*
G02*
X165125000Y-108075000I0J100000D01*
G01*
G37*
G36*
G01*
X165125000Y-108725000D02*
X165125000Y-108525000D01*
G75*
G02*
X165225000Y-108425000I100000J0D01*
G01*
X166500000Y-108425000D01*
G75*
G02*
X166600000Y-108525000I0J-100000D01*
G01*
X166600000Y-108725000D01*
G75*
G02*
X166500000Y-108825000I-100000J0D01*
G01*
X165225000Y-108825000D01*
G75*
G02*
X165125000Y-108725000I0J100000D01*
G01*
G37*
G36*
G01*
X165125000Y-109375000D02*
X165125000Y-109175000D01*
G75*
G02*
X165225000Y-109075000I100000J0D01*
G01*
X166500000Y-109075000D01*
G75*
G02*
X166600000Y-109175000I0J-100000D01*
G01*
X166600000Y-109375000D01*
G75*
G02*
X166500000Y-109475000I-100000J0D01*
G01*
X165225000Y-109475000D01*
G75*
G02*
X165125000Y-109375000I0J100000D01*
G01*
G37*
G36*
G01*
X165125000Y-110025000D02*
X165125000Y-109825000D01*
G75*
G02*
X165225000Y-109725000I100000J0D01*
G01*
X166500000Y-109725000D01*
G75*
G02*
X166600000Y-109825000I0J-100000D01*
G01*
X166600000Y-110025000D01*
G75*
G02*
X166500000Y-110125000I-100000J0D01*
G01*
X165225000Y-110125000D01*
G75*
G02*
X165125000Y-110025000I0J100000D01*
G01*
G37*
G36*
G01*
X159400000Y-110025000D02*
X159400000Y-109825000D01*
G75*
G02*
X159500000Y-109725000I100000J0D01*
G01*
X160775000Y-109725000D01*
G75*
G02*
X160875000Y-109825000I0J-100000D01*
G01*
X160875000Y-110025000D01*
G75*
G02*
X160775000Y-110125000I-100000J0D01*
G01*
X159500000Y-110125000D01*
G75*
G02*
X159400000Y-110025000I0J100000D01*
G01*
G37*
G36*
G01*
X159400000Y-109375000D02*
X159400000Y-109175000D01*
G75*
G02*
X159500000Y-109075000I100000J0D01*
G01*
X160775000Y-109075000D01*
G75*
G02*
X160875000Y-109175000I0J-100000D01*
G01*
X160875000Y-109375000D01*
G75*
G02*
X160775000Y-109475000I-100000J0D01*
G01*
X159500000Y-109475000D01*
G75*
G02*
X159400000Y-109375000I0J100000D01*
G01*
G37*
G36*
G01*
X159400000Y-108725000D02*
X159400000Y-108525000D01*
G75*
G02*
X159500000Y-108425000I100000J0D01*
G01*
X160775000Y-108425000D01*
G75*
G02*
X160875000Y-108525000I0J-100000D01*
G01*
X160875000Y-108725000D01*
G75*
G02*
X160775000Y-108825000I-100000J0D01*
G01*
X159500000Y-108825000D01*
G75*
G02*
X159400000Y-108725000I0J100000D01*
G01*
G37*
G36*
G01*
X159400000Y-108075000D02*
X159400000Y-107875000D01*
G75*
G02*
X159500000Y-107775000I100000J0D01*
G01*
X160775000Y-107775000D01*
G75*
G02*
X160875000Y-107875000I0J-100000D01*
G01*
X160875000Y-108075000D01*
G75*
G02*
X160775000Y-108175000I-100000J0D01*
G01*
X159500000Y-108175000D01*
G75*
G02*
X159400000Y-108075000I0J100000D01*
G01*
G37*
G36*
G01*
X159400000Y-107425000D02*
X159400000Y-107225000D01*
G75*
G02*
X159500000Y-107125000I100000J0D01*
G01*
X160775000Y-107125000D01*
G75*
G02*
X160875000Y-107225000I0J-100000D01*
G01*
X160875000Y-107425000D01*
G75*
G02*
X160775000Y-107525000I-100000J0D01*
G01*
X159500000Y-107525000D01*
G75*
G02*
X159400000Y-107425000I0J100000D01*
G01*
G37*
G36*
G01*
X159400000Y-106775000D02*
X159400000Y-106575000D01*
G75*
G02*
X159500000Y-106475000I100000J0D01*
G01*
X160775000Y-106475000D01*
G75*
G02*
X160875000Y-106575000I0J-100000D01*
G01*
X160875000Y-106775000D01*
G75*
G02*
X160775000Y-106875000I-100000J0D01*
G01*
X159500000Y-106875000D01*
G75*
G02*
X159400000Y-106775000I0J100000D01*
G01*
G37*
G36*
G01*
X159400000Y-106125000D02*
X159400000Y-105925000D01*
G75*
G02*
X159500000Y-105825000I100000J0D01*
G01*
X160775000Y-105825000D01*
G75*
G02*
X160875000Y-105925000I0J-100000D01*
G01*
X160875000Y-106125000D01*
G75*
G02*
X160775000Y-106225000I-100000J0D01*
G01*
X159500000Y-106225000D01*
G75*
G02*
X159400000Y-106125000I0J100000D01*
G01*
G37*
G36*
G01*
X159400000Y-105475000D02*
X159400000Y-105275000D01*
G75*
G02*
X159500000Y-105175000I100000J0D01*
G01*
X160775000Y-105175000D01*
G75*
G02*
X160875000Y-105275000I0J-100000D01*
G01*
X160875000Y-105475000D01*
G75*
G02*
X160775000Y-105575000I-100000J0D01*
G01*
X159500000Y-105575000D01*
G75*
G02*
X159400000Y-105475000I0J100000D01*
G01*
G37*
G36*
G01*
X159400000Y-104825000D02*
X159400000Y-104625000D01*
G75*
G02*
X159500000Y-104525000I100000J0D01*
G01*
X160775000Y-104525000D01*
G75*
G02*
X160875000Y-104625000I0J-100000D01*
G01*
X160875000Y-104825000D01*
G75*
G02*
X160775000Y-104925000I-100000J0D01*
G01*
X159500000Y-104925000D01*
G75*
G02*
X159400000Y-104825000I0J100000D01*
G01*
G37*
G36*
G01*
X159400000Y-104175000D02*
X159400000Y-103975000D01*
G75*
G02*
X159500000Y-103875000I100000J0D01*
G01*
X160775000Y-103875000D01*
G75*
G02*
X160875000Y-103975000I0J-100000D01*
G01*
X160875000Y-104175000D01*
G75*
G02*
X160775000Y-104275000I-100000J0D01*
G01*
X159500000Y-104275000D01*
G75*
G02*
X159400000Y-104175000I0J100000D01*
G01*
G37*
%TD*%
%TO.C,U1*%
G36*
G01*
X165125000Y-86175000D02*
X165125000Y-85975000D01*
G75*
G02*
X165225000Y-85875000I100000J0D01*
G01*
X166500000Y-85875000D01*
G75*
G02*
X166600000Y-85975000I0J-100000D01*
G01*
X166600000Y-86175000D01*
G75*
G02*
X166500000Y-86275000I-100000J0D01*
G01*
X165225000Y-86275000D01*
G75*
G02*
X165125000Y-86175000I0J100000D01*
G01*
G37*
G36*
G01*
X165125000Y-86825000D02*
X165125000Y-86625000D01*
G75*
G02*
X165225000Y-86525000I100000J0D01*
G01*
X166500000Y-86525000D01*
G75*
G02*
X166600000Y-86625000I0J-100000D01*
G01*
X166600000Y-86825000D01*
G75*
G02*
X166500000Y-86925000I-100000J0D01*
G01*
X165225000Y-86925000D01*
G75*
G02*
X165125000Y-86825000I0J100000D01*
G01*
G37*
G36*
G01*
X165125000Y-87475000D02*
X165125000Y-87275000D01*
G75*
G02*
X165225000Y-87175000I100000J0D01*
G01*
X166500000Y-87175000D01*
G75*
G02*
X166600000Y-87275000I0J-100000D01*
G01*
X166600000Y-87475000D01*
G75*
G02*
X166500000Y-87575000I-100000J0D01*
G01*
X165225000Y-87575000D01*
G75*
G02*
X165125000Y-87475000I0J100000D01*
G01*
G37*
G36*
G01*
X165125000Y-88125000D02*
X165125000Y-87925000D01*
G75*
G02*
X165225000Y-87825000I100000J0D01*
G01*
X166500000Y-87825000D01*
G75*
G02*
X166600000Y-87925000I0J-100000D01*
G01*
X166600000Y-88125000D01*
G75*
G02*
X166500000Y-88225000I-100000J0D01*
G01*
X165225000Y-88225000D01*
G75*
G02*
X165125000Y-88125000I0J100000D01*
G01*
G37*
G36*
G01*
X165125000Y-88775000D02*
X165125000Y-88575000D01*
G75*
G02*
X165225000Y-88475000I100000J0D01*
G01*
X166500000Y-88475000D01*
G75*
G02*
X166600000Y-88575000I0J-100000D01*
G01*
X166600000Y-88775000D01*
G75*
G02*
X166500000Y-88875000I-100000J0D01*
G01*
X165225000Y-88875000D01*
G75*
G02*
X165125000Y-88775000I0J100000D01*
G01*
G37*
G36*
G01*
X165125000Y-89425000D02*
X165125000Y-89225000D01*
G75*
G02*
X165225000Y-89125000I100000J0D01*
G01*
X166500000Y-89125000D01*
G75*
G02*
X166600000Y-89225000I0J-100000D01*
G01*
X166600000Y-89425000D01*
G75*
G02*
X166500000Y-89525000I-100000J0D01*
G01*
X165225000Y-89525000D01*
G75*
G02*
X165125000Y-89425000I0J100000D01*
G01*
G37*
G36*
G01*
X165125000Y-90075000D02*
X165125000Y-89875000D01*
G75*
G02*
X165225000Y-89775000I100000J0D01*
G01*
X166500000Y-89775000D01*
G75*
G02*
X166600000Y-89875000I0J-100000D01*
G01*
X166600000Y-90075000D01*
G75*
G02*
X166500000Y-90175000I-100000J0D01*
G01*
X165225000Y-90175000D01*
G75*
G02*
X165125000Y-90075000I0J100000D01*
G01*
G37*
G36*
G01*
X165125000Y-90725000D02*
X165125000Y-90525000D01*
G75*
G02*
X165225000Y-90425000I100000J0D01*
G01*
X166500000Y-90425000D01*
G75*
G02*
X166600000Y-90525000I0J-100000D01*
G01*
X166600000Y-90725000D01*
G75*
G02*
X166500000Y-90825000I-100000J0D01*
G01*
X165225000Y-90825000D01*
G75*
G02*
X165125000Y-90725000I0J100000D01*
G01*
G37*
G36*
G01*
X165125000Y-91375000D02*
X165125000Y-91175000D01*
G75*
G02*
X165225000Y-91075000I100000J0D01*
G01*
X166500000Y-91075000D01*
G75*
G02*
X166600000Y-91175000I0J-100000D01*
G01*
X166600000Y-91375000D01*
G75*
G02*
X166500000Y-91475000I-100000J0D01*
G01*
X165225000Y-91475000D01*
G75*
G02*
X165125000Y-91375000I0J100000D01*
G01*
G37*
G36*
G01*
X165125000Y-92025000D02*
X165125000Y-91825000D01*
G75*
G02*
X165225000Y-91725000I100000J0D01*
G01*
X166500000Y-91725000D01*
G75*
G02*
X166600000Y-91825000I0J-100000D01*
G01*
X166600000Y-92025000D01*
G75*
G02*
X166500000Y-92125000I-100000J0D01*
G01*
X165225000Y-92125000D01*
G75*
G02*
X165125000Y-92025000I0J100000D01*
G01*
G37*
G36*
G01*
X159400000Y-92025000D02*
X159400000Y-91825000D01*
G75*
G02*
X159500000Y-91725000I100000J0D01*
G01*
X160775000Y-91725000D01*
G75*
G02*
X160875000Y-91825000I0J-100000D01*
G01*
X160875000Y-92025000D01*
G75*
G02*
X160775000Y-92125000I-100000J0D01*
G01*
X159500000Y-92125000D01*
G75*
G02*
X159400000Y-92025000I0J100000D01*
G01*
G37*
G36*
G01*
X159400000Y-91375000D02*
X159400000Y-91175000D01*
G75*
G02*
X159500000Y-91075000I100000J0D01*
G01*
X160775000Y-91075000D01*
G75*
G02*
X160875000Y-91175000I0J-100000D01*
G01*
X160875000Y-91375000D01*
G75*
G02*
X160775000Y-91475000I-100000J0D01*
G01*
X159500000Y-91475000D01*
G75*
G02*
X159400000Y-91375000I0J100000D01*
G01*
G37*
G36*
G01*
X159400000Y-90725000D02*
X159400000Y-90525000D01*
G75*
G02*
X159500000Y-90425000I100000J0D01*
G01*
X160775000Y-90425000D01*
G75*
G02*
X160875000Y-90525000I0J-100000D01*
G01*
X160875000Y-90725000D01*
G75*
G02*
X160775000Y-90825000I-100000J0D01*
G01*
X159500000Y-90825000D01*
G75*
G02*
X159400000Y-90725000I0J100000D01*
G01*
G37*
G36*
G01*
X159400000Y-90075000D02*
X159400000Y-89875000D01*
G75*
G02*
X159500000Y-89775000I100000J0D01*
G01*
X160775000Y-89775000D01*
G75*
G02*
X160875000Y-89875000I0J-100000D01*
G01*
X160875000Y-90075000D01*
G75*
G02*
X160775000Y-90175000I-100000J0D01*
G01*
X159500000Y-90175000D01*
G75*
G02*
X159400000Y-90075000I0J100000D01*
G01*
G37*
G36*
G01*
X159400000Y-89425000D02*
X159400000Y-89225000D01*
G75*
G02*
X159500000Y-89125000I100000J0D01*
G01*
X160775000Y-89125000D01*
G75*
G02*
X160875000Y-89225000I0J-100000D01*
G01*
X160875000Y-89425000D01*
G75*
G02*
X160775000Y-89525000I-100000J0D01*
G01*
X159500000Y-89525000D01*
G75*
G02*
X159400000Y-89425000I0J100000D01*
G01*
G37*
G36*
G01*
X159400000Y-88775000D02*
X159400000Y-88575000D01*
G75*
G02*
X159500000Y-88475000I100000J0D01*
G01*
X160775000Y-88475000D01*
G75*
G02*
X160875000Y-88575000I0J-100000D01*
G01*
X160875000Y-88775000D01*
G75*
G02*
X160775000Y-88875000I-100000J0D01*
G01*
X159500000Y-88875000D01*
G75*
G02*
X159400000Y-88775000I0J100000D01*
G01*
G37*
G36*
G01*
X159400000Y-88125000D02*
X159400000Y-87925000D01*
G75*
G02*
X159500000Y-87825000I100000J0D01*
G01*
X160775000Y-87825000D01*
G75*
G02*
X160875000Y-87925000I0J-100000D01*
G01*
X160875000Y-88125000D01*
G75*
G02*
X160775000Y-88225000I-100000J0D01*
G01*
X159500000Y-88225000D01*
G75*
G02*
X159400000Y-88125000I0J100000D01*
G01*
G37*
G36*
G01*
X159400000Y-87475000D02*
X159400000Y-87275000D01*
G75*
G02*
X159500000Y-87175000I100000J0D01*
G01*
X160775000Y-87175000D01*
G75*
G02*
X160875000Y-87275000I0J-100000D01*
G01*
X160875000Y-87475000D01*
G75*
G02*
X160775000Y-87575000I-100000J0D01*
G01*
X159500000Y-87575000D01*
G75*
G02*
X159400000Y-87475000I0J100000D01*
G01*
G37*
G36*
G01*
X159400000Y-86825000D02*
X159400000Y-86625000D01*
G75*
G02*
X159500000Y-86525000I100000J0D01*
G01*
X160775000Y-86525000D01*
G75*
G02*
X160875000Y-86625000I0J-100000D01*
G01*
X160875000Y-86825000D01*
G75*
G02*
X160775000Y-86925000I-100000J0D01*
G01*
X159500000Y-86925000D01*
G75*
G02*
X159400000Y-86825000I0J100000D01*
G01*
G37*
G36*
G01*
X159400000Y-86175000D02*
X159400000Y-85975000D01*
G75*
G02*
X159500000Y-85875000I100000J0D01*
G01*
X160775000Y-85875000D01*
G75*
G02*
X160875000Y-85975000I0J-100000D01*
G01*
X160875000Y-86175000D01*
G75*
G02*
X160775000Y-86275000I-100000J0D01*
G01*
X159500000Y-86275000D01*
G75*
G02*
X159400000Y-86175000I0J100000D01*
G01*
G37*
%TD*%
D15*
%TO.C,J3*%
X207775000Y-86250000D03*
X212825000Y-86250000D03*
X207775000Y-88790000D03*
X212825000Y-88790000D03*
X207775000Y-91330000D03*
X212825000Y-91330000D03*
X207775000Y-93870000D03*
X212825000Y-93870000D03*
X207775000Y-96410000D03*
X212825000Y-96410000D03*
X207775000Y-98950000D03*
X212825000Y-98950000D03*
X207775000Y-101490000D03*
X212825000Y-101490000D03*
X207775000Y-104030000D03*
X212825000Y-104030000D03*
X207775000Y-106570000D03*
X212825000Y-106570000D03*
X207775000Y-109110000D03*
X212825000Y-109110000D03*
X207775000Y-111650000D03*
X212825000Y-111650000D03*
X207775000Y-114190000D03*
X212825000Y-114190000D03*
X207775000Y-116730000D03*
X212825000Y-116730000D03*
X207775000Y-119270000D03*
X212825000Y-119270000D03*
X207775000Y-121810000D03*
X212825000Y-121810000D03*
X207775000Y-124350000D03*
X212825000Y-124350000D03*
%TD*%
%TO.C,C1*%
G36*
G01*
X129725000Y-88075000D02*
X130675000Y-88075000D01*
G75*
G02*
X130925000Y-88325000I0J-250000D01*
G01*
X130925000Y-89000000D01*
G75*
G02*
X130675000Y-89250000I-250000J0D01*
G01*
X129725000Y-89250000D01*
G75*
G02*
X129475000Y-89000000I0J250000D01*
G01*
X129475000Y-88325000D01*
G75*
G02*
X129725000Y-88075000I250000J0D01*
G01*
G37*
G36*
G01*
X129725000Y-90150000D02*
X130675000Y-90150000D01*
G75*
G02*
X130925000Y-90400000I0J-250000D01*
G01*
X130925000Y-91075000D01*
G75*
G02*
X130675000Y-91325000I-250000J0D01*
G01*
X129725000Y-91325000D01*
G75*
G02*
X129475000Y-91075000I0J250000D01*
G01*
X129475000Y-90400000D01*
G75*
G02*
X129725000Y-90150000I250000J0D01*
G01*
G37*
%TD*%
%TO.C,C2*%
G36*
G01*
X145725000Y-87775000D02*
X146675000Y-87775000D01*
G75*
G02*
X146925000Y-88025000I0J-250000D01*
G01*
X146925000Y-88700000D01*
G75*
G02*
X146675000Y-88950000I-250000J0D01*
G01*
X145725000Y-88950000D01*
G75*
G02*
X145475000Y-88700000I0J250000D01*
G01*
X145475000Y-88025000D01*
G75*
G02*
X145725000Y-87775000I250000J0D01*
G01*
G37*
G36*
G01*
X145725000Y-89850000D02*
X146675000Y-89850000D01*
G75*
G02*
X146925000Y-90100000I0J-250000D01*
G01*
X146925000Y-90775000D01*
G75*
G02*
X146675000Y-91025000I-250000J0D01*
G01*
X145725000Y-91025000D01*
G75*
G02*
X145475000Y-90775000I0J250000D01*
G01*
X145475000Y-90100000D01*
G75*
G02*
X145725000Y-89850000I250000J0D01*
G01*
G37*
%TD*%
%TO.C,C3*%
G36*
G01*
X169275000Y-85425000D02*
X168325000Y-85425000D01*
G75*
G02*
X168075000Y-85175000I0J250000D01*
G01*
X168075000Y-84500000D01*
G75*
G02*
X168325000Y-84250000I250000J0D01*
G01*
X169275000Y-84250000D01*
G75*
G02*
X169525000Y-84500000I0J-250000D01*
G01*
X169525000Y-85175000D01*
G75*
G02*
X169275000Y-85425000I-250000J0D01*
G01*
G37*
G36*
G01*
X169275000Y-83350000D02*
X168325000Y-83350000D01*
G75*
G02*
X168075000Y-83100000I0J250000D01*
G01*
X168075000Y-82425000D01*
G75*
G02*
X168325000Y-82175000I250000J0D01*
G01*
X169275000Y-82175000D01*
G75*
G02*
X169525000Y-82425000I0J-250000D01*
G01*
X169525000Y-83100000D01*
G75*
G02*
X169275000Y-83350000I-250000J0D01*
G01*
G37*
%TD*%
%TO.C,C4*%
G36*
G01*
X157475000Y-85525000D02*
X156525000Y-85525000D01*
G75*
G02*
X156275000Y-85275000I0J250000D01*
G01*
X156275000Y-84600000D01*
G75*
G02*
X156525000Y-84350000I250000J0D01*
G01*
X157475000Y-84350000D01*
G75*
G02*
X157725000Y-84600000I0J-250000D01*
G01*
X157725000Y-85275000D01*
G75*
G02*
X157475000Y-85525000I-250000J0D01*
G01*
G37*
G36*
G01*
X157475000Y-83450000D02*
X156525000Y-83450000D01*
G75*
G02*
X156275000Y-83200000I0J250000D01*
G01*
X156275000Y-82525000D01*
G75*
G02*
X156525000Y-82275000I250000J0D01*
G01*
X157475000Y-82275000D01*
G75*
G02*
X157725000Y-82525000I0J-250000D01*
G01*
X157725000Y-83200000D01*
G75*
G02*
X157475000Y-83450000I-250000J0D01*
G01*
G37*
%TD*%
%TO.C,C5*%
G36*
G01*
X169675000Y-102925000D02*
X168725000Y-102925000D01*
G75*
G02*
X168475000Y-102675000I0J250000D01*
G01*
X168475000Y-102000000D01*
G75*
G02*
X168725000Y-101750000I250000J0D01*
G01*
X169675000Y-101750000D01*
G75*
G02*
X169925000Y-102000000I0J-250000D01*
G01*
X169925000Y-102675000D01*
G75*
G02*
X169675000Y-102925000I-250000J0D01*
G01*
G37*
G36*
G01*
X169675000Y-100850000D02*
X168725000Y-100850000D01*
G75*
G02*
X168475000Y-100600000I0J250000D01*
G01*
X168475000Y-99925000D01*
G75*
G02*
X168725000Y-99675000I250000J0D01*
G01*
X169675000Y-99675000D01*
G75*
G02*
X169925000Y-99925000I0J-250000D01*
G01*
X169925000Y-100600000D01*
G75*
G02*
X169675000Y-100850000I-250000J0D01*
G01*
G37*
%TD*%
%TO.C,C6*%
G36*
G01*
X157275000Y-100950000D02*
X156325000Y-100950000D01*
G75*
G02*
X156075000Y-100700000I0J250000D01*
G01*
X156075000Y-100025000D01*
G75*
G02*
X156325000Y-99775000I250000J0D01*
G01*
X157275000Y-99775000D01*
G75*
G02*
X157525000Y-100025000I0J-250000D01*
G01*
X157525000Y-100700000D01*
G75*
G02*
X157275000Y-100950000I-250000J0D01*
G01*
G37*
G36*
G01*
X157275000Y-103025000D02*
X156325000Y-103025000D01*
G75*
G02*
X156075000Y-102775000I0J250000D01*
G01*
X156075000Y-102100000D01*
G75*
G02*
X156325000Y-101850000I250000J0D01*
G01*
X157275000Y-101850000D01*
G75*
G02*
X157525000Y-102100000I0J-250000D01*
G01*
X157525000Y-102775000D01*
G75*
G02*
X157275000Y-103025000I-250000J0D01*
G01*
G37*
%TD*%
%TO.C,C7*%
G36*
G01*
X169675000Y-121125000D02*
X168725000Y-121125000D01*
G75*
G02*
X168475000Y-120875000I0J250000D01*
G01*
X168475000Y-120200000D01*
G75*
G02*
X168725000Y-119950000I250000J0D01*
G01*
X169675000Y-119950000D01*
G75*
G02*
X169925000Y-120200000I0J-250000D01*
G01*
X169925000Y-120875000D01*
G75*
G02*
X169675000Y-121125000I-250000J0D01*
G01*
G37*
G36*
G01*
X169675000Y-119050000D02*
X168725000Y-119050000D01*
G75*
G02*
X168475000Y-118800000I0J250000D01*
G01*
X168475000Y-118125000D01*
G75*
G02*
X168725000Y-117875000I250000J0D01*
G01*
X169675000Y-117875000D01*
G75*
G02*
X169925000Y-118125000I0J-250000D01*
G01*
X169925000Y-118800000D01*
G75*
G02*
X169675000Y-119050000I-250000J0D01*
G01*
G37*
%TD*%
%TO.C,C8*%
G36*
G01*
X157175000Y-119250000D02*
X156225000Y-119250000D01*
G75*
G02*
X155975000Y-119000000I0J250000D01*
G01*
X155975000Y-118325000D01*
G75*
G02*
X156225000Y-118075000I250000J0D01*
G01*
X157175000Y-118075000D01*
G75*
G02*
X157425000Y-118325000I0J-250000D01*
G01*
X157425000Y-119000000D01*
G75*
G02*
X157175000Y-119250000I-250000J0D01*
G01*
G37*
G36*
G01*
X157175000Y-121325000D02*
X156225000Y-121325000D01*
G75*
G02*
X155975000Y-121075000I0J250000D01*
G01*
X155975000Y-120400000D01*
G75*
G02*
X156225000Y-120150000I250000J0D01*
G01*
X157175000Y-120150000D01*
G75*
G02*
X157425000Y-120400000I0J-250000D01*
G01*
X157425000Y-121075000D01*
G75*
G02*
X157175000Y-121325000I-250000J0D01*
G01*
G37*
%TD*%
%TO.C,R5*%
G36*
G01*
X180000000Y-82250001D02*
X180000000Y-81349999D01*
G75*
G02*
X180249999Y-81100000I249999J0D01*
G01*
X180950001Y-81100000D01*
G75*
G02*
X181200000Y-81349999I0J-249999D01*
G01*
X181200000Y-82250001D01*
G75*
G02*
X180950001Y-82500000I-249999J0D01*
G01*
X180249999Y-82500000D01*
G75*
G02*
X180000000Y-82250001I0J249999D01*
G01*
G37*
G36*
G01*
X178000000Y-82250001D02*
X178000000Y-81349999D01*
G75*
G02*
X178249999Y-81100000I249999J0D01*
G01*
X178950001Y-81100000D01*
G75*
G02*
X179200000Y-81349999I0J-249999D01*
G01*
X179200000Y-82250001D01*
G75*
G02*
X178950001Y-82500000I-249999J0D01*
G01*
X178249999Y-82500000D01*
G75*
G02*
X178000000Y-82250001I0J249999D01*
G01*
G37*
%TD*%
%TO.C,R6*%
G36*
G01*
X181200000Y-83349999D02*
X181200000Y-84250001D01*
G75*
G02*
X180950001Y-84500000I-249999J0D01*
G01*
X180249999Y-84500000D01*
G75*
G02*
X180000000Y-84250001I0J249999D01*
G01*
X180000000Y-83349999D01*
G75*
G02*
X180249999Y-83100000I249999J0D01*
G01*
X180950001Y-83100000D01*
G75*
G02*
X181200000Y-83349999I0J-249999D01*
G01*
G37*
G36*
G01*
X179200000Y-83349999D02*
X179200000Y-84250001D01*
G75*
G02*
X178950001Y-84500000I-249999J0D01*
G01*
X178249999Y-84500000D01*
G75*
G02*
X178000000Y-84250001I0J249999D01*
G01*
X178000000Y-83349999D01*
G75*
G02*
X178249999Y-83100000I249999J0D01*
G01*
X178950001Y-83100000D01*
G75*
G02*
X179200000Y-83349999I0J-249999D01*
G01*
G37*
%TD*%
%TO.C,C10*%
G36*
G01*
X179325000Y-76475000D02*
X180275000Y-76475000D01*
G75*
G02*
X180525000Y-76725000I0J-250000D01*
G01*
X180525000Y-77400000D01*
G75*
G02*
X180275000Y-77650000I-250000J0D01*
G01*
X179325000Y-77650000D01*
G75*
G02*
X179075000Y-77400000I0J250000D01*
G01*
X179075000Y-76725000D01*
G75*
G02*
X179325000Y-76475000I250000J0D01*
G01*
G37*
G36*
G01*
X179325000Y-78550000D02*
X180275000Y-78550000D01*
G75*
G02*
X180525000Y-78800000I0J-250000D01*
G01*
X180525000Y-79475000D01*
G75*
G02*
X180275000Y-79725000I-250000J0D01*
G01*
X179325000Y-79725000D01*
G75*
G02*
X179075000Y-79475000I0J250000D01*
G01*
X179075000Y-78800000D01*
G75*
G02*
X179325000Y-78550000I250000J0D01*
G01*
G37*
%TD*%
%TO.C,C9*%
G36*
G01*
X171325000Y-82075000D02*
X172275000Y-82075000D01*
G75*
G02*
X172525000Y-82325000I0J-250000D01*
G01*
X172525000Y-83000000D01*
G75*
G02*
X172275000Y-83250000I-250000J0D01*
G01*
X171325000Y-83250000D01*
G75*
G02*
X171075000Y-83000000I0J250000D01*
G01*
X171075000Y-82325000D01*
G75*
G02*
X171325000Y-82075000I250000J0D01*
G01*
G37*
G36*
G01*
X171325000Y-84150000D02*
X172275000Y-84150000D01*
G75*
G02*
X172525000Y-84400000I0J-250000D01*
G01*
X172525000Y-85075000D01*
G75*
G02*
X172275000Y-85325000I-250000J0D01*
G01*
X171325000Y-85325000D01*
G75*
G02*
X171075000Y-85075000I0J250000D01*
G01*
X171075000Y-84400000D01*
G75*
G02*
X171325000Y-84150000I250000J0D01*
G01*
G37*
%TD*%
%TO.C,R7*%
G36*
G01*
X175300000Y-95650001D02*
X175300000Y-94749999D01*
G75*
G02*
X175549999Y-94500000I249999J0D01*
G01*
X176250001Y-94500000D01*
G75*
G02*
X176500000Y-94749999I0J-249999D01*
G01*
X176500000Y-95650001D01*
G75*
G02*
X176250001Y-95900000I-249999J0D01*
G01*
X175549999Y-95900000D01*
G75*
G02*
X175300000Y-95650001I0J249999D01*
G01*
G37*
G36*
G01*
X177300000Y-95650001D02*
X177300000Y-94749999D01*
G75*
G02*
X177549999Y-94500000I249999J0D01*
G01*
X178250001Y-94500000D01*
G75*
G02*
X178500000Y-94749999I0J-249999D01*
G01*
X178500000Y-95650001D01*
G75*
G02*
X178250001Y-95900000I-249999J0D01*
G01*
X177549999Y-95900000D01*
G75*
G02*
X177300000Y-95650001I0J249999D01*
G01*
G37*
%TD*%
%TO.C,R8*%
G36*
G01*
X177400000Y-92250001D02*
X177400000Y-91349999D01*
G75*
G02*
X177649999Y-91100000I249999J0D01*
G01*
X178350001Y-91100000D01*
G75*
G02*
X178600000Y-91349999I0J-249999D01*
G01*
X178600000Y-92250001D01*
G75*
G02*
X178350001Y-92500000I-249999J0D01*
G01*
X177649999Y-92500000D01*
G75*
G02*
X177400000Y-92250001I0J249999D01*
G01*
G37*
G36*
G01*
X175400000Y-92250001D02*
X175400000Y-91349999D01*
G75*
G02*
X175649999Y-91100000I249999J0D01*
G01*
X176350001Y-91100000D01*
G75*
G02*
X176600000Y-91349999I0J-249999D01*
G01*
X176600000Y-92250001D01*
G75*
G02*
X176350001Y-92500000I-249999J0D01*
G01*
X175649999Y-92500000D01*
G75*
G02*
X175400000Y-92250001I0J249999D01*
G01*
G37*
%TD*%
%TO.C,R1*%
G36*
G01*
X160200000Y-94049999D02*
X160200000Y-94950001D01*
G75*
G02*
X159950001Y-95200000I-249999J0D01*
G01*
X159249999Y-95200000D01*
G75*
G02*
X159000000Y-94950001I0J249999D01*
G01*
X159000000Y-94049999D01*
G75*
G02*
X159249999Y-93800000I249999J0D01*
G01*
X159950001Y-93800000D01*
G75*
G02*
X160200000Y-94049999I0J-249999D01*
G01*
G37*
G36*
G01*
X158200000Y-94049999D02*
X158200000Y-94950001D01*
G75*
G02*
X157950001Y-95200000I-249999J0D01*
G01*
X157249999Y-95200000D01*
G75*
G02*
X157000000Y-94950001I0J249999D01*
G01*
X157000000Y-94049999D01*
G75*
G02*
X157249999Y-93800000I249999J0D01*
G01*
X157950001Y-93800000D01*
G75*
G02*
X158200000Y-94049999I0J-249999D01*
G01*
G37*
%TD*%
%TO.C,R2*%
G36*
G01*
X145150001Y-121600000D02*
X144249999Y-121600000D01*
G75*
G02*
X144000000Y-121350001I0J249999D01*
G01*
X144000000Y-120649999D01*
G75*
G02*
X144249999Y-120400000I249999J0D01*
G01*
X145150001Y-120400000D01*
G75*
G02*
X145400000Y-120649999I0J-249999D01*
G01*
X145400000Y-121350001D01*
G75*
G02*
X145150001Y-121600000I-249999J0D01*
G01*
G37*
G36*
G01*
X145150001Y-123600000D02*
X144249999Y-123600000D01*
G75*
G02*
X144000000Y-123350001I0J249999D01*
G01*
X144000000Y-122649999D01*
G75*
G02*
X144249999Y-122400000I249999J0D01*
G01*
X145150001Y-122400000D01*
G75*
G02*
X145400000Y-122649999I0J-249999D01*
G01*
X145400000Y-123350001D01*
G75*
G02*
X145150001Y-123600000I-249999J0D01*
G01*
G37*
%TD*%
%TO.C,R3*%
G36*
G01*
X158200000Y-112249999D02*
X158200000Y-113150001D01*
G75*
G02*
X157950001Y-113400000I-249999J0D01*
G01*
X157249999Y-113400000D01*
G75*
G02*
X157000000Y-113150001I0J249999D01*
G01*
X157000000Y-112249999D01*
G75*
G02*
X157249999Y-112000000I249999J0D01*
G01*
X157950001Y-112000000D01*
G75*
G02*
X158200000Y-112249999I0J-249999D01*
G01*
G37*
G36*
G01*
X160200000Y-112249999D02*
X160200000Y-113150001D01*
G75*
G02*
X159950001Y-113400000I-249999J0D01*
G01*
X159249999Y-113400000D01*
G75*
G02*
X159000000Y-113150001I0J249999D01*
G01*
X159000000Y-112249999D01*
G75*
G02*
X159249999Y-112000000I249999J0D01*
G01*
X159950001Y-112000000D01*
G75*
G02*
X160200000Y-112249999I0J-249999D01*
G01*
G37*
%TD*%
%TO.C,R4*%
G36*
G01*
X160300000Y-129949999D02*
X160300000Y-130850001D01*
G75*
G02*
X160050001Y-131100000I-249999J0D01*
G01*
X159349999Y-131100000D01*
G75*
G02*
X159100000Y-130850001I0J249999D01*
G01*
X159100000Y-129949999D01*
G75*
G02*
X159349999Y-129700000I249999J0D01*
G01*
X160050001Y-129700000D01*
G75*
G02*
X160300000Y-129949999I0J-249999D01*
G01*
G37*
G36*
G01*
X158300000Y-129949999D02*
X158300000Y-130850001D01*
G75*
G02*
X158050001Y-131100000I-249999J0D01*
G01*
X157349999Y-131100000D01*
G75*
G02*
X157100000Y-130850001I0J249999D01*
G01*
X157100000Y-129949999D01*
G75*
G02*
X157349999Y-129700000I249999J0D01*
G01*
X158050001Y-129700000D01*
G75*
G02*
X158300000Y-129949999I0J-249999D01*
G01*
G37*
%TD*%
M02*
